<svg id="Layer_1" data-name="Layer 1" xmlns="http://www.w3.org/2000/svg" viewBox="0 0 262.39 38.5"><defs><style>.cls-1,.cls-5{fill:#fff}.cls-2{fill:#ed1a3b}.cls-3{fill:#004fa3}.cls-4{fill:none;stroke-width:.4px;stroke:#fff}.cls-5{stroke:#fff;stroke-width:.27px}</style></defs><title>crest-logotype</title><path class="cls-1" d="M0 4.8h27.27v27.95H0z"/><path class="cls-2" d="M13.62 6.71h11.74V31H13.62z"/><path class="cls-3" d="M14.82 31.04L1.97 31V6.71h11.72V29.5l1.13 1.54z"/><path class="cls-1" d="M452 47.12v.32c2.8.28 3 1.51 3 4.2v2.23c0 2.59.42 7-3.9 7-5.48 0-4.84-5.47-4.84-5.87v-4.4c0-2.33.26-2.76 2.88-3.16v-.32H442v.32c2.4.34 2.42 1 2.48 3.16v4.75c0 1.7-.64 6.45 5.56 6.45 4.44 0 5.54-2.78 5.6-5.52l.12-4.64c.08-2.8.2-4 2-4.2v-.32H452z" transform="translate(-431.84 -29.91)"/><path class="cls-1" d="M443.86 53.09v-.39c-3.74-.57-3.35-1.43-1.23-6.78l2.9-7.38 3.94 10.06c.64 1.64 1.77 3.73-1.7 4.09v.39h7.8v-.38c-2.19-.26-2.76-1.93-3.49-3.83l-5.56-14.1h-.34l-4.7 11.89c-1.53 3.78-2.24 5.84-4.55 6v.39h6.94z" transform="translate(-431.84 -29.91)"/><path class="cls-4" d="M34.84 0v38.5"/><path class="cls-1" d="M482.88 43.94c-.16-.49-.25-.56-.91-.56h-3.36a.66.66 0 0 0-.85.53l-.76 2.34a8.52 8.52 0 0 0-.49 1.85c0 .27.11.4.65.45l.73.07a.36.36 0 0 1 0 .56c-.58 0-1.27 0-2.32-.07-.73 0-1.54 0-2.14.07a.44.44 0 0 1 0-.56l.73-.07a1.48 1.48 0 0 0 1.34-1.09c.4-1 1-2.47 2-5l2.27-6a3.19 3.19 0 0 0 .23-1.56 2.5 2.5 0 0 0 1.16-.85.32.32 0 0 1 .33.2c.29 1 .65 2 1 3l3.05 9c.65 1.91.94 2.25 1.89 2.36l.6.07a.44.44 0 0 1 0 .56c-.91 0-1.69-.07-2.69-.07s-1.91 0-2.56.07a.37.37 0 0 1 0-.56l.65-.07c.47 0 .78-.18.78-.4a4.57 4.57 0 0 0-.29-1.18zm-4.41-2c-.18.51-.16.53.47.53h2.74c.65 0 .69-.09.49-.69L481 38.17a14.58 14.58 0 0 0-.51-1.4 13.65 13.65 0 0 0-.53 1.31zM495.11 44c.44.9.86 1.77 1.32 2.61.52-.9 1-1.89 1.47-2.86l1.79-3.64a10.74 10.74 0 0 0 1.45-3.66c.65.06 1 .06 1.43.06s1.11 0 1.7-.06a.4.4 0 0 1 0 .48h-.4c-1.2.13-1.35.48-1.34 1.81 0 2 .06 5.55.21 8.3.06 1 0 1.45.93 1.54l.61.06a.35.35 0 0 1 0 .48c-.78 0-1.56-.06-2.25-.06s-1.53 0-2.31.06a.35.35 0 0 1 0-.48l.55-.06c.94-.1.94-.4.94-1.62l-.06-8c-.13.21-.86 1.74-1.24 2.48l-1.7 3.34c-.86 1.68-1.72 3.47-2.06 4.35a.22.22 0 0 1-.19.08.23.23 0 0 1-.17-.08c-.32-1-1.24-2.88-1.68-3.82l-1.72-3.68c-.4-.88-.8-1.87-1.22-2.75-.08 1.18-.13 2.29-.19 3.4s-.13 2.86-.13 4.48c0 1.41.11 1.72.86 1.77l.72.06a.33.33 0 0 1 0 .48c-.65 0-1.39-.06-2.12-.06s-1.3 0-1.95.06a.38.38 0 0 1 0-.48l.42-.06c.8-.1 1.07-.23 1.18-1.56s.21-2.31.32-4.2c.1-1.58.17-3.21.21-4.25 0-1.2-.11-1.45-1.28-1.64h-.31a.36.36 0 0 1 .08-.48c.57 0 1 .06 1.51.06s1 0 1.58-.06a7.29 7.29 0 0 0 1 3.15zm12.42-4.63c0-2 0-2.27-1.16-2.4h-.31a.38.38 0 0 1 0-.48c.82 0 1.47.06 2.25.06h3.59a25.51 25.51 0 0 0 2.58-.06 21.48 21.48 0 0 1 .31 2.54.38.38 0 0 1-.48 0c-.29-.9-.46-1.56-1.45-1.81a9.12 9.12 0 0 0-1.86-.12h-1.37c-.57 0-.57 0-.57.76v3.82c0 .53.06.53.63.53h1.11a7.09 7.09 0 0 0 1.62-.11.68.68 0 0 0 .46-.67l.15-.78a.38.38 0 0 1 .5 0c0 .46-.08 1.2-.08 1.93s.08 1.41.08 1.83a.38.38 0 0 1-.5 0l-.17-.74a.82.82 0 0 0-.56-.67 6.4 6.4 0 0 0-1.47-.1h-1.11c-.57 0-.63 0-.63.52v2.69a3.12 3.12 0 0 0 .36 2c.23.23.63.44 2.31.44a5.59 5.59 0 0 0 2.44-.29 4.79 4.79 0 0 0 1.35-1.85.35.35 0 0 1 .48.13 16.63 16.63 0 0 1-.86 2.65c-1.72 0-3.41-.06-5.11-.06h-1.72c-.82 0-1.47 0-2.59.06a.37.37 0 0 1 0-.48l.63-.06c1.09-.1 1.18-.38 1.18-2.38v-6.9zm11.14.02c0-1.81-.06-2.14-.84-2.23l-.61-.08a.32.32 0 0 1 0-.48c1.07-.1 2.38-.15 4.25-.15a6.76 6.76 0 0 1 3.19.57 2.84 2.84 0 0 1 1.58 2.67 3.53 3.53 0 0 1-2.38 3.19.44.44 0 0 0 .1.46 20.58 20.58 0 0 0 3.83 5.07 2.29 2.29 0 0 0 1.32.53.16.16 0 0 1 0 .27 3 3 0 0 1-.84.1c-1.62 0-2.59-.48-3.95-2.4-.5-.71-1.28-2-1.87-2.88a1.36 1.36 0 0 0-1.35-.61c-.86 0-.9 0-.9.42v2.4c0 2 0 2.23 1.14 2.38l.4.06a.37.37 0 0 1 0 .48c-.86 0-1.51-.06-2.27-.06s-1.49 0-2.38.06a.37.37 0 0 1 0-.48l.48-.06c1.11-.13 1.14-.38 1.14-2.38v-6.85zm1.56 2.73a1.5 1.5 0 0 0 .06.63 3.49 3.49 0 0 0 1.32.1 3.2 3.2 0 0 0 2-.5 2.74 2.74 0 0 0 1-2.37 2.81 2.81 0 0 0-3.13-2.98c-1.18 0-1.24.08-1.24.61v4.46zM531 39.41c0-2 0-2.35-1.16-2.44h-.48a.38.38 0 0 1 0-.48c1 0 1.6.06 2.4.06s1.41 0 2.37-.06a.38.38 0 0 1 0 .48h-.48c-1.13.1-1.16.42-1.16 2.44v6.79c0 2 0 2.29 1.16 2.42l.48.06a.37.37 0 0 1 0 .48c-1 0-1.6-.06-2.37-.06s-1.45 0-2.4.06a.37.37 0 0 1 0-.48l.48-.06c1.13-.13 1.16-.4 1.16-2.42v-6.79zm7.23-1.58a8.22 8.22 0 0 1 5.15-1.62 14.73 14.73 0 0 1 3.38.46 1.43 1.43 0 0 0 .53.08c0 .44.11 1.64.27 2.8a.4.4 0 0 1-.52 0c-.29-1.3-1.14-2.79-3.91-2.79-2.92 0-5.4 1.85-5.4 5.8s2.54 6.22 5.67 6.22a4.07 4.07 0 0 0 4-2.73.4.4 0 0 1 .5.08 7.17 7.17 0 0 1-.92 2.61 3.86 3.86 0 0 0-.67.19 11.22 11.22 0 0 1-3 .44 8.35 8.35 0 0 1-4.75-1.28 6.15 6.15 0 0 1-2.71-5.25 6.34 6.34 0 0 1 2.38-5.01zM556 44.68c-.13-.42-.21-.48-.78-.48h-2.88a.57.57 0 0 0-.73.46l-.67 2a7.31 7.31 0 0 0-.42 1.58c0 .23.1.34.55.38l.63.06a.31.31 0 0 1 0 .48c-.5 0-1.09 0-2-.06-.63 0-1.32 0-1.83.06a.37.37 0 0 1 0-.48l.63-.06a1.27 1.27 0 0 0 1.14-.93c.34-.88.88-2.12 1.68-4.25l1.95-5.15a2.74 2.74 0 0 0 .33-1.35 2.14 2.14 0 0 0 1-.72.27.27 0 0 1 .29.17c.25.84.55 1.72.84 2.56l2.61 7.67c.55 1.64.8 1.93 1.62 2l.51.06a.37.37 0 0 1 0 .48c-.78 0-1.45-.06-2.31-.06s-1.64 0-2.19.06a.32.32 0 0 1 0-.48l.55-.06c.4 0 .67-.15.67-.34a3.93 3.93 0 0 0-.25-1zM552.25 43c-.15.44-.13.46.4.46H555c.55 0 .59-.08.42-.59l-1-3.11a12.34 12.34 0 0 0-.44-1.2 11.88 11.88 0 0 0-.46 1.13zm20.61 2.86c0 .57 0 2.84.06 3.34a.34.34 0 0 1-.36.21c-.23-.32-.78-1-2.44-2.88l-4.43-5c-.52-.59-1.81-2.16-2.21-2.58a4.83 4.83 0 0 0-.1 1.24v4.16a15.82 15.82 0 0 0 .34 3.95 1.29 1.29 0 0 0 1 .36l.59.06a.35.35 0 0 1 0 .48c-.86 0-1.53-.06-2.23-.06s-1.32 0-2 .06a.35.35 0 0 1 0-.48l.52-.06a1 1 0 0 0 .84-.38 18.42 18.42 0 0 0 .25-3.93V38.8a1.75 1.75 0 0 0-.42-1.37A2.07 2.07 0 0 0 561 37h-.32a.33.33 0 0 1 0-.48c.8.06 1.81.06 2.16.06a6.14 6.14 0 0 0 .88-.06 27.41 27.41 0 0 0 3.26 4.2l1.85 2.08c1.3 1.49 2.25 2.54 3.15 3.45a1.94 1.94 0 0 0 .08-.8V41.3c0-.9 0-3.38-.38-3.95a1.72 1.72 0 0 0-1.18-.38h-.32a.32.32 0 0 1 0-.48c.88 0 1.53.06 2.25.06s1.32 0 2-.06a.34.34 0 0 1 0 .48h-.27a1.67 1.67 0 0 0-1.07.4 15.36 15.36 0 0 0-.29 3.93v4.56zM593.33 40c0-1.38 0-3.94-.42-4.61a1.38 1.38 0 0 0-1.11-.47h-.56a.4.4 0 0 1 0-.53c.85 0 1.67.07 2.54.07s1.54 0 2.34-.07a.39.39 0 0 1 0 .53h-.53a1.27 1.27 0 0 0-1.11.53 18.74 18.74 0 0 0-.31 4.54v2.52c0 1.94-.31 4-1.56 5.32a5.86 5.86 0 0 1-4.25 1.63 6.32 6.32 0 0 1-4.16-1.22c-1.18-1-1.74-2.6-1.74-5.25v-5.26c0-2.32 0-2.69-1.34-2.81h-.56a.41.41 0 0 1 0-.53c1.11 0 1.87.07 2.76.07s1.65 0 2.74-.07a.41.41 0 0 1 0 .53h-.53c-1.29.11-1.34.49-1.34 2.81v4.81c0 3.58 1.11 5.94 4.52 5.94 3.23 0 4.45-2.54 4.45-5.92V40zm15.84 5.86c0 .57 0 2.84.06 3.34a.34.34 0 0 1-.36.21c-.23-.32-.78-1-2.44-2.88l-4.43-5c-.51-.59-1.81-2.16-2.21-2.58a4.82 4.82 0 0 0-.1 1.24v4.16a15.77 15.77 0 0 0 .34 3.95 1.29 1.29 0 0 0 1 .36l.59.06a.35.35 0 0 1 0 .48c-.86 0-1.53-.06-2.23-.06s-1.32 0-2 .06a.35.35 0 0 1 0-.48l.51-.06a1 1 0 0 0 .84-.38 18.42 18.42 0 0 0 .25-3.93V38.8a1.75 1.75 0 0 0-.42-1.37 2.07 2.07 0 0 0-1.18-.46h-.33a.33.33 0 0 1 0-.48c.8.06 1.81.06 2.16.06a6.14 6.14 0 0 0 .88-.06 27.35 27.35 0 0 0 3.26 4.2l1.85 2.08c1.3 1.49 2.25 2.54 3.15 3.45a1.94 1.94 0 0 0 .08-.8V41.3c0-.9 0-3.38-.38-3.95a1.72 1.72 0 0 0-1.18-.38h-.32a.32.32 0 0 1 0-.48c.88 0 1.53.06 2.25.06s1.32 0 2-.06a.34.34 0 0 1 0 .48h-.27a1.68 1.68 0 0 0-1.07.4 15.41 15.41 0 0 0-.29 3.93v4.56zm4.68-6.45c0-2 0-2.35-1.16-2.44h-.48a.37.37 0 0 1 0-.48c1 0 1.6.06 2.4.06s1.41 0 2.37-.06a.37.37 0 0 1 0 .48h-.48c-1.13.1-1.16.42-1.16 2.44v6.79c0 2 0 2.29 1.16 2.42l.48.06a.37.37 0 0 1 0 .48c-1 0-1.6-.06-2.37-.06s-1.45 0-2.4.06a.37.37 0 0 1 0-.48l.48-.06c1.13-.13 1.16-.4 1.16-2.42v-6.79zm5.91-.88c-.44-1.07-.73-1.47-1.55-1.56h-.34a.32.32 0 0 1 0-.48c.55 0 1.16.06 2 .06s1.51 0 2.31-.06a.33.33 0 0 1 0 .48L622 37c-.72.1-.88.21-.9.36A23.89 23.89 0 0 0 622 40c.88 2.21 1.76 4.41 2.71 6.58.59-1.26 1.41-3.22 1.83-4.24.57-1.3 1.45-3.45 1.77-4.27a2 2 0 0 0 .17-.74c0-.13-.19-.29-.86-.36h-.34a.33.33 0 0 1 0-.48c.53 0 1.26.06 2 .06s1.22 0 1.85-.06a.37.37 0 0 1 0 .48h-.57a1.22 1.22 0 0 0-1 .67 45.92 45.92 0 0 0-2.05 4.36l-1 2.35c-.76 1.75-1.66 4-2 5a.38.38 0 0 1-.21.06.76.76 0 0 1-.29-.06 19.06 19.06 0 0 0-.88-2.54zm13.44.84c0-2 0-2.27-1.16-2.4h-.3a.38.38 0 0 1 0-.48c.82 0 1.47.06 2.25.06h3.59a25.51 25.51 0 0 0 2.58-.06 21.63 21.63 0 0 1 .31 2.54.38.38 0 0 1-.48 0c-.29-.9-.46-1.56-1.45-1.81a9.11 9.11 0 0 0-1.85-.11h-1.37c-.57 0-.57 0-.57.76v3.82c0 .53.06.53.63.53h1.11a7.1 7.1 0 0 0 1.62-.11.68.68 0 0 0 .46-.67l.15-.78a.38.38 0 0 1 .5 0c0 .46-.08 1.2-.08 1.93s.08 1.41.08 1.83a.38.38 0 0 1-.5 0l-.17-.74A.81.81 0 0 0 638 43a6.4 6.4 0 0 0-1.47-.1h-1.11c-.57 0-.63 0-.63.52v2.69a3.12 3.12 0 0 0 .36 2c.23.23.63.44 2.31.44a5.59 5.59 0 0 0 2.44-.29 4.8 4.8 0 0 0 1.35-1.85.35.35 0 0 1 .48.13 16.57 16.57 0 0 1-.86 2.65c-1.72 0-3.41-.06-5.11-.06H634c-.82 0-1.47 0-2.59.06a.37.37 0 0 1 0-.48l.63-.06c1.09-.1 1.18-.38 1.18-2.38v-6.9zm11.14.02c0-1.81-.06-2.14-.84-2.23l-.61-.08a.32.32 0 0 1 0-.48c1.07-.1 2.38-.15 4.25-.15a6.75 6.75 0 0 1 3.19.57 2.84 2.84 0 0 1 1.58 2.67 3.53 3.53 0 0 1-2.38 3.19.44.44 0 0 0 .1.46 20.61 20.61 0 0 0 3.84 5.07 2.29 2.29 0 0 0 1.32.53.16.16 0 0 1 0 .27 3 3 0 0 1-.84.1c-1.62 0-2.6-.48-3.95-2.4-.5-.71-1.28-2-1.87-2.88a1.36 1.36 0 0 0-1.36-.61c-.86 0-.9 0-.9.42v2.4c0 2 0 2.23 1.14 2.38l.4.06a.37.37 0 0 1 0 .48c-.86 0-1.51-.06-2.27-.06s-1.49 0-2.38.06a.37.37 0 0 1 0-.48l.48-.06c1.11-.13 1.14-.38 1.14-2.38v-6.85zm1.56 2.73a1.51 1.51 0 0 0 .06.63 3.5 3.5 0 0 0 1.32.1 3.19 3.19 0 0 0 2-.5 2.73 2.73 0 0 0 1-2.37 2.81 2.81 0 0 0-3.14-2.98c-1.18 0-1.24.08-1.24.61v4.46zm12.58 7.29a6 6 0 0 1-3-.71A8.78 8.78 0 0 1 655 46a.33.33 0 0 1 .46-.06 3.47 3.47 0 0 0 3.28 2.84 2.17 2.17 0 0 0 2.38-2.19 2.87 2.87 0 0 0-1.58-2.59l-1.81-1.18a4.07 4.07 0 0 1-2.06-3.28c0-1.81 1.41-3.28 3.89-3.28a6.54 6.54 0 0 1 1.77.25 3.75 3.75 0 0 0 .67.11 8.33 8.33 0 0 1 .34 2.33.38.38 0 0 1-.48.06 2.5 2.5 0 0 0-2.59-2.16 2 2 0 0 0-2.27 2.07 3 3 0 0 0 1.62 2.35l1.53 1a4.3 4.3 0 0 1 2.38 3.66c.01 2.07-1.53 3.48-4.05 3.48zm7.52-10c0-2 0-2.35-1.16-2.44h-.48a.38.38 0 0 1 0-.48c1 0 1.6.06 2.4.06s1.41 0 2.37-.06a.38.38 0 0 1 0 .48h-.48c-1.13.1-1.16.42-1.16 2.44v6.79c0 2 0 2.29 1.16 2.42l.48.06a.38.38 0 0 1 0 .48c-1 0-1.6-.06-2.37-.06s-1.45 0-2.4.06a.37.37 0 0 1 0-.48l.48-.06c1.13-.13 1.16-.4 1.16-2.42v-6.79zm11 6.83c0 2 0 2.27 1.14 2.38l.61.06a.37.37 0 0 1 0 .48c-1.09 0-1.74-.06-2.5-.06s-1.43 0-2.65.06a.33.33 0 0 1 0-.48l.69-.06c1.09-.1 1.18-.38 1.18-2.38v-8.53c0-.59 0-.61-.57-.61h-1a3.91 3.91 0 0 0-2.35.48 3.47 3.47 0 0 0-.86 1.32.37.37 0 0 1-.5-.13 20.2 20.2 0 0 0 .72-2.84.48.48 0 0 1 .36 0c.11.61.74.59 1.62.59h7.73c1 0 1.2 0 1.49-.53a.35.35 0 0 1 .34.06 11.55 11.55 0 0 0-.29 2.9.36.36 0 0 1-.5 0 2.41 2.41 0 0 0-.48-1.39 3.8 3.8 0 0 0-2.21-.48h-1.35c-.57 0-.55 0-.55.65v8.49zm12-.04c0 2 .11 2.35 1.14 2.42l.72.06a.37.37 0 0 1 0 .48c-1.18 0-1.83-.06-2.59-.06s-1.49 0-2.5.06a.37.37 0 0 1 0-.48l.59-.06c1.11-.11 1.14-.38 1.14-2.42v-1a3.84 3.84 0 0 0-.61-2.37l-2.25-4.39c-.65-1.26-.93-1.35-1.51-1.45l-.53-.1a.35.35 0 0 1 0-.48c.61 0 1.3.06 2.21.06s1.56 0 2-.06a.32.32 0 0 1 .06.48h-.25c-.67.11-.8.19-.8.34a9.49 9.49 0 0 0 .59 1.47c.71 1.41 1.41 2.92 2.16 4.23.59-1 1.22-2.12 1.79-3.22a17.41 17.41 0 0 0 1.24-2.52 1 1 0 0 0-.8-.31h-.34a.32.32 0 0 1 0-.48c.69 0 1.24.06 1.83.06s1.13 0 1.77-.06a.32.32 0 0 1 0 .48l-.53.1c-1 .15-1.56 1.37-2.52 3l-1.2 2.08a4.28 4.28 0 0 0-.9 3.09v1z" transform="translate(-431.84 -29.91)"/><path class="cls-5" d="M654.32 61.58h.88v.8a1.18 1.18 0 0 1-.87 1.25v-.4a.76.76 0 0 0 .46-.77h-.47v-.88zm-167.52.88h-.8l-1.3-4.77-1.31 4.77h-.79l-1.45-5.68h.77l1.08 4.73 1.27-4.72h.82l1.26 4.72 1.15-4.72h.76zm15.54-5.85h.83l2.22 5.68h-.83l-.62-1.71h-2.4l-.64 1.71h-.78zm-.56 3.33h1.92l-.95-2.65zm19.77-1.49a1.24 1.24 0 0 0-1.41-1.16 1.06 1.06 0 0 0-1.27 1c0 .7.91.8 1.82 1s1.81.52 1.81 1.64-1.18 1.69-2.22 1.69c-1.27 0-2.35-.62-2.35-2h.72a1.44 1.44 0 0 0 1.66 1.38 1.18 1.18 0 0 0 1.44-1c0-.78-.91-.92-1.81-1.11s-1.82-.46-1.82-1.5a1.8 1.8 0 0 1 2.06-1.66 1.83 1.83 0 0 1 2.09 1.8h-.72zm14.26-1.66h.76v2.44h3v-2.44h.76v5.68h-.76v-2.6h-3v2.6h-.76v-5.68zm17.77 0h.75v5.68h-.75v-5.68zm14.42 0h.8l3 4.6v-4.6h.72v5.68h-.83l-3-4.55v4.55H568v-5.68zm21.73 4.97a2.22 2.22 0 0 1-1.82.84 2.72 2.72 0 0 1-2.7-2.86c0-1.65.91-3.08 2.7-3.08a2.2 2.2 0 0 1 2.44 1.88h-.75a1.54 1.54 0 0 0-1.69-1.25c-1.37 0-1.95 1.19-1.95 2.41a2 2 0 0 0 1.95 2.3 1.71 1.71 0 0 0 1.82-1.85h-1.81v-.68h2.49v3h-.48zm15.44-4.34h-1.89v-.63h4.54v.64h-1.89v5h-.76v-5zm17.65-.77a3 3 0 1 1-2.72 3 2.72 2.72 0 0 1 2.72-3zm0 5.31a2.37 2.37 0 1 0-2-2.34 2.07 2.07 0 0 0 2 2.38zM639 56.79h.8l3 4.6v-4.6h.72v5.68h-.83l-3-4.55v4.55H639v-5.68zm30.44 0h1.95a2.42 2.42 0 0 1 2.73 2.7c0 1.9-.84 3-2.73 3h-1.95v-5.7zm.75 5h1.26c.52 0 1.91-.14 1.91-2.23 0-1.35-.5-2.17-1.89-2.17h-1.27v4.4zm16.6-3.29a1.5 1.5 0 0 0-1.59-1.21c-1.35 0-1.92 1.11-1.92 2.3s.57 2.41 1.93 2.41a1.61 1.61 0 0 0 1.64-1.64h.76a2.31 2.31 0 0 1-2.46 2.27c-1.76 0-2.62-1.3-2.62-3a2.69 2.69 0 0 1 2.69-3 2.17 2.17 0 0 1 2.34 1.84h-.75z" transform="translate(-431.84 -29.91)"/></svg>