<svg xmlns="http://www.w3.org/2000/svg" viewBox="0 0 204.5 46"><path fill="#D57528" d="M37 .8H3.2C2 .8 1 1.7 1 3v19.1h38.2V3c0-1.3-1-2.2-2.2-2.2z"/><path fill="#EC8123" d="M1 42.5c0 1.2 1 2.2 2.2 2.2H37c1.2 0 2.2-1 2.2-2.2V23.1H1v19.4z"/><path fill="#D57528" d="M76.1.8H42.3c-1.2 0-2.2 1-2.2 2.2v19.1h38.2V3c0-1.3-1-2.2-2.2-2.2z"/><path fill="#EC8123" d="M40.1 42.5c0 1.2 1 2.2 2.2 2.2h33.8c1.2 0 2.2-1 2.2-2.2V23.1H40.1v19.4z"/><path fill="#D57528" d="M115.1.8H81.4c-1.2 0-2.2 1-2.2 2.2v19.1h38.2V3c-.1-1.3-1-2.2-2.3-2.2z"/><path fill="#EC8123" d="M79.2 42.5c0 1.2 1 2.2 2.2 2.2h33.8c1.2 0 2.2-1 2.2-2.2V23.1H79.2v19.4z"/><path fill="#D57528" d="M154.2.8h-33.8c-1.2 0-2.2 1-2.2 2.2v19.1h38.2V3c0-1.3-1-2.2-2.2-2.2z"/><path fill="#EC8123" d="M118.3 42.5c0 1.2 1 2.2 2.2 2.2h33.8c1.2 0 2.2-1 2.2-2.2V23.1h-38.2v19.4z"/><path fill="#D57528" d="M193.3.8h-33.8c-1.2 0-2.2 1-2.2 2.2v19.1h38.2V3c0-1.3-1-2.2-2.2-2.2z"/><path fill="#EC8123" d="M157.3 42.5c0 1.2 1 2.2 2.2 2.2h33.8c1.2 0 2.2-1 2.2-2.2V23.1h-38.2v19.4z"/><path fill="#DCDDDE" d="M21.6 21.8c-.2-.5.1-.8.1-.8l2.8-5.3s2.5-4.6 2.9-5.5-.2-1.4-.8-1.4h-2.8c-.5 0-.8.3-1.1.9-.3.5-4.1 7.3-5.9 10.5v-9.9c0-.8-.7-1.5-1.5-1.5h-2.1c-.8 0-1.5.7-1.5 1.5v11.8h10c-.1-.2-.1-.3-.1-.3z"/><path fill="#FFF" d="M28.2 34.9c-.3-.5-4.4-8.5-6-11.8H11.7v12.2c0 .8.7 1.5 1.5 1.5h2.1c.8 0 1.5-.7 1.5-1.5V23.4c1.9 3.6 6.1 11.8 6.4 12.4.4.8 1 .9 1.4.9h3c1.1.1 1-1.2.6-1.8zm40.7.9l-2.8-12.6h-4.7l.8 3.7h-5.7l.8-3.7h-4.7l-2.9 12.6c-.1.6.3 1.1.9 1.1h2.5c.6 0 1.2-.5 1.3-1.1l1.1-4.8H63l1.1 4.8c.1.6.7 1.1 1.3 1.1h2.5c.8 0 1.2-.5 1-1.1z"/><path fill="#DCDDDE" d="M59.4 14.2l1.8 7.9h4.7L63.1 9.7c-.1-.6-.6-.9-1.2-.9h-5c-.6 0-1.1.3-1.2.8L52.9 22h4.7l1.8-7.8zm47.9-5.4H105c-.6 0-1.2.3-1.5.8 0 0-4.5 9-4.7 9.3-.2.3-.3 0-.3 0l-4.8-9.4c-.3-.5-.8-.7-1.4-.7h-2.5c-.6 0-.9.4-.6 1 0 0 4.5 9.1 6.1 12.3h6.5l6.3-12.3c.3-.5-.2-1-.8-1z"/><path fill="#FFF" d="M95.8 23.2c.2.4.1.7.1.7v11.6c0 .8.7 1.5 1.5 1.5h2.1c.8 0 1.5-.7 1.5-1.5V24c0-.4.1-.7.2-.8h-5.4c0-.1 0 0 0 0z"/><path fill="#DCDDDE" d="M137.6 14.2l1.8 7.9h4.7l-2.8-12.4c-.1-.6-.6-.9-1.2-.9h-5c-.6 0-1.1.3-1.2.8L131.1 22h4.7l1.8-7.8z"/><path fill="#FFF" d="M147.2 35.8l-2.8-12.6h-4.7l.8 3.7h-5.7l.8-3.7h-4.7L128 35.8c-.1.6.3 1.1.9 1.1h2.5c.6 0 1.2-.5 1.3-1.1l1.1-4.8h7.5l1.1 4.8c.1.6.7 1.1 1.3 1.1h2.5c.7 0 1.1-.5 1-1.1z"/><path fill="#DCDDDE" d="M178.4 21.8c-.2-.5.1-.8.1-.8l2.8-5.3s2.5-4.6 2.9-5.5c.5-.9-.2-1.4-.8-1.4h-2.8c-.5 0-.8.3-1.1.9-.3.5-4.1 7.3-5.9 10.5v-9.9c0-.8-.7-1.5-1.5-1.5H170c-.8 0-1.5.7-1.5 1.5v11.8h10c0-.2 0-.3-.1-.3z"/><path fill="#FFF" d="M185.1 34.9c-.3-.5-4.4-8.5-6-11.8h-10.5v12.2c0 .8.7 1.5 1.5 1.5h2.1c.8 0 1.5-.7 1.5-1.5V23.4c1.9 3.6 6.1 11.8 6.4 12.4.4.8 1 .9 1.4.9h3c1.1.1.9-1.2.6-1.8z"/><path fill="#A8A9AC" d="M200.8.4c.4 0 .8.1 1.2.2.4.1.7.4 1 .7.3.3.5.6.6.9.1.4.2.7.2 1.1 0 .4-.1.8-.2 1.1-.1.4-.4.7-.6.9-.3.3-.6.5-1 .6-.4.1-.7.2-1.1.2-.4 0-.8-.1-1.1-.2-.4-.2-.7-.4-1-.7-.3-.3-.5-.6-.6-1-.1-.4-.2-.7-.2-1.1 0-.4.1-.8.2-1.1.2-.4.4-.7.7-1 .3-.3.6-.5.9-.6.2.1.6 0 1 0zm0 .5c-.3 0-.7.1-1 .2-.3.1-.6.3-.8.5-.2.2-.4.5-.6.8-.1.3-.2.6-.2 1 0 .3.1.6.2 1 .1.3.3.6.5.8.2.2.5.4.8.6.3.1.6.2.9.2.3 0 .7-.1 1-.2.3-.1.6-.3.8-.6.2-.2.4-.5.5-.8.1-.3.2-.6.2-.9 0-.4-.1-.7-.2-1-.1-.3-.3-.6-.5-.8-.2-.2-.5-.4-.8-.6-.2-.2-.5-.2-.8-.2zm-1.2.8h1.3c.5 0 .8.1 1 .2.2.2.4.4.4.7 0 .2-.1.4-.2.6-.1.2-.3.3-.5.3l.7 1.5h-.8l-.7-1.4h-.5V5h-.7V1.7zm.7.4v1h.5c.3 0 .5 0 .6-.1.1-.1.2-.2.2-.4s-.1-.3-.2-.4c-.1-.1-.3-.1-.6-.1h-.5z"/></svg>