<svg id="Layer_1" xmlns="http://www.w3.org/2000/svg" viewBox="0 0 291.6 72.7"><style>.st0{fill:#fff}</style><path class="st0" d="M108.5 6.6H79.3v59.6h28.6c18.5-.2 31.2-13.2 31.2-29.9 0-16.5-12.4-29.2-30.6-29.7zm-.6 49.4H90V16.9h18.1c11.7.3 19.4 8.5 19.4 19.6 0 11.2-7.7 19.3-19.6 19.5zM63.6 17.1V6.6H4v10.5h24.4v38.7H4v10.5h59.6V55.8H39.1V17.1zm148.7 0V6.6h-60.1v59.7h60.1V55.8H163V41.7h38.5V31.2H163V17.1zM254.7 4c-18.1 0-32.8 14.5-32.8 32.4s14.7 32.4 32.8 32.4c18.1 0 32.8-14.5 32.8-32.4C287.4 18.5 272.8 4 254.7 4zm0 53.7c-11.8 0-21.5-9.5-21.5-21.2s9.6-21.2 21.5-21.2c11.8 0 21.5 9.5 21.5 21.2-.1 11.7-9.7 21.2-21.5 21.2z"/></svg>