<svg xmlns="http://www.w3.org/2000/svg" viewBox="0 0 165 26.7"><g fill="#4D4D4F"><path d="M53.2 6.4c-1 0-2 .3-2.9.7-.8.5-1.5 1.2-1.9 2.1-.3-.9-.8-1.6-1.6-2.1S45 6.4 44 6.4c-1.2 0-2.3.3-3.1.8-.8.5-1.4 1.2-1.9 2.1V6.8h-1.9v15.3h2v-8.5c0-.8.1-1.5.3-2.2.2-.7.4-1.2.8-1.7s.8-.9 1.4-1.2c.6-.3 1.2-.4 2-.4.6 0 1.1.1 1.5.3.4.2.7.5 1 .8.2.3.4.7.5 1.2.1.5.2.9.2 1.4v10.4h2v-8.7c0-.7.1-1.4.2-2 .1-.6.3-1.2.6-1.7s.7-.9 1.2-1.2c.5-.3 1.2-.4 2-.4 1.3 0 2.2.3 2.7 1 .5.6.8 1.6.8 2.8v10.3h2V11.8c0-3.6-1.7-5.4-5.1-5.4zm21.2 14c-.7 0-1-.3-1-1v-8.1c0-1-.2-1.9-.5-2.5-.3-.6-.8-1.2-1.3-1.5-.5-.4-1.1-.6-1.8-.7-1.6-.3-3.2-.2-4.4.1-.7.2-1.4.5-1.9.9s-1 1-1.3 1.6c-.3.6-.5 1.4-.6 2.3v.1h2v-.1c0-1.2.4-2.1 1.1-2.6.7-.5 1.7-.8 2.8-.8.5 0 1.1 0 1.5.1.5.1.9.2 1.2.5.3.2.6.5.8.9.2.4.3.9.3 1.5 0 .4-.1.7-.2 1-.1.2-.2.4-.4.6-.2.1-.4.2-.7.3-.3.1-.6.1-1 .1-1 .1-2 .2-3 .4-1 .1-1.9.4-2.6.7-.8.3-1.4.8-1.9 1.4-.5.6-.7 1.5-.7 2.5 0 .8.1 1.5.4 2 .3.6.6 1 1.1 1.4.5.4 1 .6 1.6.8.6.2 1.3.3 2 .3s1.4-.1 1.9-.2 1-.3 1.5-.6c.4-.3.8-.6 1.2-1l.9-1.2c0 .3 0 .6.1.9 0 .3.2.6.3.9.2.2.4.4.7.6.3.1.7.2 1.2.2h.6c.2 0 .4 0 .6-.1h.1v-1.8l-.1.1h-.5zM71.3 14v2.2c0 .7-.1 1.4-.4 2-.3.6-.7 1.1-1.1 1.5-.5.4-1 .7-1.7.9-1 .3-2.2.5-3.2.1-.4-.1-.8-.3-1.1-.6-.3-.3-.5-.6-.7-.9-.2-.3-.3-.8-.3-1.2 0-.7.2-1.3.6-1.7.4-.4 1-.7 1.7-.9.7-.2 1.4-.4 2.3-.5.8-.1 1.6-.2 2.4-.4.3 0 .6-.1.9-.2.3 0 .5-.2.6-.3zm16.4 2.6c-.1.6-.2 1.2-.5 1.7s-.6 1-1 1.3c-.4.4-.8.7-1.3.9-.5.2-1 .3-1.6.3-.9 0-1.6-.2-2.3-.5-.7-.4-1.2-.9-1.6-1.4-.4-.6-.8-1.3-1-2-.2-.8-.3-1.5-.3-2.3 0-.8.1-1.6.3-2.3.2-.8.6-1.5 1-2 .4-.6 1-1.1 1.6-1.4.6-.4 1.4-.5 2.3-.5 1.2 0 2.2.3 2.8.9.7.6 1.1 1.5 1.4 2.6v.1h2v-.1c-.2-1.8-.9-3.1-2-4-1.1-.9-2.5-1.3-4.2-1.3-1.2 0-2.2.2-3.1.7-.9.4-1.7 1-2.3 1.8-.6.7-1.1 1.6-1.4 2.6-.3 1-.5 2-.5 3.1s.2 2.1.5 3.1.8 1.8 1.4 2.6c.6.7 1.4 1.3 2.3 1.7.9.4 1.9.6 3.1.6 1.7 0 3.2-.5 4.3-1.6 1.1-1 1.8-2.5 2.1-4.4v-.1l-2-.1zm20.5-10.2c-1 0-2 .3-2.9.7-.8.5-1.5 1.2-1.9 2.1-.3-.9-.8-1.6-1.6-2.1s-1.8-.7-2.8-.7c-1.2 0-2.3.3-3.1.8-.8.5-1.4 1.2-1.9 2.1V6.8h-1.9v15.3h2v-8.5c0-.8.1-1.5.3-2.2.2-.7.4-1.2.8-1.7s.8-.9 1.4-1.2c.6-.3 1.2-.4 2-.4.6 0 1.1.1 1.5.3.4.2.7.5 1 .8.2.3.4.7.5 1.2.1.5.2.9.2 1.4v10.4h2v-8.7c0-.7.1-1.4.2-2 .1-.6.3-1.2.6-1.7s.7-.9 1.2-1.2c.5-.3 1.2-.4 2-.4 1.3 0 2.2.3 2.7 1 .5.6.8 1.6.8 2.8v10.3h2V11.8c0-3.6-1.7-5.4-5.1-5.4zm9 .4h2v15.3h-2zm6.1-5.8h2v21.2h-2zm6 0h2v21.2h-2zm18.1 19.4c-.7 0-1-.3-1-1v-8.1c0-1-.2-1.9-.5-2.5-.3-.7-.8-1.2-1.3-1.5-.5-.4-1.1-.6-1.8-.7-1.6-.3-3.1-.2-4.4.1-.7.2-1.4.5-1.9.9-.6.4-1 1-1.3 1.6-.3.7-.5 1.4-.6 2.3v.1h2v-.1c0-1.2.4-2.1 1.1-2.6.7-.5 1.7-.8 2.8-.8.5 0 1.1 0 1.5.1.5.1.9.2 1.2.5.3.2.6.5.8.9.2.4.3.9.3 1.5 0 .4-.1.7-.2 1-.1.2-.2.4-.4.6-.2.1-.4.2-.7.3-.3.1-.6.1-1 .1-1 .1-2 .2-3 .4-1 .1-1.9.4-2.6.7-.8.3-1.4.8-1.9 1.4-.5.6-.7 1.5-.7 2.5 0 .8.1 1.5.4 2 .3.6.6 1 1.1 1.4.5.4 1 .6 1.6.8.6.2 1.3.3 2 .3s1.4-.1 1.9-.2 1-.3 1.5-.6c.4-.3.8-.6 1.2-1 .3-.3.6-.8.9-1.2 0 .3 0 .6.1.9 0 .3.2.6.3.9.2.2.4.4.7.6.3.1.7.2 1.2.2h.6c.2 0 .4 0 .6-.1h.1v-1.8l-.1.1h-.5zm-3-6.4v2.2c0 .7-.1 1.4-.4 2-.3.6-.7 1.1-1.1 1.5-.5.4-1 .7-1.7.9-1 .3-2.2.5-3.2.1-.4-.1-.8-.3-1.1-.6-.3-.3-.5-.6-.7-.9-.2-.4-.3-.8-.3-1.2 0-.7.2-1.3.6-1.7.4-.4 1-.7 1.7-.9.7-.2 1.4-.4 2.3-.5.8-.1 1.6-.2 2.4-.4.3 0 .6-.1.9-.2.2 0 .5-.2.6-.3zm18.3-4.1c-.2-.7-.5-1.4-.9-1.9s-1-.9-1.8-1.2c-.7-.3-1.6-.4-2.7-.4s-2.1.3-3 .9c-.8.5-1.5 1.2-1.8 2V6.8h-2v15.3h2v-8.9c0-.7.1-1.4.4-2 .2-.6.5-1.2.9-1.6.4-.4.9-.8 1.4-1.1.6-.3 1.2-.4 1.9-.4s1.3.1 1.8.3c.5.2.9.5 1.2.9.3.4.5.9.6 1.4.1.5.2 1.1.2 1.8V22h2v-9.8c.1-.8 0-1.6-.2-2.3z"/><circle cx="118.3" cy="2.3" r="1.3"/></g><linearGradient id="a" gradientUnits="userSpaceOnUse" x1="1.18" y1="18.899" x2="28.342" y2="17.475"><stop offset="0" stop-color="#ba0d36"/><stop offset=".045" stop-color="#c00e38"/><stop offset=".111" stop-color="#cf123d"/><stop offset=".189" stop-color="#e71745"/><stop offset=".2" stop-color="#ed1847"/><stop offset=".49" stop-color="#f4857e"/><stop offset=".496" stop-color="#e8736f"/><stop offset=".507" stop-color="#da595b"/><stop offset=".521" stop-color="#ce414c"/><stop offset=".537" stop-color="#c52e41"/><stop offset=".556" stop-color="#bf1d3a"/><stop offset=".584" stop-color="#bb1137"/><stop offset=".66" stop-color="#ba0d36"/><stop offset=".706" stop-color="#c52e41"/><stop offset=".801" stop-color="#e16664"/><stop offset=".85" stop-color="#f4857e"/><stop offset="1" stop-color="#ba0d36"/></linearGradient><path fill="url(#a)" d="M28.4 18.4c0-6.8-4.8-7.4-8.5-4.4-2.3 1.9-5.3 5.4-5.3 2.1 0-7.8-7.8-4.4-13 2.3v7.2c5.2-6.7 13-10.2 13-2.3 0 3.3 3-.2 5.3-2.1 3.3-2.7 7.6-2.4 8.4 2.7h.1v-5.5z"/><linearGradient id="b" gradientUnits="userSpaceOnUse" x1="1.193" y1="9.271" x2="28.335" y2="7.849"><stop offset="0" stop-color="#ba0d36"/><stop offset=".048" stop-color="#be0e37"/><stop offset=".1" stop-color="#c8113a"/><stop offset=".155" stop-color="#d81440"/><stop offset=".2" stop-color="#ed1847"/><stop offset=".293" stop-color="#ef4454"/><stop offset=".49" stop-color="#f4857e"/><stop offset=".496" stop-color="#e8736f"/><stop offset=".507" stop-color="#da595b"/><stop offset=".521" stop-color="#ce414c"/><stop offset=".537" stop-color="#c52e41"/><stop offset=".556" stop-color="#bf1d3a"/><stop offset=".584" stop-color="#bb1137"/><stop offset=".66" stop-color="#ba0d36"/><stop offset=".706" stop-color="#c52e41"/><stop offset=".801" stop-color="#e16664"/><stop offset=".85" stop-color="#f4857e"/><stop offset="1" stop-color="#ba0d36"/></linearGradient><path fill="url(#b)" d="M28.4 8.9c0-6.8-4.8-7.4-8.5-4.4-2.3 1.9-5.3 5.4-5.3 2.1 0-7.8-7.8-4.4-13 2.3v6.9c5.3-6.3 13-9.8 13-2 0 3.3 3-.2 5.3-2.1 3.3-2.7 7.6-2.4 8.4 2.7h.1V8.9z"/></svg>