<svg id="Layer_1" xmlns="http://www.w3.org/2000/svg" viewBox="0 0 63 63"><style>.st0{fill:#fff}.st1{opacity:.58;fill:#aab8c2}.st1,.st2,.st3{enable-background:new}.st2{opacity:.45;fill:#057bde}.st3{opacity:.2;fill:#fa3e3e}.st4{stroke-linejoin:round}.st4,.st5,.st6{fill:none;stroke:#657786;stroke-width:2;stroke-linecap:round;stroke-miterlimit:10}.st6{fill:#657786;stroke-width:5.6015}.st7{stroke:#fff;stroke-dasharray:0,7.6357}.st7,.st8,.st9{fill:none;stroke-width:2;stroke-linecap:round;stroke-miterlimit:10}.st8{stroke-dasharray:0,8.5902;stroke:#657786}.st9{opacity:.37;stroke:#fff;enable-background:new}.st10,.st11{fill:#657786}.st11{stroke:#657786;stroke-width:.9545}.st11,.st12,.st13,.st14{stroke-miterlimit:10}.st12{stroke-width:3;stroke-linecap:round;stroke-linejoin:round}.st12,.st13{fill:none;stroke:#768693}.st13,.st14{stroke-linecap:round;stroke-linejoin:round}.st13{stroke-width:2}.st14{fill:#fff;stroke:#657786;stroke-width:1.7908}.st15{fill:#ffc2c2}.st16{fill:#ffa4a4}.st17,.st18{stroke:#657786;stroke-linecap:round;stroke-miterlimit:10}.st17{stroke-linejoin:round;fill:none;stroke-width:1.7908}.st18{fill:#fff;stroke-width:2}.st19{opacity:.34;fill:#057bde;enable-background:new}.st20{stroke:#657786;stroke-width:1.1277;stroke-linecap:round;stroke-miterlimit:10}.st20,.st21{fill:none}.st21,.st22,.st23,.st24,.st25,.st26{stroke:#657786;stroke-linecap:round;stroke-miterlimit:10}.st22{stroke-dasharray:0,2;fill:none}.st23{fill:#fff}.st24{stroke-width:1.02}.st24,.st25,.st26{fill:none}.st25{stroke-width:1.0463}.st26{stroke-width:.9837}.st27{fill:#057bde}.st28{fill:#1b2733}.st29{fill:#fa3e3e}.st30{fill:#48bc38}.st31{fill:#f4bb00}.st32{fill:#aab8c2}.st33{fill:#e1e8ed}.st34{fill:#f5f8fa}.st35{fill:#f2f2f2}.st36{opacity:.19}.st37,.st38,.st39{enable-background:new}.st37{opacity:.97;fill:#fa3e3e}.st38{fill:#057bde}.st39{fill:#aab8c2}.st40,.st41{fill:#b6f8ff;stroke:#657786;stroke-width:2;stroke-linecap:round;stroke-linejoin:round;stroke-miterlimit:10}.st41{fill:#fff}.st42{fill:#fff;enable-background:new}.st43,.st44{stroke:#657786;stroke-width:2;stroke-linecap:round;stroke-miterlimit:10}.st43{fill:none;stroke-dasharray:7.6482,5.9486}.st44{stroke-linejoin:round}.st44,.st45{fill:#b8ffb8}.st46,.st47,.st48,.st49{stroke:#657786;stroke-width:2;stroke-linecap:round;stroke-miterlimit:10}.st46{stroke-linejoin:round;fill:#ff8d8d}.st47{stroke-dasharray:8.7408,6.7984}.st47,.st48,.st49{fill:none}.st48{stroke-dasharray:0,8.3428}.st49{stroke-dasharray:9,7}.st50{opacity:.4;fill:#aab8c2;enable-background:new}.st51{fill:none}.st51,.st52,.st53,.st54{stroke:#657786;stroke-width:2;stroke-miterlimit:10}.st52{fill:#f7da92}.st52,.st53,.st54{stroke-linecap:round}.st53{fill:#ff7373}.st54{fill:#8dd1ff}.st55{opacity:.26;fill:#f4bb00}.st56,.st57,.st58{stroke-width:2;stroke-miterlimit:10}.st56{fill:#fff;stroke:#657786}.st57,.st58{stroke-linecap:round}.st57{opacity:.3;fill:none;stroke:#fff}.st58{fill:#fff;stroke:#657786;stroke-dasharray:1.7419,2.6129}.st59,.st60{opacity:.29;fill:#fa3e3e;enable-background:new}.st60{opacity:.32;fill:#057bde}.st61{fill:#657786;stroke:#657786;stroke-width:2;stroke-miterlimit:10}.st62{opacity:.3}.st63,.st64,.st65,.st66{stroke-linecap:round;stroke-miterlimit:10}.st63{fill:none;stroke-width:2;stroke:#fff}.st64,.st65,.st66{stroke:#657786}.st64{stroke-dasharray:7.8387,6.0968;fill:none;stroke-width:2}.st65,.st66{fill:#fff;stroke-width:1.8163}.st66{stroke-width:2.22}.st67,.st68{stroke:#657786;stroke-width:2.0993}.st67{stroke-miterlimit:10;fill:none}.st68{fill:#fff}.st68,.st69,.st70{stroke-miterlimit:10}.st69{fill:#fff;stroke:#657786;stroke-linecap:round;stroke-dasharray:2,3;stroke-width:2}.st70{stroke-width:1.8077}.st70,.st71,.st72{fill:#fff;stroke:#657786}.st71{stroke-linecap:round;stroke-miterlimit:10;stroke-width:1.6609}.st72{stroke-width:1.97}.st72,.st73,.st74{stroke-miterlimit:10}.st73{opacity:.3;stroke-linecap:round;fill:none;stroke:#fff;stroke-width:1.8569}.st74{fill:#657786;stroke:#657786;stroke-width:1.8519}.st75{opacity:.17;fill:#057bde;enable-background:new}.st76,.st77,.st78,.st79,.st80{stroke-width:2;stroke-miterlimit:10}.st76{opacity:.17;fill:none;stroke-linecap:round;enable-background:new;stroke:#057bde}.st77,.st78,.st79,.st80{stroke:#657786}.st77{stroke-linecap:round;stroke-dasharray:9.0836,7.065;fill:none}.st78{fill:#ffabab}.st79{fill:#c2eab7}.st80{fill:#a9dbf7}.st81{opacity:.36;fill:#48bc38}.st82{fill:#fff;stroke-miterlimit:2}.st82,.st83,.st84{stroke:#657786;stroke-width:2;stroke-linecap:round;stroke-linejoin:round}.st83{fill:#efd38e;stroke-miterlimit:10}.st84{fill:none;stroke-miterlimit:2}.st85{clip-path:url(#SVGID_2_)}.st86{fill:#d4d7d8;stroke:#657786;stroke-width:2;stroke-linecap:round;stroke-miterlimit:10}.st87{fill:#c2eab7}.st88{fill:none;stroke:#657786;stroke-width:2;stroke-linecap:round;stroke-miterlimit:10;stroke-dasharray:9.4422,7.3439}.st89{clip-path:url(#SVGID_4_)}.st90,.st91{fill:none;stroke:#657786;stroke-linecap:round;stroke-miterlimit:10}.st90{stroke-dasharray:0,7.9585;stroke-width:3}.st91{stroke-width:3.0484}.st92{fill:#a9dbf7}.st93{fill:none;stroke:#657786;stroke-width:3;stroke-linecap:round;stroke-linejoin:round;stroke-miterlimit:10}.st94,.st95{opacity:.24;fill:#057bde;enable-background:new}.st95{opacity:.45;fill:#aab8c2}.st100,.st101,.st102,.st96,.st97,.st98,.st99{stroke:#657786;stroke-width:2;stroke-miterlimit:10}.st96{stroke-linecap:round;stroke-dasharray:.8595,1.2892;fill:#fff}.st97{fill:#fcfcfc}.st100,.st101,.st102,.st98,.st99{fill:none;stroke-linecap:round}.st98{stroke-dasharray:6.1678,5.3968}.st99{stroke-dasharray:7.3829,6.46}.st100{stroke-dasharray:7.5998,6.6498}.st101{stroke-dasharray:0,13.7805}.st102{stroke-dasharray:8.4061,6.5381}.st103{opacity:.7}.st104{fill:#efd38e}.st105,.st106{stroke:#657786;stroke-miterlimit:10}.st105{stroke-width:2;stroke-linecap:round;stroke-dasharray:7.4721,6.5381;fill:none}.st106{fill:#fff}.st107{fill:#f7e0aa}.st108{opacity:.75;fill:#c2eab7}.st109,.st110{fill:none;stroke:#657786;stroke-width:2;stroke-linecap:round;stroke-miterlimit:10;stroke-dasharray:7.6108,7.6108}.st110{stroke-width:3;stroke-dasharray:0,6.101}</style><path class="st92" d="M6.4 48.3c-.6 0-1.1-.3-1.4-.9s-.2-1.2.2-1.6l3.4-4.4c.4-.5.4-1.2 0-1.8C6.3 36.2 5 32.3 5 28.1 5 17 14.1 8 25.2 8c.8 0 1.5 0 2.3.1 9.5 1.1 17.2 9.1 17.8 18.6.4 5.5-1.4 10.7-5.1 14.8-3.6 4.1-8.6 6.5-14.1 6.7H6.4z"/><path class="st0" d="M25.2 9.5c.7 0 1.4 0 2.1.1 8.8 1 15.9 8.4 16.5 17.2.3 5.1-1.3 9.9-4.7 13.7-3.4 3.8-8 6-13 6.2H6.4v-.1l3.4-4.4c.8-1 .8-2.5.1-3.5-2.2-3.1-3.4-6.7-3.4-10.6 0-10.3 8.4-18.6 18.7-18.6m0-3c-12 0-21.7 9.7-21.7 21.7 0 4.6 1.4 8.8 3.8 12.3L4 44.9c-1.5 2-.1 4.9 2.4 4.9h19.8c12-.5 21.4-10.8 20.6-23.1-.7-10.3-8.9-18.9-19.1-20-.9-.2-1.7-.2-2.5-.2z"/><path class="st4" d="M46.8 26.6c.8 12.3-8.6 22.6-20.6 23.1H6.4c-2.5 0-4-2.9-2.4-4.9l3.4-4.4C5 37 3.5 32.7 3.5 28.1c0-12.8 11.1-23 24.1-21.5 10.3 1.1 18.5 9.7 19.2 20z"/><path class="st41" d="M24.7 37.9c-.7 9.9 6.9 18.2 16.6 18.6h15.9c2 0 3.2-2.3 1.9-4L56.4 49c2-2.8 3.1-6.2 3.1-9.9 0-10.3-8.9-18.5-19.4-17.3-8.3.9-14.8 7.8-15.4 16.1z"/><path class="st110" d="M33 39.1h18.4"/></svg>