<svg id="Layer_1" xmlns="http://www.w3.org/2000/svg" viewBox="0 0 585 465"><style>.st0{opacity:.19}.st1{fill:#48bc38}.st2{fill:#f4bb00}.st3{opacity:.97;fill:#fa3e3e;enable-background:new}.st4{fill:#057bde}.st5{fill:#aab8c2}.st6{fill:#657786}.st7{fill:none;stroke:#657786;stroke-width:2;stroke-linecap:round;stroke-linejoin:round}.st8{fill:#fff}.st9{opacity:.34;fill:#057bde;enable-background:new}.st10{fill:#ff8d8d}.st11{opacity:.59;fill:#fff}.st12{opacity:.42}.st13{fill:none;stroke:#657786;stroke-width:2;stroke-linecap:round;stroke-miterlimit:10;stroke-dasharray:0,10.4763}.st14{opacity:.58;fill:#aab8c2;enable-background:new}.st15{fill:#b8ffb8}.st16{opacity:.44}</style><g class="st0"><path class="st1" d="M128.993 331.754c-12.561-4.523-54.642-22.486-45.598-57.783a.653.653 0 0 1 .251-.503c1.759-3.14 17.963-34.293-6.657-30.147a1.784 1.784 0 0 0-.754.25c-23.993 13.442-21.731 4.774-21.731 4.774s3.768-25.876 53.763-19.596 58.16-8.165 65.696-6.03 20.099 5.277 11.431 11.934-15.45 5.276-11.933 1.005c3.517-4.27 3.266-10.175-5.276-6.406s-4.773 8.165-12.687 8.416c-7.914.251-12.938 11.682-2.763 13.943 10.174 2.261 7.16-12.184 15.953-10.426 8.793 1.759 18.967 13.441 6.406 21.355s-18.717 4.773-23.113 14.194c-4.397 9.421-13.44 10.929-14.195 16.456-.753 5.527-26.379-10.929-24.871 5.778 1.382 15.702 16.33 13.064 19.219 30.399a2.349 2.349 0 0 1-3.14 2.387z"/><path class="st2" d="M136.53 338.788c-2.763 2.764-12.31 15.074 11.682 38.564.445.433.713 1.014.754 1.633.251 37.182 10.175 52.884 16.456 59.164a2.324 2.324 0 0 0 3.894-2.01c-1.633-10.55-1.256-33.413 24.997-54.39l.503-.503c24.997-36.93-9.17-31.027-12.939-33.288s-12.687-22.36-27.635-21.606c-14.446.754-16.707.628-16.958 10.929a4.251 4.251 0 0 1-.754 1.507z"/><path class="st1" d="M196.574 215.057c10.175-2.763 30.399-7.16 47.106-3.768a2.387 2.387 0 0 1 1.005 4.145c-3.643 2.89-8.668 7.537-10.803 12.813a2.186 2.186 0 0 1-1.884 1.382c-4.648.502-18.717 2.26-21.23 7.788-3.014 6.657-7.41 7.914-9.42 4.27-2.01-3.642-3.769-9.672.502-12.184 3.14-1.884-.502-7.034-5.778-10.175a2.299 2.299 0 0 1 .502-4.27z"/><path class="st3" d="M273.2 374.714s10.677-31.906-12.94-38.313a2.575 2.575 0 0 0-1.38 0c-3.895 1.382-24.37 7.286-29.772-15.953-6.03-25.625 30.902-45.472 44.091-33.288 10.552 9.798 19.973 6.784 23.113 5.15a7.538 7.538 0 0 1 3.392-.753c3.266.251 6.406 3.391 22.36 34.167a2.6 2.6 0 0 0 1.758 1.256c2.35.551 4.792.594 7.16.126a2.324 2.324 0 0 1 2.89 2.638c-.88 4.396-4.397 11.305-15.577 20.475 0 0-5.276 2.764-.503 14.948 3.643 9.296-3.14 12.06-6.406 12.813a2.273 2.273 0 0 0-1.758 2.01c-.503 5.652-3.392 23.113-22.611 25.876a2.274 2.274 0 0 1-2.387-1.256c-2.763-5.024-11.808-23.238-11.43-29.896z"/><path class="st4" d="M329.6 320.7a2.248 2.248 0 0 1-.88-.629c-2.888-3.014-20.6-21.354-21.856-31.403-1.005-8.668-9.798-8.417-13.315-7.914a2.299 2.299 0 0 1-2.261-1.13c-1.759-3.141-6.784-10.427-13.441-9.799-8.668.629-9.673 5.025-21.229 8.92-11.557 3.893-22.61-2.262-12.562-7.915s21.23-19.847 35.8-20.224 8.668-3.014 5.653-8.29c-3.014-5.276-7.285-5.276-6.03-.377 1.257 4.899-18.59 9.672-15.199 1.633s-.25-18.842 53.261-14.697c.488.011.968-.12 1.382-.377 4.522-2.763 34.041-19.47 62.054-7.537 30.524 12.939 80.268-.628 97.226 12.939 14.069 11.305.125 4.899-4.9 2.512a2.336 2.336 0 0 0-2.888.628l-3.392 4.522a2.324 2.324 0 0 0 .628 3.392c2.261 1.382 4.773 4.27 0 8.793-7.286 6.909-9.295-11.934-22.234-10.552s-4.02 11.557 2.638 18.214c6.658 6.658-5.276 19.596-13.943 17.963-8.668-1.633 4.02 6.281 1.633 14.572-1.759 6.28-12.562 12.561-17.712 15.2a2.336 2.336 0 0 0-.628 3.642c4.145 4.522 12.436 14.822 4.522 17.335-10.3 3.266-28.138-35.8-37.81-21.23-5.15 7.789-6.532 13.818-6.783 17.712a2.299 2.299 0 0 1-3.894 1.508c-5.025-4.648-12.938-13.315-15.2-23.867-3.266-15.953-25.5-12.938-25.5-7.662 0 5.275 12.31 5.652 12.31 10.3-.502 4.648-1.758 18.214-15.45 13.817z"/><path class="st5" d="M458.607 411.017c-.377-3.517-3.643-10.552-26.505-6.532-.307.024-.606.11-.88.251-1.758 1.13-9.797 5.276-7.913-10.175 2.261-17.46 22.108-27.133 25.626-24.871 3.517 2.26 21.354-8.668 23.866-4.774 2.513 3.894 12.185 17.21 10.678 25.626-1.508 8.165-2.136 24.746-22.988 22.485a2.274 2.274 0 0 1-1.884-2.01zm17.209-50.121c-4.396-2.26-9.924-2.26-12.436-6.406-2.512-4.145-15.576-9.547-4.648-8.04 10.929 1.508 11.557 2.764 18.214 6.407 6.658 3.643 13.567 5.904 8.793 9.295-4.773 3.392-9.17-.879-9.923-1.256zm-53.009-18.088c.197-.135.368-.305.502-.503 1.759-2.386 10.175-16.204 15.45-8.667 5.653 8.165 8.668 15.45 8.668 17.586s-8.29 7.662-11.305 6.909c-3.015-.754-10.3 5.527-12.436-1.508-2.136-7.034-4.773-9.17-3.517-11.054a30.765 30.765 0 0 1 2.638-2.763z"/><path class="st4" d="M457.853 270.58c.503.753 2.01 10.55 2.01 11.807 0 1.256-5.15 7.914-5.778 8.416s-13.316.377-11.557-1.382c1.758-1.758 7.788-9.42 9.421-10.3 1.382-.628 1.884-3.643 2.136-4.899v-.88l-1.005-4.396c-.251.126-.503-6.532 4.773 1.633z"/><path class="st3" d="M328.972 368.684c-1.005 2.136-8.667 4.271-7.913 6.155.753 1.885-.126 11.557-.126 13.064s1.005 7.412 4.145 6.03c2.764-1.256 7.035-16.33 8.04-19.973.147-.5.102-1.038-.126-1.507-.754-1.633-2.387-5.15-3.517-4.648-1.13.502-.503.88-.503.88z"/><path class="st4" d="M247.207 247.592l-2.638 2.512a2.311 2.311 0 0 0-.251 3.14l3.014 3.894a2.512 2.512 0 0 0 3.015.629l4.145-2.513a2.21 2.21 0 0 0 1.005-2.638c-.879-2.638-2.763-7.16-5.778-7.537-1.507-.125-2.01-.125-2.01 0a3.09 3.09 0 0 1-.502 2.513z"/></g><path class="st6" d="M122.407 229.29c8.181-.239 16.35-.138 24.334-1.622 3.983-.726 7.871-1.83 11.593-3.409 1.886-.753 3.666-1.717 5.803-2.332 1.065-.29 2.29-.422 3.44-.155.61.128 1.028.274 1.542.41l1.482.418c1.98.568 3.965 1.162 5.922 1.926.977.384 1.948.81 2.896 1.335.94.534 1.882 1.145 2.67 2.08.385.47.724 1.045.878 1.715a3.64 3.64 0 0 1-.116 1.993c-.43 1.228-1.232 2.08-2.025 2.832-.405.376-.824.714-1.256 1.036-.401.307-.826.614-1.272.92a29.254 29.254 0 0 1-2.709 1.653c-1.879.983-3.876 1.823-6.142 2.038-.57.043-1.159.046-1.786-.084-.605-.139-1.358-.396-1.863-1.156-.256-.37-.34-.828-.343-1.226.011-.396.095-.76.222-1.062.238-.614.61-1.123.938-1.536.626-.775 1.1-1.538 1.46-2.402.35-.836.544-1.758.398-2.47-.147-.704-.563-1.061-1.365-1.184-.78-.12-1.73.06-2.635.316-.919.274-1.82.64-2.726 1.078-.86.42-1.716.902-2.471 1.474a10.37 10.37 0 0 0-2.017 1.97c-.6.74-1.08 1.622-1.852 2.517-.763.915-1.94 1.577-3.044 1.846-1.092.305-2.255.358-3.215.412-1.837.115-3.582.926-4.929 2.194-1.33 1.26-2.3 2.987-2.391 4.731a4.342 4.342 0 0 0 .55 2.433c.415.726 1.074 1.316 1.847 1.766.761.447 1.707.762 2.56.96l.756.135c.249.042.441.039.664.064.434.026.892.01 1.314-.06 1.727-.237 2.997-1.578 3.961-3.278 1.008-1.674 1.732-3.657 3.237-5.418.76-.859 1.83-1.629 3.05-1.876 1.199-.277 2.41-.125 3.456.129 2.137.517 4.098 1.464 5.866 2.687a17.65 17.65 0 0 1 4.577 4.541c1.222 1.796 2.074 3.973 2.05 6.266a8.877 8.877 0 0 1-.68 3.328c-.442 1.046-1.063 1.989-1.767 2.838-1.43 1.665-3.276 2.932-5.03 3.96a51.908 51.908 0 0 1-5.566 2.87c-1.907.842-3.868 1.552-5.805 2.22-1.93.678-3.845 1.317-5.475 2.314-1.64.978-2.94 2.385-3.916 4.07-.24.423-.478.849-.69 1.294-.236.47-.441.913-.697 1.388a21.05 21.05 0 0 1-1.723 2.714c-1.27 1.716-2.788 3.224-4.392 4.567-1.594 1.351-3.3 2.535-4.793 3.822-.746.642-1.42 1.325-1.92 2.07a5.4 5.4 0 0 0-.577 1.17c-.06.205-.123.409-.153.62-.033.128-.074.63-.357 1.05a2.09 2.09 0 0 1-.988.803c-.35.137-.69.207-.996.23-.623.057-1.182.01-1.726-.057-1.082-.142-2.101-.378-3.11-.625-3.999-.984-7.916-2.29-11.828-2.427-1.91-.05-3.876.313-4.903 1.64-1.06 1.297-1.187 3.361-.999 5.233.067.501.11 1.034.197 1.509.099.472.154.944.293 1.416.218.953.554 1.867.936 2.755.8 1.764 1.952 3.345 3.345 4.742 2.776 2.801 6.368 5.005 9.178 8.234 2.867 3.18 4.608 7.31 5.28 11.46.259 1.454-.597 2.94-1.94 3.485a3.239 3.239 0 0 1-2.354.046l-.181-.066-.361-.13-.729-.268a117.538 117.538 0 0 1-5.744-2.318c-7.563-3.3-14.854-7.325-21.421-12.41-3.274-2.547-6.363-5.364-9.087-8.53-2.723-3.16-5.101-6.664-6.831-10.503-1.739-3.828-2.84-7.971-3.13-12.18-.308-4.208.158-8.444 1.193-12.501l-.03.197c.02-.452.234-.94.658-1.257l-.273.312a68.023 68.023 0 0 0 2.279-4.606 71.242 71.242 0 0 0 1.954-4.766c1.168-3.213 2.131-6.53 2.42-9.857.135-1.655.088-3.32-.335-4.83-.41-1.515-1.257-2.814-2.513-3.632-1.247-.834-2.833-1.21-4.455-1.311-1.63-.097-3.309.059-4.973.332l-.092.011c-.114.017-.169.02-.356.131l-.71.391-1.421.783c-.966.508-1.927 1.035-2.903 1.52-1.943.99-3.916 1.935-5.951 2.773-1.022.412-2.05.813-3.112 1.154a26.33 26.33 0 0 1-1.61.48c-.55.137-1.099.273-1.673.363-.566.103-1.156.162-1.765.176-.613-.002-1.249-.033-1.926-.252-.666-.205-1.41-.693-1.817-1.436a3.085 3.085 0 0 1-.353-1.141 3.41 3.41 0 0 1 .066-1.17l-.033.256c.051-1.423.312-2.638.678-3.897a20.612 20.612 0 0 1 1.467-3.572c.602-1.139 1.322-2.207 2.105-3.222.812-.99 1.674-1.942 2.635-2.781.472-.43.956-.844 1.47-1.218a16.711 16.711 0 0 1 1.554-1.1 17.003 17.003 0 0 1 1.62-.988c.547-.318 1.102-.62 1.677-.879 1.125-.571 2.301-1.018 3.472-1.467 1.187-.402 2.379-.79 3.595-1.073 1.203-.343 2.437-.528 3.654-.785 1.23-.175 2.457-.386 3.69-.503 1.235-.104 2.467-.258 3.704-.288 1.236-.059 2.47-.125 3.706-.105 1.235-.004 2.469.002 3.7.077 1.231.06 2.463.095 3.689.22 1.226.115 2.456.179 3.676.338l3.658.462a.319.319 0 0 1-.062.635l-.012-.001-3.658-.268c-1.217-.109-2.44-.122-3.658-.188-1.218-.074-2.438-.058-3.657-.069-1.219-.028-2.436.025-3.652.065-1.217.013-2.428.11-3.64.2-1.213.06-2.413.245-3.617.378-1.203.146-2.39.383-3.58.585-1.174.28-2.366.49-3.513.852-1.166.303-2.294.71-3.427 1.1-1.11.442-2.225.879-3.28 1.43-.541.25-1.06.542-1.568.847-.52.287-1.025.598-1.507.941-.498.321-.977.666-1.432 1.041-.475.352-.917.74-1.347 1.142-.878.783-1.655 1.665-2.387 2.576-.701.935-1.345 1.911-1.877 2.948a18.643 18.643 0 0 0-1.285 3.233c-.318 1.091-.556 2.297-.591 3.326v.026a1.205 1.205 0 0 1-.032.23 1.645 1.645 0 0 0-.014.443c.02.156.058.292.118.4.124.206.327.38.689.5.356.119.814.152 1.278.152a9.342 9.342 0 0 0 1.459-.148c.992-.173 2-.437 2.994-.772.998-.32 1.986-.705 2.97-1.101 1.965-.81 3.897-1.734 5.807-2.707.961-.477 1.897-.991 2.845-1.49l1.421-.781.71-.391c.275-.17.745-.35 1.171-.373l-.092.01c1.77-.289 3.581-.464 5.43-.355 1.835.118 3.77.536 5.439 1.644a7.811 7.811 0 0 1 2.119 2.091c.56.824.947 1.738 1.207 2.66.514 1.853.546 3.728.402 5.535-.319 3.625-1.332 7.06-2.536 10.38a73.326 73.326 0 0 1-2.01 4.9 69.829 69.829 0 0 1-2.354 4.756l-.272.312a.325.325 0 0 0 .137-.237l-.03.197c-.989 3.878-1.427 7.892-1.138 11.862.274 3.971 1.31 7.872 2.958 11.502 3.3 7.297 8.94 13.373 15.289 18.333 6.386 4.975 13.542 8.958 20.978 12.227 1.863.813 3.745 1.583 5.647 2.296l1.364.498c.317.086.63.07.912-.047.573-.22.955-.9.843-1.484-.634-3.923-2.199-7.644-4.827-10.585-2.574-3.002-6.081-5.166-9.083-8.183-1.495-1.504-2.794-3.285-3.68-5.26-.425-.993-.793-2.012-1.03-3.058-.148-.512-.218-1.061-.323-1.593-.093-.533-.129-1.024-.196-1.538-.104-1.107-.128-2.174.047-3.298.167-1.105.55-2.264 1.324-3.219.758-.969 1.875-1.6 2.975-1.911 1.11-.326 2.223-.395 3.302-.375 4.318.157 8.27 1.51 12.208 2.462.98.24 1.961.462 2.911.585.471.06.94.089 1.34.05.413-.033.67-.17.687-.246.006-.007.045-.028.101-.401.045-.296.128-.583.215-.87a7.142 7.142 0 0 1 .774-1.58c.641-.96 1.43-1.738 2.231-2.434 1.613-1.388 3.282-2.544 4.811-3.845 1.534-1.288 2.938-2.692 4.106-4.273a19.38 19.38 0 0 0 1.566-2.47c.23-.426.458-.913.68-1.357.228-.481.489-.951.755-1.418 1.066-1.862 2.625-3.566 4.516-4.69 1.878-1.144 3.89-1.798 5.814-2.482 1.935-.67 3.829-1.36 5.67-2.175a50.232 50.232 0 0 0 5.348-2.764c1.771-1.042 3.336-2.145 4.593-3.594 1.216-1.44 2.02-3.183 2.007-5.013.019-1.822-.667-3.647-1.743-5.222-1.084-1.576-2.5-2.959-4.107-4.056-1.596-1.106-3.393-1.96-5.242-2.403-.935-.227-1.816-.31-2.623-.124-.807.164-1.486.647-2.082 1.306-1.189 1.364-1.94 3.291-3.02 5.13-.542.922-1.173 1.861-2.06 2.642-.871.785-2.017 1.363-3.192 1.534-.59.096-1.16.117-1.747.083-.286-.027-.608-.044-.864-.087l-.757-.135c-1.141-.257-2.158-.602-3.173-1.18-.99-.574-1.921-1.386-2.529-2.445a6.226 6.226 0 0 1-.804-3.47c.14-2.378 1.36-4.457 2.974-6.004 1.625-1.546 3.82-2.554 6.079-2.693 2.068-.08 3.919-.304 5.004-1.622.577-.652 1.104-1.573 1.788-2.431a12.248 12.248 0 0 1 2.37-2.306c.882-.662 1.821-1.19 2.801-1.664.94-.451 1.942-.86 2.988-1.17 1.056-.284 2.166-.54 3.425-.363.62.093 1.3.325 1.86.807.558.488.898 1.182 1.023 1.832.24 1.319-.087 2.48-.506 3.522-.421 1.032-1.054 2.018-1.717 2.832-.31.386-.537.723-.674 1.065-.136.346-.117.57-.045.66.058.119.336.287.713.364.376.08.823.088 1.272.053 1.829-.161 3.708-.909 5.44-1.821a29.06 29.06 0 0 0 3.757-2.42c.39-.29.768-.595 1.115-.916.69-.636 1.309-1.362 1.55-2.088.248-.716.09-1.368-.448-2.023-1.117-1.296-3.021-2.17-4.841-2.902-1.86-.73-3.803-1.318-5.76-1.883l-1.474-.42c-.475-.127-1.03-.307-1.426-.384-.855-.2-1.73-.112-2.635.126-1.812.507-3.678 1.48-5.592 2.247-3.828 1.616-7.872 2.754-11.95 3.487-8.167 1.397-16.495 1.748-24.667.813h-.006a.429.429 0 0 1 .036-.854zm44.243 105.79c1.155.814 2.225 1.813 3.163 2.888.925 1.095 1.735 2.284 2.495 3.488.76 1.203 1.443 2.452 2.14 3.627.348.582.707 1.15 1.098 1.596.195.22.397.403.595.525l.018.013a.34.34 0 0 1-.038-.021l.014.007.059.03.117.059c.043.01.079.02.118.038.133.038.27.076.425.106 1.245.24 2.673.313 4.059.435 1.398.114 2.809.243 4.22.443 2.81.408 5.687 1.033 8.3 2.52 1.286.758 2.504 1.744 3.391 3.02.906 1.26 1.452 2.754 1.677 4.25.225 1.502.155 3.002-.06 4.45-.218 1.45-.592 2.854-1.048 4.217-.917 2.728-2.147 5.305-3.507 7.788-1.359 2.488-2.864 4.88-4.445 7.21a1.002 1.002 0 0 1-.12.145l-.51.5-.061.054-.011.008c-2.094 1.716-4.173 3.456-6.106 5.348-1.939 1.883-3.821 3.829-5.54 5.912-3.465 4.137-6.468 8.67-8.727 13.56-2.277 4.878-3.819 10.096-4.486 15.432a48.67 48.67 0 0 0-.354 8.045 43.78 43.78 0 0 0 .326 4.013l.136.997c.067.36.095.877-.008 1.324a3.188 3.188 0 0 1-.578 1.27c-.083.106-.121.157-.255.296l-.198.186a3.18 3.18 0 0 1-3.33.523 3.176 3.176 0 0 1-1.116-.793l-.703-.747a36.008 36.008 0 0 1-2.667-3.257 48.612 48.612 0 0 1-4.282-7.165c-.622-1.242-1.156-2.524-1.713-3.794-.48-1.298-1.029-2.575-1.453-3.892a91.07 91.07 0 0 1-2.305-7.962c-.297-1.348-.624-2.69-.896-4.042l-.735-4.07c-.229-1.36-.388-2.728-.586-4.091-.208-1.363-.345-2.733-.472-4.103-.124-1.37-.294-2.739-.38-4.111l-.25-4.12c-.175-2.745-.17-5.495-.264-8.243l.004.075a1.541 1.541 0 0 0-.304-.807 1.376 1.376 0 0 0-.14-.157l-.269-.27-.512-.515c-.683-.691-1.373-1.356-2.042-2.09a77.558 77.558 0 0 1-3.907-4.415 47.397 47.397 0 0 1-1.823-2.322c-.606-.776-1.145-1.607-1.711-2.414-.534-.832-1.081-1.657-1.57-2.521l-.734-1.294-.676-1.331c-.428-.9-.855-1.802-1.2-2.744a26.01 26.01 0 0 1-.943-2.86 22.291 22.291 0 0 1-.61-2.971c-.156-1.003-.2-2.028-.2-3.05.03-2.044.394-4.11 1.157-6.032a15.077 15.077 0 0 1 3.384-5.16l-.07.08c.27-.331.478-.731.591-1.143l-.03.211c.084-1.878.103-3.755.441-5.724.173-.975.489-2.03 1.198-2.939.708-.922 1.768-1.438 2.725-1.718.977-.29 1.94-.424 2.891-.523a38.969 38.969 0 0 1 2.839-.174c1.883-.054 3.756-.084 5.63-.076a.32.32 0 0 1 .034.638l-5.583.564c-.924.107-1.845.223-2.751.357-.903.14-1.796.318-2.602.606-.808.286-1.49.696-1.9 1.3-.429.594-.63 1.402-.77 2.26-.26 1.732-.25 3.616-.287 5.475a.89.89 0 0 1-.025.197l-.004.014a5.011 5.011 0 0 1-.909 1.858l-.055.063-.016.016c-1.25 1.287-2.203 2.873-2.864 4.55-.662 1.683-.977 3.5-.998 5.325.005.914.044 1.832.191 2.744.121.913.321 1.82.568 2.716.245.895.535 1.785.886 2.653.324.877.73 1.728 1.137 2.575l.645 1.258.705 1.231c.467.821.996 1.612 1.51 2.408.55.776 1.069 1.571 1.659 2.321a48.36 48.36 0 0 0 1.757 2.256 75.562 75.562 0 0 0 3.775 4.307c.633.702 1.336 1.385 2.011 2.076l.511.517.242.246c.124.12.237.25.341.387a3.58 3.58 0 0 1 .705 1.877l.003.041v.035c.081 2.719.064 5.444.224 8.159l.227 4.073c.078 1.357.239 2.707.353 4.061.119 1.354.246 2.707.445 4.05.187 1.344.337 2.696.555 4.035l.701 4.008c.26 1.33.575 2.649.86 3.974a89.185 89.185 0 0 0 2.213 7.806c.407 1.29.935 2.533 1.396 3.802.535 1.236 1.047 2.486 1.643 3.692a46.875 46.875 0 0 0 4.087 6.926 33.007 33.007 0 0 0 2.512 3.1l.704.745a1.46 1.46 0 0 0 1.785.34c.098-.048.185-.117.237-.153.042-.034.117-.112.175-.166-.017.015.056-.064.076-.095.129-.17.22-.37.263-.582.044-.223.042-.402-.011-.714l-.144-1.035a46.06 46.06 0 0 1-.348-4.162 50.422 50.422 0 0 1 .349-8.333c.679-5.525 2.264-10.928 4.603-15.968 2.322-5.054 5.404-9.729 8.95-13.982 1.76-2.142 3.682-4.14 5.66-6.07 1.975-1.94 4.09-3.721 6.224-5.476l-.071.063.51-.5-.12.143a95.058 95.058 0 0 0 4.354-7.063c1.334-2.411 2.528-4.9 3.403-7.471.865-2.558 1.422-5.261 1.065-7.811-.189-1.266-.627-2.467-1.353-3.485-.708-1.031-1.709-1.855-2.82-2.518-2.263-1.306-4.954-1.932-7.652-2.328-1.357-.198-2.73-.329-4.119-.447-1.396-.133-2.77-.191-4.273-.483a6.76 6.76 0 0 1-.59-.153l-.374-.144-.117-.06-.058-.03-.08-.044-.037-.024a4.455 4.455 0 0 1-.975-.853c-.526-.612-.907-1.24-1.275-1.855-.723-1.234-1.375-2.442-2.104-3.606-.716-1.17-1.514-2.275-2.339-3.36l-2.496-3.295a.432.432 0 0 1 .593-.614l.007.004zm23.66-120.436s.5-.263 1.462-.675c.955-.428 2.46-.754 4.343-1.207a146.283 146.283 0 0 1 15.833-2.849c3.309-.41 6.919-.688 10.75-.77 3.829-.059 7.886.118 12.044.735l1.56.272.784.138.393.069.197.034.118.028.047.013.095.027c1.444.415 2.438 1.86 2.332 3.343a3.27 3.27 0 0 1-1.23 2.376l-.313.251-.62.504c-.81.67-1.62 1.37-2.397 2.098-1.56 1.453-3.04 3.015-4.332 4.713-.643.85-1.253 1.727-1.771 2.649-.274.454-.502.929-.733 1.4l-.32.72-.09.207a3.12 3.12 0 0 1-.484.743 3.05 3.05 0 0 1-2.01 1.015l-1.617.19a97.251 97.251 0 0 0-3.237.466c-2.146.35-4.268.779-6.325 1.338-2.052.56-4.055 1.248-5.835 2.2-.445.236-.848.518-1.273.77-.369.3-.772.579-1.095.903-.675.665-1.026 1.313-1.502 2.331-.2.456-.522.963-.78 1.438-.305.458-.576.925-.926 1.352-.651.876-1.444 1.679-2.41 2.317-.952.622-2.198 1.094-3.52.868-1.325-.242-2.348-1.166-2.938-2.11a17.999 17.999 0 0 1-2.19-5.447c-.194-.94-.3-1.898-.28-2.863a7.674 7.674 0 0 1 .636-2.849c.383-.92 1.074-1.675 1.798-2.263.925-.62 1.185-.83 1.286-1.152.148-.366.077-.912-.106-1.461-.193-.554-.504-1.1-.848-1.606a15.904 15.904 0 0 0-2.338-2.652 21.107 21.107 0 0 0-2.39-1.937c-.355-.27-.815-.517-1.203-.985a2.892 2.892 0 0 1-.623-1.383c-.152-.935.18-1.73.538-2.195a2.59 2.59 0 0 1 1.09-.851c.286-.118.442-.143.442-.143l-.012-.11zm-.01.834c-.196.118-.49.34-.74.76-.21.383-.32.9-.145 1.449.084.269.244.529.46.746.184.187.552.366 1.003.621 1.718 1.007 3.75 2.408 5.506 4.735.426.594.836 1.247 1.14 2.036.279.781.5 1.77.125 2.838-.108.26-.19.515-.413.769-.189.245-.444.532-.568.6l-.23.177-.116.089-.205.144-.395.278c-.483.413-.936.881-1.182 1.507-.554 1.218-.535 2.82-.185 4.425.38 1.602 1.022 3.285 1.898 4.768.405.649.947 1.09 1.56 1.216.618.116 1.364-.104 2.063-.554.698-.452 1.362-1.086 1.925-1.837.299-.355.55-.773.819-1.163.232-.425.485-.778.71-1.267.397-.852 1.064-2.062 1.932-2.844.424-.41.899-.734 1.356-1.087.486-.285.964-.602 1.463-.857 1.997-1.025 4.108-1.713 6.245-2.288 2.14-.565 4.32-.988 6.514-1.33a98.742 98.742 0 0 1 3.304-.45l1.669-.19a1.328 1.328 0 0 0 1.018-.649l.048-.088.075-.173.349-.795c.25-.519.5-1.04.793-1.532.558-1.003 1.206-1.941 1.884-2.846 1.364-1.807 2.902-3.44 4.513-4.955a53.09 53.09 0 0 1 2.476-2.184l.63-.516.313-.253a1.464 1.464 0 0 0 .553-1.08c.056-.66-.433-1.326-1.03-1.488l-.094-.026-.048-.014c-.03-.009.1.024.022.007l-.191-.033-.381-.064-.76-.13-1.51-.257c-4.034-.584-7.996-.725-11.747-.67-3.753.052-7.305.298-10.57.679a144.586 144.586 0 0 0-15.661 2.7c-1.88.412-3.315.842-4.362.932-1.04.118-1.605.137-1.605.137l-.228.007zm91.935 77.156c.993.086 1.932.187 2.866.237.93.032 1.823.022 2.57-.213.742-.213 1.484-.83 2.533-1.286a8.403 8.403 0 0 1 3.165-.658c1.222-.007 2.375.523 3.21 1.201.86.67 1.539 1.44 2.184 2.217 1.273 1.566 2.364 3.213 3.42 4.875 2.099 3.33 4.025 6.737 5.92 10.16a621.837 621.837 0 0 1 5.557 10.324l2.719 5.19c.251.481.366.759.616.975.233.223.53.374.843.439a16.085 16.085 0 0 0 6.886.094 3.234 3.234 0 0 1 1.988.188c1.263.512 2.106 1.927 1.946 3.29-.012.103-.014.136-.045.296l-.041.179-.082.356a9.199 9.199 0 0 1-.195.741c-.138.518-.315.992-.485 1.476-.726 1.91-1.71 3.685-2.817 5.355a43.749 43.749 0 0 1-3.66 4.726c-1.333 1.47-2.704 2.903-4.157 4.241-1.436 1.358-2.937 2.637-4.45 3.898l-.038.028-.12.076a2.957 2.957 0 0 0-.427.362c-.151.162-.31.33-.435.53-.277.376-.48.825-.651 1.285-.333.933-.464 1.966-.489 3.012 0 2.108.468 4.26 1.124 6.346l1.124 3.15c.392 1.162.659 2.312.749 3.546.095 1.22-.029 2.5-.46 3.704a7.975 7.975 0 0 1-2.107 3.14c-.928.848-2 1.48-3.112 1.951-.556.236-1.125.433-1.7.597l-.829.214a1.378 1.378 0 0 0-.969 1.072l-.186 1.636c-.15 1.144-.35 2.28-.603 3.407-1.001 4.495-2.846 8.883-5.763 12.55-1.472 1.81-3.177 3.453-5.111 4.774a25.484 25.484 0 0 1-6.25 3.112 30.065 30.065 0 0 1-3.36.915c-.565.134-1.14.206-1.709.31-.522.134-1.444.178-2.136-.154a3.195 3.195 0 0 1-.96-.652 3.111 3.111 0 0 1-.376-.449c-.052-.082-.11-.162-.153-.25l-.104-.193-.8-1.506a156.45 156.45 0 0 1-1.533-3.034c-1.991-4.067-3.889-8.178-5.584-12.39-.845-2.108-1.639-4.24-2.319-6.428-.647-2.203-1.302-4.404-1.298-6.915 0-.07.01-.138.03-.202l.016-.051c.88-2.838 1.503-5.847 1.903-8.83.39-2.994.544-6.02.327-9.007-.221-2.98-.799-5.938-1.96-8.64-1.146-2.702-2.893-5.124-5.172-6.933a18.113 18.113 0 0 0-3.71-2.296 21.678 21.678 0 0 0-2.04-.826c-.349-.119-.695-.242-1.052-.339-.35-.095-.754-.239-.925-.242a1.465 1.465 0 0 0-.71.108 32.254 32.254 0 0 1-3.442.954 31.414 31.414 0 0 1-4.71.668c-3.168.205-6.434-.109-9.491-1.223a18.73 18.73 0 0 1-4.323-2.239 19.671 19.671 0 0 1-3.566-3.309c-2.084-2.495-3.509-5.427-4.479-8.437a25.608 25.608 0 0 1-.66-2.278c-.095-.387-.208-.75-.288-1.159-.077-.382-.167-.734-.231-1.147a26.889 26.889 0 0 1-.428-4.78c-.008-3.2.61-6.391 1.728-9.372 1.118-2.985 2.735-5.76 4.682-8.248a38.619 38.619 0 0 1 6.732-6.6c2.491-1.913 5.186-3.563 8.057-4.825 2.863-1.272 5.875-2.233 8.977-2.71 3.094-.441 6.312-.47 9.334.42a.32.32 0 0 1-.155.62c-2.96-.6-6.024-.443-8.965.17-2.951.593-5.814 1.616-8.513 2.947-5.388 2.665-10.271 6.444-13.901 11.194-1.808 2.37-3.328 4.962-4.353 7.74-1.03 2.773-1.59 5.714-1.573 8.663.002 1.467.143 2.962.402 4.385.052.347.152.74.227 1.111.068.346.183.718.273 1.076.182.725.379 1.445.627 2.145.439 1.425 1.045 2.777 1.697 4.096.71 1.282 1.468 2.545 2.419 3.644a17.589 17.589 0 0 0 3.159 2.955c1.18.83 2.47 1.5 3.83 2 2.724 1.004 5.704 1.313 8.656 1.133a29.4 29.4 0 0 0 4.409-.61 30.659 30.659 0 0 0 2.162-.547c.365-.107.69-.208 1.057-.333a3.482 3.482 0 0 1 1.552-.203c.598.068.915.22 1.306.32.385.107.762.242 1.14.373a23.59 23.59 0 0 1 2.225.911 20.088 20.088 0 0 1 4.097 2.562c2.535 2.027 4.476 4.753 5.712 7.708 1.254 2.96 1.849 6.123 2.069 9.261.215 3.146.039 6.289-.377 9.384-.433 3.102-1.066 6.131-2.019 9.16l.046-.254c-.021 2.016.57 4.222 1.194 6.325.65 2.12 1.42 4.22 2.244 6.3a167.789 167.789 0 0 0 5.498 12.278l1.522 2.998.788 1.48.096.178c.018.04.047.073.068.11.05.071.105.138.167.199.124.12.27.22.43.29.35.14.61.154 1.18.032.538-.102 1.085-.17 1.617-.297a28.313 28.313 0 0 0 3.158-.866 23.733 23.733 0 0 0 5.813-2.904c1.79-1.225 3.362-2.748 4.729-4.433 2.705-3.411 4.451-7.548 5.398-11.837.238-1.073.427-2.159.57-3.25l.197-1.723a3.18 3.18 0 0 1 2.265-2.492l.808-.21a12.94 12.94 0 0 0 1.486-.524c.961-.41 1.854-.946 2.59-1.623 1.493-1.345 2.17-3.322 1.975-5.38-.07-1.015-.32-2.079-.65-3.05-.382-1.049-.774-2.114-1.152-3.218-.695-2.205-1.218-4.51-1.224-6.918.025-1.205.17-2.435.594-3.63.22-.593.486-1.183.874-1.72.403-.55.775-1.015 1.518-1.473l-.157.104c1.482-1.24 2.95-2.495 4.349-3.822 1.416-1.309 2.743-2.702 4.028-4.125 2.518-2.872 4.802-6.006 6.152-9.489.154-.437.32-.876.434-1.302.065-.211.128-.427.18-.673l.083-.357.041-.178c-.009.04.008-.047.008-.066a1.395 1.395 0 0 0-.838-1.42 1.382 1.382 0 0 0-.877-.08 17.941 17.941 0 0 1-7.634-.113 3.555 3.555 0 0 1-1.718-.9c-.497-.436-.778-1.08-.975-1.458l-2.7-5.19a629.109 629.109 0 0 0-5.51-10.31c-1.876-3.411-3.784-6.807-5.838-10.087-1.03-1.634-2.098-3.25-3.284-4.716-1.176-1.437-2.55-2.838-4.056-2.81a6.725 6.725 0 0 0-2.532.516c-.754.296-1.551.97-2.691 1.33-1.131.344-2.236.252-3.234.064a15.727 15.727 0 0 1-2.885-.84l-.007-.002a.431.431 0 0 1 .194-.833z"/><path class="st6" d="M370.526 218.38l-2.79-.611-2.764-.498c-1.859-.275-3.717-.535-5.588-.665a61.45 61.45 0 0 0-11.24.09c-7.475.779-14.8 2.844-21.722 5.814a90.924 90.924 0 0 0-10.093 5.084c-.816.474-1.622.962-2.429 1.458l-.607.375-.307.189a3.36 3.36 0 0 1-1.355.47c-.179.018-.276.03-.522.022l-.356-.025c-1.896-.126-3.8-.284-5.69-.384-7.564-.444-15.168-.698-22.702-.246-3.756.25-7.523.632-11.12 1.55-3.566.885-7.12 2.375-9.18 5.215-1.05 1.395-1.64 3.108-2.2 4.905-.28.904-.563 1.837-.93 2.77-.198.506-.342.844-.412 1.198-.082.364-.075.69.003.94.13.483.689.867 1.478 1.065.773.2 1.663.234 2.546.185 1.777-.109 3.585-.52 5.278-1.15a14.21 14.21 0 0 0 2.413-1.147c.737-.446 1.426-1.002 1.782-1.581.171-.29.232-.542.208-.763-.046-.24-.22-.904-.252-1.437-.039-.556-.046-1.146.176-1.795.189-.63.78-1.37 1.57-1.573.766-.217 1.451-.058 2 .155a5.893 5.893 0 0 1 1.46.858c.853.671 1.524 1.47 2.107 2.307.284.411.561.876.79 1.272.22.372.475.76.735 1.132.524.753 1.106 1.482 1.69 2.269.292.396.586.805.857 1.29.242.482.59 1.08.431 2a2.062 2.062 0 0 1-.641 1.085c-.28.255-.561.412-.83.54-.539.249-1.048.386-1.55.5-1.995.417-3.91.503-5.837.594l-1.412.046-1.419.083a25.44 25.44 0 0 0-2.688.406c-1.795.376-3.551.957-5.253 1.684-6.846 2.952-12.609 8.002-18.586 12.714-1.504 1.18-3.028 2.35-4.629 3.442-.805.54-1.614 1.077-2.467 1.56-.846.483-1.573.92-2.248 1.487-.662.546-1.22 1.194-1.455 1.847-.233.649-.118 1.25.335 1.83.947 1.167 2.751 1.84 4.474 2.184 3.54.671 7.33.227 10.764-.993a49.643 49.643 0 0 0 5.197-2.119c1.686-.801 3.298-1.737 4.92-2.72 1.621-.98 3.303-2.008 5.173-2.737 1.868-.746 3.849-1.092 5.826-1.242 2.042-.19 4.195.371 5.95 1.365 1.786.984 3.292 2.328 4.615 3.785a28.857 28.857 0 0 1 3.45 4.758c.124.216.259.46.307.503a1.442 1.442 0 0 0 1.168.545c.112 0 .389-.05.633-.073l.744-.073c.494-.041.989-.062 1.486-.067 1.98-.016 4.014.234 5.927 1.033 1.912.772 3.633 2.27 4.56 4.17.471.942.77 1.946.946 2.951l.106.707.121.704c.088.468.199.841.32 1.278.536 1.728 1.33 3.414 2.224 5.047 1.805 3.266 3.998 6.35 6.3 9.34 2.31 2.988 4.76 5.878 7.285 8.7a206.812 206.812 0 0 0 3.85 4.179l.98 1.03c.325.322.693.76.875.868.058.04.118.073.178.101l.045.02c.082.028-.064-.02-.014-.005l.172.05.686.195c.47.149.876.203 1.314.309 1.752.33 3.572.39 5.185-.137 1.62-.501 2.992-1.588 3.976-3.023.995-1.432 1.632-3.15 2.07-4.916.44-1.777.663-3.612.808-5.49l-.003.078c.013-.642-.445-1.264-1.194-1.814-.736-.545-1.641-.995-2.567-1.418-1.862-.861-3.87-1.563-5.79-2.79-.935-.622-1.934-1.432-2.474-2.713-.25-.649-.375-1.304-.263-2.043.154-.865.585-1.421 1.038-1.895.93-.91 1.99-1.412 3.048-1.81a16.683 16.683 0 0 1 3.238-.806c4.342-.617 8.901-.009 12.813 2.19 1.937 1.106 3.667 2.648 4.916 4.525a14.63 14.63 0 0 1 1.55 2.98c.2.522.379 1.05.522 1.587.077.267.144.536.202.807l.178.743.38 1.525.457 1.426c.135.476.347.95.522 1.425.177.477.365.95.584 1.412.809 1.872 1.798 3.67 2.898 5.402 2.189 3.472 4.836 6.665 7.736 9.603a75.43 75.43 0 0 0 2.223 2.158 1.303 1.303 0 0 0 2.167-.543c.042-.137.052-.267.077-.573.022-.261.04-.517.075-.8.124-1.102.304-2.16.55-3.22.98-4.226 2.802-8.167 4.997-11.82.27-.46.555-.91.845-1.357l.432-.673.474-.671c.718-.958 1.567-1.779 2.672-2.377 1.087-.602 2.418-.815 3.62-.668 1.212.14 2.317.557 3.314 1.074 2.002 1.044 3.68 2.43 5.266 3.864 1.582 1.443 3.053 2.97 4.49 4.512 2.874 3.085 5.596 6.273 8.5 9.222 1.449 1.47 2.937 2.901 4.55 4.085 1.586 1.157 3.428 2.156 5.059 1.9.207-.042.38-.071.607-.154a5.4 5.4 0 0 0 .63-.251 3.782 3.782 0 0 0 1.047-.7c.575-.55.843-1.302.833-2.183-.04-1.782-.949-3.685-1.958-5.411-1.042-1.742-2.26-3.411-3.56-5.015a69.098 69.098 0 0 0-2.04-2.392 3.863 3.863 0 0 1-.284-.4l-.06-.101-.061-.115-.02-.045-.083-.19a3.02 3.02 0 0 1-.214-1.05 3.07 3.07 0 0 1 .61-1.937c.382-.572 1.113-.939 1.516-1.124l1.38-.716a80.88 80.88 0 0 0 2.725-1.513 70.266 70.266 0 0 0 5.242-3.353c1.684-1.205 3.303-2.505 4.735-3.98 1.4-1.472 2.717-3.153 3.24-5.067l.01-.037a.318.318 0 0 1 .618.154c-.492 2.189-1.794 3.978-3.203 5.57-1.432 1.586-3.046 2.979-4.723 4.273a58.519 58.519 0 0 1-5.238 3.58 79.38 79.38 0 0 1-2.734 1.603l-1.391.764c-.53.272-.768.403-.985.718-.209.29-.313.655-.29 1.01.006.165.058.378.101.482.014.039.053.113.078.167l.021.044c.015.031-.052-.1-.014-.028l.042.066c.057.087.116.166.176.237.669.714 1.42 1.544 2.096 2.34 1.374 1.62 2.686 3.308 3.805 5.158.56.925 1.076 1.888 1.495 2.92.412 1.032.749 2.14.777 3.365.05 1.205-.391 2.607-1.349 3.518a5.62 5.62 0 0 1-1.537 1.064c-.25.123-.598.264-.824.34a5.785 5.785 0 0 1-.912.238c-1.28.215-2.517-.078-3.584-.507-1.068-.447-2.021-1.034-2.914-1.67-1.78-1.281-3.34-2.75-4.839-4.252-2.976-3.025-5.7-6.218-8.539-9.265-1.417-1.522-2.858-3.015-4.373-4.397-1.513-1.373-3.108-2.668-4.831-3.563-1.712-.912-3.591-1.253-5.088-.418-.746.393-1.446 1.056-1.982 1.772-.58.793-1.138 1.702-1.665 2.571-2.117 3.519-3.847 7.285-4.763 11.237a25.66 25.66 0 0 0-.508 2.971c-.032.238-.051.505-.073.765-.017.215-.04.612-.153.978a3.287 3.287 0 0 1-1.305 1.783 3.215 3.215 0 0 1-1.61.559c-.286.016-.226.01-.524-.002a3.289 3.289 0 0 1-1.997-.902 76.956 76.956 0 0 1-2.287-2.22c-2.984-3.024-5.719-6.32-8.002-9.94-1.146-1.804-2.182-3.689-3.037-5.664a19.03 19.03 0 0 1-.617-1.491c-.187-.508-.404-.993-.558-1.525l-.497-1.568-.38-1.525-.189-.785a9.974 9.974 0 0 0-.179-.717c-.126-.476-.284-.94-.459-1.397a12.647 12.647 0 0 0-1.343-2.585c-1.075-1.615-2.556-2.938-4.252-3.91-3.415-1.93-7.61-2.521-11.534-1.968-.98.143-1.946.373-2.853.7-.898.325-1.764.775-2.334 1.342-.278.263-.468.617-.494.792-.062.296.004.714.135 1.034.27.68.94 1.306 1.735 1.825 1.616 1.048 3.587 1.77 5.524 2.661.973.452 1.963.93 2.914 1.634.472.355.941.776 1.322 1.34.384.555.64 1.29.632 2.01v.009l-.003.068c-.153 1.914-.392 3.87-.871 5.79-.484 1.913-1.182 3.83-2.367 5.532-1.16 1.702-2.926 3.115-4.957 3.729a10.06 10.06 0 0 1-3.079.464c-1.032.024-2.033-.109-3.026-.291-.487-.115-1.025-.208-1.462-.349l-.686-.197-.171-.05c-.007 0-.21-.07-.182-.064l-.119-.051a3.1 3.1 0 0 1-.44-.252c-.601-.441-.808-.782-1.166-1.12l-.985-1.04a208.474 208.474 0 0 1-3.873-4.226c-2.542-2.855-5.009-5.781-7.346-8.82-2.33-3.043-4.557-6.184-6.426-9.587-.926-1.705-1.764-3.48-2.351-5.39a16.495 16.495 0 0 1-.366-1.49l-.12-.703-.103-.704a8.96 8.96 0 0 0-.78-2.468c-.752-1.532-2.071-2.7-3.68-3.366-1.607-.675-3.43-.913-5.243-.894-.455.005-.91.024-1.365.063l-1.46.152a3.168 3.168 0 0 1-2.576-1.196c-.252-.328-.329-.513-.447-.707a27.154 27.154 0 0 0-3.243-4.463c-2.42-2.691-5.647-4.917-9.178-4.57-1.81.141-3.623.46-5.294 1.132-1.682.657-3.267 1.619-4.897 2.608-1.629.99-3.312 1.97-5.063 2.805a51.63 51.63 0 0 1-5.365 2.196c-3.717 1.317-7.753 1.814-11.707 1.076-.986-.197-1.967-.476-2.917-.905-.94-.437-1.884-.997-2.62-1.925a3.803 3.803 0 0 1-.777-1.666c-.125-.633-.042-1.3.162-1.867.426-1.147 1.202-1.956 1.99-2.622.781-.662 1.694-1.206 2.5-1.666.801-.456 1.578-.972 2.353-1.492 1.543-1.055 3.038-2.205 4.525-3.375 5.929-4.67 11.772-9.848 18.984-12.978 1.795-.77 3.667-1.393 5.597-1.8a26.881 26.881 0 0 1 2.952-.444l1.43-.085 1.44-.05c1.87-.086 3.774-.189 5.506-.557a5.806 5.806 0 0 0 1.163-.368c.344-.155.475-.333.451-.343.03-.033-.042-.371-.244-.711a10.387 10.387 0 0 0-.725-1.083c-.55-.74-1.157-1.498-1.722-2.306a20.293 20.293 0 0 1-.819-1.261 17.05 17.05 0 0 0-.715-1.151c-.501-.722-1.076-1.39-1.723-1.895-.613-.51-1.44-.824-1.776-.692-.149.042-.234.127-.336.391-.096.254-.112.64-.08 1.027.027.42.118.677.248 1.37.089.732-.144 1.434-.463 1.956-.662 1.044-1.539 1.67-2.409 2.217a16.05 16.05 0 0 1-2.731 1.306c-1.872.694-3.813 1.147-5.836 1.267-1.013.05-2.05.026-3.123-.248-.534-.143-1.086-.344-1.606-.718-.52-.357-.99-.944-1.186-1.607-.202-.662-.168-1.318-.045-1.88.118-.581.361-1.12.506-1.5.332-.837.605-1.725.89-2.638.571-1.816 1.23-3.776 2.481-5.442 1.209-1.69 2.906-2.954 4.67-3.885 1.781-.93 3.665-1.538 5.554-2.013 3.787-.957 7.632-1.333 11.46-1.582 7.667-.445 15.306-.173 22.929.287 1.91.105 3.798.265 5.698.395l.356.026.19-.013a1.6 1.6 0 0 0 .444-.118c.086-.04.109-.048.207-.108l.301-.184.608-.373c.815-.5 1.637-.995 2.468-1.476a92.658 92.658 0 0 1 10.293-5.16c7.064-3.015 14.555-5.116 22.232-5.9 3.836-.37 7.712-.42 11.555-.051 1.921.19 3.829.506 5.709.932.943.207 1.876.487 2.807.737.915.278 1.807.61 2.71.915a.428.428 0 0 1-.23.824zm22.512 6.894s.159-.132.433-.226c.278-.117.645-.016 1.123.036.962.127 2.293.261 3.928.419 1.627.163 3.531.306 5.572.475 2.043.146 4.227.253 6.415.33 1.095.03 2.19.022 3.27.02 1.077.008 2.14-.04 3.168-.058l2.966-.065c.943-.028 1.835-.015 2.66-.014.823.019 1.58.01 2.25.058.67.036 1.255.124 1.737.209.963.184 1.514.418 1.514.418a.347.347 0 0 1 .002.638s-.548.24-1.508.434c-.48.09-1.063.184-1.733.23-.67.056-1.425.058-2.25.087-3.298.088-7.706-.129-12.118-.235-2.208-.04-4.417-.111-6.488-.22a78.65 78.65 0 0 1-5.654-.48c-1.645-.188-3.038-.42-3.979-.575-.473-.09-.854-.099-1.085-.292-.236-.17-.349-.342-.349-.342a.644.644 0 0 1 .126-.847zm63.865 139.458c1.929-1.265 4.395-2.061 6.921-1.689a11.94 11.94 0 0 1 1.814.415c.605.203 1.11.359 1.746.689 1.26.725 2.042 1.614 2.83 2.53 1.508 1.854 2.686 3.868 3.746 5.932a47.216 47.216 0 0 1 2.685 6.409c.722 2.204 1.312 4.465 1.571 6.809.128 1.17.177 2.361.079 3.563-.102 1.246-.36 2.32-.522 3.436-.365 2.24-.738 4.516-1.346 6.758-.594 2.241-1.43 4.458-2.646 6.497-1.23 2.027-2.891 3.841-4.915 5.137-2.02 1.299-4.318 2.093-6.64 2.454-2.326.38-4.674.39-6.98.196l-.867-.073-.108-.01-.128-.02-.052-.011a3.007 3.007 0 0 1-2.372-2.53l-.058-.432a6.111 6.111 0 0 0-.735-2.123c-1.01-1.769-2.926-2.907-4.967-3.563-2.062-.657-4.277-.92-6.494-1.002-4.452-.124-8.944.41-13.381 1.168h-.007l-.079.01a1.54 1.54 0 0 0-.576.167l.074-.043c-.973.61-2.006 1.083-3.169 1.34-1.134.251-2.534.212-3.654-.547-1.118-.75-1.7-1.923-2.039-3.011-.342-1.11-.467-2.222-.52-3.318a26.508 26.508 0 0 1 .06-3.261c.033-.54.088-1.075.149-1.609l.044-.4.029-.222.03-.196.124-.783c.192-1.073.43-2.148.743-3.181.295-1.045.678-2.062 1.09-3.065 1.686-4.002 4.273-7.58 7.398-10.543a33.624 33.624 0 0 1 5.09-3.975c.922-.556 1.863-1.09 2.854-1.52.99-.43 2.01-.798 3.07-1.02a.307.307 0 0 1 .193.58c-.943.452-1.869.918-2.771 1.428-.902.51-1.798 1.03-2.65 1.618a32.303 32.303 0 0 0-4.85 3.867c-2.972 2.877-5.405 6.323-6.964 10.135-.381.956-.735 1.923-1.004 2.915-.29.993-.497 1.987-.669 2.995l-.115.784-.03.196-.019.171-.04.388a28.94 28.94 0 0 0-.14 1.547 24.94 24.94 0 0 0-.052 3.073c.049 1.01.171 2.016.457 2.928.28.91.739 1.723 1.406 2.158.655.447 1.544.51 2.45.312.904-.196 1.824-.613 2.637-1.126l.005-.004.07-.039c.353-.176.75-.303 1.183-.333l-.085.01c4.505-.773 9.08-1.352 13.717-1.182 2.313.1 4.652.38 6.919 1.12 2.232.733 4.509 2.057 5.791 4.283.314.547.56 1.135.73 1.74.187.564.23 1.388.323 1.624a1.505 1.505 0 0 0 1.12.977l.051.01.026.006c.025.005-.126-.02-.05-.009l.105.009.83.067c2.215.18 4.442.157 6.6-.203 2.161-.342 4.237-1.078 6.04-2.245 1.805-1.165 3.282-2.783 4.403-4.639 1.106-1.87 1.888-3.943 2.449-6.09.574-2.145.932-4.36 1.29-6.602.162-1.13.42-2.277.493-3.297.067-1.062.002-2.15-.14-3.233-.282-2.169-.887-4.317-1.62-6.41a46.515 46.515 0 0 0-2.695-6.095c-1.034-1.96-2.222-3.854-3.583-5.524-.66-.818-1.455-1.628-2.168-2.042l-.187-.1-.047-.025-.024-.012c-.023-.012.113.054.045.022l-.092-.038-.367-.152a13.451 13.451 0 0 0-.74-.267 9.927 9.927 0 0 0-1.498-.363c-2.007-.349-4.1.043-6.398.344a.347.347 0 0 1-.235-.634l.008-.006zm12.657-3.522l-.045-.008-.88-.162c-.556-.088-1.34-.191-2.347-.442-.98-.307-2.204-.63-3.631-1.121a17.819 17.819 0 0 1-2.26-.956 9.84 9.84 0 0 1-2.343-1.593c-.383-.33-.712-.735-1.048-1.141l-.818-1.238c-.46-.615-1.193-1.323-1.949-1.95-1.545-1.289-3.359-2.437-5.198-3.864-.23-.185-.462-.375-.695-.594-.232-.234-.47-.423-.718-.897-.03-.064-.057-.114-.083-.19a1.857 1.857 0 0 1-.053-.309c-.042-.178.056-.497.195-.714a1.58 1.58 0 0 1 .447-.377c.116-.05.235-.094.354-.134.411-.101.738-.11 1.065-.12 1.26.01 2.428.177 3.617.346 2.335.34 4.748.735 7.119 1.342 1.185.32 2.375.678 3.52 1.151 1.147.469 2.236 1.037 3.28 1.614 2.082 1.155 4.06 2.332 6.049 3.342 1.987 1.037 3.956 1.966 5.778 3.087.901.578 1.804 1.16 2.507 2.153.347.48.602 1.212.457 1.909-.132.69-.511 1.18-.87 1.556a6.24 6.24 0 0 1-1.176.95c-.386.218-.683.451-1.154.634-.865.433-1.706.553-2.52.641-1.636.06-2.99-.408-3.987-.89a8.271 8.271 0 0 1-2.078-1.464l-.449-.464-.085-.096zm.323-.555l.167.063.595.285c.502.252 1.194.645 2.085 1.063.889.409 2.04.762 3.344.688.629-.083 1.357-.21 1.96-.538.304-.1.683-.387 1.041-.6a4.92 4.92 0 0 0 .859-.728c.254-.27.431-.564.463-.805.042-.234-.024-.48-.242-.782-.434-.596-1.234-1.17-2.067-1.686-1.698-1.038-3.673-1.966-5.68-3.001-2.027-1.028-4.068-2.197-6.097-3.375-2.023-1.178-4.11-2.129-6.4-2.685-2.287-.568-4.623-.936-6.966-1.26-1.15-.158-2.312-.307-3.37-.306a3.6 3.6 0 0 0-.653.067.087.087 0 0 1-.05.015.205.205 0 0 0 .114-.11c.102-.081.09-.274.103-.306a.188.188 0 0 0-.023-.097c-.002-.009.01.003.01.003.01.038.193.253.369.407.182.169.388.337.597.503 1.729 1.317 3.598 2.508 5.25 3.831.847.67 1.614 1.317 2.35 2.234l.81 1.115c.284.297.547.597.864.838 1.226 1.004 2.689 1.564 4.028 2.015 1.34.458 2.57.838 3.578 1.21.99.404 1.732.934 2.206 1.297l.679.58.076.065zm-53.382-18.035l.082-.09c.005-.005.053-.059.12-.174.077-.123.12-.261.256-.583.234-.572.58-1.46 1.202-2.467a40.24 40.24 0 0 1 2.577-3.437c1.105-1.254 2.397-2.666 4.19-3.876.898-.592 1.945-1.138 3.204-1.377 1.256-.24 2.78.093 3.81.977.54.412.966.914 1.355 1.433.38.525.675.993 1.023 1.5a98.69 98.69 0 0 1 1.99 3.151c1.297 2.168 2.55 4.462 3.671 6.88a39.115 39.115 0 0 1 1.525 3.749c.218.653.425 1.308.555 2.037.034.18.068.361.077.573l.02.305c-.022.258-.01.182-.043.359-.075.333-.178.528-.274.714a4.72 4.72 0 0 1-.326.502c-.929 1.194-2 2.043-3.11 2.864a24.421 24.421 0 0 1-3.506 2.115c-1.24.58-2.488 1.142-4.029 1.227-.189.014-.4-.007-.604-.023l-.321-.058-.04-.007c.19.034.036.007.07.014l-.06-.006-.119-.013c-.15-.01-.34-.05-.454-.034-.107.02-.212.035-.318.046-.488.067-1.101.245-1.667.43-1.16.378-2.329.835-3.568 1.136-1.223.29-2.6.483-3.947-.02-.32-.14-.625-.329-.927-.5-.266-.217-.504-.465-.746-.7-.384-.519-.764-1.065-.938-1.625a15.903 15.903 0 0 1-.542-1.567c-.15-.506-.318-.964-.475-1.426-.654-1.854-1.413-3.483-2.105-4.969-.338-.75-.673-1.46-.859-2.262a3.17 3.17 0 0 1-.044-1.272c.094-.427.299-.819.508-1.09a9.14 9.14 0 0 1 2.015-1.974c.375-.255.644-.395.772-.462zm.421.482l-.555.677c-.388.472-.959 1.147-1.61 2.046-.267.375-.358.711-.208 1.301.14.571.457 1.248.803 1.97.708 1.449 1.535 3.136 2.25 5.048.767 1.894 1.083 4.224 2.803 4.86.831.317 1.912.22 3.006-.053 1.104-.27 2.233-.713 3.448-1.117.624-.2 1.222-.395 1.992-.506l.632-.051c.202-.007.33.026.499.037l.12.012.059.006.149.025.152.026c.115.004.226.023.358.01 1.047-.054 2.263-.522 3.388-1.049a23.504 23.504 0 0 0 3.302-1.94c1.035-.736 2.086-1.566 2.781-2.5.087-.114.155-.227.218-.336.06-.11.093-.22.102-.21.013.017.025-.23.026-.136l-.018-.193a2.537 2.537 0 0 0-.06-.417c-.107-.584-.302-1.204-.51-1.809a37.7 37.7 0 0 0-1.486-3.587c-1.105-2.343-2.348-4.586-3.633-6.703a97.4 97.4 0 0 0-1.966-3.069c-.335-.484-.683-1.02-.997-1.445-.32-.415-.652-.813-1.041-1.079-.756-.588-1.614-.727-2.473-.561-.864.19-1.69.663-2.43 1.205-1.482 1.112-2.676 2.45-3.689 3.654a72.482 72.482 0 0 0-2.552 3.24 17.927 17.927 0 0 1-1.897 1.983c-.22.192-.47.436-.648.517-.176.099-.273.13-.266.128l-.049.016z"/><path class="st7" d="M451.698 270.58c.502.753 2.01 10.55 2.01 11.807 0 1.256-5.15 7.914-5.779 8.416s-13.315.377-11.556-1.382c1.758-1.758 7.788-9.42 9.42-10.3 1.383-.628 1.885-3.643 2.136-4.899v-.88l-1.004-4.396c-.126.126-.503-6.532 4.773 1.633z"/><path class="st6" d="M323.312 368.435l-.074.415-.033.188c-.02.124-.144.38-.267.61-.268.485-.76 1.108-1.498 1.638-.76.49-1.695 1.002-2.74 1.555-.517.28-1.076.556-1.606.878a7.03 7.03 0 0 0-.746.504c-.221.163-.4.373-.418.402 0 0 .005-.09-.028-.133.093.347.108.378.155.66.031.235.072.503.085.717l.034.628c.024.829.02 1.669-.015 2.522-.044 1.71-.136 3.497-.255 5.34l-.179 2.792c-.029.473-.05.901 0 1.316.044.426.11.89.209 1.33.19.886.456 1.785.881 2.51.2.38.466.657.721.867.265.18.522.21.828.185.14-.066.372-.087.446-.162.134-.07.153-.114.195-.153.035-.023.111-.114.176-.187.264-.305.52-.684.747-1.084.463-.799.866-1.664 1.241-2.533a85.859 85.859 0 0 0 2.004-5.24c1.199-3.457 2.173-6.744 2.997-9.56l.15-.523.07-.25.027-.152a1.419 1.419 0 0 0-.078-.657 42.404 42.404 0 0 0-.765-1.68c-.506-1.044-1.02-1.94-1.503-2.467-.24-.279-.445-.347-.391-.357.036-.026-.08 0-.15.02l-.186.051-.034.01zm-.924.272a.663.663 0 0 1-.117-.23c-.07-.276.08-.548.205-.68a1.85 1.85 0 0 1 .419-.339l.22-.126c.072-.04.107-.071.309-.124.336-.109.695-.008.941.12.254.134.458.297.636.479.7.725 1.245 1.655 1.824 2.739.29.554.56 1.093.874 1.763a2.78 2.78 0 0 1 .14 1.737l-.072.27-.143.53a155.58 155.58 0 0 1-2.94 9.674c-.605 1.752-1.25 3.562-2.058 5.359-.404.9-.837 1.799-1.372 2.684a8.295 8.295 0 0 1-.948 1.31c-.102.107-.181.207-.341.335a2.76 2.76 0 0 1-.391.289c-.33.215-.613.237-.927.35-.665.113-1.425-.026-1.976-.417a4.276 4.276 0 0 1-1.181-1.343c-.568-.966-.857-1.965-1.084-2.961a13.44 13.44 0 0 1-.249-1.519c-.066-.538-.041-1.066-.017-1.538l.155-2.806c.097-1.833.19-3.603.195-5.268 0-.834-.03-1.637-.083-2.394l-.057-.55-.072-.431c-.004-.099-.13-.425-.125-.443a1.765 1.765 0 0 1-.017-1.223c.268-.657.628-.964.94-1.252.32-.275.632-.497.934-.694.605-.395 1.17-.722 1.705-1.01 1.069-.57 1.988-1.018 2.7-1.416.735-.352 1.333-.546 1.701-.727.13-.068.202-.11.272-.148zm-78.893-120.956l-.023.15c-.061.4-.165.754-.414.956l-.683.673-.682.675c-.218.22-.476.464-.66.662a1.425 1.425 0 0 0-.26.486c-.055.186-.08.381-.06.574.016.193.076.379.17.545.064.124.291.394.488.648.798 1 1.565 2.024 2.34 3.04l.29.382.019.024.005.006.002.003c.048.057-.063-.074-.05-.06l.01.012.04.044.08.089.09.08a1.62 1.62 0 0 0 1.73.226l-.07.04 2.136-1.272c.705-.424 1.44-.846 2.116-1.282.407-.264.645-.803.564-1.285-.014-.17-.202-.627-.34-.988-.144-.366-.3-.74-.464-1.101a21.065 21.065 0 0 0-1.081-2.092 13.042 13.042 0 0 0-.633-.948 11.796 11.796 0 0 0-.707-.832l-.377-.357-.394-.298c-.27-.165-.537-.316-.816-.393l-.21-.051c-.018-.006-.104-.026-.069-.022l-.154-.016-.604-.067-.578-.063-.24-.029c-.027-.005-.062-.005-.035-.015.001-.006.04-.01.12-.049.046-.038.433-.152.478-.765l-.012.145c-.09.205-.098.691-.216 1.21a2.474 2.474 0 0 1-.314.796 1.682 1.682 0 0 1-.532.519zm-.519-.479c.099-.333.063-.588.003-.912-.038-.177-.086-.37-.124-.598a2.84 2.84 0 0 1-.053-.829l-.012.144c.048-.668.486-.813.577-.873.128-.057.217-.076.27-.09.128-.028.198-.036.273-.046.148-.017.264-.03.382-.032h.663c.213 0 .429.011.636.025l.155.01c.14.011.153.023.236.035l.398.079a4.968 4.968 0 0 1 1.44.622l.602.446.53.493c1.296 1.394 2.059 2.994 2.69 4.594.158.403.3.802.437 1.216l.194.603c.054.157.164.514.188.783.143 1.167-.422 2.366-1.432 2.982l-1.076.646-1.058.653-2.116 1.305-.06.033-.011.005a3.426 3.426 0 0 1-3.943-.66l-.082-.088-.042-.043-.09-.109-.297-.376c-.791-1.006-1.59-2.005-2.358-3.028-.184-.257-.389-.467-.636-.903a3.167 3.167 0 0 1-.376-1.278 3.183 3.183 0 0 1 .888-2.464c.264-.26.48-.444.722-.67l.707-.648.706-.65c.213-.239.573-.325.975-.367l.094-.01zm5.892-197.209c1.72-1.28 3.656-1.911 5.58-2.573 1.922-.673 3.86-1.295 5.802-1.904l5.834-1.81 5.817-1.856 23.207-7.617a.764.764 0 0 1 .476 0l11.131 3.626 11.11 3.693c3.707 1.22 7.396 2.492 11.092 3.745l5.542 1.885c1.845.633 3.713 1.2 5.445 2.176a.311.311 0 0 1-.191.58c-1.973-.248-3.81-.906-5.67-1.498l-5.574-1.789c-3.714-1.196-7.435-2.373-11.139-3.604l-11.121-3.655-11.1-3.723h.475l-23.164 7.747-5.775 1.985-5.76 2.031c-1.921.672-3.848 1.33-5.79 1.937-1.94.618-3.869 1.267-6.013 1.268a.357.357 0 0 1-.214-.644z"/><path class="st8" d="M255.417 55.635V26.22h63.132l14.666 14.526v13.701"/><path class="st6" d="M255.078 55.635c-.226-.613-.353-1.226-.456-1.838-.1-.613-.161-1.226-.184-1.839-.038-.613-.027-1.226-.043-1.838l-.02-1.839c-.011-2.451.039-4.902.09-7.354.13-4.902.14-9.805.146-14.707 0-.445.36-.806.804-.807h.002l31.566.045 31.566-.041c.22 0 .42.09.565.232l14.654 14.538a.795.795 0 0 1 .233.559c.006 2.283-.052 4.567-.077 6.85l-.048 3.426c-.018 1.142.013 2.284-.356 3.426a.32.32 0 0 1-.61 0c-.37-1.142-.34-2.284-.356-3.426l-.049-3.425c-.024-2.284-.083-4.568-.076-6.851l.232.558-14.677-14.514.565.233-31.566-.042-31.566.045.807-.806c.006 4.902.015 9.805.145 14.707.051 2.452.102 4.903.09 7.354l-.02 1.839c-.016.612-.005 1.225-.043 1.838a14.868 14.868 0 0 1-.184 1.839c-.102.612-.23 1.225-.456 1.838a.361.361 0 0 1-.678 0z"/><path class="st6" d="M331.35 41.05c-.533.388-1.067.334-1.6.365l-1.6.066a136.68 136.68 0 0 1-3.2.052l-3.2.02c-1.067.012-2.134-.073-3.2-.052a.74.74 0 0 1-.756-.726v-.03a321.072 321.072 0 0 0-.068-6.096c-.005-1.016-.123-2.032-.195-3.049a12.77 12.77 0 0 1-.008-1.524c.02-.508.016-1.016.687-1.524a.563.563 0 0 1 .678 0c.671.508.668 1.016.687 1.524a12.79 12.79 0 0 1-.008 1.524c-.072 1.017-.19 2.033-.194 3.049a321.072 321.072 0 0 0-.069 6.097l-.755-.755c1.067.021 2.134-.064 3.2-.052l3.2.02c1.067 0 2.134.026 3.2.051l1.6.067c.534.031 1.068-.023 1.601.364a.377.377 0 0 1 0 .61z"/><path class="st8" d="M340.617 107.23h-92.602l46.37-27.935zm0-55.87v55.87l-46.231-27.935z"/><path class="st8" d="M294.386 79.295l-46.371 27.934V51.361z"/><path class="st9" d="M347.74 107.23h-92.602l46.371-27.935z"/><path class="st9" d="M347.74 56.252v50.977l-46.23-27.933 42.045-25.405c1.84-1.111 4.187.213 4.187 2.362zm-46.231 23.043l-46.371 27.935V56.093c0-2.08 2.271-3.364 4.054-2.29l42.317 25.492z"/><path class="st6" d="M340.617 107.569c-1.929.22-3.858.383-5.787.524-1.93.148-3.859.143-5.788.148-3.859.012-7.717.054-11.575.01l-23.151-.181-46.301-.073a.767.767 0 0 1-.396-1.425l46.359-27.954a.791.791 0 0 1 .817 0l23.08 14.027 11.529 7.03c1.917 1.18 3.854 2.327 5.755 3.532 1.909 1.192 3.793 2.427 5.616 3.761a.333.333 0 0 1-.158.6zm-.158-.078c-2.029-.994-3.998-2.087-5.941-3.223-1.952-1.122-3.868-2.303-5.803-3.451l-11.586-6.938-23.152-13.907h.817l-46.383 27.915-.396-1.425 46.3-.073 23.151-.181c3.859-.044 7.717-.002 11.576.01 1.929.005 3.858 0 5.787.148 1.93.14 3.859.305 5.788.524l-.158.6zM295.8 78.032c1.519-1.687 3.375-2.817 5.225-3.957a211.212 211.212 0 0 1 5.587-3.36l5.64-3.272 5.617-3.308 22.356-13.424a.76.76 0 0 1 1.151.648l.074 13.74.01 13.741c.013 4.58-.024 9.16-.047 13.74l-.038 6.871c-.021 2.29.042 4.58-.345 6.871a.31.31 0 0 1-.61.001c-.396-2.29-.342-4.58-.372-6.87l-.065-6.87c-.042-4.58-.097-9.16-.1-13.74l-.046-13.74.02-13.74 1.152.648-22.286 13.538-5.543 3.432-5.521 3.468a211.376 211.376 0 0 1-5.574 3.38c-1.87 1.108-3.734 2.225-5.935 2.784a.354.354 0 0 1-.35-.58zm-48.125 27.811c-.685-2.27-.662-4.54-.688-6.81-.035-2.27-.013-4.54.02-6.81.071-4.54.175-9.08.184-13.621l.069-27.241a.756.756 0 0 1 1.144-.647l11.308 6.754 11.272 6.814 11.243 6.862 5.616 3.442c1.87 1.15 3.771 2.247 5.456 3.704a.31.31 0 0 1-.315.523c-2.075-.809-3.934-1.977-5.825-3.093l-5.666-3.357-11.32-6.733-11.293-6.781-11.255-6.842 1.144-.646.07 27.241c.008 4.54.112 9.08.183 13.62.033 2.27.055 4.541.02 6.811-.026 2.27-.003 4.54-.688 6.81a.354.354 0 0 1-.679 0zm23.805-59.012s.166-.135.459-.269c.292-.135.71-.285 1.21-.352.5-.064 1.085-.05 1.711-.079.626-.005 1.294-.012 1.962.014 1.336.024 2.671.101 3.673.136l1.67.046a.844.844 0 0 1 0 1.687l-1.67.045c-1.002.036-2.337.113-3.673.137-.668.026-1.336.019-1.962.014-.626-.029-1.21-.015-1.711-.079a4.262 4.262 0 0 1-1.21-.352 2.377 2.377 0 0 1-.46-.27.436.436 0 0 1 0-.678zm18.995-.444l5.342.03 5.343-.053a.807.807 0 0 1 .016 1.613h-.016l-5.343-.053-5.342.03a.784.784 0 1 1-.01-1.567h.01zm18.995.008s2.34.008 4.68.068c1.169.033 2.339.038 3.216.087.877.074 1.462.315 1.462.315a.33.33 0 0 1 0 .61s-.585.242-1.462.316c-.877.049-2.047.054-3.217.087-2.34.06-4.679.068-4.679.068a.775.775 0 1 1-.005-1.55h.005zm-37.99 8.118s.166-.152.459-.296c.292-.146.71-.296 1.21-.348a38.681 38.681 0 0 1 3.673-.031c1.335.053 2.671.138 3.673.154 1.001.037 1.67.036 1.67.036a.824.824 0 1 1 .001 1.648h-.002s-.667 0-1.67.036c-1 .017-2.337.102-3.672.155a38.715 38.715 0 0 1-3.673-.03 3.574 3.574 0 0 1-1.21-.35c-.293-.143-.46-.296-.46-.296a.459.459 0 0 1 0-.678zm18.995-.431s2.671.042 5.342-.016a152.06 152.06 0 0 1 3.673-.015l1.67.006a.795.795 0 0 1 0 1.59l-1.67.007c-1.001.01-2.337.006-3.673-.015-2.67-.058-5.342-.016-5.342-.016a.77.77 0 1 1 0-1.541zm18.995.06l2.165.054c.541.004 1.083.04 1.489.134.405.091.676.217.676.217a.337.337 0 0 1 0 .61s-.27.127-.676.218c-.406.094-.948.13-1.489.134l-2.165.054a.711.711 0 1 1 0-1.421z"/><g id="_Group_"><path class="st10" d="M103.996 233.648l6.03 6.03 6.029-6.03a9.044 9.044 0 0 0 3.14-7.034 9.296 9.296 0 0 0-18.59-.024v.024a9.471 9.471 0 0 0 3.39 7.034z"/><path class="st6" d="M104.165 233.374l.07.035c.678.327 1.338.672 1.924 1.091.59.415 1.055.955 1.583 1.431 1.025.986 2.003 2.017 2.986 3.044h-1.406c1.03-.98 2.085-1.935 3.103-2.927a162.632 162.632 0 0 0 3.096-3.02 8.272 8.272 0 0 0 2.868-6.898c-.003-.5-.094-.857-.151-1.28-.106-.419-.2-.841-.363-1.242a8.31 8.31 0 0 0-3.14-4.024 9.357 9.357 0 0 0-2.329-1.107c-.812-.241-1.723-.343-2.513-.364-1 .017-1.717.148-2.578.395a8.81 8.81 0 0 0-2.305 1.144c-.718.48-1.33 1.107-1.862 1.782a8.162 8.162 0 0 0-1.254 2.253 7.986 7.986 0 0 0-.526 2.53c-.065.836.051 1.73.27 2.567a8.71 8.71 0 0 0 1.038 2.4c.457.737.984 1.408 1.489 2.19zm-.429.473c-.891-.424-1.61-1.138-2.15-1.954a10.056 10.056 0 0 1-1.292-2.726c-.284-.975-.463-1.971-.412-3.017a9.49 9.49 0 0 1 .57-2.989 9.276 9.276 0 0 1 1.452-2.68c.625-.805 1.348-1.545 2.194-2.122a10.396 10.396 0 0 1 2.732-1.371 10.93 10.93 0 0 1 2.984-.483c1.095.003 2.065.155 3.06.455a10.7 10.7 0 0 1 2.736 1.356c.838.585 1.563 1.313 2.204 2.101.645.79 1.133 1.701 1.5 2.65.196.474.315.97.441 1.466.085.506.192 1.077.195 1.52a9.925 9.925 0 0 1-.232 3.03 9.885 9.885 0 0 1-3.129 5.185l.044-.041a164.803 164.803 0 0 0-2.978 3.051c-.992 1.018-1.947 2.073-2.926 3.103a.97.97 0 0 1-1.37.035l-.003-.003-.034-.032c-1.026-.983-2.058-1.962-3.043-2.986-.476-.529-1.016-.994-1.431-1.584-.42-.585-.765-1.245-1.092-1.923l-.02-.041z"/></g><circle class="st11" cx="110.151" cy="226.363" r="2.889"/><g id="_Group_2"><path class="st10" d="M440.393 373.08l6.03 6.03 6.029-6.03a9.044 9.044 0 0 0 3.14-7.034 9.295 9.295 0 0 0-18.591 0 9.936 9.936 0 0 0 3.392 7.035z"/><path class="st6" d="M440.566 372.81l.066.031c.678.327 1.338.672 1.924 1.091.59.416 1.055.956 1.583 1.432 1.025.985 2.003 2.017 2.986 3.043h-1.406c1.03-.979 2.085-1.934 3.103-2.926a162.631 162.631 0 0 0 3.096-3.02 8.273 8.273 0 0 0 2.867-6.883c-.004-.5-.095-.86-.152-1.28-.107-.417-.199-.839-.364-1.239a8.29 8.29 0 0 0-3.136-4.016 9.378 9.378 0 0 0-2.323-1.108c-.812-.237-1.723-.345-2.506-.367a9.38 9.38 0 0 0-2.579.39 9.001 9.001 0 0 0-2.304 1.138c-.716.482-1.328 1.103-1.862 1.776a8.234 8.234 0 0 0-1.259 2.245 7.921 7.921 0 0 0-.533 2.524c-.069.8.077 1.724.297 2.551a9.19 9.19 0 0 0 1.043 2.405c.452.74.97 1.42 1.459 2.212zm-.435.465c-.881-.44-1.586-1.16-2.12-1.976a10.514 10.514 0 0 1-1.287-2.714c-.285-.977-.495-1.934-.443-3.015a9.426 9.426 0 0 1 .58-2.982 9.342 9.342 0 0 1 1.457-2.673c.626-.8 1.35-1.536 2.195-2.113a10.585 10.585 0 0 1 2.73-1.365 11.139 11.139 0 0 1 2.978-.477c1.099.004 2.062.162 3.058.458.97.32 1.892.778 2.73 1.357.84.58 1.56 1.311 2.2 2.098.644.789 1.134 1.696 1.5 2.645.196.472.313.969.441 1.462.085.509.191 1.074.196 1.517.076.98.006 2.04-.234 3.027a9.887 9.887 0 0 1-3.126 5.177l.044-.042c-1.005 1.005-2 2.02-2.978 3.052-.992 1.017-1.948 2.072-2.927 3.102a.969.969 0 0 1-1.37.036l-.002-.003-.034-.033c-1.026-.983-2.058-1.961-3.044-2.985-.476-.53-1.016-.994-1.43-1.584-.42-.586-.765-1.245-1.092-1.923l-.022-.046z"/></g><circle class="st11" cx="446.548" cy="365.795" r="2.889"/><g id="_Group_3"><path class="st10" d="M376.957 228.498l6.03 6.03 6.03-6.03a9.044 9.044 0 0 0 3.14-7.034 9.295 9.295 0 0 0-18.591 0 9.936 9.936 0 0 0 3.391 7.034z"/><path class="st6" d="M377.13 228.226l.067.032c.678.327 1.337.673 1.923 1.092.59.415 1.055.955 1.584 1.43 1.024.987 2.002 2.018 2.986 3.045h-1.406c1.03-.98 2.084-1.935 3.102-2.927a162.631 162.631 0 0 0 3.096-3.02 8.274 8.274 0 0 0 2.868-6.882c-.004-.5-.095-.86-.152-1.28-.108-.417-.199-.84-.364-1.24a8.29 8.29 0 0 0-3.137-4.016 9.378 9.378 0 0 0-2.323-1.108c-.811-.237-1.723-.345-2.506-.367-1 .021-1.72.145-2.578.391a9 9 0 0 0-2.304 1.138c-.716.481-1.328 1.103-1.862 1.775a8.236 8.236 0 0 0-1.26 2.246 7.919 7.919 0 0 0-.533 2.524c-.068.799.078 1.723.298 2.55a9.145 9.145 0 0 0 1.043 2.406c.452.74.97 1.42 1.458 2.211zm-.435.466c-.88-.439-1.586-1.16-2.12-1.976a10.514 10.514 0 0 1-1.287-2.713c-.285-.978-.494-1.935-.443-3.016a9.429 9.429 0 0 1 .58-2.982 9.342 9.342 0 0 1 1.457-2.673c.627-.8 1.351-1.536 2.195-2.113a10.585 10.585 0 0 1 2.73-1.364 11.143 11.143 0 0 1 2.978-.478c1.1.004 2.062.162 3.058.458.971.32 1.892.778 2.73 1.357.84.581 1.56 1.311 2.2 2.098.644.789 1.135 1.697 1.5 2.645.197.472.314.969.442 1.462.084.51.19 1.074.195 1.518.076.98.006 2.04-.233 3.027a9.887 9.887 0 0 1-3.127 5.176l.044-.041c-1.004 1.005-2 2.02-2.978 3.05-.992 1.019-1.947 2.073-2.926 3.104a.969.969 0 0 1-1.37.035l-.003-.003-.034-.033c-1.026-.983-2.058-1.961-3.043-2.985-.476-.53-1.016-.994-1.431-1.584-.42-.586-.765-1.245-1.092-1.923l-.022-.046z"/></g><circle class="st11" cx="383.112" cy="221.213" r="2.889"/><g id="_Group_4"><path class="st10" d="M151.227 333.261l6.03 6.03 6.03-6.03a9.044 9.044 0 0 0 3.14-7.034 9.295 9.295 0 1 0-18.591-.025v.025a11.016 11.016 0 0 0 3.391 7.034z"/><path class="st6" d="M151.41 332.994l.057.027c.678.327 1.337.673 1.923 1.092.59.415 1.055.955 1.584 1.43 1.024.986 2.002 2.018 2.985 3.044h-1.406c1.031-.979 2.085-1.934 3.103-2.926a162.327 162.327 0 0 0 3.051-2.978l.045-.042a8.262 8.262 0 0 0 2.884-6.551c-.02-.381-.02-.797-.087-1.108-.067-.663-.296-1.376-.539-2.03-.288-.647-.612-1.287-1.052-1.848-.41-.584-.93-1.08-1.478-1.53-.566-.43-1.167-.817-1.82-1.096-.315-.163-.662-.249-.99-.38-.347-.073-.682-.194-1.035-.235-.35-.053-.699-.109-1.054-.114-.162-.005-.385-.029-.498-.021l-.58.027c-.409.004-.686.094-1.037.13-.338.087-.69.153-1.023.273a8.52 8.52 0 0 0-1.911.911 8.283 8.283 0 0 0-1.627 1.36c-.504.503-.886 1.108-1.256 1.711-.32.632-.624 1.28-.783 1.975-.2.685-.257 1.398-.292 2.112l-.003-.064c.085 1.238.397 2.465.92 3.6.256.571.584 1.105.924 1.633l.513.801c.162.257.324.52.482.797zm-.45.45a5.305 5.305 0 0 1-1.552-1.313c-.445-.546-.803-1.158-1.125-1.785a11.733 11.733 0 0 1-1.183-4.055.606.606 0 0 1-.003-.065c.016-.831.081-1.673.298-2.484.178-.821.518-1.596.889-2.347.42-.724.882-1.434 1.47-2.037a9.862 9.862 0 0 1 1.92-1.62 10.116 10.116 0 0 1 2.265-1.093c.396-.144.808-.228 1.219-.332.417-.056.898-.16 1.266-.163l.58-.03c.274-.013.438.013.662.018.421.004.837.074 1.252.145.417.058.817.2 1.225.3.39.156.798.271 1.17.466.768.345 1.471.815 2.127 1.335.636.543 1.234 1.136 1.73 1.811.521.658.914 1.406 1.258 2.169.302.791.563 1.563.667 2.444.083.451.079.813.105 1.204.023.436.006.846-.023 1.27a9.945 9.945 0 0 1-.537 2.462c-.556 1.593-1.55 3.024-2.82 4.137l.045-.042c-1.005 1.005-2 2.02-2.979 3.051-.991 1.018-1.947 2.072-2.926 3.103a.969.969 0 0 1-1.37.035l-.003-.003-.033-.032c-1.027-.983-2.058-1.962-3.044-2.986-.476-.528-1.016-.993-1.431-1.583-.42-.586-.764-1.246-1.091-1.924l-.028-.057z"/></g><circle class="st11" cx="157.382" cy="325.85" r="2.889"/><g id="_Group_5"><path class="st10" d="M265.913 293.818l6.03 6.03 6.03-6.03a9.044 9.044 0 0 0 3.14-7.034 9.295 9.295 0 0 0-18.591 0 11.016 11.016 0 0 0 3.392 7.034z"/><path class="st6" d="M266.096 293.55l.057.028c.678.327 1.338.672 1.924 1.091.59.416 1.054.955 1.583 1.432 1.024.985 2.002 2.017 2.986 3.043h-1.406c1.03-.978 2.085-1.934 3.103-2.926a162.944 162.944 0 0 0 3.05-2.978l.046-.042a8.262 8.262 0 0 0 2.883-6.539c-.022-.379-.02-.798-.088-1.108-.068-.66-.297-1.373-.541-2.026-.287-.646-.613-1.284-1.052-1.844-.408-.584-.93-1.078-1.477-1.528-.567-.426-1.164-.819-1.817-1.093a8.091 8.091 0 0 0-2.023-.616c-.35-.049-.698-.11-1.052-.114-.161-.006-.388-.024-.495-.022l-.58.028c-.413.002-.689.093-1.04.13-.336.081-.687.156-1.02.27a8.532 8.532 0 0 0-1.91.909 8.202 8.202 0 0 0-1.627 1.354c-.504.502-.886 1.106-1.255 1.708-.324.629-.626 1.277-.788 1.97-.201.683-.26 1.396-.297 2.107l-.003-.065a10.33 10.33 0 0 0 .92 3.601c.257.571.585 1.105.924 1.633l.514.8c.162.258.324.52.48.798zm-.45.45a5.3 5.3 0 0 1-1.552-1.312c-.444-.546-.803-1.158-1.124-1.785a11.73 11.73 0 0 1-1.184-4.055.599.599 0 0 1-.003-.066c.02-.832.084-1.672.304-2.481.181-.82.519-1.593.894-2.342.42-.723.882-1.432 1.47-2.032a9.775 9.775 0 0 1 1.92-1.614c.703-.46 1.469-.82 2.263-1.09.398-.138.806-.23 1.22-.329.416-.057.897-.163 1.26-.163l.58-.031c.278-.007.438.014.663.02.421.002.836.077 1.25.144a9.677 9.677 0 0 1 2.393.767c.768.341 1.467.816 2.124 1.332.633.544 1.233 1.133 1.728 1.808.52.657.916 1.403 1.258 2.165.303.79.565 1.56.67 2.44.084.452.078.81.106 1.202.023.441.006.847-.024 1.27a9.982 9.982 0 0 1-.538 2.46 9.874 9.874 0 0 1-2.818 4.13l.045-.042c-1.005 1.005-2 2.02-2.979 3.051-.991 1.018-1.947 2.072-2.926 3.103a.968.968 0 0 1-1.37.036l-.002-.003-.034-.033c-1.026-.983-2.058-1.961-3.044-2.985-.476-.53-1.016-.994-1.431-1.584-.42-.586-.764-1.245-1.091-1.923l-.028-.058z"/></g><circle class="st11" cx="272.069" cy="286.407" r="2.889"/><g class="st12"><path class="st4" d="M328.908 126.342s.358.137.91.513c.582.346 1.224 1.065 2.102 1.92l7.209 7.141a959.167 959.167 0 0 1 10.145 10.143l11.577 11.682c3.96 3.958 7.943 7.892 11.698 11.56l5.387 5.315c1.72 1.681 3.298 3.32 4.779 4.809 1.47 1.499 2.84 2.85 4.005 4.097a92.071 92.071 0 0 1 2.965 3.282c1.59 1.874 2.417 3.026 2.417 3.026a.323.323 0 0 1-.451.45s-1.15-.829-3.02-2.423a92.082 92.082 0 0 1-3.276-2.973c-1.244-1.168-2.593-2.54-4.089-4.014-1.485-1.484-3.12-3.065-4.798-4.79l-5.302-5.399c-3.66-3.762-7.586-7.755-11.535-11.723l-11.656-11.602a959.443 959.443 0 0 1-10.121-10.168l-7.126-7.225c-.852-.88-1.57-1.523-1.915-2.105-.375-.553-.51-.912-.51-.912a.469.469 0 0 1 .605-.604z"/></g><g class="st12"><path class="st4" d="M394.59 173.294s.587.58.657 1.592c.061 1.013.08 2.46-.038 4.196-.122 1.736-.144 3.761-.15 5.932l-.025 3.346-.014 1.759c0 .698-.33 1.534-.882 2.057a3.066 3.066 0 0 1-2.094.884l-1.723.024c-1.14.023-2.26.005-3.346.004-2.17-.01-4.195-.012-5.932-.044-1.736-.022-3.183-.084-4.195-.106-1.013-.016-1.592-.343-1.592-.343a.35.35 0 0 1 0-.61s.579-.327 1.592-.343c1.012-.023 2.46-.085 4.195-.106 1.737-.032 3.762-.035 5.932-.044 1.086-.001 2.207-.02 3.346.003l1.719.024a1.38 1.38 0 0 0 1.027-.413 1.45 1.45 0 0 0 .416-1.065l-.014-1.682-.024-3.345c-.007-2.17-.03-4.196-.15-5.932a33.414 33.414 0 0 1-.039-4.196c.07-1.013.657-1.592.657-1.592a.483.483 0 0 1 .677 0z"/></g><g class="st12"><path class="st4" d="M364.106 126.342s.358.137.91.513c.582.346 1.223 1.065 2.101 1.92l7.21 7.141a959.167 959.167 0 0 1 10.145 10.143l11.577 11.682c3.959 3.958 7.943 7.892 11.697 11.56l5.387 5.315c1.721 1.681 3.299 3.32 4.78 4.809 1.47 1.499 2.839 2.85 4.005 4.097a92.071 92.071 0 0 1 2.965 3.282c1.59 1.874 2.417 3.026 2.417 3.026a.323.323 0 0 1-.452.45s-1.15-.829-3.02-2.423a92.082 92.082 0 0 1-3.276-2.973c-1.243-1.168-2.592-2.54-4.088-4.014-1.486-1.484-3.12-3.065-4.798-4.79l-5.303-5.399a1448.49 1448.49 0 0 0-11.535-11.723l-11.656-11.602a959.443 959.443 0 0 1-10.12-10.168l-7.127-7.225c-.852-.88-1.57-1.523-1.914-2.105-.375-.553-.511-.912-.511-.912a.469.469 0 0 1 .606-.604z"/></g><g class="st12"><path class="st4" d="M429.788 173.294s.587.58.656 1.594a33.37 33.37 0 0 1-.038 4.2c-.121 1.738-.144 3.765-.15 5.938a38459.318 38459.318 0 0 0-.038 5.071 2.897 2.897 0 0 1-.857 2.105 3.009 3.009 0 0 1-2.105.859l-1.722.023c-1.14.023-2.263.005-3.35.004-2.172-.01-4.2-.012-5.937-.044-1.738-.022-3.187-.084-4.2-.106-1.014-.016-1.594-.343-1.594-.343a.35.35 0 0 1 0-.61s.58-.327 1.594-.343c1.013-.023 2.462-.085 4.2-.106 1.738-.032 3.765-.035 5.938-.044 1.086-.001 2.208-.02 3.349.003l1.722.024c.416.015.763-.111 1.035-.387a1.376 1.376 0 0 0 .388-1.035l-.012-1.722-.025-3.35c-.007-2.172-.029-4.2-.15-5.937a33.483 33.483 0 0 1-.038-4.2c.07-1.014.656-1.594.656-1.594a.483.483 0 0 1 .678 0z"/></g><g class="st12"><path class="st4" d="M364.106 91.983s.358.136.91.512c.582.347 1.223 1.066 2.101 1.92l7.21 7.142a959.167 959.167 0 0 1 10.145 10.143l11.577 11.682c3.959 3.958 7.943 7.892 11.697 11.56l5.387 5.315c1.721 1.681 3.299 3.32 4.78 4.808 1.47 1.5 2.839 2.852 4.005 4.098a92.071 92.071 0 0 1 2.965 3.282c1.59 1.873 2.417 3.026 2.417 3.026a.323.323 0 0 1-.452.45s-1.15-.829-3.02-2.424a92.082 92.082 0 0 1-3.276-2.972c-1.243-1.169-2.592-2.541-4.088-4.014-1.486-1.484-3.12-3.066-4.798-4.79l-5.303-5.399a1448.49 1448.49 0 0 0-11.535-11.723l-11.656-11.602a959.443 959.443 0 0 1-10.12-10.168l-7.127-7.225c-.852-.88-1.57-1.523-1.914-2.106-.375-.553-.511-.911-.511-.911a.469.469 0 0 1 .606-.605z"/></g><g class="st12"><path class="st4" d="M429.788 138.935s.587.58.656 1.593c.062 1.014.08 2.462-.038 4.2-.121 1.738-.144 3.765-.15 5.937a38445.343 38445.343 0 0 0-.038 5.072 2.904 2.904 0 0 1-.86 2.104 3.006 3.006 0 0 1-2.103.86l-1.722.024c-1.14.023-2.263.005-3.35.004-2.172-.01-4.2-.012-5.937-.044-1.738-.022-3.186-.084-4.2-.107-1.013-.016-1.593-.342-1.593-.342a.35.35 0 0 1 0-.61s.58-.327 1.593-.343c1.014-.023 2.462-.085 4.2-.106 1.738-.032 3.765-.034 5.938-.044 1.086-.001 2.208-.02 3.349.003l1.722.024c.412.015.762-.113 1.034-.39a1.384 1.384 0 0 0 .39-1.034l-.012-1.721-.025-3.35c-.007-2.172-.029-4.2-.15-5.937a33.478 33.478 0 0 1-.038-4.2c.07-1.014.656-1.593.656-1.593a.483.483 0 0 1 .678 0z"/></g><path class="st13" d="M347.689 374.965h68.209m-205.757 0h46.351m-159.782 0h26.505m323.207-43.337h39.066m-146.341 0h15.827m-176.865 0h36.554m-141.568 0H97.59m368.931-37.81h18.967m-271.453 0h-56.15m315.419-36.805h12.184m-297.204 0h41.452"/><circle class="st8" cx="477.653" cy="259.299" r="59.055"/><path class="st14" d="M482.798 209.722c-27.024 0-48.931 21.907-48.931 48.931 0 27.024 21.907 48.931 48.931 48.931s48.932-21.907 48.932-48.93c-.016-27.018-21.914-48.917-48.932-48.932zm0 87.176c-21.122-.03-38.22-17.176-38.191-38.299.03-21.122 17.177-38.22 38.299-38.19a38.245 38.245 0 0 1 24.92 9.28l.985-.985a2.714 2.714 0 0 1 3.937 0 2.714 2.714 0 0 1 0 3.937l-.985.984c13.8 16.022 11.998 40.197-4.024 53.997a38.288 38.288 0 0 1-24.94 9.276z"/><path class="st6" d="M477.332 210.06l-3.436.403c-.556.077-1.196.114-1.865.243l-2.174.451c-.78.175-1.62.309-2.507.531-.88.268-1.82.53-2.812.802-3.932 1.145-8.691 2.893-13.448 6.118-4.774 3.14-9.683 7.54-13.655 13.398-3.933 5.856-6.875 13.138-7.884 21.198-.165 1.001-.144 2.029-.22 3.053l-.079 1.545-.04.776c-.005.178.02.504.03.75.13 2.105.114 4.29.529 6.344.497 4.192 1.858 8.41 3.565 12.47l1.444 3.005c.494 1 1.137 1.924 1.7 2.896l.876 1.446c.324.461.673.907 1.008 1.363.69.896 1.328 1.842 2.067 2.708 2.942 3.49 6.433 6.555 10.258 9.199 3.886 2.57 8.179 4.537 12.657 5.982 4.519 1.353 9.234 1.97 13.962 2.086l3.559-.176c.594-.047 1.212-.021 1.785-.13l1.737-.271 1.736-.269.867-.133.857-.22 3.421-.886c4.477-1.449 8.769-3.415 12.652-5.987 3.823-2.646 7.311-5.71 10.26-9.193.742-.863 1.379-1.809 2.07-2.704l1.011-1.361.878-1.444c.565-.97 1.208-1.895 1.705-2.894l1.45-3.003c1.716-4.068 3.079-8.253 3.59-12.492.419-2.097.402-4.216.535-6.295l.035-.74-.04-.79-.08-1.57c-.076-1.036-.052-2.1-.21-3.094-.965-8.001-3.843-15.382-7.75-21.282-3.942-5.916-8.85-10.386-13.645-13.571-4.794-3.246-9.586-5.017-13.55-6.159l-2.841-.762c-.9-.21-1.762-.31-2.555-.455-.796-.126-1.529-.276-2.204-.396-.674-.12-1.299-.123-1.853-.183a149.68 149.68 0 0 1-3.414-.34l.018.033zm-.017-.643s1.204-.017 3.48.01c.567.028 1.207-.006 1.9.075.694.09 1.454.168 2.27.29.816.127 1.704.208 2.63.4l2.932.724c4.077 1.15 9.01 2.948 13.958 6.258 4.95 3.249 10.024 7.822 14.119 13.898a50.57 50.57 0 0 1 8.088 21.997c.162 1.045.137 2.072.215 3.12l.081 1.57.041.79c.002.346-.022.558-.032.844-.132 2.146-.118 4.333-.545 6.5-.527 4.379-1.925 8.706-3.698 12.91l-1.494 3.106c-.514 1.032-1.175 1.989-1.759 2.992l-.906 1.492-1.042 1.409c-.713.926-1.373 1.902-2.138 2.795-3.037 3.608-6.654 6.764-10.613 9.481-4.018 2.646-8.457 4.666-13.085 6.14l-3.535.902-.885.222-.91.138-1.82.274-1.82.272c-.61.107-1.202.082-1.804.13l-3.635.185c-4.874-.108-9.741-.737-14.407-2.127-4.627-1.48-9.062-3.506-13.078-6.152-3.955-2.721-7.565-5.88-10.61-9.48-.764-.894-1.426-1.868-2.14-2.793-.347-.47-.707-.931-1.042-1.408l-.909-1.49c-.585-1.003-1.248-1.959-1.761-2.991l-1.5-3.104c-1.777-4.214-3.178-8.507-3.716-12.934-.432-2.21-.412-4.332-.548-6.45-.011-.284-.034-.486-.035-.836l.04-.802.079-1.598c.079-1.059.046-2.122.204-3.16.952-8.352 3.921-15.948 7.948-22.082 4.066-6.134 9.14-10.777 14.114-14.068 4.985-3.328 9.952-5.146 14.063-6.289 1.042-.252 2.03-.484 2.961-.683.939-.178 1.85-.223 2.678-.321l2.3-.232c.699-.07 1.324-.003 1.89-.012l3.458.055.018.033z"/><path class="st6" d="M515.898 258.671c.33 4.254-.109 8.85-1.619 12.99-1.474 4.159-3.571 8.145-6.418 11.544a39.758 39.758 0 0 1-9.972 8.646c-3.774 2.279-7.913 4.005-12.245 4.859-2.167.385-4.35.749-6.554.764l-1.65.075c-.626-.006-1.1-.051-1.657-.075l-1.614-.087-.807-.044-.825-.127c-4.444-.501-8.66-1.864-12.595-3.846a39.726 39.726 0 0 1-10.572-7.787c-3.083-3.143-5.56-6.862-7.37-10.865a39.853 39.853 0 0 1-3.354-12.687l-.156-3.293c.01-1.163.103-2.176.15-3.271.005-1.066.267-2.18.412-3.272.09-.547.16-1.1.262-1.643l.41-1.596c1.076-4.255 2.832-8.36 5.29-12.013a39.567 39.567 0 0 1 9.04-9.523c3.52-2.633 7.47-4.707 11.674-6.024 4.21-1.304 8.635-1.814 13.014-1.748a39.018 39.018 0 0 1 12.864 2.671 39.004 39.004 0 0 1 11.22 6.809l-1.006.036 1.042-1.032c.13-.14.47-.413.71-.545.27-.148.553-.274.851-.345a3.44 3.44 0 0 1 3.363.964c.09.102.15.145.265.294.111.134.205.267.279.395a3.452 3.452 0 0 1 .38 2.646 3.46 3.46 0 0 1-.906 1.559l-1.028 1.02.036-.953 1.097 1.344 1.036 1.391.973 1.436.909 1.477.842 1.515.774 1.551.704 1.584.634 1.613.56 1.64.488 1.662.397 1.686.317 1.702c.077.571.17 1.14.23 1.714l.128 1.724c.02.575.035 1.15.035 1.725l-.07 1.722.032.018zm-.644-.018l-.147-1.685a52.48 52.48 0 0 1-.192-1.674l-.25-1.663c-.111-.55-.199-1.102-.297-1.652l-.36-1.638-.426-1.62-.482-1.605-.552-1.58-.622-1.555-.69-1.525-.758-1.493-.822-1.458-.886-1.42-.949-1.378-1.008-1.335-1.066-1.29-.007-.008a.707.707 0 0 1 .043-.945l1.021-1.028c.263-.257.433-.577.528-.92a2.025 2.025 0 0 0-.231-1.54 1.533 1.533 0 0 0-.138-.198c-.025-.048-.15-.164-.221-.242a1.992 1.992 0 0 0-2.436-.344c-.175.114-.223.135-.431.34l-1.01 1.014a.744.744 0 0 1-1.006.037c-6.414-5.51-14.731-8.746-23.157-9.02-4.234-.056-8.456.436-12.497 1.691-4.028 1.268-7.813 3.262-11.183 5.79a38.498 38.498 0 0 0-8.699 9.111c-2.372 3.497-4.077 7.428-5.129 11.51l-.402 1.532c-.098.515-.167 1.033-.25 1.55-.133 1.042-.386 2.038-.391 3.135-.044 1.057-.138 2.195-.14 3.185l.156 3.165a38.309 38.309 0 0 0 3.248 12.174c1.745 3.838 4.13 7.404 7.095 10.412a38.124 38.124 0 0 0 10.156 7.445c3.748 1.889 7.88 3.197 12.01 3.652l.772.121.807.043 1.614.083c.518.021 1.12.07 1.57.07l1.58-.082c2.11-.04 4.193-.421 6.256-.814 4.126-.869 8.045-2.572 11.604-4.786a38.239 38.239 0 0 0 9.373-8.312c2.664-3.243 4.714-6.973 6.128-10.916 1.36-3.984 2.401-7.98 2.84-12.352l.034.018z"/><path class="st6" d="M476.887 296.898c.01 0-.23-.037-.392-.106-.229-.068-.113-.17-.14-.298v-1.068c0-.883.095-2.06.101-3.238.01-1.178-.227-2.355-.168-3.238.018-.221.015-.424.051-.603a1.58 1.58 0 0 1 .177-.465c.158-.257.341-.404.341-.404a.732.732 0 0 1 .915 0s.184.147.341.404c.07.13.145.286.177.465.037.18.034.382.051.603.059.883-.177 2.06-.168 3.238.006 1.178.102 2.355.1 3.238v1.068c-.026.128.09.23-.14.299-.162.069-.402.105-.39.105h-.856zm-.03-67.069s-.184-.148-.341-.405a1.58 1.58 0 0 1-.177-.465c-.036-.18-.033-.382-.05-.602-.06-.884.176-2.061.167-3.239-.006-1.177-.101-2.355-.1-3.238v-1.067c.026-.13-.09-.23.14-.3.162-.068.402-.105.39-.105h.856c-.011 0 .229.037.392.106.228.069.113.17.14.299v1.067c0 .883-.096 2.06-.101 3.238-.01 1.178.227 2.355.168 3.239-.018.22-.015.423-.051.602a1.57 1.57 0 0 1-.177.465c-.158.257-.342.405-.342.405a.732.732 0 0 1-.914 0zm38.703 29.251c0-.01-.037.23-.106.392-.07.23-.17.114-.3.14h-1.066c-.883 0-2.061-.095-3.239-.1-1.177-.01-2.355.226-3.238.168-.22-.018-.423-.015-.603-.051a1.578 1.578 0 0 1-.464-.177c-.258-.158-.405-.342-.405-.342a.732.732 0 0 1 0-.914s.147-.184.405-.342a1.58 1.58 0 0 1 .464-.177c.18-.036.382-.033.603-.05.883-.06 2.06.176 3.238.168 1.178-.006 2.355-.102 3.239-.101h1.067c.129.026.23-.09.299.14.069.162.106.402.106.391v.856zm-67.07-.108s-.147.229-.405.426a1.427 1.427 0 0 1-.464.223c-.18.047-.382.045-.603.07a8.972 8.972 0 0 1-1.509-.061c-.552-.063-1.14-.123-1.73-.118-.588-.001-1.177.043-1.729.07a18.24 18.24 0 0 1-1.509-.007c-.441-.021-.81-.06-1.067-.077-.129-.022-.23.033-.299-.135-.069-.122-.106-.29-.106-.282a1.942 1.942 0 0 1 0-.856c0 .008.037-.16.106-.282.069-.168.17-.113.299-.135.258-.017.626-.055 1.067-.077a17.84 17.84 0 0 1 1.509-.006c.552.026 1.14.07 1.73.069.588.005 1.177-.055 1.73-.117a8.972 8.972 0 0 1 1.508-.061c.22.024.423.022.603.069.179.041.335.137.464.223.258.197.405.426.405.426.129.2.12.45 0 .638zm58.369 50.172s-.355.038-.496-.173c-.146-.208-.38-.49-.617-.855-.245-.36-.501-.797-.781-1.261-.139-.234-.29-.47-.424-.722-.121-.259-.237-.527-.39-.772-.3-.496-.589-.997-.888-1.45-.29-.46-.556-.891-.883-1.203-.318-.318-.49-.636-.559-.889-.03-.129.056-.293.158-.43l.21-.243c.16-.182.368-.296.588-.34l.315-.062c.17-.02.355-.012.452.078.185.185.376.493.493.927.107.439.348.885.603 1.364.244.486.535.986.816 1.492.136.256.311.49.475.723.15.242.281.49.415.727.263.474.515.914.705 1.306.198.386.326.73.434.96.112.228-.098.517-.098.517a.758.758 0 0 1-.528.305zm-59.196-.306s-.21-.29-.097-.516c.107-.231.235-.575.434-.962.19-.391.442-.83.705-1.305.134-.236.264-.485.415-.727.164-.234.339-.467.475-.723.281-.506.572-1.006.816-1.492.255-.48.495-.925.603-1.365.117-.433.308-.74.493-.926.097-.09.282-.098.452-.078l.315.062c.237.047.44.17.587.34l.211.242c.102.138.188.302.158.431-.07.253-.24.571-.559.889-.327.312-.594.743-.883 1.202-.3.454-.589.955-.887 1.451-.154.245-.27.513-.391.772-.135.251-.285.488-.424.721-.28.465-.536.902-.78 1.262-.237.365-.472.647-.618.855-.141.21-.496.172-.496.172a.757.757 0 0 1-.529-.305z"/><path class="st15" d="M482.145 257.755l24.13-24.13.99-.98c.53-.52.83-1.23.84-1.97-.01-.74-.31-1.45-.84-1.97-.03-.04-.07-.07-.1-.1a2.717 2.717 0 0 0-3.84.1l-.98.98-24.05 24.05-.09.09"/><path class="st6" d="M481.905 257.515c.7-1.651 1.882-2.822 3.042-4.013 1.151-1.2 2.34-2.364 3.54-3.516l3.61-3.445 3.576-3.48 7.08-7.031 3.544-3.516.434-.426c.088-.09.108-.113.158-.176a2.051 2.051 0 0 0 .436-1.03c.074-.564-.16-1.22-.59-1.637l-.075-.086c.002.01-.059-.046.003.012l-.119-.102c-.09-.084-.13-.097-.18-.136a2.046 2.046 0 0 0-.393-.2 2.044 2.044 0 0 0-.888-.1 1.911 1.911 0 0 0-.832.302 1.938 1.938 0 0 0-.342.284l-.446.451-3.51 3.549-7.073 7.045c-2.35 2.357-4.738 4.675-7.112 7.006l-3.565 3.494c-1.192 1.16-2.334 2.372-3.782 3.277a.313.313 0 0 1-.432-.432c.905-1.448 2.116-2.59 3.277-3.782l3.494-3.565c2.331-2.374 4.649-4.763 7.006-7.112l7.045-7.072 3.549-3.51.437-.43a3.482 3.482 0 0 1 2.125-1.02c1.075-.086 2.116.239 2.948 1.133l-.075-.086a3.532 3.532 0 0 1 1.05 2.898 3.586 3.586 0 0 1-1.006 2.099l-.453.452-3.516 3.534-7.031 7.08-3.48 3.575-3.444 3.61a123.002 123.002 0 0 1-3.516 3.54c-1.192 1.16-2.363 2.342-4.014 3.042a.366.366 0 0 1-.48-.48z"/><path class="st15" d="M477.596 262.309a2.812 2.812 0 0 1-2.11-.844l-17.153-17.154a2.983 2.983 0 0 1 4.218-4.218l17.154 17.154a3.065 3.065 0 0 1 0 4.218 2.812 2.812 0 0 1-2.11.844z"/><path class="st6" d="M460.442 240.655c.415-.01.818.141 1.124.422l17.155 17.154c.56.645.56 1.605 0 2.25-.646.56-1.605.56-2.25 0l-17.154-17.154a1.715 1.715 0 0 1 0-2.25c.306-.28.71-.432 1.125-.422m0-2.812a4.373 4.373 0 0 0-3.094 7.452l17.154 17.154a4.375 4.375 0 0 0 6.187-6.186l-17.154-17.154a4.36 4.36 0 0 0-3.093-1.266z"/><circle class="st8" cx="477.315" cy="258.653" r="4.921"/><path class="st6" d="M477.332 253.393s.125-.086.358-.214c.195-.132.713-.287 1.2-.223a4.931 4.931 0 0 1 1.693.708 5.268 5.268 0 0 1 1.619 1.723c.439.748.73 1.65.829 2.615.013.255.03.458.024.765-.016.219-.013.404-.064.697-.073.55-.232 1.017-.442 1.51a5.774 5.774 0 0 1-2.08 2.43 5.733 5.733 0 0 1-3.193.926c-.427-.015-1.099-.076-1.611-.23a6.265 6.265 0 0 1-1.516-.679 5.672 5.672 0 0 1-2.06-2.45 5.787 5.787 0 0 1-.445-2.928c.12-1.029.481-1.84.952-2.543a5.512 5.512 0 0 1 3.234-2.21 2.179 2.179 0 0 1 1.105-.012c.254.078.38.148.38.148l.017-.033zm-.017.644s-.116.083-.314.184a6.601 6.601 0 0 1-.826.318c-.696.203-1.652.761-2.325 1.8-.33.502-.563 1.188-.64 1.81-.08.765.028 1.467.337 2.174.31.694.835 1.31 1.491 1.76.326.23.69.41 1.073.542.411.123.704.186 1.242.194.333-.018.795-.072 1.166-.193a4.5 4.5 0 0 0 1.083-.525 4.184 4.184 0 0 0 1.472-1.782c.14-.339.26-.73.291-1.045.034-.136.034-.384.044-.59a4.973 4.973 0 0 0-.035-.495 3.664 3.664 0 0 0-.763-1.737 5.3 5.3 0 0 0-2.25-1.58c-.325-.165-.473-.394-.729-.552-.219-.151-.335-.25-.335-.25l.017-.033z"/><g class="st16"><path class="st6" d="M80.294 115.913s-.087-.11-.216-.313c-.134-.164-.294-.638-.246-1.072.097-.44.27-.98.626-1.51a4.617 4.617 0 0 1 1.54-1.433c.668-.386 1.471-.637 2.327-.723.227-.011.402-.027.681-.02.19.014.347.01.612.056.493.066.902.206 1.34.394a5.115 5.115 0 0 1 2.15 1.845c.536.835.825 1.769.818 2.831-.014.364-.066.972-.201 1.423a5.569 5.569 0 0 1-.599 1.344 5.012 5.012 0 0 1-2.172 1.825 5.127 5.127 0 0 1-2.589.393 4.952 4.952 0 0 1-2.255-.847 4.86 4.86 0 0 1-1.944-2.866 1.798 1.798 0 0 1 .01-.976c.08-.224.151-.334.151-.334l-.033-.017zm.644.017s.082.1.181.268c.095.169.2.404.296.697.176.59.657 1.393 1.535 1.958.422.276 1.008.47 1.521.534a3.523 3.523 0 0 0 1.836-.285 3.635 3.635 0 0 0 1.482-1.256c.195-.273.347-.58.46-.902.104-.35.16-.578.166-1.052-.016-.617-.227-1.348-.609-1.89a3.524 3.524 0 0 0-1.503-1.236 3.377 3.377 0 0 0-.876-.242c-.107-.028-.327-.028-.504-.037-.09.004-.281.011-.411.032a3.006 3.006 0 0 0-1.45.657 4.758 4.758 0 0 0-1.313 1.881c-.151.271-.374.376-.531.601-.15.19-.247.29-.247.29l-.033-.018z"/></g><g class="st16"><path class="st6" d="M133.657 90.299s-.087-.11-.216-.313c-.134-.165-.294-.639-.246-1.073.097-.44.27-.98.626-1.508a4.617 4.617 0 0 1 1.54-1.434c.668-.386 1.471-.638 2.327-.724.228-.01.402-.026.681-.02.19.014.347.011.612.057.493.066.902.206 1.34.393a5.115 5.115 0 0 1 2.151 1.845 5.1 5.1 0 0 1 .819 2.794c-.02.296-.014.41-.056.714-.027.273-.089.507-.147.747a5.569 5.569 0 0 1-.598 1.344 5.012 5.012 0 0 1-2.172 1.825 5.127 5.127 0 0 1-2.59.393 4.952 4.952 0 0 1-2.254-.847 4.86 4.86 0 0 1-1.945-2.866 1.798 1.798 0 0 1 .01-.976c.08-.224.152-.334.152-.334l-.034-.017zm.644.017s.082.099.181.268c.095.169.2.403.296.697.176.59.657 1.393 1.535 1.957.422.277 1.008.47 1.52.535a3.523 3.523 0 0 0 1.837-.285 3.635 3.635 0 0 0 1.482-1.257 3.59 3.59 0 0 0 .46-.9c.046-.165.1-.334.118-.479.041-.107.037-.414.047-.536a3.558 3.558 0 0 0-.608-1.928 3.524 3.524 0 0 0-1.503-1.236 3.379 3.379 0 0 0-.876-.242c-.108-.028-.327-.028-.505-.037-.09.004-.28.01-.41.031a3.006 3.006 0 0 0-1.45.658 4.758 4.758 0 0 0-1.313 1.88c-.151.272-.375.376-.531.602-.15.189-.247.289-.247.289l-.033-.017z"/></g><g class="st16"><path class="st6" d="M190.578 157.18s-.08-.249-.197-.713c-.073-.224-.115-.53-.133-.914a4.316 4.316 0 0 1 .078-1.275c.23-.908.61-2.014 1.348-3.11a10.593 10.593 0 0 1 3.137-3.048 11.532 11.532 0 0 1 4.845-1.646c.466-.029.884-.062 1.41-.053.436.03.843.024 1.355.12.995.125 1.899.426 2.818.817.91.398 1.756.958 2.545 1.599.777.66 1.458 1.443 2.042 2.3.57.87 1.004 1.83 1.32 2.83.297 1.009.43 2.06.45 3.11-.04.575-.028.97-.124 1.55-.058.55-.197 1.052-.325 1.561a11.333 11.333 0 0 1-1.31 2.837 10.662 10.662 0 0 1-4.602 3.884 10.89 10.89 0 0 1-5.539.844 10.775 10.775 0 0 1-4.772-1.767 10.53 10.53 0 0 1-2.962-3.07c-.696-1.072-1.068-2.135-1.302-3.011-.113-.443-.187-.842-.194-1.198a3.973 3.973 0 0 1 .014-.895c.066-.485.13-.735.13-.735l-.032-.017zm.643.017s.09.24.202.67c.041.216.122.476.205.78.066.306.166.65.282 1.033.232.76.585 1.678 1.224 2.588a9.711 9.711 0 0 0 2.63 2.584c1.12.74 2.571 1.277 4.038 1.456a9.295 9.295 0 0 0 4.786-.737c.775-.337 1.494-.816 2.168-1.358a10.586 10.586 0 0 0 1.757-1.948c.494-.737.874-1.552 1.159-2.403.116-.434.246-.87.296-1.294.096-.381.085-.97.114-1.37-.028-.905-.147-1.804-.409-2.665a9.892 9.892 0 0 0-1.15-2.41 9.978 9.978 0 0 0-1.76-1.948c-.68-.539-1.402-1.012-2.178-1.343-.766-.32-1.594-.58-2.354-.665-.356-.077-.825-.076-1.249-.1-.335.002-.77.023-1.139.068-1.526.216-2.894.796-3.967 1.577-2.16 1.584-3.179 3.65-3.632 5.096a3.65 3.65 0 0 1-.213.512l-.185.443c-.126.272-.248.525-.324.762-.163.45-.267.69-.267.69l-.034-.018z"/></g><g class="st16"><path class="st6" d="M448.854 69.665s-.082-.197-.203-.563c-.074-.175-.124-.42-.154-.734a3.183 3.183 0 0 1 .027-1.037c.18-.732.482-1.626 1.078-2.509a8.433 8.433 0 0 1 2.537-2.443 9.348 9.348 0 0 1 3.9-1.3c.378-.021.705-.048 1.137-.04.345.023.658.019 1.077.096.807.103 1.526.344 2.264.658a8.714 8.714 0 0 1 3.674 3.129 9.15 9.15 0 0 1 1.055 2.268c.237.826.344 1.613.356 2.53-.022.713-.12 1.669-.355 2.454a9.048 9.048 0 0 1-1.046 2.275 8.503 8.503 0 0 1-3.687 3.114 8.733 8.733 0 0 1-4.433.675 8.59 8.59 0 0 1-3.828-1.422 8.365 8.365 0 0 1-2.363-2.464 8.282 8.282 0 0 1-1.031-2.412c-.186-.705-.172-1.29-.11-1.674.072-.387.139-.584.139-.584l-.034-.017zm.644.017s.087.187.194.519l.415 1.395c.183.585.459 1.29.954 1.988a7.55 7.55 0 0 0 2.03 1.978c.859.566 1.986.974 3.095 1.11a7.13 7.13 0 0 0 3.68-.567c1.185-.525 2.236-1.42 3.012-2.536a7.72 7.72 0 0 0 .894-1.841c.204-.684.304-1.26.319-2.084-.025-.619-.116-1.365-.318-2.008a7.61 7.61 0 0 0-.885-1.848 7.125 7.125 0 0 0-3.025-2.52c-.585-.244-1.228-.445-1.8-.508-.263-.058-.638-.057-.97-.076a7.948 7.948 0 0 0-.866.056 6.711 6.711 0 0 0-3.022 1.23c-1.633 1.229-2.4 2.795-2.764 3.89-.234.566-.483.911-.65 1.3a8.56 8.56 0 0 1-.26.54l-.033-.018z"/></g></svg>