<svg id="Layer_1" xmlns="http://www.w3.org/2000/svg" viewBox="0 0 585 465"><style>.st0,.st1{opacity:.16;fill:#f4bb00;enable-background:new}.st1{opacity:.4;fill:#aab8c2}.st2{fill:#657786}.st3{fill:#f7da92}.st3,.st4,.st5{stroke:#657786;stroke-width:2;stroke-linecap:round;stroke-miterlimit:10}.st4{fill:#ff7373}.st5{fill:#8dd1ff}.st6{fill:#ffeac0}.st7{fill:#fff}.st8{opacity:.26;fill:#f4bb00;enable-background:new}.st9{fill:#fff;stroke:#657786;stroke-width:2;stroke-miterlimit:10}.st10{opacity:.3;enable-background:new}.st11{fill:none;stroke:#657786;stroke-width:2;stroke-linecap:round;stroke-miterlimit:10;stroke-dasharray:2.5121,3.7681}.st12{opacity:.6;fill:#657786}.st13,.st14{opacity:.16;fill:#fa3e3e;enable-background:new}.st14{opacity:.29}.st15{fill:none;stroke:#657786;stroke-width:2;stroke-linecap:round;stroke-miterlimit:10}.st16,.st17{opacity:.16;fill:#057bde;enable-background:new}.st17{opacity:.32}.st18{fill:none;stroke:#657786;stroke-width:2;stroke-linecap:round;stroke-linejoin:round}.st19{opacity:.91;fill:#fff;enable-background:new}.st20{fill:#ffce76}.st21{fill:#ff7373}.st22{fill:#8dd1ff}</style><path class="st0" d="M400.163 298.825H276.81c-7.369 0-13.398-6.029-13.398-13.398V180.662c0-7.369 6.03-13.398 13.398-13.398h123.352c7.369 0 13.398 6.03 13.398 13.398v104.765c0 7.369-6.03 13.398-13.398 13.398z"/><path class="st1" d="M501.748 247.088H446.02a9.298 9.298 0 0 1-9.24-9.24v-58.182a9.298 9.298 0 0 1 9.24-9.24h55.728a9.298 9.298 0 0 1 9.24 9.24v58.182a9.21 9.21 0 0 1-9.24 9.24z"/><path class="st2" d="M506.274 191.176s.619 3.876.662 10.66l.044 12.234-.096 15.868a444821.424 444821.424 0 0 0-.047 6.74l-.009 1.16c-.032.486-.018.772-.087 1.24-.405 3.495-2.786 6.67-6.166 8.066-.843.339-1.731.58-2.645.69-.45.05-.933.069-1.365.077l-1.278-.002-5.188-.005-10.705-.012-22.41-.023-11.523-.012-2.898-.004-1.451-.001c-.587-.032-.95-.011-1.533-.115-2.126-.287-4.053-1.289-5.567-2.743-1.496-1.465-2.533-3.4-2.883-5.468-.101-.515-.133-1.037-.156-1.56l-.009-1.463-.006-2.899-.024-11.522-.005-22.41.007-10.705c0-1.749.002-3.479.003-5.188l.001-2.548.001-1.261c-.007-.508.038-.86.055-1.297.387-3.696 2.804-6.795 5.935-8.153 1.528-.71 3.313-.9 4.822-.855l4.45.015 28.102.097c3.392.017 6.057.086 7.874.172a84.19 84.19 0 0 1 2.786.171.306.306 0 0 1 0 .61s-.969.085-2.786.173c-1.817.085-4.482.154-7.874.172l-28.102.096-4.45.015c-.782.01-1.452-.005-2.154.137-.7.106-1.38.33-2.038.615-1.303.597-2.498 1.513-3.37 2.716-.902 1.162-1.446 2.675-1.625 4.108-.016.395-.064.876-.052 1.207l.001 1.262.002 2.548.003 5.188.006 10.705-.005 22.41-.023 11.522-.007 2.899.003 1.437c.019.445.041.89.127 1.327.283 1.759 1.175 3.399 2.447 4.643 1.272 1.228 2.966 2.086 4.685 2.31.368.087.982.08 1.359.103l1.45-.002 2.9-.003 11.522-.012 22.41-.024 10.705-.011 5.188-.005 1.278-.002c.415-.01.78-.025 1.168-.067a8.835 8.835 0 0 0 2.206-.58c2.81-1.164 4.755-3.936 5.036-6.687.055-.305.045-.805.067-1.093l-.008-1.16a17310.312 17310.312 0 0 1-.048-6.74l-.095-15.867.043-12.235c.043-6.783.662-10.66.662-10.66a.343.343 0 0 1 .678 0z"/><path class="st2" d="M448.525 186.884s.587.686.656 1.886c.062 1.2.08 2.915-.037 4.972-.122 2.057-.144 4.457-.151 7.03l-.05 8.057c-.009 1.371.031 2.743.038 4.093.023 1.35.004 2.679.003 3.965-.016 2.571-.03 4.971-.044 7.029l-.106 4.972c-.016 1.2-.343 1.885-.343 1.885a.338.338 0 0 1-.61 0s-.327-.685-.343-1.885l-.106-4.972-.044-7.03c0-1.285-.02-2.614.003-3.964.007-1.35.047-2.722.038-4.093l-.05-8.058c-.006-2.571-.029-4.972-.15-7.029a46.903 46.903 0 0 1-.038-4.972c.07-1.2.656-1.886.656-1.886a.446.446 0 0 1 .678 0zm20.645 0s.587.686.657 1.886c.061 1.2.08 2.915-.038 4.972-.122 2.057-.144 4.457-.151 7.03l-.05 8.057c-.009 1.371.031 2.743.038 4.093.023 1.35.004 2.679.003 3.965l-.043 7.029-.107 4.972c-.016 1.2-.342 1.885-.342 1.885a.338.338 0 0 1-.61 0s-.327-.685-.343-1.885l-.107-4.972-.043-7.03c-.001-1.285-.02-2.614.003-3.964.006-1.35.047-2.722.038-4.093l-.05-8.058c-.007-2.571-.03-4.972-.151-7.029a46.903 46.903 0 0 1-.038-4.972c.07-1.2.656-1.886.656-1.886a.446.446 0 0 1 .678 0zm20.79 0s.587.686.656 1.886c.062 1.2.08 2.915-.038 4.972-.121 2.057-.143 4.457-.15 7.03l-.05 8.057c-.01 1.371.031 2.743.038 4.093.023 1.35.004 2.679.003 3.965l-.044 7.029-.106 4.972c-.016 1.2-.343 1.885-.343 1.885a.338.338 0 0 1-.61 0s-.327-.685-.343-1.885l-.106-4.972-.044-7.03c0-1.285-.02-2.614.003-3.964.007-1.35.047-2.722.038-4.093l-.05-8.058c-.007-2.571-.029-4.972-.15-7.029a46.903 46.903 0 0 1-.038-4.972c.07-1.2.656-1.886.656-1.886a.446.446 0 0 1 .678 0z"/><circle class="st3" cx="448.186" cy="186.162" r="4.331"/><circle class="st4" cx="468.831" cy="200.888" r="4.331"/><circle class="st5" cx="489.621" cy="223.555" r="4.331"/><path class="st6" d="M521.239 177.5a10.428 10.428 0 0 1-1.3 2.888c-.286.59-.99.846-1.588.577a4.331 4.331 0 0 0-5.775 5.775 1.213 1.213 0 0 1-.577 1.588 12.257 12.257 0 0 1-3.177 1.3 1.04 1.04 0 0 1-1.299-.723 4.331 4.331 0 0 0-4.042-2.887 4.201 4.201 0 0 0-4.043 2.887 1.04 1.04 0 0 1-1.3.722 12.256 12.256 0 0 1-3.175-1.299 1.213 1.213 0 0 1-.578-1.588 4.331 4.331 0 0 0-5.775-5.775 1.213 1.213 0 0 1-1.588-.577c-.433-1.011-.866-1.877-1.3-2.888a1.444 1.444 0 0 1 .723-1.588 4.331 4.331 0 0 0 2.887-4.042 4.201 4.201 0 0 0-2.887-4.043 1.04 1.04 0 0 1-.722-1.3c.282-1.114.72-2.183 1.3-3.175.285-.59.989-.847 1.587-.578a4.331 4.331 0 0 0 5.775-5.775 1.213 1.213 0 0 1 .578-1.588 12.261 12.261 0 0 1 3.176-1.3 1.04 1.04 0 0 1 1.3.723 4.331 4.331 0 0 0 4.042 2.887 4.201 4.201 0 0 0 4.042-2.887 1.04 1.04 0 0 1 1.3-.722c1.114.282 2.183.72 3.176 1.3.59.285.846.989.577 1.587a4.331 4.331 0 0 0 5.775 5.775 1.213 1.213 0 0 1 1.588.578c.58.992 1.017 2.061 1.3 3.176a1.04 1.04 0 0 1-.722 1.3 4.331 4.331 0 0 0-2.888 4.042 4.201 4.201 0 0 0 2.888 4.042c.57.308.864.957.722 1.588z"/><path class="st2" d="M521.59 177.358l-.026.236a9.309 9.309 0 0 1-.343 1.634 9.453 9.453 0 0 1-.631 1.581l.047-.083c-.184.455-.557.85-1.024 1.065a2.08 2.08 0 0 1-1.533.077l-.453-.156c-.134-.046-.206-.047-.31-.078a5.867 5.867 0 0 0-.68-.084 3.358 3.358 0 0 0-2.904 1.529c-.129.205-.22.369-.32.625a3.358 3.358 0 0 0-.118 1.997c.026.11.059.22.099.327.02.054.038.108.062.16l.101.243a2.231 2.231 0 0 1-1.118 2.806l.069-.037a13.102 13.102 0 0 1-3.179 1.302l-.337.084a2.035 2.035 0 0 1-.62.045 2.01 2.01 0 0 1-1.117-.46 2.05 2.05 0 0 1-.401-.46 2.055 2.055 0 0 1-.24-.542l.016.052a3.41 3.41 0 0 0-2.094-2.132 3.7 3.7 0 0 0-.76-.171c-.124-.01-.27-.025-.379-.02l-.241.006-.168.018a3.33 3.33 0 0 0-1.44.533 3.34 3.34 0 0 0-1.06 1.135c-.069.11-.118.233-.174.351l-.071.184c-.029.062-.032.115-.124.313a1.868 1.868 0 0 1-2.197.985l-.498-.138a13.177 13.177 0 0 1-2.874-1.25l.056.03a2.036 2.036 0 0 1-1.084-2.309c.097-.346.17-.45.237-.63.08-.182.082-.27.133-.406.023-.146.068-.29.077-.438a3.572 3.572 0 0 0-.005-.889 3.594 3.594 0 0 0-.67-1.636 3.54 3.54 0 0 0-3.999-1.216c-.069.028-.14.05-.208.082l-.276.116a2.01 2.01 0 0 1-2.4-.824c-.043-.077-.061-.103-.12-.225l-.056-.126-.112-.25-.224-.501-.897-2.004-.025-.055-.02-.081c-.228-.947.253-2.001 1.116-2.448l.064-.033.048-.017a3.566 3.566 0 0 0 2.358-2.999c.008-.13.022-.278.016-.393a3.429 3.429 0 0 0-1.762-2.971c-.114-.07-.24-.12-.36-.176l-.189-.071c-.063-.028-.119-.032-.307-.119a1.798 1.798 0 0 1-.948-2.119l.137-.496c.1-.332.213-.661.338-.985.253-.647.554-1.274.9-1.877l-.027.052c.411-.902 1.555-1.36 2.478-.986.33.138.574.234.769.28.231.057.481.092.725.107.986.04 1.98-.354 2.668-1.052a3.663 3.663 0 0 0 .8-1.24 3.465 3.465 0 0 0 .225-1.427 3.547 3.547 0 0 0-.225-1.073 1.891 1.891 0 0 0-.069-.17l-.1-.233a2.014 2.014 0 0 1 .999-2.543l-.055.03a13.066 13.066 0 0 1 3.122-1.312l.331-.086a1.87 1.87 0 0 1 .568-.045 1.85 1.85 0 0 1 1.631 1.339l-.014-.044a3.544 3.544 0 0 0 2.982 2.34c.129.009.277.022.39.016l.242-.007.174-.021a3.403 3.403 0 0 0 2.531-1.723c.07-.113.119-.237.174-.358l.07-.186c.028-.063.032-.118.12-.31a1.828 1.828 0 0 1 2.153-.966l.497.138a13.148 13.148 0 0 1 2.867 1.244l-.053-.028a1.994 1.994 0 0 1 .99 2.509 5.83 5.83 0 0 0-.284.765c-.06.23-.097.479-.116.723a3.602 3.602 0 0 0 1.027 2.69 3.68 3.68 0 0 0 1.244.822 3.518 3.518 0 0 0 1.448.244 3.611 3.611 0 0 0 1.096-.218c.058-.021.117-.042.174-.068l.232-.098c.914-.37 2.026.084 2.429.966l-.026-.049a12.964 12.964 0 0 1 1.288 3.104l.084.328a1.748 1.748 0 0 1-.352 1.5 1.75 1.75 0 0 1-.87.56l.04-.012a3.66 3.66 0 0 0-2.462 3.392l.007.33.027.253c.03.184.07.367.123.546.11.357.268.702.482 1.012a3.99 3.99 0 0 0 1.749 1.438l.08.033v.001c.666.393.983 1.199.84 1.882zm-.656.003c0-.474-.285-.872-.652-1.014l.08.034a4.474 4.474 0 0 1-2.454-1.65 4.697 4.697 0 0 1-.7-1.349 5.582 5.582 0 0 1-.176-.744l-.044-.406-.012-.332c.003-.3.022-.52.06-.782a5.005 5.005 0 0 1 3.253-3.935l.01-.004.03-.01a.366.366 0 0 0 .184-.12.358.358 0 0 0 .076-.198c.002-.017 0-.035 0-.052-.008-.02.011.031-.01-.047l-.076-.287a11.56 11.56 0 0 0-1.18-2.753l-.015-.027-.01-.022a.498.498 0 0 0-.62-.24l-.18.08c-.08.037-.162.068-.244.099a5.072 5.072 0 0 1-2.587.268 5.054 5.054 0 0 1-1.953-.75 4.84 4.84 0 0 1-.823-.66 5.132 5.132 0 0 1-1.508-3.828 5.58 5.58 0 0 1 .156-1.053c.103-.39.24-.7.332-.924a.432.432 0 0 0-.214-.538l-.02-.01-.034-.019A11.577 11.577 0 0 0 509.08 155l-.449-.123c-.101-.028-.095-.019-.147-.014a.254.254 0 0 0-.178.13l-.156.421c-.078.177-.154.357-.252.525a4.973 4.973 0 0 1-1.556 1.709 4.98 4.98 0 0 1-2.167.826l-.314.032-.248.008c-.214.008-.393-.008-.59-.022a5.377 5.377 0 0 1-1.134-.24 5.145 5.145 0 0 1-3.205-3.15l-.006-.017-.008-.028a.25.25 0 0 0-.081-.13.246.246 0 0 0-.134-.053c-.012-.002-.023 0-.035 0-.015.007.053-.017-.029.004l-.285.075a11.459 11.459 0 0 0-2.735 1.156l-.033.02-.022.01a.415.415 0 0 0-.206.504l.076.18c.037.08.068.164.099.247a5.15 5.15 0 0 1 .252 2.622 5.105 5.105 0 0 1-.772 1.967 4.88 4.88 0 0 1-.671.823 5.142 5.142 0 0 1-3.85 1.483 5.614 5.614 0 0 1-1.05-.165c-.388-.105-.696-.241-.92-.336a.454.454 0 0 0-.57.219l-.011.025-.016.026a10.884 10.884 0 0 0-.8 1.657c-.11.287-.208.578-.295.872l-.123.45c-.029.104-.02.105-.015.161.011.086.084.17.148.2l.423.155c.176.078.355.153.522.25a4.946 4.946 0 0 1 1.7 1.547 4.953 4.953 0 0 1 .864 2.715c.008.212-.008.39-.022.587a5.35 5.35 0 0 1-.239 1.129 5.123 5.123 0 0 1-3.134 3.192l.111-.049a.663.663 0 0 0-.328.728l-.044-.136.905 2 .407.891a.423.423 0 0 0 .477.178l.23-.098c.097-.046.2-.08.301-.12a5.196 5.196 0 0 1 2.562-.23 5.16 5.16 0 0 1 3.258 1.977c.522.695.86 1.523.985 2.382.053.43.07.868.014 1.3-.017.218-.074.429-.113.643-.064.21-.137.484-.207.638-.185.437-.179.42-.157.568.024.12.107.217.214.271l.035.018.021.012a11.539 11.539 0 0 0 2.517 1.084l.448.122c.1.027.085.017.131.013a.214.214 0 0 0 .15-.11l.151-.42c.078-.18.153-.362.251-.532a5.048 5.048 0 0 1 3.755-2.59l.32-.034.25-.01c.218-.01.399.006.6.018a5.277 5.277 0 0 1 4.468 3.427l.016.053c.015.035.011.026.02.037l.02.015c.016.007.034.013.048.01l.01-.002c.007-.009-.087.02.002-.003l.279-.078c.187-.055.373-.116.558-.18a11.42 11.42 0 0 0 2.12-.985l.027-.016.042-.02c.09-.045.123-.174.087-.243l-.02-.052-.003-.006-.002-.004.029.066-.007-.016-.015-.032-.057-.126a3.245 3.245 0 0 1-.106-.258 5.388 5.388 0 0 1-.346-1.63 4.935 4.935 0 0 1 .06-1.112 5.353 5.353 0 0 1 .807-2.064c.203-.311.437-.605.703-.865a5.375 5.375 0 0 1 4.04-1.537c.372.026.732.08 1.096.189.182.061.403.13.547.195.126.056.296.143.38.188.1.09.334.108.49-.064l.047-.084a11.9 11.9 0 0 0 .889-1.207c.273-.427.513-.875.735-1.352l.02-.045z"/><circle class="st7" cx="503.481" cy="171.869" r="6.93"/><path class="st2" d="M503.498 164.601s.174-.084.5-.207c.286-.127.94-.267 1.594-.156.66.159 1.463.428 2.257.963a7.283 7.283 0 0 1 2.189 2.286 8.432 8.432 0 0 1 1.156 3.504c.017.34.042.628.034 1.022-.021.306-.017.58-.086.96-.094.727-.31 1.368-.591 2.03a7.808 7.808 0 0 1-2.806 3.29 7.768 7.768 0 0 1-4.303 1.262c-.624-.02-1.493-.106-2.194-.316a8.09 8.09 0 0 1-2.039-.935 7.597 7.597 0 0 1-2.79-3.304 7.825 7.825 0 0 1-.604-3.968 7.674 7.674 0 0 1 1.277-3.432 7.455 7.455 0 0 1 2.21-2.11 7.41 7.41 0 0 1 2.16-.918c.631-.165 1.155-.144 1.497-.079.347.073.522.141.522.141l.017-.033zm-.017.644s-.165.085-.456.19c-.29.102-.705.227-1.219.386a6.06 6.06 0 0 0-1.736.84 6.64 6.64 0 0 0-1.724 1.778c-.493.749-.847 1.74-.965 2.699a6.221 6.221 0 0 0 .497 3.215c.458 1.034 1.24 1.948 2.211 2.627a6.757 6.757 0 0 0 1.606.783c.6.18 1.089.269 1.824.28.53-.022 1.189-.102 1.748-.278a6.65 6.65 0 0 0 1.612-.774 6.217 6.217 0 0 0 2.197-2.642c.212-.509.387-1.074.44-1.567.051-.223.05-.56.067-.852a6.814 6.814 0 0 0-.05-.751 5.796 5.796 0 0 0-1.086-2.627 7.159 7.159 0 0 0-3.384-2.397c-.491-.213-.776-.457-1.123-.62a7.092 7.092 0 0 1-.476-.257l.017-.033z"/><path class="st8" d="M222.479 265.423v24.255c-.008 7.73-6.273 13.996-14.004 14.004h-33.35c-7.731-.008-13.997-6.274-14.005-14.005v-24.254c.008-7.731 6.274-13.996 14.005-14.004h9.817v2.887a6.93 6.93 0 1 0 13.86 0v-2.887h9.817c7.661.117 13.821 6.342 13.86 14.004z"/><path class="st2" d="M196.057 251.112s.722-.195 2.076-.372c1.375-.178 3.297-.356 5.916-.311 2.693.104 6.057 1.006 8.98 3.456 2.887 2.4 5.236 6.412 5.333 11.082l-.108 14.036-.011 7.645c-.018 1.321.031 2.585-.042 3.992a14.824 14.824 0 0 1-.889 4.169 14.852 14.852 0 0 1-5.209 6.842 14.762 14.762 0 0 1-8.338 2.803l-17.274-.016c-5.795-.02-11.534.06-17.285.01a14.658 14.658 0 0 1-8.253-3.113 14.85 14.85 0 0 1-4.941-7.04 14.627 14.627 0 0 1-.729-4.18l-.007-3.978.006-7.645c.013-4.984-.012-9.63.078-14.038.306-4.627 2.792-8.426 5.72-10.646 2.948-2.27 6.26-3.05 8.887-3.041 2.53-.02 4.517.03 5.873.116a31.04 31.04 0 0 1 2.08.173.308.308 0 0 1 .004.61s-.722.107-2.077.204c-1.354.108-3.341.182-5.87.206a13.28 13.28 0 0 0-8.048 2.829c-2.636 2.024-4.847 5.51-5.083 9.622-.051 4.262.025 9.013.007 13.965l.006 7.646.014 3.93a13.03 13.03 0 0 0 .656 3.729 13.244 13.244 0 0 0 4.417 6.27c2.062 1.622 4.67 2.636 7.321 2.794 5.63.06 11.456.06 17.224.064 5.776-.01 11.551-.022 17.237-.033 2.69-.06 5.318-.97 7.442-2.525a13.253 13.253 0 0 0 4.632-6.117c.436-1.193.703-2.464.779-3.688.065-1.251.015-2.627.028-3.914l-.011-7.645-.134-13.97c-.164-4.076-2.244-7.51-4.766-9.553-2.526-2.098-5.41-2.931-7.73-3.035-2.44-.012-4.493-.116-5.829-.3-1.355-.165-2.08-.354-2.08-.354a.35.35 0 0 1-.002-.679z"/><path class="st7" d="M193.749 232.65v21.8a6.93 6.93 0 1 1-13.86 0v-21.8a7.031 7.031 0 0 1 6.93-6.93 6.901 6.901 0 0 1 6.93 6.93z"/><path class="st2" d="M194.088 232.65l.232.979c.14.637.347 1.573.423 2.764.074 2.382.063 5.784-.037 9.867a459.33 459.33 0 0 0-.122 6.592c-.033 1.151.084 2.423-.34 3.804-.402 1.31-1.15 2.558-2.217 3.504a7.659 7.659 0 0 1-4.931 1.999l-.276.012-.288-.014-.502-.03a8.255 8.255 0 0 1-2.188-.561 7.837 7.837 0 0 1-3.418-2.827 8.33 8.33 0 0 1-.963-2.04 8.4 8.4 0 0 1-.328-2.232l-.039-8.125-.003-7.868.006-3.758c.04-1.237-.113-2.374.22-3.765.59-2.564 2.496-4.505 4.573-5.354a7.752 7.752 0 0 1 3.176-.577c.43.011.995.083 1.467.196.474.11.919.268 1.338.449a7.57 7.57 0 0 1 3.451 3.09c.667 1.128.824 2.177.823 2.857-.009.687-.091 1.038-.091 1.038h.034zm-.645 0s-.019-.083-.062-.238c-.044-.154-.07-.386-.172-.672a8.55 8.55 0 0 0-.997-2.32 6.239 6.239 0 0 0-2.89-2.496 6.433 6.433 0 0 0-1.098-.345 6.024 6.024 0 0 0-1.224-.138 6.35 6.35 0 0 0-2.534.515c-1.675.719-3.148 2.32-3.621 4.356-.252.893-.144 2.193-.165 3.403l.007 3.759-.004 7.868-.037 8.122c-.021 2.446 1.579 4.773 3.8 5.659.548.22 1.147.363 1.676.43l.49.026.208.01.22-.012a6.056 6.056 0 0 0 3.9-1.608c.842-.754 1.423-1.747 1.735-2.778.146-.56.227-.947.242-1.603.013-.517.004-1.17-.004-1.736a465.67 465.67 0 0 0-.122-6.592c-.1-4.083-.11-7.485-.037-9.867.076-1.19.283-2.127.424-2.765.15-.638.232-.978.232-.978h.033zm-35.21-14.293a3.884 3.884 0 0 1-3.898-3.869v-24.283a3.884 3.884 0 0 1 3.869-3.898h.029a3.884 3.884 0 0 1 3.898 3.869v24.139a4.013 4.013 0 0 1-3.898 4.042zm57.027 0a3.884 3.884 0 0 1-3.898-3.869v-24.283a3.884 3.884 0 0 1 3.87-3.898h.028a3.884 3.884 0 0 1 3.898 3.869v24.139a3.912 3.912 0 0 1-3.898 4.042z"/><path class="st7" d="M186.819 248.676c-15.462-.016-27.993-12.547-28.009-28.009v-27.863c.016-15.462 12.547-27.993 28.009-28.009 15.462.016 27.992 12.547 28.008 28.009v27.863c-.016 15.462-12.546 27.993-28.008 28.009z"/><path class="st2" d="M186.801 249.014l-2.61.098c-.855.002-1.944-.127-3.222-.24-1.236-.247-2.702-.448-4.232-1.05-3.074-1.11-6.648-3.052-9.983-6.194-.44-.367-.821-.808-1.215-1.247-.39-.441-.803-.877-1.191-1.343-.7-.992-1.529-1.938-2.143-3.067-1.397-2.153-2.436-4.672-3.222-7.36-.832-2.685-1.045-5.66-1.076-8.63l.065-9.061.02-9.57.006-4.95.003-2.511c.005-.44-.01-.8.012-1.306l.066-1.268c.32-6.967 3.393-14.038 8.683-19.127a28.844 28.844 0 0 1 9.193-6.015 28.952 28.952 0 0 1 10.863-2.135l2.75.144c.921.11 1.859.27 2.786.405.917.18 1.804.444 2.706.664.89.257 1.749.616 2.623.92a28.793 28.793 0 0 1 9.201 6.008c5.305 5.083 8.357 12.175 8.665 19.136.13 1.763.052 3.408.072 5.085 0 1.666-.002 3.317-.003 4.95l-.006 9.57-.017 9.061-.002.548v.136l-.009.176-.015.272-.06 1.081c-.042.72-.052 1.422-.195 2.158l-.342 2.154-.534 2.043c-.81 2.658-1.86 5.144-3.261 7.262-.617 1.113-1.447 2.04-2.146 3.016-.388.457-.799.884-1.189 1.316-.394.43-.77.865-1.204 1.228a28.919 28.919 0 0 1-9.857 6.128c-1.506.611-2.943.848-4.156 1.163-1.246.162-2.305.299-3.165.349-1.73.002-2.64-.03-2.64-.03l-.019.033zm.017-.644s.897-.124 2.555-.297c.827-.105 1.831-.349 3.015-.555 1.156-.338 2.512-.63 3.941-1.232a27.575 27.575 0 0 0 9.359-5.907c.413-.347.766-.766 1.138-1.177.368-.415.758-.823 1.124-1.26.656-.935 1.443-1.82 2.02-2.883 1.32-2.022 2.296-4.39 3.048-6.916 1.55-4.999.89-11.03 1.024-17.223l-.006-9.57-.004-4.95c-.021-1.655.051-3.379-.076-5.002-.297-6.583-3.201-13.246-8.18-18.08-4.936-4.867-11.886-7.787-18.957-7.766-7.062-.006-14.029 2.885-18.966 7.757-4.994 4.828-7.876 11.511-8.163 18.09l-.063 1.267c-.016.339-.004.82-.007 1.223l.003 2.51.006 4.95.02 9.57.065 9.062c.075 2.868.306 5.59 1.122 8.1.775 2.496 1.763 4.83 3.088 6.818.578 1.047 1.367 1.914 2.022 2.831.366.429.755.828 1.122 1.234.372.401.72.815 1.127 1.158a27.428 27.428 0 0 0 9.233 5.84c1.405.612 2.732.94 3.865 1.345 1.152.255 2.127.508 2.957.665l2.586.365-.018.033z"/><path class="st2" d="M222.046 159.453v26.71a24.4 24.4 0 0 1-17.18 21.222 18.908 18.908 0 0 1-3.899.866c-1.054.12-2.115.169-3.176.145h-22.089c-13.554-.113-24.451-11.192-24.339-24.746a24.543 24.543 0 0 1 7.159-17.122 24.24 24.24 0 0 1 17.18-7.219h46.344v.144z"/><path class="st9" d="M179.311 220.956h-11.694a2.44 2.44 0 0 1-2.454-2.425v-5.227a2.44 2.44 0 0 1 2.454-2.454h11.694a2.44 2.44 0 0 1 2.455 2.426v5.226a2.44 2.44 0 0 1-2.455 2.454zm26.709 0h-11.694a2.44 2.44 0 0 1-2.454-2.425v-5.227a2.44 2.44 0 0 1 2.454-2.454h11.694a2.44 2.44 0 0 1 2.455 2.426v5.226a2.527 2.527 0 0 1-2.455 2.454z"/><circle class="st2" cx="173.536" cy="216.048" r="1.732"/><circle class="st2" cx="200.101" cy="216.048" r="1.732"/><path class="st2" d="M177.232 231.102c.003-.009.156-.033.384-.065.214-.02.473-.008.72.137.23.159.528.33.843.562.323.22.675.492 1.066.781.398.278.827.598 1.333.833.49.272 1.043.465 1.607.69.573.19 1.174.38 1.795.494.625.093 1.258.221 1.9.202.32.002.641.033.957-.007l.936-.15c.629-.035 1.209-.278 1.792-.403.584-.131 1.092-.442 1.606-.634.521-.186.946-.512 1.37-.745.409-.263.827-.44 1.129-.706l.825-.627c.45-.356.93-.334.93-.334l.038.002a.404.404 0 0 1 .384.44s-.04.46-.506.873l-.821.759c-.3.315-.728.566-1.172.867-.459.278-.906.666-1.495.884-.575.231-1.143.577-1.806.742-.662.156-1.322.442-2.044.471l-1.078.087c-.36.028-.722-.015-1.084-.01-.728.025-1.439-.104-2.142-.204a19.892 19.892 0 0 1-2.018-.491c-.634-.22-1.253-.425-1.808-.689a48.002 48.002 0 0 1-1.596-.692c-.988-.447-1.72-.988-2.176-1.434a1.25 1.25 0 0 1-.348-.743c-.006-.125-.002-.217 0-.28l.018-.112.003-.018a.588.588 0 0 1 .458-.48zm4.534-17.992l.113-.304c.074-.157.183-.314.321-.352.276-.067.671-.079 1.145.037.473.127 1.026.142 1.618.162.592.032 1.224.032 1.856.041.316.01.631-.024.942-.048.311-.01.617.002.913.005.592.01 1.145.012 1.619.044.473.022.868.083 1.145.106.276.016.434.343.434.343v.61s-.158.327-.434.343c-.277.023-.672.084-1.145.106-.474.032-1.027.034-1.619.044-.296.003-.602.014-.913.005-.31-.025-.626-.06-.942-.048-.632.01-1.264.009-1.856.04-.592.02-1.144.035-1.618.162-.474.116-.869.105-1.145.038-.138-.039-.247-.195-.32-.352l-.114-.304v-.678zm-16.603.678l-.065.304c-.042.157-.104.313-.183.352-.158.067-.384.078-.654-.038-.271-.127-.587-.142-.925-.162-.339-.031-.7-.03-1.06-.04-.181-.011-.362.023-.54.048-.177.01-.352-.003-.52-.005-.34-.01-.655-.012-.926-.044-.27-.022-.496-.084-.654-.106-.158-.016-.248-.343-.248-.343v-.61s.09-.327.248-.343c.158-.023.383-.085.654-.106.27-.032.587-.035.925-.044.17-.003.344-.015.522-.005.177.024.358.059.538.048.361-.01.722-.009 1.06-.04.339-.02.655-.036.925-.163.271-.116.497-.104.655-.038.079.04.14.195.183.352l.065.305v.678zm43.167-.678l.072-.304c.046-.157.114-.314.201-.352.174-.067.422-.079.72.037.298.127.645.142 1.017.162.372.032.77.032 1.167.041.198.01.397-.024.592-.048.195-.01.388.002.574.005.372.01.72.012 1.017.044.298.022.546.083.72.106.173.016.273.343.273.343v.61s-.1.327-.273.343c-.174.023-.422.084-.72.106-.298.032-.645.034-1.017.044-.186.003-.379.014-.574.005-.195-.025-.394-.06-.592-.048-.397.01-.795.009-1.167.04-.372.02-.72.035-1.017.162-.298.116-.546.105-.72.038-.087-.039-.155-.195-.201-.352l-.072-.304v-.678z"/><g class="st10"><path class="st7" d="M218.054 165.373c.007 0 .133.078.304.225.155.147.315.363.352.637.061.549.08 1.333-.038 2.273-.127.941-.142 2.038-.162 3.214-.032 1.176-.031 2.43-.041 3.685-.01.627.024 1.254.049 1.871l-.006 1.813c-.01 1.176-.012 2.273-.043 3.214-.022.94-.084 1.725-.107 2.273a1.313 1.313 0 0 1-.342.863.442.442 0 0 1-.61 0s-.327-.314-.343-.863c-.023-.548-.085-1.332-.107-2.273-.032-.94-.034-2.038-.043-3.214l-.006-1.813c.025-.617.06-1.244.049-1.871-.01-1.255-.01-2.509-.041-3.685-.02-1.176-.035-2.273-.162-3.214a9.834 9.834 0 0 1-.038-2.273c.037-.274.197-.49.352-.637a1.87 1.87 0 0 1 .304-.225.67.67 0 0 1 .679 0z"/></g><path class="st11" d="M186.819 261.38v15.304"/><circle class="st12" cx="254.294" cy="179.81" r="5.053"/><circle class="st12" cx="254.294" cy="213.304" r="5.053"/><circle class="st12" cx="254.294" cy="246.799" r="5.053"/><path class="st2" d="M268.875 179.038s1.022-.587 2.81-.657c1.789-.072 4.343-.062 7.41.038 3.065.122 6.641.144 10.473.151l12.008.05 6.1-.038 5.907-.003c3.832.01 7.409.007 10.474.06l7.409.09c1.788.015 2.81.343 2.81.343a.32.32 0 0 1 0 .61s-1.022.327-2.81.342l-7.409.091c-3.065.053-6.642.05-10.474.06l-5.908-.003-6.1-.038-12.007.05c-3.832.006-7.408.029-10.474.15-3.065.1-5.62.11-7.408.038-1.789-.07-2.81-.656-2.81-.656a.39.39 0 0 1 0-.678zm77.384 0s.467-.587 1.284-.657c.817-.061 1.985-.08 3.386.038.7.049 1.459.11 2.261.124l2.525.027 5.487.05c.933.006 1.867-.024 2.787-.046l2.7.005c1.75.01 3.385.012 4.785.044 1.401.022 2.569.083 3.386.106.817.016 1.284.342 1.284.342a.373.373 0 0 1 0 .611s-.467.326-1.284.343c-.817.022-1.985.084-3.386.106-1.4.032-3.035.034-4.786.044l-2.7.005c-.919-.022-1.853-.052-2.786-.046l-5.487.05-2.525.027c-.802.014-1.561.075-2.261.123a21.7 21.7 0 0 1-3.386.038c-.817-.07-1.284-.656-1.284-.656a.545.545 0 0 1 0-.678zm-77.384 33.639s1.022-.587 2.81-.657c1.789-.072 4.343-.062 7.41.038 3.065.122 6.641.144 10.473.151l12.008.05 6.1-.038 5.907-.003c3.832.01 7.409.007 10.474.06l7.409.09c1.788.015 2.81.342 2.81.342a.32.32 0 0 1 0 .611s-1.022.327-2.81.342l-7.409.091c-3.065.053-6.642.05-10.474.06l-5.908-.004-6.1-.037-12.007.05c-3.832.006-7.408.029-10.474.15-3.065.1-5.62.11-7.408.038-1.789-.07-2.81-.656-2.81-.656a.39.39 0 0 1 0-.678zm0 33.638s1.536-.588 4.223-.654c2.688-.076 6.527-.063 11.133.036 4.607.122 9.982.144 15.74.15 5.76.017 11.902.034 18.044.05l9.166-.037 8.878-.003c5.758.01 11.133.007 15.74.059l11.133.091c2.688.015 4.223.342 4.223.342a.312.312 0 0 1 0 .61s-1.535.328-4.223.342l-11.133.092c-4.607.052-9.981.05-15.74.06l-8.878-.004-9.166-.038-18.043.05c-5.759.007-11.134.029-15.74.15-4.607.1-8.446.113-11.134.037-2.687-.066-4.223-.655-4.223-.655a.363.363 0 0 1 0-.678z"/><circle class="st12" cx="254.294" cy="280.132" r="5.053"/><path class="st2" d="M268.875 279.649s1.192-.589 3.278-.655c2.086-.075 5.065-.063 8.641.036 3.576.122 7.747.144 12.217.151l14.004.05 7.114-.038c2.347 0 4.656-.002 6.89-.003 4.47.01 8.642.007 12.217.06l8.641.09c2.086.015 3.278.343 3.278.343a.317.317 0 0 1 0 .61s-1.192.327-3.278.342l-8.64.091c-3.576.053-7.748.05-12.217.06l-6.89-.004-7.115-.037-14.004.05c-4.47.006-8.641.028-12.217.15-3.576.1-6.555.112-8.641.036-2.086-.066-3.278-.654-3.278-.654a.378.378 0 0 1 0-.678z"/><path class="st13" d="M267.933 103.48H188.22c-4.159 0-7.561-3.402-7.561-7.56V44.701c0-4.16 3.402-7.562 7.56-7.562h79.715c4.159 0 7.561 3.403 7.561 7.561v51.22c0 4.159-3.402 7.562-7.56 7.562z"/><path class="st14" d="M142.617 99.87v15.32a8.855 8.855 0 0 1-8.846 8.845h-21.064a8.854 8.854 0 0 1-8.846-8.846V99.87a8.855 8.855 0 0 1 8.846-8.845h3.1a6.875 6.875 0 0 0-.638 3.01 7.569 7.569 0 1 0 15.137 0 6.611 6.611 0 0 0-.638-3.01h4.012c4.9 0 8.887 3.945 8.937 8.845z"/><path class="st2" d="M141.249 53.545v30.093a5.097 5.097 0 0 1-5.089 5.106h-32.937a5.097 5.097 0 0 1-5.107-5.088V53.363c0-9.575 7.113-17.69 16.688-19.788h.091c.274-.091.547-.091.82-.183 1.004-.182 2.098-.273 3.192-.364h.73a22.333 22.333 0 0 1 15.229 5.927 19.816 19.816 0 0 1 6.018 10.943c.091.364.091.638.182 1.003.076.329.107.666.092 1.003.075.544.106 1.093.09 1.641z"/><path class="st7" d="M127.297 94.124a7.569 7.569 0 1 1-15.138 0 6.608 6.608 0 0 1 .222-1.874c.182-.684.837-1.135 1.545-1.135h1.516V79.17a4.44 4.44 0 0 1 4.377-4.377 4.359 4.359 0 0 1 4.377 4.377v11.946h1.456c.724 0 1.334.53 1.454 1.244.099.584.162 1.174.19 1.766z"/><path class="st2" d="M127.606 94.016l.03.126c.075.316.16.602.198.94.032.34.065.714.027 1.045-.017.692-.223 1.368-.54 1.981-.318.611-.688 1.203-1.152 1.718-.448.53-.981.981-1.548 1.378a8.572 8.572 0 0 1-1.848.931c-.645.252-1.33.384-2.01.457-.342.04-.686.028-1.027.04-.41-.031-.612-.033-.983-.087-.725-.118-1.377-.263-2.008-.53-2.53-.995-4.521-3.237-5.142-5.875-.172-.653-.228-1.33-.246-2a7.425 7.425 0 0 1 .232-2.009c.181-.881 1.01-1.628 1.881-1.761.507-.077.742-.028 1.058-.04l.914.003-.782.782c.004-3.135.04-6.27.018-9.405l-.019-2.351v-.147l.007-.197.017-.293a5.76 5.76 0 0 1 .117-.713 5.41 5.41 0 0 1 .488-1.294c.448-.808 1.097-1.51 1.899-1.978.81-.487 1.676-.727 2.687-.743.334.008.91.055 1.336.19.446.125.88.304 1.273.549.8.471 1.45 1.174 1.892 1.986.437.803.639 1.791.607 2.64l-.009 2.351-.105 9.405-.672-.671 1.328.014.196.005c.05.002.106.004.212.02a2.02 2.02 0 0 1 1.253.665 1.947 1.947 0 0 1 .49 1.045l.008.057c.013.09.004.048.008.08l.002.082v.334c-.001.42-.032.844-.087 1.27zm-.636.062a10.057 10.057 0 0 1-.355-1.215l-.071-.326-.015-.082s-.01-.066-.003-.003l-.01-.024a1.059 1.059 0 0 0-.26-.411.976.976 0 0 0-.313-.198.837.837 0 0 0-.164-.04s-.058-.006-.119-.007h-.136l-1.327.015a.664.664 0 0 1-.672-.657v-.015l-.105-9.405-.009-2.351a3.716 3.716 0 0 0-.428-1.892 3.59 3.59 0 0 0-1.318-1.37 3.345 3.345 0 0 0-.88-.375c-.327-.093-.538-.111-.985-.129-.551.021-1.26.182-1.783.525a3.8 3.8 0 0 0-1.33 1.365 3.87 3.87 0 0 0-.35.895c-.042.162-.056.274-.084.444l-.02.293-.006.074c0-.01-.004.074 0-.014v.037l-.002.147-.018 2.351c-.023 3.135.014 6.27.018 9.405a.783.783 0 0 1-.783.783l-.914.003c-.29.006-.67-.009-.765.02-.328.075-.565.273-.63.602a5.807 5.807 0 0 0-.17 1.613c.023.545.068 1.09.213 1.615.115.533.34 1.033.58 1.518.264.475.565.93.935 1.33.35.417.781.756 1.224 1.065.458.289.936.547 1.448.717.499.197 1.053.29 1.53.343a6.64 6.64 0 0 0 1.637-.051c.522-.095 1.042-.21 1.526-.421a6.53 6.53 0 0 0 1.381-.758c.414-.321.837-.641 1.173-1.048a6.93 6.93 0 0 0 .925-1.277c.222-.476.507-.928.744-1.43.142-.253.228-.49.36-.75.125-.264.2-.59.32-.882l.011-.029z"/><path class="st9" d="M119.637 89.383c-9.766-.01-17.68-7.925-17.69-17.691V46.068h35.38v25.624c-.01 9.766-7.924 17.68-17.69 17.69z"/><path class="st2" d="M143.346 58.925a12.53 12.53 0 0 1-2.188 1.277 19.15 19.15 0 0 1-8.846 2.097c-10.87-.02-19.677-8.826-19.697-19.696.01-3.14.76-6.233 2.189-9.028.273-.091.547-.091.82-.183a28.503 28.503 0 0 1 3.922-.364 22.333 22.333 0 0 1 15.228 5.927 19.816 19.816 0 0 1 6.019 10.943c.09.364.09.638.182 1.003.076.36.106.727.091 1.094a23.823 23.823 0 0 0 2.28 6.93z"/><g class="st10"><path class="st7" d="M133.186 40.535l.331-.104c.187-.037.41-.039.583.074.338.238.802.704 1.181 1.323.195.313.403.65.638.992.24.34.484.702.726 1.083.471.771.953 1.606 1.362 2.477l.625 1.294c.181.439.331.882.466 1.313.263.864.47 1.683.572 2.399l.038.22c.023.107.036.203.044.293l.035.445.018.166.032.22c.017.142.025.27.03.386.03.474-.32.715-.32.715a.506.506 0 0 1-.583-.005l-.026-.02s-.31-.223-.36-.557a3.77 3.77 0 0 0-.063-.279l-.046-.153-.062-.235-.1-.445-.118-.463a26.442 26.442 0 0 0-.61-2.197c-.13-.397-.289-.797-.439-1.208-.144-.413-.286-.838-.492-1.234a16.412 16.412 0 0 0-1.328-2.25c-.245-.338-.481-.665-.729-.956-.238-.298-.52-.534-.766-.758-.262-.208-.479-.429-.664-.605-.187-.188-.308-.363-.443-.529-.119-.168-.125-.391-.094-.58l.091-.334a.714.714 0 0 1 .471-.488z"/></g><path class="st2" d="M119.546 38.134c.007 12.038-9.41 21.975-21.43 22.615v-7.386c0-9.575 7.113-17.69 16.688-19.788h.091c.274-.091.547-.091.82-.183 1.004-.182 2.098-.273 3.192-.364a19.15 19.15 0 0 1 .639 5.106z"/><path class="st15" d="M119.637 99.322v2.006"/><path class="st1" d="M331.56 86.282h-35.198a5.873 5.873 0 0 1-5.837-5.836v-36.75a5.873 5.873 0 0 1 5.837-5.835h35.199a5.873 5.873 0 0 1 5.836 5.836v36.75a5.818 5.818 0 0 1-5.8 5.835h-.036z"/><path class="st2" d="M334.635 50.928s.623 2.467.662 6.783l.043 7.785-.097 10.098-.031 2.832-.017 1.457c-.008.27.008.432-.021.797-.015.237-.034.49-.097.811-.385 2.307-2.06 4.35-4.346 5.184-1.117.469-2.45.442-3.465.429l-3.301-.006a106596.014 106596.014 0 0 0-21.072-.035l-7.333-.013-1.844-.003-.504-.002-.461-.026c-.309-.03-.733-.082-1.05-.174-1.359-.32-2.585-1.117-3.483-2.176-.885-1.071-1.446-2.42-1.53-3.81-.049-1.332-.021-2.49-.036-3.741l-.023-7.333-.002-14.26.007-6.812c0-1.112.002-2.213.003-3.3l.001-1.622c.013-.366.016-.538.055-.867.043-.32.094-.636.18-.918.609-2.342 2.54-4.168 4.742-4.694.546-.153 1.103-.198 1.66-.214l1.456.007 2.832.015 17.883.093c2.158.022 3.854.09 5.01.175 1.156.088 1.773.168 1.773.168a.308.308 0 0 1 0 .61s-.617.08-1.773.168c-1.156.084-2.852.153-5.01.175l-17.883.093-2.832.015-1.456.007c-.421.021-.857.055-1.272.18-1.678.42-3.154 1.821-3.614 3.608-.25.77-.16 1.92-.176 3l.003 3.301.007 6.812-.002 14.26-.023 7.332c.003 1.206-.028 2.51.005 3.64.053 1.076.485 2.115 1.173 2.94.699.814 1.644 1.429 2.69 1.669.934.252 2.296.114 3.495.148l7.332-.012 14.26-.024 6.812-.011 3.301-.006c1.147.006 2.019.023 2.885-.335 1.72-.63 2.943-2.26 3.179-3.898a4.17 4.17 0 0 0 .066-.667c.016-.128 0-.46.001-.679l-.016-1.457-.032-2.831-.096-10.098.042-7.785c.04-4.316.662-6.783.662-6.783a.35.35 0 0 1 .678 0z"/><path class="st2" d="M298.068 48.165s.587.435.657 1.195c.061.76.08 1.847-.038 3.15-.048.653-.109 1.359-.124 2.106l-.027 2.35-.05 5.106c-.006.869.024 1.738.047 2.593l-.006 2.513c-.01 1.63-.012 3.15-.043 4.454-.022 1.304-.084 2.39-.107 3.15-.016.761-.342 1.196-.342 1.196a.382.382 0 0 1-.61 0s-.327-.435-.343-1.195c-.023-.76-.085-1.847-.107-3.15-.032-1.305-.034-2.826-.043-4.455l-.006-2.513c.022-.855.053-1.724.047-2.593l-.05-5.107-.027-2.35c-.015-.746-.076-1.452-.124-2.104-.118-1.304-.1-2.39-.038-3.15.07-.761.656-1.196.656-1.196a.57.57 0 0 1 .678 0zm13.04 0s.587.435.657 1.195c.061.76.08 1.847-.038 3.15-.048.653-.109 1.359-.124 2.106l-.027 2.35-.05 5.106c-.006.869.024 1.738.047 2.593l-.006 2.513c-.01 1.63-.012 3.15-.043 4.454-.022 1.304-.084 2.39-.107 3.15-.016.761-.342 1.196-.342 1.196a.382.382 0 0 1-.61 0s-.327-.435-.343-1.195c-.023-.76-.085-1.847-.107-3.15-.031-1.305-.034-2.826-.043-4.455l-.005-2.513c.022-.855.052-1.724.046-2.593l-.05-5.107-.027-2.35c-.015-.746-.076-1.452-.124-2.104-.118-1.304-.1-2.39-.038-3.15.07-.761.657-1.196.657-1.196a.57.57 0 0 1 .678 0zm13.132 0s.587.435.656 1.195c.062.76.08 1.847-.038 3.15-.048.653-.109 1.359-.124 2.106l-.027 2.35-.05 5.106c-.006.869.025 1.738.047 2.593l-.005 2.513c-.01 1.63-.012 3.15-.044 4.454-.022 1.304-.084 2.39-.106 3.15-.017.761-.343 1.196-.343 1.196a.382.382 0 0 1-.61 0s-.327-.435-.343-1.195c-.023-.76-.085-1.847-.107-3.15-.031-1.305-.034-2.826-.043-4.455l-.005-2.513c.022-.855.052-1.724.046-2.593l-.05-5.107-.027-2.35c-.015-.746-.076-1.452-.124-2.104-.118-1.304-.1-2.39-.038-3.15.07-.761.657-1.196.657-1.196a.57.57 0 0 1 .678 0z"/><circle class="st3" cx="297.729" cy="59.655" r="2.736"/><circle class="st4" cx="310.769" cy="52.36" r="2.736"/><circle class="st5" cx="323.901" cy="67.315" r="2.736"/><path class="st7" d="M343.871 42.238a6.585 6.585 0 0 1-.82 1.824.766.766 0 0 1-1.004.364 2.736 2.736 0 0 0-3.647 3.648.766.766 0 0 1-.365 1.003 7.739 7.739 0 0 1-2.006.82.657.657 0 0 1-.821-.455 2.736 2.736 0 0 0-2.553-1.824 2.654 2.654 0 0 0-2.554 1.824.657.657 0 0 1-.806.46l-.014-.004a7.741 7.741 0 0 1-2.007-.821.766.766 0 0 1-.364-1.003 2.736 2.736 0 0 0-3.648-3.648.766.766 0 0 1-1.003-.364c-.274-.639-.547-1.186-.82-1.824a.912.912 0 0 1 .455-1.003 2.736 2.736 0 0 0 1.824-2.554 2.654 2.654 0 0 0-1.824-2.553.657.657 0 0 1-.46-.807l.004-.014a7.779 7.779 0 0 1 .82-2.006.766.766 0 0 1 1.004-.365 2.736 2.736 0 0 0 3.648-3.647.766.766 0 0 1 .364-1.003 7.74 7.74 0 0 1 2.007-.821.657.657 0 0 1 .82.456 2.736 2.736 0 0 0 2.554 1.824 2.654 2.654 0 0 0 2.553-1.824.657.657 0 0 1 .807-.46l.014.004a7.744 7.744 0 0 1 2.006.82.768.768 0 0 1 .365 1.004 2.736 2.736 0 0 0 3.647 3.647.766.766 0 0 1 1.003.365 7.74 7.74 0 0 1 .821 2.006.657.657 0 0 1-.456.821 2.736 2.736 0 0 0-1.824 2.553 2.654 2.654 0 0 0 1.824 2.554c.39.164.59.6.456 1.003z"/><path class="st2" d="M344.2 42.24l-.003.091a5.56 5.56 0 0 1-.145 1.085 5.75 5.75 0 0 1-.351 1.067l.047-.083c-.136.355-.422.67-.786.845a1.639 1.639 0 0 1-1.21.074l-.3-.09c-.083-.026-.102-.008-.152-.025a3.697 3.697 0 0 0-.352-.038 1.75 1.75 0 0 0-1.277.532 1.75 1.75 0 0 0-.387.604 1.78 1.78 0 0 0-.012 1.19l.03.082.07.167c.341.852-.083 1.874-.897 2.245l.07-.037a8.596 8.596 0 0 1-1.664.725l-.437.123-.224.054s-.175.035-.254.038a1.625 1.625 0 0 1-1.475-.747 1.653 1.653 0 0 1-.193-.437l.017.053a1.81 1.81 0 0 0-1.098-1.153 2.02 2.02 0 0 0-.407-.095c-.065-.006-.151-.015-.199-.013l-.151.003-.078.008a1.793 1.793 0 0 0-1.347.883c-.039.06-.065.126-.097.19l-.13.328a1.485 1.485 0 0 1-1.742.786l-.323-.091a8.648 8.648 0 0 1-1.881-.82l.055.03a1.588 1.588 0 0 1-.854-1.09c-.139-.452.118-1.055.175-1.154.052-.119.04-.14.07-.213.01-.08.038-.158.042-.239.023-.16.015-.324-.002-.485a1.94 1.94 0 0 0-1.586-1.648 1.98 1.98 0 0 0-.97.081l-.297.122a1.562 1.562 0 0 1-1.87-.64c-.035-.062-.045-.074-.095-.181l-.036-.08-.07-.157-.141-.317-.566-1.266-.024-.056-.02-.08a1.7 1.7 0 0 1 .85-1.864l.064-.033.047-.016a1.965 1.965 0 0 0 1.302-1.65c.005-.07.013-.159.01-.214a1.885 1.885 0 0 0-.965-1.639c-.063-.038-.132-.065-.198-.097l-.326-.126a1.415 1.415 0 0 1-.75-1.662l.09-.322c.065-.217.139-.432.221-.643.166-.422.363-.832.588-1.226l-.028.052c.318-.698 1.201-1.054 1.917-.764.227.095.37.148.457.166.124.03.265.05.399.058a1.983 1.983 0 0 0 1.719-.9 2.05 2.05 0 0 0 .188-.375 1.897 1.897 0 0 0 .055-1.174 1.58 1.58 0 0 0-.062-.191l-.106-.25c-.305-.742.056-1.65.777-1.982l-.055.03a8.544 8.544 0 0 1 1.618-.729l.426-.128.218-.057s.156-.033.227-.036a1.474 1.474 0 0 1 1.04.33c.229.184.404.465.475.729l-.014-.044a1.943 1.943 0 0 0 1.634 1.284c.068.005.156.013.21.01.12 0 .191-.01.235-.016a1.858 1.858 0 0 0 1.38-.939c.037-.061.064-.13.094-.195l.127-.327a1.444 1.444 0 0 1 1.696-.767l.323.09a8.635 8.635 0 0 1 1.874.814l-.053-.028c.709.326 1.064 1.225.769 1.948-.098.227-.15.369-.171.454a2.332 2.332 0 0 0-.066.395 1.993 1.993 0 0 0 1.252 1.952 2.027 2.027 0 0 0 .799.138 2.017 2.017 0 0 0 .61-.118l.098-.038.156-.065c.706-.284 1.558.066 1.868.744l-.026-.049c.291.509.53 1.047.71 1.604l.123.42.055.216a1.353 1.353 0 0 1-.275 1.169c-.173.21-.427.369-.677.436l.04-.013a2.06 2.06 0 0 0-1.367 1.603c-.017.095-.026.233-.03.294l.004.209.014.131a2.184 2.184 0 0 0 .332.885c.23.36.565.662.975.866l.038.014c.57.272.795.967.591 1.464zm-.627-.143c-.02-.247-.2-.391-.35-.403l.037.014a2.935 2.935 0 0 1-1.68-1.085 3.134 3.134 0 0 1-.603-1.42l-.031-.286-.008-.21c.001-.218.014-.357.04-.539a3.408 3.408 0 0 1 2.21-2.685l.04-.013s-.02.009-.021.022v.006c-.006 0 .015.07 0 .012l-.047-.174-.11-.35a7.037 7.037 0 0 0-.615-1.325l-.002-.003-.025-.046c-.012-.022-.05-.025-.057-.017l-.105.047-.166.068a3.48 3.48 0 0 1-1.771.187 3.444 3.444 0 0 1-1.341-.51 3.338 3.338 0 0 1-.566-.453 3.523 3.523 0 0 1-1.041-2.627c.013-.245.045-.481.106-.726.075-.283.168-.49.218-.612-.003.01 0 .018.008.023l-.054-.03a7.025 7.025 0 0 0-1.53-.658l-.275-.075c-.044-.011.023.003.03-.004a.131.131 0 0 0 .1-.08c.028-.073 0 .003-.02.064l-.071.189c-.054.122-.107.246-.174.362a3.436 3.436 0 0 1-2.953 1.778c-.154.006-.273-.005-.41-.015a3.545 3.545 0 0 1-2.99-2.335l-.014-.044s.022.05.044.063c.022.02.05.03.08.034h.024c.005.005.092-.02.03-.005l-.172.046-.345.105a6.935 6.935 0 0 0-1.311.596l-.055.03c.02-.011.028-.029.015-.057l.013.033c-.01-.02.025.06-.02-.045l.005.01.009.021.037.085.068.17a3.541 3.541 0 0 1 .171 1.807 3.51 3.51 0 0 1-.995 1.92 3.533 3.533 0 0 1-2.65 1.015 3.835 3.835 0 0 1-.722-.115c-.28-.077-.487-.17-.61-.223l-.008-.003-.027.052c-.191.32-.355.657-.487 1.006a7.124 7.124 0 0 0-.179.53l-.075.276c-.01.046.002-.015-.004-.018-.008-.034-.017-.056-.062-.079a.852.852 0 0 1 .067.023l.187.07a3.405 3.405 0 0 1 1.53 1.236 3.409 3.409 0 0 1 .597 1.865c.005.152-.005.27-.015.406a3.523 3.523 0 0 1-2.317 2.973l.11-.049a.13.13 0 0 0-.061.143l-.044-.136.573 1.263.238.523c-.004-.01-.012-.012-.019-.015-.01.002.005-.005-.034.009l.135-.059.208-.082a3.573 3.573 0 0 1 1.765-.159 3.556 3.556 0 0 1 2.927 3.002c.037.297.048.599.01.897-.011.15-.05.296-.077.444-.043.146-.103.353-.145.445-.13.317-.067.167-.082.18-.003-.012-.013-.031-.027-.036l.056.03a6.979 6.979 0 0 0 1.524.653l.274.075c.041.01-.035-.005-.047.002a.17.17 0 0 0-.129.1c-.03.08-.003.002.018-.06l.07-.191c.053-.125.105-.251.172-.37a3.503 3.503 0 0 1 2.603-1.805l.23-.024.16-.008c.158-.007.278.003.42.012a3.677 3.677 0 0 1 3.12 2.372l.015.052s-.015-.048-.028-.07a.298.298 0 0 0-.225-.15c-.015 0-.032-.003-.048-.001-.012-.006-.125.024-.056.006l.166-.048.333-.112a6.9 6.9 0 0 0 1.266-.599l.07-.037a.251.251 0 0 0-.136.32l-.043-.094-.075-.181a3.772 3.772 0 0 1-.247-1.144 3.42 3.42 0 0 1 .043-.783 3.75 3.75 0 0 1 .567-1.45 3.63 3.63 0 0 1 .495-.61 3.767 3.767 0 0 1 2.84-1.069c.261.02.511.057.77.134.13.042.296.104.389.148.074.037.192.101.225.126-.107.004-.133.127-.071.159l.047-.084c.214-.213.412-.447.61-.694.192-.25.365-.513.536-.802l.027-.047z"/><circle class="st7" cx="332.655" cy="38.681" r="4.377"/><path class="st2" d="M332.672 33.966s.112-.087.32-.216c.17-.134.651-.293 1.094-.242.449.099 1 .276 1.54.64a4.727 4.727 0 0 1 1.464 1.57c.395.681.652 1.5.74 2.374.012.233.028.412.022.696-.015.195-.012.356-.059.625-.066.503-.21.922-.401 1.369a5.224 5.224 0 0 1-1.884 2.197 5.182 5.182 0 0 1-2.891.835c-.374-.014-.993-.068-1.454-.206a5.685 5.685 0 0 1-1.373-.612 5.12 5.12 0 0 1-1.864-2.218 5.237 5.237 0 0 1-.401-2.645 5.062 5.062 0 0 1 .864-2.303 4.967 4.967 0 0 1 2.927-1.988c.42-.105.772-.065.998.007.228.079.34.15.34.15l.018-.033zm-.017.644s-.102.082-.276.181a4.46 4.46 0 0 1-.718.3c-.608.18-1.436.674-2.019 1.578-.285.436-.485 1.039-.551 1.57-.07.673.025 1.277.293 1.892.27.602.727 1.135 1.295 1.528.282.2.598.357.93.473.36.108.6.165 1.084.17.638-.015 1.39-.233 1.949-.626a3.633 3.633 0 0 0 1.275-1.549c.121-.293.225-.636.25-.904.03-.112.03-.336.039-.519-.004-.094-.012-.29-.033-.425a3.115 3.115 0 0 0-.675-1.497 4.843 4.843 0 0 0-1.941-1.357c-.28-.154-.392-.378-.623-.535-.194-.15-.296-.247-.296-.247l.017-.033zM127.912 90.603s.445-.212 1.273-.374c.422-.072.906-.158 1.539-.16.315.016.581-.022.998.04.397.05.824.105 1.229.219 1.655.38 3.618 1.366 5.16 3.203.759.92 1.403 2.038 1.81 3.31.1.318.173.65.26.98.062.335.104.68.154 1.024l.045 1.062-.018.977-.11 8.499-.01 4.64c-.003.41-.004.822-.006 1.236-.034.413-.013.766-.101 1.246-.11.928-.386 1.747-.735 2.583a9.771 9.771 0 0 1-3.477 4.117c-.773.507-1.62.9-2.507 1.188a10.54 10.54 0 0 1-2.767.42l-10.479-.022-10.473.039c-.525-.014-.859-.014-1.358-.075a8.75 8.75 0 0 1-1.407-.276c-.897-.254-1.765-.618-2.538-1.124a9.6 9.6 0 0 1-3.577-4.028 9.058 9.058 0 0 1-.797-2.534c-.17-.87-.134-1.764-.142-2.524l.006-4.64.044-8.5.007-.976.002-.24.013-.278.028-.474a9.461 9.461 0 0 1 2.07-5.207c1.46-1.796 3.311-2.8 4.896-3.218 1.607-.446 2.926-.307 3.71-.215.822.1 1.26.201 1.26.201a.313.313 0 0 1 0 .61s-.439.1-1.262.198c-.849.117-1.989.073-3.355.46-1.36.378-2.94 1.268-4.167 2.822a8.057 8.057 0 0 0-1.7 4.424l-.02.475-.008.201.002.24.006.978.044 8.498.007 4.64c.01.819-.02 1.54.126 2.26a7.46 7.46 0 0 0 .67 2.112 7.997 7.997 0 0 0 2.993 3.352c.644.425 1.37.716 2.114.934.38.115.75.183 1.113.233.351.057.884.069 1.22.08l10.473.04c3.507-.01 7.014-.02 10.466-.028 3.183.011 6.126-2.053 7.292-4.815.282-.677.522-1.425.594-2.105.074-.315.06-.773.089-1.156 0-.386-.002-.77-.003-1.152l-.01-4.64c-.04-3.016-.077-5.867-.11-8.5l-.019-.976-.067-.845-.154-.816c-.079-.262-.14-.525-.225-.777a7.984 7.984 0 0 0-1.497-2.6c-1.246-1.432-2.77-2.233-4.077-2.574-.333-.106-.628-.143-.908-.193-.256-.068-.636-.07-.915-.104a10.253 10.253 0 0 1-1.489-.263c-.816-.214-1.247-.454-1.247-.454a.382.382 0 0 1 .022-.678z"/><circle class="st12" cx="174.898" cy="44.791" r="3.192"/><circle class="st12" cx="174.898" cy="66.038" r="3.192"/><circle class="st12" cx="174.898" cy="87.194" r="3.192"/><path class="st2" d="M184.108 44.178s.645-.586 1.775-.656c1.13-.061 2.743-.08 4.68.038 1.936.122 4.195.144 6.615.15 2.42.017 5.002.034 7.584.05 1.29.01 2.582-.03 3.853-.037 1.27-.023 2.52-.004 3.731-.003l6.616.043c1.936.044 3.55.08 4.68.107 1.129.016 1.774.342 1.774.342a.342.342 0 0 1 0 .61s-.645.327-1.775.343l-4.68.107-6.615.043c-1.21.001-2.46.02-3.732-.003-1.27-.007-2.561-.047-3.852-.038l-7.584.05c-2.42.007-4.68.03-6.616.15-1.936.119-3.55.1-4.68.039-1.129-.07-1.774-.657-1.774-.657a.458.458 0 0 1 0-.678zm48.877 0c0-.007.074-.133.212-.304.138-.155.341-.315.6-.352a8.704 8.704 0 0 1 2.137.038c.885.127 1.918.142 3.024.162 1.106.032 2.285.031 3.465.041.59.01 1.18-.024 1.76-.049l1.706.006c1.106.01 2.138.012 3.023.043.884.022 1.622.084 2.138.107.516.016.811.342.811.342a.457.457 0 0 1 0 .61s-.295.327-.811.343c-.516.023-1.254.085-2.138.107-.885.032-1.917.034-3.023.043l-1.706.006c-.58-.025-1.17-.06-1.76-.049-1.18.01-2.36.01-3.465.041-1.106.02-2.139.035-3.024.162-.884.118-1.622.1-2.138.038-.258-.036-.46-.197-.599-.352a1.884 1.884 0 0 1-.212-.304.708.708 0 0 1 0-.678zm-48.877 21.248c0-.008.093-.134.268-.305.175-.155.432-.315.758-.352.654-.061 1.587-.08 2.707.038 1.12.127 2.426.142 3.826.162 1.4.032 2.893.031 4.387.041.746.01 1.493-.024 2.228-.048l2.158.005c1.4.01 2.706.012 3.826.043 1.12.022 2.054.084 2.707.107.653.016 1.026.342 1.026.342a.406.406 0 0 1 0 .611s-.373.326-1.026.343c-.654.022-1.587.084-2.707.106-1.12.032-2.426.034-3.826.044l-2.158.005c-.735-.025-1.482-.06-2.229-.049-1.493.01-2.986.01-4.386.041-1.4.02-2.706.035-3.826.162-1.12.118-2.053.1-2.707.038a1.382 1.382 0 0 1-.758-.352 1.923 1.923 0 0 1-.268-.304.593.593 0 0 1 0-.678zm0 21.247s.708-.587 1.947-.657c1.24-.072 3.01-.062 5.134.038 2.125.122 4.603.144 7.259.151l8.32.05c1.416.009 2.833-.031 4.227-.038 1.394-.023 2.766-.004 4.094-.003l7.258.043 5.134.107c1.24.016 1.948.342 1.948.342a.336.336 0 0 1 0 .61s-.709.327-1.948.343l-5.134.107-7.258.043c-1.328.002-2.7.02-4.094-.003-1.394-.006-2.81-.047-4.227-.038l-8.32.05c-2.656.007-5.135.03-7.259.151-2.124.1-3.895.11-5.134.038-1.24-.07-1.947-.656-1.947-.656a.44.44 0 0 1 0-.678zm53.254-.091l.163-.305c.106-.157.262-.313.46-.352.397-.066.963-.078 1.643.038.68.127 1.472.142 2.322.162.85.032 1.756.031 2.662.041.453.01.906-.024 1.352-.049.446-.009.885.003 1.31.006.85.01 1.642.012 2.322.043.68.022 1.246.084 1.642.107.397.016.623.342.623.342a.537.537 0 0 1 0 .61s-.226.327-.623.344c-.396.022-.963.084-1.642.106-.68.032-1.473.034-2.322.044-.425.002-.864.014-1.31.005-.446-.025-.9-.06-1.352-.049-.906.01-1.813.01-2.662.041-.85.02-1.643.035-2.322.162-.68.116-1.246.105-1.643.038-.198-.039-.354-.195-.46-.352l-.163-.304a.726.726 0 0 1 0-.678zm-21.976-21.156s.57-.587 1.567-.657c.997-.061 2.422-.08 4.132.038 1.71.122 3.704.144 5.842.15 2.137.017 4.417.034 6.696.05 1.14.01 2.28-.03 3.402-.037 1.122-.023 2.227-.004 3.295-.003 2.137.01 4.132.012 5.842.043 1.71.022 3.135.084 4.132.107.997.016 1.567.342 1.567.342a.352.352 0 0 1 0 .61s-.57.327-1.567.343c-.997.023-2.422.085-4.132.107-1.71.032-3.705.034-5.842.043-1.068.002-2.173.02-3.295-.003-1.122-.006-2.262-.047-3.402-.038l-6.696.05c-2.138.007-4.132.03-5.842.151-1.71.118-3.135.1-4.132.038-.998-.07-1.567-.656-1.567-.656a.487.487 0 0 1 0-.678z"/><path class="st16" d="M271.614 412.933H189.42c-4.287 0-7.796-3.508-7.796-7.796v-52.81c0-4.288 3.509-7.796 7.796-7.796h82.193c4.288 0 7.796 3.508 7.796 7.796v52.81c0 4.288-3.508 7.796-7.796 7.796z"/><path class="st17" d="M133.281 401.03h-6.393v1.88a4.476 4.476 0 0 1-2.35 3.949 4.024 4.024 0 0 1-2.07.564 4.372 4.372 0 0 1-2.162-.564 4.476 4.476 0 0 1-2.35-3.949v-1.88h-6.394a9.13 9.13 0 0 0-9.12 9.12v15.796a9.13 9.13 0 0 0 9.12 9.12h21.72a9.13 9.13 0 0 0 9.12-9.12V410.15a9.186 9.186 0 0 0-9.12-9.12z"/><path class="st2" d="M113.128 401.049s-.468.193-1.347.37c-.859.191-2.213.323-3.766.351l-.63.04c-.21.018-.368.063-.56.09-.363.046-.792.187-1.201.31-.836.265-1.681.726-2.48 1.348-1.606 1.226-2.947 3.327-3.122 5.867-.105 2.712-.09 5.838-.137 9.041l-.011 4.964c.01 1.721-.118 3.385.427 4.875a8.333 8.333 0 0 0 2.786 3.932c1.3 1.018 2.931 1.659 4.62 1.74 3.606.059 7.425.03 11.16.05l11.163-.044c3.457-.042 6.53-2.357 7.642-5.384.301-.745.45-1.537.517-2.321.063-.752.022-1.683.035-2.508l.007-4.964.032-9.054a8.426 8.426 0 0 0-2.878-6.26c-1.607-1.385-3.46-1.989-4.975-2.06-1.589-.067-2.917-.106-3.783-.239a13.513 13.513 0 0 1-1.344-.237.313.313 0 0 1 .013-.61s.471-.098 1.353-.18c.893-.082 2.147-.115 3.84-.047 1.749.063 3.915.727 5.805 2.317a9.823 9.823 0 0 1 2.409 3.066c.157.309.308.625.422.963.135.33.239.673.323 1.028.195.698.282 1.522.306 2.182l.049 9.13.006 4.965c-.013.869.036 1.652-.034 2.626-.075.933-.255 1.877-.61 2.768a9.887 9.887 0 0 1-3.494 4.558c-.804.564-1.682 1.053-2.637 1.348-.48.149-.945.285-1.465.36-.254.035-.524.083-.766.104l-.691.033-11.245-.026c-3.774-.004-7.466.044-11.249-.003-2.003-.09-3.954-.842-5.505-2.046a9.933 9.933 0 0 1-3.34-4.673c-.668-1.862-.507-3.744-.534-5.389l-.011-4.964-.086-9.144a9.937 9.937 0 0 1 1.142-4.285 10.294 10.294 0 0 1 2.561-3.103 9.633 9.633 0 0 1 3.119-1.699c.533-.164 1.02-.305 1.559-.37.257-.033.533-.08.756-.094l.632-.025c1.73-.034 2.958.105 3.86.275.88.164 1.351.35 1.351.35a.366.366 0 0 1 .006.678z"/><path class="st2" d="M118.785 432.986c-.757-.204-1.498-.43-2.13-.8-.306-.198-.595-.419-.893-.627-.298-.21-.59-.425-.88-.645a1.047 1.047 0 0 1-.413-.857v-.022c.022-.768.089-1.535.14-2.302.048-.767.119-1.533.184-2.3.128-1.533.24-3.067.319-4.602l.47-9.212v-.008a.767.767 0 0 1 .226-.505l2.646-2.62.009-.007a.75.75 0 0 1 1.06.005l.002.003c.868.886 1.769 1.74 2.652 2.613.14.139.216.318.227.501l.001.018c.185 3.069.288 6.142.428 9.213.134 3.072.254 6.145.324 9.22v.03a.67.67 0 0 1-.273.55l-1.765 1.282c-.593.422-1.215.805-1.945 1.045l-.055.018a.58.58 0 0 1-.334.009zm.25-.79a7.852 7.852 0 0 1 1.304-1.312l1.713-1.35-.272.58a444.153 444.153 0 0 1-.522-9.21c-.142-3.07-.321-6.14-.419-9.214l.23.519c-.873-.883-1.728-1.784-2.614-2.652h1.07l-2.62 2.646.227-.513-.376 9.216a142.923 142.923 0 0 0-.104 4.612c-.005.77-.006 1.54-.028 2.308-.019.768-.023 1.538-.072 2.305l-.412-.88c.29.22.577.443.86.673.281.23.572.448.846.688.46.444.832 1.002 1.189 1.584z"/><path class="st7" d="M121.716 411.645l.753 18.438-3.48 2.632-3.478-2.632.846-18.438 2.633-2.623z"/><path class="st9" d="M123.597 400.748v1.88a4.476 4.476 0 0 1-2.35 3.949 4.024 4.024 0 0 1-2.07.564 4.372 4.372 0 0 1-2.162-.564 4.476 4.476 0 0 1-2.35-3.949v-1.88h8.932z"/><path class="st9" d="M123.597 388.43v14.198a4.476 4.476 0 0 1-2.35 3.949 4.024 4.024 0 0 1-2.07.564 4.372 4.372 0 0 1-2.162-.564 4.476 4.476 0 0 1-2.35-3.95V388.43a4.579 4.579 0 0 1 4.513-4.513 4.476 4.476 0 0 1 3.197 1.317 5.35 5.35 0 0 1 1.222 3.196z"/><path class="st2" d="M102.724 380.908a2.53 2.53 0 0 1-2.54-2.52v-15.814a2.53 2.53 0 0 1 2.52-2.539h.02a2.53 2.53 0 0 1 2.538 2.52v15.815a2.53 2.53 0 0 1-2.52 2.538h-.018zm32.626 0a2.53 2.53 0 0 1-2.539-2.52v-15.814a2.53 2.53 0 0 1 2.52-2.539h.019a2.53 2.53 0 0 1 2.539 2.52v15.815a2.53 2.53 0 0 1-2.52 2.538h-.02z"/><circle class="st2" cx="124.255" cy="356.274" r="14.95"/><path class="st2" d="M123.503 359.941c-.006 7.016-5.699 12.698-12.714 12.691a12.703 12.703 0 0 1-12.202-9.212 14.102 14.102 0 0 1-.47-3.479c-.032-6.979 5.6-12.662 12.58-12.693h.113a12.53 12.53 0 0 1 4.23.752 12.646 12.646 0 0 1 8.463 11.941z"/><path class="st9" d="M135.82 355.522v25.762c-.02 9.235-7.502 16.716-16.736 16.737a15.76 15.76 0 0 1-8.086-2.163 16.764 16.764 0 0 1-8.557-14.574v-25.762"/><path class="st2" d="M139.11 356.274c0 .947-.094 1.892-.281 2.82-4.867 6.658-14.208 8.11-20.865 3.244a14.93 14.93 0 0 1-6.12-12.081c0-.948.095-1.893.282-2.821 4.866-6.657 14.208-8.109 20.865-3.243a14.931 14.931 0 0 1 6.12 12.081z"/><path class="st2" d="M115.51 351.385c-.004 7.008-5.684 12.688-12.692 12.693a12.505 12.505 0 0 1-4.231-.752 14.102 14.102 0 0 1-.47-3.479c-.032-6.979 5.6-12.662 12.58-12.693h.113c1.443.004 2.874.259 4.23.752a14 14 0 0 1 .47 3.479z"/><path class="st2" d="M139.11 356.274c0 .947-.094 1.892-.281 2.82-4.867 6.658-14.208 8.11-20.865 3.244a14.93 14.93 0 0 1-6.12-12.081c0-.948.095-1.893.282-2.821 4.866-6.657 14.208-8.109 20.865-3.243a14.931 14.931 0 0 1 6.12 12.081z"/><g class="st10"><path class="st7" d="M124.366 343.618c0-.007.084-.129.238-.292.152-.148.372-.297.645-.32l.45-.012c.182.008.378.045.588.07.42.064.892.162 1.353.354l.731.267c.244.114.498.223.76.33.537.188 1.053.497 1.606.765.518.336 1.073.65 1.575 1.058.53.37.996.834 1.48 1.276.43.493.917.938 1.305 1.458.417.499.706 1.072 1.03 1.595.253.562.55 1.082.717 1.624l.271.776.175.748c.133.475.167.926.205 1.323.05.395.067.74.057 1.026.013.573-.298.892-.298.892a.425.425 0 0 1-.583.025l-.028-.025s-.342-.298-.384-.806a5.389 5.389 0 0 0-.15-.911c-.07-.35-.15-.742-.282-1.158l-.187-.653-.262-.678c-.15-.476-.427-.928-.653-1.421-.294-.457-.562-.951-.917-1.398-.302-.487-.689-.923-1.083-1.35-.438-.384-.852-.793-1.329-1.113-.443-.364-.955-.608-1.419-.89-.501-.21-.957-.476-1.44-.605a12.404 12.404 0 0 0-.692-.202l-.67-.096c-.43-.073-.802-.088-1.127-.134-.163-.031-.315-.047-.456-.088l-.444-.06c-.268-.05-.473-.22-.61-.382a1.867 1.867 0 0 1-.206-.315.677.677 0 0 1 .034-.678z"/></g><path class="st2" d="M111.68 401.782s.349.211.346.582c.023.37.095.899.109 1.533.036.635.025 1.375.04 2.169.008.396.01.806-.027 1.223-.043.51.003.578.129.847.253.454.824.647 1.26.487a1.07 1.07 0 0 0 .294-.15c.102-.071.125-.11.27-.275.237-.277.44-.56.632-.817.38-.518.768-.878 1.08-1.09a.84.84 0 0 1 .56-.047l.309.093c.237.072.41.26.48.48l.093.309a.84.84 0 0 1-.048.56c-.211.312-.572.7-1.09 1.079-.256.192-.54.395-.816.632-.108.095-.353.32-.576.453a2.696 2.696 0 0 1-.767.325c-1.1.299-2.43-.231-3.002-1.292a2.651 2.651 0 0 1-.295-.85c-.01-.077-.03-.187-.03-.225l-.015-.206a4.617 4.617 0 0 0-.016-.313 11.256 11.256 0 0 1-.028-1.223c.016-.794.005-1.534.041-2.169.014-.634.086-1.163.11-1.533-.004-.37.346-.582.346-.582a.59.59 0 0 1 .61 0zm15.419 0s.326.212.343.582c.022.371.084.9.106 1.537.032.635.034 1.377.044 2.171.002.398.014.808.005 1.225-.019.222-.004.365-.074.752a3.011 3.011 0 0 1-.298.835 2.5 2.5 0 0 1-1.33 1.172 2.867 2.867 0 0 1-1.674.113 2.685 2.685 0 0 1-.767-.32c-.225-.128-.466-.363-.573-.459-.268-.247-.554-.447-.813-.638-.532-.367-.898-.75-1.113-1.06-.104-.158-.097-.371-.056-.553l.108-.322a.764.764 0 0 1 .48-.48l.322-.107c.181-.041.395-.048.553.055.31.215.692.582 1.06 1.113.19.259.39.545.638.813a1.5 1.5 0 0 0 .275.27c.088.064.189.116.298.151.204.071.484.077.735-.016a.975.975 0 0 0 .533-.454.892.892 0 0 0 .113-.36 8.749 8.749 0 0 0-.023-.505c-.01-.417.002-.827.005-1.225.01-.794.012-1.536.044-2.171.022-.636.083-1.166.106-1.537.016-.37.343-.582.343-.582a.561.561 0 0 1 .61 0zm-4.426 28.571c-.402.673-.821 1.325-1.348 1.833-.274.24-.565.458-.847.689-.282.23-.569.453-.86.672a1.047 1.047 0 0 1-1.245.01l-.013-.01c-.587-.43-1.15-.89-1.72-1.34-.572-.45-1.136-.91-1.697-1.374l-.062-.052a.87.87 0 0 1-.31-.741c.138-1.534.238-3.069.328-4.604l.235-4.609.47-9.217a.773.773 0 0 1 .221-.5l2.607-2.647a.782.782 0 0 1 1.092-.022l.013.012c.918.864 1.833 1.732 2.736 2.613l.006.007a.796.796 0 0 1 .24.54l.336 9.22c.053 1.537.092 3.074.12 4.612l.047 2.307c.013.769-.016 1.54-.249 2.318l-.05.17a.507.507 0 0 1-.05.113zm-.573-.49c-.23-.684-.329-1.368-.373-2.058l-.14-2.303a268.58 268.58 0 0 1-.257-4.607l-.416-9.217.246.545a209.536 209.536 0 0 1-2.717-2.633l1.104-.01-2.658 2.598.22-.499-.375 9.221-.188 4.611a147.548 147.548 0 0 0-.096 4.615l-.372-.793c.599.414 1.195.83 1.783 1.26.59.425 1.185.842 1.757 1.291h-1.258c.29-.22.583-.435.88-.644.299-.209.588-.43.893-.628.587-.342 1.268-.557 1.967-.75z"/><path class="st18" d="M118.99 409.022v-1.881"/><path class="st1" d="M337.125 397.269h-36.293a6.055 6.055 0 0 1-6.018-6.018V353.36a6.055 6.055 0 0 1 6.018-6.018h36.293a6.055 6.055 0 0 1 6.018 6.018v37.891a6.055 6.055 0 0 1-6.018 6.018z"/><path class="st2" d="M340.19 360.74s.622 2.54.663 6.983l.043 8.014-.096 10.394-.032 2.915-.016 1.5-.013.81c-.025.268-.012.472-.074.807-.318 2.403-2 4.528-4.322 5.442-.575.24-1.192.366-1.813.45-.656.05-1.197.034-1.754.035l-3.399-.005-7.012-.012-14.679-.024-7.548-.012-1.898-.003h-.475l-.28-.003-.238-.014c-.292-.003-.68-.064-1.053-.127-1.398-.301-2.705-1.03-3.655-2.1-.97-1.05-1.564-2.425-1.735-3.84-.062-.745-.037-1.341-.045-1.98l-.007-1.9-.023-7.547-.003-14.68.006-7.012.003-3.398c.036-1.13-.094-2.167.154-3.47.51-2.435 2.39-4.392 4.61-5.071.556-.158 1.122-.28 1.69-.297.59-.034 1.028-.005 1.542-.01l2.915.014 18.408.095c2.222.02 3.967.089 5.158.173 1.19.088 1.825.17 1.825.17a.308.308 0 0 1 0 .61s-.635.081-1.825.17c-1.19.084-2.936.153-5.158.173l-18.408.095-2.915.015c-1.038.003-1.912-.024-2.763.264-1.702.547-3.156 2.052-3.542 3.925-.183.845-.093 2.042-.114 3.144l.003 3.399.007 7.012-.004 14.679-.023 7.548-.006 1.898c0 .627-.018 1.3.024 1.82.124 1.101.583 2.17 1.345 2.985.74.832 1.763 1.39 2.841 1.623 1.043.189 2.389.074 3.64.103a392352.373 392352.373 0 0 0 22.226-.036l7.013-.011 3.398-.006c.562 0 1.134.005 1.581-.032.472-.07.94-.16 1.375-.346 1.754-.692 2.99-2.41 3.174-4.095.043-.169.035-.48.052-.718l-.006-.71-.017-1.5-.031-2.915-.096-10.394c.016-3.095.03-5.792.043-8.014.04-4.444.662-6.983.662-6.983a.349.349 0 0 1 .678 0z"/><path class="st2" d="M302.487 357.967s.587.448.656 1.232c.062.784.08 1.904-.037 3.248-.049.673-.11 1.4-.124 2.17l-.027 2.423-.05 5.265c-.006.896.024 1.793.046 2.675l-.005 2.59c-.01 1.68-.012 3.249-.044 4.593-.022 1.344-.083 2.465-.106 3.249-.016.784-.342 1.232-.342 1.232a.378.378 0 0 1-.611 0s-.326-.448-.343-1.232c-.022-.784-.084-1.905-.106-3.249-.032-1.344-.034-2.912-.044-4.593l-.005-2.59c.022-.882.053-1.779.047-2.675l-.05-5.265-.027-2.422c-.015-.77-.076-1.499-.124-2.17a20.045 20.045 0 0 1-.038-3.25c.07-.783.656-1.231.656-1.231a.56.56 0 0 1 .678 0zm13.54 0s.586.448.656 1.232c.061.784.08 1.904-.038 3.248-.048.673-.109 1.4-.124 2.17l-.027 2.423-.05 5.265c-.006.896.025 1.793.047 2.675l-.006 2.59c-.01 1.68-.011 3.249-.043 4.593-.022 1.344-.084 2.465-.107 3.249-.016.784-.342 1.232-.342 1.232a.378.378 0 0 1-.61 0s-.327-.448-.343-1.232c-.023-.784-.085-1.905-.107-3.249-.031-1.344-.034-2.912-.043-4.593l-.005-2.59c.022-.882.052-1.779.046-2.675l-.05-5.265-.027-2.422c-.015-.77-.076-1.499-.124-2.17a20.045 20.045 0 0 1-.038-3.25c.07-.783.657-1.231.657-1.231a.56.56 0 0 1 .678 0zm13.445 0s.587.448.656 1.232c.062.784.08 1.904-.038 3.248-.048.673-.108 1.4-.123 2.17l-.027 2.423-.05 5.265c-.006.896.024 1.793.046 2.675l-.005 2.59c-.01 1.68-.012 3.249-.044 4.593-.022 1.344-.083 2.465-.106 3.249-.016.784-.343 1.232-.343 1.232a.378.378 0 0 1-.61 0s-.327-.448-.343-1.232c-.023-.784-.084-1.905-.106-3.249-.032-1.344-.034-2.912-.044-4.593l-.005-2.59c.022-.882.052-1.779.046-2.675l-.05-5.265-.027-2.422c-.015-.77-.075-1.499-.123-2.17a20.045 20.045 0 0 1-.038-3.25c.07-.783.656-1.231.656-1.231a.56.56 0 0 1 .678 0z"/><circle class="st3" cx="302.148" cy="373.01" r="2.821"/><circle class="st4" cx="315.688" cy="380.25" r="2.821"/><circle class="st5" cx="329.133" cy="363.796" r="2.821"/><path class="st7" d="M349.818 351.855c-.184.666-.47 1.3-.846 1.88a.79.79 0 0 1-1.034.377 2.82 2.82 0 0 0-3.761 3.76.79.79 0 0 1-.376 1.035 7.982 7.982 0 0 1-2.069.846.677.677 0 0 1-.846-.47 2.82 2.82 0 0 0-2.633-1.88 2.736 2.736 0 0 0-2.632 1.88.677.677 0 0 1-.847.47 7.982 7.982 0 0 1-2.068-.846.79.79 0 0 1-.376-1.034 2.82 2.82 0 0 0-3.761-3.761.79.79 0 0 1-1.034-.376c-.282-.659-.565-1.223-.847-1.88a.94.94 0 0 1 .47-1.035 2.82 2.82 0 0 0 1.881-2.633 2.736 2.736 0 0 0-1.88-2.633.677.677 0 0 1-.47-.846 7.985 7.985 0 0 1 .846-2.068.79.79 0 0 1 1.034-.376 2.82 2.82 0 0 0 3.76-3.761.79.79 0 0 1 .377-1.035 7.982 7.982 0 0 1 2.068-.846.677.677 0 0 1 .847.47 2.82 2.82 0 0 0 2.632 1.88 2.736 2.736 0 0 0 2.633-1.88.677.677 0 0 1 .846-.47 7.985 7.985 0 0 1 2.069.846.79.79 0 0 1 .376 1.035 2.82 2.82 0 0 0 3.76 3.76.79.79 0 0 1 1.035.377c.378.646.663 1.342.846 2.068a.677.677 0 0 1-.455.842l-.015.005a2.82 2.82 0 0 0-1.88 2.632 2.736 2.736 0 0 0 1.88 2.633.94.94 0 0 1 .47 1.034z"/><path class="st2" d="M350.148 351.817l-.004.132c-.011.366-.07.744-.155 1.113-.082.374-.21.738-.366 1.095l.047-.083c-.14.36-.43.68-.799.857-.368.18-.82.207-1.227.074l-.308-.094c-.086-.026-.109-.01-.16-.027a3.704 3.704 0 0 0-.37-.041 1.835 1.835 0 0 0-1.341.557 1.841 1.841 0 0 0-.406.633 1.861 1.861 0 0 0-.065 1.072c.013.06.03.12.052.178l.033.087.07.171c.346.863-.083 1.899-.908 2.274l.069-.036a8.831 8.831 0 0 1-1.709.746l-.448.126-.23.055s-.178.036-.258.039a1.655 1.655 0 0 1-1.166-.38 1.67 1.67 0 0 1-.328-.377 1.672 1.672 0 0 1-.195-.442l.017.052a1.895 1.895 0 0 0-1.151-1.204 2.106 2.106 0 0 0-.426-.1c-.068-.005-.157-.015-.208-.013l-.156.003-.083.01a1.876 1.876 0 0 0-1.409.925c-.04.062-.068.13-.1.197l-.134.337a1.505 1.505 0 0 1-1.766.797l-.333-.093a8.88 8.88 0 0 1-1.934-.843l.056.03a1.612 1.612 0 0 1-.867-1.107c-.141-.458.119-1.069.178-1.174.054-.122.042-.147.074-.223.011-.084.04-.165.043-.25a2.043 2.043 0 0 0-.002-.507 2.026 2.026 0 0 0-1.656-1.72 2.065 2.065 0 0 0-1.011.085l-.308.126a1.585 1.585 0 0 1-1.898-.649c-.035-.063-.046-.076-.097-.184l-.036-.082-.073-.163-.146-.326-.583-1.306-.024-.055-.02-.081a1.73 1.73 0 0 1 .864-1.894l.064-.033.047-.017a2.05 2.05 0 0 0 1.359-1.722c.005-.073.013-.165.01-.223 0-.122-.01-.199-.016-.247a1.966 1.966 0 0 0-.992-1.463c-.065-.04-.137-.068-.207-.101l-.335-.13a1.435 1.435 0 0 1-.76-1.686l.093-.331a9.06 9.06 0 0 1 .831-1.922l-.027.052c.322-.71 1.22-1.07 1.946-.776.233.097.381.152.475.172.13.032.276.051.415.06a2.069 2.069 0 0 0 1.795-.939 2.15 2.15 0 0 0 .196-.39 1.977 1.977 0 0 0 .058-1.226 1.655 1.655 0 0 0-.064-.199l-.11-.259c-.31-.752.057-1.674.79-2.01l-.056.029a8.788 8.788 0 0 1 1.664-.75l.437-.131.224-.059s.159-.033.23-.036a1.49 1.49 0 0 1 1.055.334c.232.188.41.472.482.74l-.015-.045a2.029 2.029 0 0 0 1.706 1.342c.072.004.163.013.22.009.123 0 .198-.01.245-.016a1.94 1.94 0 0 0 1.44-.98c.04-.065.068-.136.1-.205l.13-.336a1.465 1.465 0 0 1 1.72-.777l.333.092a8.835 8.835 0 0 1 1.927.838l-.054-.029c.72.331 1.081 1.244.781 1.978-.1.233-.155.38-.177.47a2.415 2.415 0 0 0-.069.413 2.079 2.079 0 0 0 1.307 2.035 2.11 2.11 0 0 0 .833.144 2.095 2.095 0 0 0 .637-.123l.102-.04.16-.066c.717-.29 1.583.066 1.897.755l-.026-.049c.3.523.545 1.077.73 1.65l.128.433.056.22a1.381 1.381 0 0 1 .032.423 1.37 1.37 0 0 1-1 1.207l.042-.013a2.146 2.146 0 0 0-1.423 1.67 2.999 2.999 0 0 0-.031.307l.004.215.015.138a2.23 2.23 0 0 0 .346.921c.24.376.59.687 1.016.9l.08.034c.502.309.712.937.565 1.431zm-.64-.083a.564.564 0 0 0-.395-.478l.08.034a3.014 3.014 0 0 1-1.72-1.111 3.236 3.236 0 0 1-.494-.938 3.878 3.878 0 0 1-.124-.52l-.032-.29-.008-.216c.001-.223.014-.367.04-.553a3.49 3.49 0 0 1 2.265-2.751l.042-.014c.008-.005-.006-.001-.007.004v.003c-.006-.001.015.069 0 .009l-.05-.18-.113-.362a7.282 7.282 0 0 0-.636-1.37l-.008-.015-.018-.034c-.017-.034-.07-.043-.087-.03l-.11.048-.17.07a3.557 3.557 0 0 1-2.542-.004 3.675 3.675 0 0 1-.646-.328 3.422 3.422 0 0 1-.579-.462 3.61 3.61 0 0 1-1.067-2.691 3.98 3.98 0 0 1 .11-.744c.075-.289.171-.502.224-.629l-.004-.007h-.005l-.049-.029a7.275 7.275 0 0 0-1.584-.682l-.284-.078c-.047-.011.017.002.022-.004.036-.01.061-.02.085-.068l-.024.068-.072.193c-.055.125-.109.252-.178.371a3.518 3.518 0 0 1-3.024 1.82c-.157.006-.279-.005-.42-.014a3.63 3.63 0 0 1-3.062-2.391l-.014-.045s.02.043.038.053a.12.12 0 0 0 .07.029h.02c.003.005.09-.02.025-.004l-.177.047-.357.109a7.178 7.178 0 0 0-1.356.616l-.056.03c.01-.006.013-.01.004-.027l.046.108.07.174a3.628 3.628 0 0 1 .175 1.85 3.593 3.593 0 0 1-.546 1.386 3.62 3.62 0 0 1-3.187 1.621 3.929 3.929 0 0 1-.74-.117c-.286-.079-.498-.175-.626-.23-.008-.007-.029-.004-.038.01l-.027.051c-.198.332-.367.68-.504 1.041-.069.18-.13.363-.185.548l-.077.285c-.012.05 0-.008-.005-.008-.007-.027-.012-.045-.05-.064-.068-.025.008.002.071.024l.191.071c.125.055.25.108.368.177a3.492 3.492 0 0 1 1.81 3c.006.155-.005.276-.015.416a3.608 3.608 0 0 1-2.374 3.045l.112-.05a.158.158 0 0 0-.076.175l-.044-.136.59 1.302.247.543v-.004c-.007.002.01-.006-.025.007l.141-.06c.07-.033.142-.057.213-.085a3.664 3.664 0 0 1 1.807-.163 3.641 3.641 0 0 1 2.997 3.074c.038.305.05.614.01.92-.011.153-.05.302-.078.454-.044.15-.105.36-.149.455-.133.323-.073.181-.086.2 0 0-.006-.017-.014-.019l.056.03a7.23 7.23 0 0 0 1.577.676l.283.077c.044.011-.028-.004-.038.004a.15.15 0 0 0-.113.089c-.03.077-.002-.002.02-.066l.07-.195c.055-.128.108-.257.178-.378a3.584 3.584 0 0 1 2.664-1.847l.235-.025.163-.007c.162-.008.286.002.43.011a3.762 3.762 0 0 1 3.191 2.428l.017.053s-.014-.044-.026-.065a.277.277 0 0 0-.209-.14c-.015 0-.03-.003-.045-.002-.011-.005-.123.024-.053.006l.172-.05.345-.114a7.145 7.145 0 0 0 1.311-.62l.07-.037a.227.227 0 0 0-.123.29l-.045-.099-.077-.185a3.87 3.87 0 0 1-.252-1.17 3.505 3.505 0 0 1 .043-.8 3.833 3.833 0 0 1 .58-1.483c.147-.224.315-.435.506-.622a3.852 3.852 0 0 1 2.904-1.095c.267.02.523.058.787.137.134.042.302.105.398.15.076.038.198.104.233.13-.095.009-.108.125-.04.146l.046-.083c.22-.222.423-.466.624-.721.197-.26.374-.533.547-.832l.016-.027z"/><circle class="st7" cx="338.159" cy="348.188" r="4.513"/><path class="st2" d="M338.176 343.336s.116-.086.33-.215c.176-.133.667-.291 1.12-.237a4.524 4.524 0 0 1 1.578.657 4.86 4.86 0 0 1 1.503 1.608c.406.698.672 1.538.763 2.435.012.238.029.423.022.712-.015.201-.012.369-.06.644-.068.515-.215.945-.411 1.403a5.362 5.362 0 0 1-1.933 2.256 5.32 5.32 0 0 1-2.967.858c-.387-.014-1.019-.07-1.493-.212a5.827 5.827 0 0 1-1.409-.629 5.258 5.258 0 0 1-1.913-2.276 5.373 5.373 0 0 1-.412-2.716 5.2 5.2 0 0 1 .887-2.363 5.104 5.104 0 0 1 3.003-2.043 1.939 1.939 0 0 1 1.025.002c.235.079.35.15.35.15l.017-.034zm-.017.644s-.105.082-.285.182c-.18.096-.431.202-.745.305-.63.185-1.49.696-2.095 1.634-.297.452-.505 1.075-.574 1.629a3.772 3.772 0 0 0 .304 1.963c.28.625.754 1.178 1.345 1.586.292.208.62.37.965.49.373.112.625.17 1.124.177.664-.016 1.442-.242 2.023-.65a3.77 3.77 0 0 0 1.325-1.607c.126-.305.233-.66.26-.94.03-.118.03-.348.04-.536a4.45 4.45 0 0 0-.033-.442 3.25 3.25 0 0 0-.697-1.557 4.954 4.954 0 0 0-2.019-1.413c-.291-.157-.412-.382-.649-.54-.2-.15-.306-.247-.306-.247l.017-.034z"/><circle class="st12" cx="175.686" cy="352.983" r="3.291"/><circle class="st12" cx="175.686" cy="374.891" r="3.291"/><circle class="st12" cx="175.686" cy="396.704" r="3.291"/><path class="st2" d="M185.183 352.456l.156-.304c.102-.157.251-.313.441-.352.381-.067.925-.078 1.577.038.652.127 1.413.142 2.229.162.815.032 1.685.03 2.554.04.435.011.87-.023 1.298-.048.428-.01.85.003 1.257.005.816.01 1.577.012 2.229.044.652.022 1.196.084 1.576.106.38.016.598.343.598.343.127.19.12.431 0 .61 0 0-.217.327-.598.343-.38.023-.924.084-1.576.106-.652.032-1.413.034-2.229.044-.407.003-.829.015-1.257.005-.428-.024-.863-.059-1.298-.048-.87.01-1.739.009-2.554.04-.816.02-1.577.035-2.23.162-.651.117-1.195.105-1.575.038-.19-.039-.34-.195-.442-.352l-.157-.304a.749.749 0 0 1 0-.678zm22.565 0s.74-.587 2.032-.656c1.294-.072 3.141-.062 5.358.038 2.217.121 4.803.144 7.574.15 2.771.017 5.727.034 8.683.05l4.41-.037c1.456-.023 2.887-.005 4.273-.004l7.574.044 5.358.106c1.293.017 2.032.343 2.032.343a.334.334 0 0 1 0 .61s-.739.327-2.032.343l-5.358.106-7.574.044c-1.386.001-2.817.02-4.272-.003l-4.41-.038-8.684.05c-2.77.007-5.357.029-7.574.15-2.217.1-4.064.11-5.358.038-1.293-.069-2.032-.656-2.032-.656a.433.433 0 0 1 0-.678zm-22.565 21.908s.562-.587 1.547-.656c.985-.062 2.391-.08 4.08.037 1.687.122 3.657.144 5.767.151l6.611.05c1.126.009 2.25-.031 3.359-.038 1.107-.023 2.198-.004 3.253-.003 2.11.01 4.079.012 5.767.044 1.688.021 3.095.083 4.08.106.984.016 1.547.342 1.547.342a.353.353 0 0 1 0 .611s-.563.326-1.548.343c-.984.022-2.391.084-4.079.106-1.688.032-3.657.034-5.767.044-1.055 0-2.146.02-3.253-.004-1.108-.006-2.233-.046-3.359-.037-2.25.017-4.501.033-6.611.05-2.11.006-4.08.028-5.768.15-1.688.118-3.094.1-4.08.038-.984-.07-1.546-.656-1.546-.656a.49.49 0 0 1 0-.678zm0 21.907s.73-.587 2.007-.656c1.278-.072 3.104-.062 5.294.038 2.19.122 4.746.144 7.484.15l8.58.05 4.358-.037c1.437-.023 2.852-.005 4.22-.004l7.485.044 5.293.106c1.278.016 2.008.343 2.008.343a.334.334 0 0 1 0 .61s-.73.327-2.008.343l-5.293.106-7.484.044c-1.37.001-2.784.02-4.221-.003l-4.359-.038-8.579.05c-2.738.007-5.293.03-7.484.15-2.19.1-4.016.11-5.294.039-1.277-.07-2.007-.657-2.007-.657a.435.435 0 0 1 0-.678zm44.473-21.907s.396-.587 1.09-.656a15.74 15.74 0 0 1 2.876.037c.595.049 1.24.11 1.922.124l2.144.027 4.661.05c.793.006 1.587-.024 2.368-.046l2.293.005c1.487.01 2.876.012 4.066.044 1.19.022 2.181.083 2.875.106.695.016 1.091.343 1.091.343a.395.395 0 0 1 0 .61s-.396.327-1.09.343c-.695.023-1.686.084-2.876.106-1.19.032-2.579.034-4.066.044l-2.293.005c-.781-.022-1.575-.052-2.368-.046l-4.66.05-2.145.027c-.682.014-1.327.075-1.922.123-1.19.118-2.181.1-2.875.038-.695-.07-1.091-.656-1.091-.656a.607.607 0 0 1 0-.678zM516.367 220.9a2.656 2.656 0 0 0-.468-.117 3.254 3.254 0 0 1-2.341-2.808 1.638 1.638 0 0 0-.351-1.053c-2.34-3.511-4.564-6.905-6.905-10.416a5.733 5.733 0 0 1-.936-2.809 3.066 3.066 0 0 1 3.862-3.276c.968.23 1.857.715 2.575 1.404l1.755 1.755v-12.17a3.113 3.113 0 0 1 2.692-3.394h2.925a3.066 3.066 0 0 1 2.575 3.277v4.915h1.053a2.762 2.762 0 0 1 2.458 1.287c.279.563.912.856 1.521.702a3.183 3.183 0 0 1 3.043 1.873c0 .117.234.117.234.234h.936a3.148 3.148 0 0 1 3.16 3.136v8.1a6.624 6.624 0 0 1-.936 3.276c-.937 1.405-1.873 2.926-2.926 4.33a3.874 3.874 0 0 1-2.224 1.639c-.234.117-.468.117-.702.234-3.51-.118-7.255-.118-11-.118z"/><path class="st19" d="M531.928 203.233v7.954c-.022.437-.1.863-.235 1.29-.068.291-.18.572-.348.819l-2.805 4.206a2.103 2.103 0 0 1-1.873 1.055h-9.95a.32.32 0 0 1-.146 0 1.087 1.087 0 0 1-1.021-1.167 3.482 3.482 0 0 0-.583-1.873c-2.345-3.388-4.566-6.9-6.91-10.298a5.248 5.248 0 0 1-.696-1.75 1.061 1.061 0 0 1 .022-.673c.214-.55.83-.83 1.38-.617.584.1 1.11.392 1.515.819.942 1.054 1.997 2.109 3.051 3.152a.879.879 0 0 1 .224.471v.707a1.058 1.058 0 0 0 1.055 1.043 1.037 1.037 0 0 0 1.054-1.043v-16.266a.92.92 0 0 1 .023-.303 1.085 1.085 0 0 1 1.267-.875h1.638a1.008 1.008 0 0 1 1.167 1.178v10.174a1.053 1.053 0 1 0 2.109 0v-3.04a1.4 1.4 0 0 0 1.054-.235c.023 0 .045 0 .079.011a.941.941 0 0 1 .852 1.043v3.983c0 .18.045.359.135.516.27.505.897.684 1.391.415a.788.788 0 0 0 .583-.931v-2.928a4.966 4.966 0 0 1 1.29 0c.45.146.74.583.707 1.054v4.095c0 .404.224.763.583.931a.88.88 0 0 0 1.055-.112 1.08 1.08 0 0 0 .348-.82v-3.04h1.166a.945.945 0 0 1 .82 1.055z"/><path class="st1" d="M128.763 304.864h-69.99c-5.351 0-9.69-4.338-9.69-9.69v-120.47c0-5.352 4.339-9.69 9.69-9.69h69.99a9.69 9.69 0 0 1 9.69 9.69v120.47a9.69 9.69 0 0 1-9.69 9.69zM81.312 437.72H54.188a5.105 5.105 0 0 1-5.105-5.105V349.93a5.104 5.104 0 0 1 5.105-5.105h27.124a5.104 5.104 0 0 1 5.105 5.105v82.685a5.104 5.104 0 0 1-5.105 5.104zm0-310.537H54.188a5.105 5.105 0 0 1-5.105-5.104V39.393a5.105 5.105 0 0 1 5.105-5.104h27.124a5.105 5.105 0 0 1 5.105 5.104v82.686a5.104 5.104 0 0 1-5.105 5.104z"/><path class="st20" d="M533.419 174.753s-.093-.293-.135-.812c-.051-.518-.019-1.283.05-2.154.126-.87.197-1.967.269-3.217.056-1.25.075-2.667-.046-4.208-.065-1.55-.392-3.202-.808-4.928a29.63 29.63 0 0 0-2.021-5.202 27.915 27.915 0 0 0-3.29-4.975c-1.278-1.588-2.815-2.985-4.485-4.25l-1.243-.89-1.336-.785c-.436-.276-.9-.499-1.364-.717-.465-.216-.914-.462-1.386-.652-1.886-.768-3.797-1.394-5.704-1.767-.949-.198-1.9-.31-2.826-.428-.933-.04-1.844-.172-2.736-.128-.89.002-1.757.009-2.593.096l-1.233.098-1.177.182c-.384.063-.764.11-1.13.182a11196.108 11196.108 0 0 1-2.074.487l-.936.292c-1.221.35-2.238.788-3.083 1.133-.846.338-1.495.646-1.98.781-.48.145-.752.2-.752.2l-.023.004a.314.314 0 0 1-.277-.536s.2-.189.607-.501c.418-.291 1.023-.754 1.897-1.13.87-.38 1.923-.862 3.19-1.259l.972-.328 1.053-.273 1.109-.288c.381-.085.777-.144 1.179-.22l1.233-.22 1.293-.134c.876-.117 1.79-.132 2.728-.135.94-.048 1.9.08 2.885.122.977.119 1.981.234 2.984.438a29.253 29.253 0 0 1 6.027 1.874c1.956.918 3.867 1.945 5.634 3.315 1.73 1.288 3.378 2.762 4.746 4.431a29.504 29.504 0 0 1 3.524 5.24 33.044 33.044 0 0 1 2.197 5.486c.506 1.81.914 3.552 1.104 5.19.446 3.28.21 6.039-.167 7.955a6.262 6.262 0 0 1-.753 2.093c-.254.455-.46.682-.46.682a.391.391 0 0 1-.663-.144z"/><path class="st20" d="M529.404 169.758c.742-.118.914.154 1.114.408.208.248.382.52.538.803.303.574.573 1.17.935 1.703a126.014 126.014 0 0 0 2.13 3.226l-.978-.238c.57-.287 1.093-.664 1.663-.952l1.696-.89c.564-.3 1.138-.58 1.713-.859l.875-.395c.295-.125.553-.32 1.015-.133a.477.477 0 0 1 .29.538c-.1.488-.405.596-.673.773l-.812.511c-.55.325-1.1.65-1.663.953l-1.678.923c-.555.317-1.157.544-1.712.86l-.585.334-.394-.571a130.37 130.37 0 0 0-2.244-3.15c-.368-.528-.827-.995-1.253-1.484a5.029 5.029 0 0 1-.556-.79c-.165-.278-.357-.537.02-1.186a.797.797 0 0 1 .56-.384z"/><path class="st21" d="M353.194 44.206s-.106-.232-.173-.637c-.073-.403-.087-1.002-.045-1.656.09-.654.137-1.487.192-2.432.046-.947.065-2.019-.014-3.188-.035-1.175-.276-2.43-.583-3.74a22.282 22.282 0 0 0-1.527-3.949 21.181 21.181 0 0 0-2.49-3.776c-.967-1.205-2.13-2.266-3.401-3.23-1.2-.952-2.654-1.66-4.043-2.299-1.433-.577-2.88-1.056-4.327-1.34-.72-.15-1.442-.235-2.145-.326-.708-.031-1.4-.132-2.076-.098-.676 0-1.334.005-1.968.074l-.935.075-.894.14c-.588.074-1.14.203-1.664.327-.53.109-1.026.233-1.482.389-.93.257-1.706.583-2.35.84-.646.253-1.148.472-1.526.556a5.573 5.573 0 0 1-.593.118l-.024.002a.321.321 0 0 1-.276-.534s.145-.16.448-.419c.311-.241.77-.613 1.441-.906.669-.299 1.476-.676 2.45-.99.479-.184 1-.338 1.558-.477.552-.161 1.14-.297 1.765-.392l.951-.168.998-.101c.676-.089 1.38-.1 2.104-.104.725-.037 1.466.061 2.225.093.754.091 1.529.18 2.303.336 1.552.302 3.126.78 4.65 1.447 1.511.711 2.975 1.508 4.348 2.569 1.33.988 2.605 2.126 3.662 3.413a22.764 22.764 0 0 1 2.725 4.041 25.687 25.687 0 0 1 1.702 4.232c.397 1.395.72 2.738.88 4.001.366 2.535.187 4.665-.121 6.152a4 4 0 0 1-.66 1.594 2.74 2.74 0 0 1-.422.507.424.424 0 0 1-.663-.144z"/><path class="st21" d="M350.265 40.355c.33-.077.565-.088.696-.028.15.046.203.16.292.247.164.187.294.397.407.618.218.449.402.92.678 1.329a73.676 73.676 0 0 0 1.618 2.478l-.979-.238c.439-.217.829-.522 1.267-.74l1.3-.676c.432-.23.874-.439 1.317-.647l.677-.288c.23-.09.421-.25.817-.027a.569.569 0 0 1 .29.538c-.035.453-.273.525-.475.666l-.614.405c-.418.254-.837.508-1.266.74l-1.283.71c-.423.246-.893.403-1.316.648l-.582.338-.397-.575a73.68 73.68 0 0 0-1.73-2.401c-.282-.405-.656-.746-.997-1.11a3.038 3.038 0 0 1-.43-.603c-.05-.115-.136-.205-.125-.362-.01-.143.085-.358.276-.638a.937.937 0 0 1 .56-.384z"/><path class="st22" d="M358.194 354.206s-.106-.232-.173-.637c-.073-.403-.087-1.002-.045-1.656.09-.655.137-1.487.192-2.432.046-.947.065-2.019-.014-3.188-.035-1.175-.276-2.43-.583-3.74a22.282 22.282 0 0 0-1.527-3.949 21.181 21.181 0 0 0-2.49-3.776c-.967-1.205-2.13-2.266-3.401-3.23-1.2-.952-2.654-1.66-4.043-2.299-1.433-.577-2.88-1.056-4.327-1.34-.72-.15-1.442-.235-2.145-.326-.708-.031-1.4-.132-2.076-.098-.676 0-1.334.005-1.968.074l-.935.075-.894.14c-.588.074-1.14.203-1.664.327-.53.109-1.026.233-1.482.389-.93.257-1.706.583-2.35.84-.646.253-1.148.472-1.526.556a5.573 5.573 0 0 1-.593.118l-.024.003a.321.321 0 0 1-.276-.535s.145-.16.448-.419c.311-.241.77-.613 1.441-.906.669-.299 1.476-.676 2.45-.99.479-.184 1-.338 1.558-.477.552-.161 1.14-.297 1.765-.392l.951-.168.998-.101c.676-.089 1.38-.1 2.104-.104.725-.037 1.466.062 2.225.094.754.09 1.529.178 2.303.336 1.552.301 3.126.78 4.65 1.446 1.511.711 2.975 1.508 4.348 2.569 1.33.989 2.605 2.126 3.662 3.413a22.768 22.768 0 0 1 2.725 4.042 25.687 25.687 0 0 1 1.702 4.23c.397 1.396.72 2.739.88 4.003.366 2.534.187 4.665-.121 6.15a4 4 0 0 1-.66 1.595 2.74 2.74 0 0 1-.422.507.424.424 0 0 1-.663-.144z"/><path class="st22" d="M355.265 350.355c.33-.077.565-.089.696-.029.15.047.203.16.292.248.164.187.294.397.407.618.218.449.402.92.678 1.329a73.676 73.676 0 0 0 1.618 2.478l-.979-.238c.439-.217.829-.522 1.267-.74l1.3-.676c.432-.23.874-.439 1.317-.647l.677-.288c.23-.09.421-.25.817-.027a.569.569 0 0 1 .29.538c-.035.453-.273.525-.475.666l-.614.405c-.418.254-.837.508-1.266.74l-1.283.71c-.423.246-.893.403-1.316.648l-.582.338-.397-.575a73.68 73.68 0 0 0-1.73-2.401c-.282-.405-.656-.746-.997-1.11a3.038 3.038 0 0 1-.43-.603c-.05-.115-.136-.205-.125-.362-.01-.143.085-.358.276-.638a.937.937 0 0 1 .56-.384z"/></svg>