<svg xmlns="http://www.w3.org/2000/svg" viewBox="0 0 123.1 29"><path d="M121.2.6h-.4c-.9 0-1.8.5-1.8 1.9-.5 6.8-1.1 13.5-2 20 .6-.1 1 0 1.4.2 1-6.5 3.5-16.3 4.1-19.1.1-.4.2-.9.2-1.2.1-1.1-.5-1.6-1.5-1.8zm-65 2.7c.2 3.5.3 7 .3 10.5-4.2.1-8.4.1-12.5 0 0-3.5.1-7 .3-10.5-1.2.3-2.5.3-3.7 0 .3 7.5.3 15 0 22.4 1.2-.3 2.5-.3 3.7 0-.2-3.5-.3-7-.3-10.4 4.2-.1 8.4-.1 12.5 0 0 3.5-.1 7-.3 10.4 1.3-.3 2.5-.3 3.7 0-.3-7.5-.3-14.9 0-22.4-1.2.3-2.5.3-3.7 0zm-26.7 0c-.9.3-1.7.3-2.6 0-3 7.6-6.5 16.1-9.6 22.4 1.4-.4 2.8-.2 3.7 0 .8-2 1.7-4.3 2.6-6.6 3.1-.1 6.1-.1 9.2 0 .9 2.2 1.7 4.4 2.6 6.6 1.4-.4 2.7-.3 3.7 0-2.2-4.2-6.7-15.2-9.6-22.4zm-1.3 3.8c1.2 3.5 2.6 6.9 4 10.4-2.7.1-5.3.1-8 0 1.7-4.1 3.2-8 4-10.4zM22.8.3c-1.3.3-2.6.3-3.8 0-1.1 2-5 8.4-7.5 12.5C9 8.6 6 3.7 4 .3 2.5.6 1.8.7.3.3c3.1 4.6 8 13.4 9.6 16.3l-.2 12s1.1-.2 1.8-.2c.8 0 1.8.2 1.8.2l-.2-12c3.1-5.5 8.2-14.4 9.7-16.3zM73.1 3C65.2 3 61 8 61 14.5 61 21.7 65.6 26 73.1 26c8.2 0 12.1-4.9 12.1-11.4C85.3 7.3 80.5 3 73.1 3zm.1 21.7c-5.3 0-8.4-3.8-8.4-10.2 0-7.2 3.8-10.1 8.2-10.2h.2c4.9 0 8.4 3.3 8.4 10.2 0 6.9-3.6 10.2-8.4 10.2zm27.3-23.1c-7.9 0-13.9 4.5-13.9 12.8 0 6.9 4 12.9 14 12.9 8.5 0 14-4.6 14-12.8 0-7.6-5.2-12.9-14.1-12.9zM90.3 14.4C90.3 5.6 95.7 3 100.5 3c5.9 0 10.3 3.6 10.3 11.6 0 8.6-5.3 11.4-10.3 11.4-5.3 0-10.2-3.1-10.2-11.6zm26.6 10.7c-1.2 0-1.8.9-1.8 1.9 0 1.1.9 1.7 2 1.7.8 0 1.7-.5 1.7-1.8.1-1.1-.7-1.8-1.9-1.8z" fill="#FFF"/></svg>