<svg id="Layer_1" xmlns="http://www.w3.org/2000/svg" viewBox="0 0 585 465"><style>.st0{opacity:.26;fill:#f4bb00}.st0,.st1,.st2{enable-background:new}.st1{opacity:.2;fill:#fa3e3e}.st2{opacity:.24;fill:#057bde}.st3{fill:#657786}.st4{opacity:.45;fill:#aab8c2;enable-background:new}.st5{stroke:#657786;stroke-width:2;stroke-miterlimit:10}.st5,.st6{fill:#fff}.st7,.st8,.st9{fill:none;stroke-width:2;stroke-linecap:round;stroke-miterlimit:10}.st7{opacity:.3;enable-background:new;stroke:#fff}.st8,.st9{stroke:#657786}.st9{stroke-dasharray:.86,1.29}.st10{opacity:.3}.st11,.st12{fill:none;stroke-width:2;stroke-linecap:round}.st11{stroke-miterlimit:10;stroke:#fff}.st12{stroke:#657786;stroke-linejoin:round}.st13{fill:#fcfcfc}.st14{opacity:.26}.st15{fill:none;stroke:#657786;stroke-linecap:round;stroke-linejoin:round}</style><path class="st0" d="M197.85 179.15h-46.5c-22.886-.082-41.418-18.614-41.5-41.5.082-22.886 18.614-41.418 41.5-41.5h46.5c22.886.082 41.418 18.614 41.5 41.5-.082 22.886-18.614 41.418-41.5 41.5z"/><path class="st1" d="M465.55 227.45h-46.5c-22.886-.082-41.418-18.614-41.5-41.5.082-22.886 18.614-41.418 41.5-41.5h46.5c22.886.082 41.418 18.614 41.5 41.5-.082 22.886-18.614 41.418-41.5 41.5z"/><path class="st2" d="M304.95 386.25h-46.5c-22.886-.082-41.418-18.614-41.5-41.5.082-22.886 18.614-41.418 41.5-41.5h46.5c22.886.082 41.418 18.614 41.5 41.5-.05 22.9-18.6 41.45-41.5 41.5z"/><path class="st3" d="M191.85 179.489l-3.97.229c-2.588.136-6.384.35-11.216.424l-17.43.05-10.721-.03-2.868-.01c-1.075-.026-1.974-.103-2.987-.154l-1.493-.086c-.507-.06-1.027-.156-1.544-.233-1.032-.178-2.094-.302-3.131-.534-4.14-.925-8.292-2.542-12.244-4.815-.962-.612-1.974-1.166-2.914-1.843l-2.795-2.113c-.883-.777-1.746-1.591-2.628-2.395-.883-.803-1.628-1.756-2.456-2.637-3.15-3.67-5.79-7.962-7.597-12.711a42.682 42.682 0 0 1-2.8-15.244l.213-3.893c.178-1.322.403-2.658.608-3.993.268-1.318.656-2.604.982-3.914.37-1.296.907-2.545 1.357-3.825a42.604 42.604 0 0 1 9-13.66 42.469 42.469 0 0 1 13.724-9.366 42.599 42.599 0 0 1 16.407-3.343l32.964-.036 8.12-.012c1.346 0 2.69 0 4.03-.002h1.004c.186.004.291-.006.545.009l.5.027 1.998.108c.668.053 1.322.035 1.999.146l2.022.313c.671.112 1.35.193 2.01.332l1.949.506 1.94.508 1.877.69 1.867.69c.606.266 1.194.57 1.79.852 9.55 4.545 16.865 12.536 20.676 21.416 1.904 4.45 2.965 9.091 3.314 13.619.045 1.152.148 2.222.142 3.415l-.183 3.256c-.01.535-.09 1.078-.183 1.621l-.253 1.616-.253 1.6c-.119.52-.265 1.029-.394 1.54-1.965 8.241-6.392 14.917-11.148 19.783-4.89 4.809-10.198 7.79-14.763 9.54l-1.684.608-.807.287c-.27.081-.542.139-.806.207-1.06.263-2.052.51-2.977.738-.927.208-1.813.26-2.609.382-.8.092-1.52.225-2.175.253-2.622.054-4.008.05-4.008.05l-.001.034zm-.001-.644s1.37-.153 3.918-.377c1.265-.187 2.82-.478 4.63-.84l2.875-.782c.254-.072.517-.133.776-.218l.778-.296 1.625-.61c4.417-1.716 9.545-4.628 14.256-9.302 4.58-4.733 8.829-11.203 10.686-19.165.123-.493.263-.986.375-1.485l.231-1.518.237-1.531c.087-.51.164-1.027.172-1.572l.168-3.258c-.003-.998-.107-2.139-.155-3.216-.363-4.362-1.39-8.826-3.222-13.11-3.677-8.547-10.733-16.237-19.925-20.6a40.638 40.638 0 0 0-14.853-3.87l-1.998-.107-.5-.027c-.08-.01-.31-.003-.458-.005h-1.004l-4.03-.001-8.12-.012-32.958-.036a41.07 41.07 0 0 0-15.812 3.245 40.916 40.916 0 0 0-13.208 9.046 41.03 41.03 0 0 0-8.646 13.165c-.428 1.234-.946 2.435-1.3 3.682-.309 1.259-.685 2.506-.938 3.761l-.575 3.775-.207 3.893c.016 4.997.966 10.036 2.718 14.572a40.826 40.826 0 0 0 7.333 12.196c.805.838 1.526 1.748 2.382 2.51.856.763 1.69 1.537 2.543 2.275.906.672 1.806 1.34 2.699 2 .906.642 1.883 1.16 2.808 1.74 3.805 2.138 7.787 3.647 11.746 4.493.983.21 1.965.31 2.93.472.485.07.958.158 1.445.211l1.493.075c.966.042 2.022.116 2.881.13l2.868-.01 10.72-.03 17.43.05c4.832.074 8.629.288 11.218.424l3.969.229-.001.034z"/><path class="st4" d="M331.75 103.15h-21.2c-10.415-.055-18.845-8.485-18.9-18.9.055-10.415 8.485-18.845 18.9-18.9h21.2c10.415.055 18.845 8.485 18.9 18.9-.055 10.415-8.484 18.845-18.9 18.9zm-192.7 159.3h-21.2c-10.415-.055-18.845-8.485-18.9-18.9.055-10.415 8.485-18.845 18.9-18.9h21.2c10.415.055 18.845 8.485 18.9 18.9.044 10.394-8.346 18.856-18.74 18.9h-.16zm329.4 103h-21.2c-10.415-.055-18.845-8.485-18.9-18.9.055-10.415 8.485-18.845 18.9-18.9h21.2c10.415.055 18.845 8.485 18.9 18.9-.055 10.416-8.485 18.845-18.9 18.9z"/><path class="st3" d="M325.75 103.25l-1.808.01c-1.178.007-2.907.01-5.108.065-2.2.026-4.872.16-7.937.258l-4.883.18-1.306.049c-.514.007-.907-.012-1.375-.016-.88.029-1.896-.165-2.87-.302-3.842-.747-7.872-2.82-10.791-6.303-2.953-3.439-4.684-8.145-4.555-13.059.18-4.799 2.226-9.704 5.748-13.292 3.483-3.633 8.497-5.895 13.685-6.038l7.535-.2c2.505-.045 5-.09 7.476-.133l3.697-.045 1.835-.019.458-.005.28.001.229.01.91.042c.59.003 1.235.093 1.883.195.32.05.645.089.96.148l.919.23.916.23.886.315.883.318c.288.119.565.261.848.39 4.518 2.099 8.004 5.873 9.763 10.079a19.985 19.985 0 0 1 1.52 6.423c.015.557.055 1.011.045 1.639l-.11 1.481c-.015.48-.162 1.023-.24 1.52a9.61 9.61 0 0 1-.343 1.472c-1.029 3.83-3.223 6.828-5.471 8.986-2.312 2.143-4.785 3.38-6.857 4.152-1.038.405-2.012.598-2.846.81-.846.151-1.572.255-2.16.324l-1.816.085zm0-.2l1.793-.115c.58-.077 1.295-.192 2.127-.354.82-.216 1.764-.468 2.766-.903 2.016-.81 4.294-2.26 6.352-4.438 2.004-2.213 3.758-5.202 4.476-8.75a8.19 8.19 0 0 0 .229-1.324c.043-.457.141-.864.146-1.368l.055-1.484c-.014-.37-.067-.923-.097-1.381-.199-1.916-.653-3.873-1.48-5.743a18.56 18.56 0 0 0-8.745-9.04c-.25-.122-.496-.257-.753-.369l-.786-.298-.79-.302-.818-.221-.823-.225c-.273-.057-.546-.094-.82-.143-.542-.1-1.093-.198-1.718-.216l-.91-.06-.227-.014a4.694 4.694 0 0 0-.176-.002l-.457-.005-1.836-.018-3.697-.046-7.476-.132-7.535-.201a18.58 18.58 0 0 0-7.188 1.305 18.688 18.688 0 0 0-6.055 4.07c-3.453 3.479-5.253 8.28-5.114 12.919.08 2.233.575 4.497 1.419 6.494a19.527 19.527 0 0 0 3.382 5.353c2.718 3.135 6.323 5.007 9.804 5.904.435.102.866.163 1.293.248.415.097.865.151 1.32.183.434.037.931.093 1.297.114l1.306.049 4.883.18c3.065.098 5.737.232 7.937.258 2.2.055 3.93.058 5.109.064l1.807.011zm-192.7 159.74l-1.808.231c-1.18.13-2.91.349-5.111.421l-7.942.05-4.884-.03-1.307-.01c-.551-.014-.916-.052-1.392-.077l-.68-.044c-.234-.027-.485-.075-.729-.112-.488-.086-.993-.15-1.481-.261-3.845-.903-7.821-3.02-10.728-6.506-2.947-3.424-4.86-8.035-4.837-13.06l.101-1.772.29-1.88c.13-.615.309-1.213.463-1.823.178-.603.425-1.185.637-1.78a19.866 19.866 0 0 1 4.207-6.352c3.598-3.706 8.792-5.909 14.04-5.892l15.017-.038 3.7-.01 1.836-.001h.457l.273.006.228.013.91.05c2.507.17 5.007.84 7.201 1.906 4.444 2.13 7.834 5.86 9.607 9.997a19.876 19.876 0 0 1 1.524 6.346c.018.543.072 1.02.059 1.603l-.076 1.484c-.022.489-.137 1.018-.202 1.516l-.118.751-.184.717c-.909 3.835-2.978 6.939-5.198 9.186a19.856 19.856 0 0 1-6.877 4.39c-1.059.431-2.069.598-2.922.814-.878.098-1.62.198-2.225.206l-1.38-.038c-.312-.012-.47-.035-.47-.035v.033zm0-.645s.157-.015.454-.069l1.31-.185c.571-.064 1.257-.27 2.07-.413.796-.238 1.722-.46 2.701-.878a18.523 18.523 0 0 0 6.367-4.152c2.042-2.113 3.932-5.01 4.733-8.562l.165-.663.097-.67c.053-.455.156-.881.174-1.374l.061-1.484c.005-.416-.05-.945-.071-1.418a19.06 19.06 0 0 0-1.433-5.839c-1.64-3.803-4.77-7.233-8.858-9.181a18.093 18.093 0 0 0-6.599-1.736l-.91-.05-.228-.012-.07-.003h-2.408l-3.699-.011-15.018-.038c-4.84.002-9.62 2.047-12.923 5.475-3.346 3.413-5.186 8-5.203 12.6.012 2.173.438 4.45 1.22 6.455a17.993 17.993 0 0 0 3.271 5.415c2.727 3.14 6.388 4.974 9.87 5.721.433.088.859.13 1.28.2.213.029.415.069.633.09l.68.03c.427.018.953.053 1.282.055l1.307-.01 4.884-.03 7.942.05c2.201.073 3.931.291 5.11.421l1.809.232v.034zm329.608 103.617l-.208.027-1.807.232c-1.18.13-2.908.349-5.109.421l-7.937.05-4.883-.03-1.306-.01c-.551-.013-.916-.052-1.39-.077a9.327 9.327 0 0 1-1.408-.154c-.49-.085-.993-.152-1.482-.26-3.843-.9-7.818-3.014-10.727-6.495-2.95-3.42-4.866-8.024-4.851-13.049l.1-1.772c.082-.618.19-1.25.288-1.877.125-.618.307-1.213.46-1.824.172-.604.424-1.185.634-1.78a19.863 19.863 0 0 1 10.582-10.712 19.848 19.848 0 0 1 7.632-1.559l15.015-.037 3.697-.011 1.835-.001h.458l.273.003.228.013.91.051c.593.01 1.229.107 1.866.214.316.052.636.094.946.156l.907.237.904.237.874.322.869.322c.284.12.556.265.834.396 4.446 2.117 7.853 5.832 9.63 9.966a19.9 19.9 0 0 1 1.546 6.336c.021.547.068 1.01.065 1.612l-.09 1.483c-.012.481-.141 1.013-.207 1.51-.07.507-.165 1-.307 1.466-.927 3.829-2.99 6.924-5.204 9.177a20.053 20.053 0 0 1-6.857 4.413c-1.06.426-2.06.621-2.916.825-.871.134-1.62.19-2.22.236a42.91 42.91 0 0 1-1.644-.057zm-.087-.636c.23-.039.787-.132 1.637-.245 1.126-.233 2.796-.509 4.762-1.33a18.717 18.717 0 0 0 6.352-4.176c2.038-2.12 3.924-5.01 4.743-8.56.13-.438.21-.882.265-1.33.054-.457.17-.875.18-1.377l.075-1.483c-.007-.396-.054-.94-.078-1.408a19.087 19.087 0 0 0-1.454-5.83c-1.642-3.8-4.79-7.215-8.879-9.152-.255-.12-.505-.254-.766-.364l-.8-.293-.802-.295-.831-.215-.834-.218c-.278-.054-.556-.088-.835-.135-.552-.094-1.11-.186-1.734-.197l-.91-.05-.228-.012h-2.476l-3.697-.011-15.007-.038c-4.845.006-9.612 2.068-12.91 5.497-3.34 3.418-5.167 8-5.184 12.603a18.41 18.41 0 0 0 1.23 6.449 17.994 17.994 0 0 0 3.275 5.409c2.728 3.135 6.388 4.967 9.87 5.711.432.086.857.13 1.279.198.213.029.413.07.633.09l.68.03c.426.017.952.054 1.281.054l1.306-.01 4.883-.03 7.937.05c2.2.073 3.93.291 5.109.421l1.807.232.12.015zm-3.021-137.337l-3.97.229c-2.588.136-6.384.35-11.216.424l-17.43.05-10.721-.03-2.868-.01c-1.075-.026-1.974-.103-2.987-.154l-1.493-.086c-.507-.06-1.027-.156-1.544-.233-1.032-.178-2.094-.303-3.132-.534-4.139-.925-8.291-2.542-12.243-4.815-.962-.612-1.975-1.166-2.914-1.843l-2.795-2.113c-.883-.777-1.746-1.591-2.628-2.395-.883-.803-1.628-1.756-2.456-2.637-3.15-3.67-5.79-7.962-7.597-12.711a42.682 42.682 0 0 1-2.8-15.244l.213-3.893c.178-1.322.403-2.658.608-3.993.268-1.318.656-2.604.982-3.914.37-1.296.907-2.545 1.357-3.824a42.606 42.606 0 0 1 9-13.66 42.467 42.467 0 0 1 13.724-9.367 42.596 42.596 0 0 1 16.41-3.343l32.961-.036 8.12-.012 4.03-.001h1.004c.186.003.29-.007.544.008l.5.027 1.999.108c.668.053 1.322.035 1.999.146l2.022.313c.671.112 1.35.193 2.01.332l1.949.507 1.94.507 1.877.691 1.867.69c.606.265 1.195.57 1.79.852 9.55 4.544 16.865 12.535 20.677 21.415 1.903 4.45 2.964 9.091 3.313 13.62.045 1.152.149 2.221.142 3.414l-.183 3.256c-.01.535-.09 1.078-.183 1.621l-.253 1.616-.253 1.6c-.119.52-.264 1.029-.394 1.54-1.965 8.241-6.392 14.917-11.148 19.783-4.89 4.809-10.197 7.79-14.763 9.54l-1.684.608-.807.287c-.27.081-.542.139-.806.207l-2.977.739c-.927.207-1.813.26-2.609.382-.8.09-1.52.224-2.175.252-2.622.054-4.008.05-4.008.05l-.001.034zm-.001-.644s1.37-.153 3.918-.377c1.265-.187 2.82-.478 4.63-.84l2.875-.782c.254-.072.517-.133.776-.218l.778-.296 1.625-.61c4.417-1.716 9.544-4.628 14.256-9.302 4.58-4.733 8.829-11.203 10.686-19.165.123-.493.263-.986.375-1.485l.231-1.518.237-1.531c.087-.51.164-1.027.172-1.572l.168-3.258c-.003-.998-.107-2.14-.155-3.216-.364-4.362-1.39-8.826-3.222-13.11-3.677-8.548-10.733-16.237-19.925-20.601a40.64 40.64 0 0 0-14.853-3.87l-1.998-.106-.5-.027c-.08-.01-.31-.003-.458-.005h-1.005l-4.03-.001-8.119-.012-32.961-.036a41.073 41.073 0 0 0-15.81 3.245 40.916 40.916 0 0 0-13.207 9.046 41.03 41.03 0 0 0-8.646 13.165c-.429 1.234-.946 2.434-1.3 3.682-.31 1.259-.685 2.506-.938 3.76l-.575 3.776-.207 3.893c.015 4.997.966 10.036 2.718 14.572a40.829 40.829 0 0 0 7.333 12.196c.805.838 1.526 1.748 2.382 2.51.856.763 1.69 1.537 2.543 2.275.906.672 1.806 1.34 2.699 2 .906.642 1.883 1.16 2.808 1.74 3.805 2.138 7.786 3.646 11.745 4.493.984.21 1.965.31 2.93.472.486.07.959.158 1.446.211l1.493.074c.966.042 2.022.117 2.881.13l2.868-.01 10.72-.03 17.43.05c4.832.075 8.629.29 11.218.425l3.969.229-.001.034zM299.45 387.689l-3.97.229c-2.588.136-6.385.35-11.218.424l-17.43.05-10.722-.03-2.868-.01c-1.075-.027-1.974-.104-2.988-.154l-1.493-.087c-.507-.06-1.027-.155-1.544-.233-1.032-.178-2.094-.302-3.131-.534-4.14-.925-8.293-2.543-12.245-4.816-.961-.613-1.974-1.166-2.913-1.844l-2.795-2.113c-.882-.778-1.746-1.592-2.628-2.396-.882-.804-1.628-1.756-2.456-2.637-3.15-3.67-5.789-7.964-7.595-12.714a42.68 42.68 0 0 1-2.797-15.245l.213-3.893c.18-1.323.403-2.658.609-3.994.269-1.317.656-2.604.982-3.914.373-1.295.908-2.545 1.359-3.824a42.606 42.606 0 0 1 9.003-13.66 42.435 42.435 0 0 1 13.728-9.362 42.614 42.614 0 0 1 16.412-3.339l32.963-.036 8.12-.012 4.03-.002h1.255l.17.003.125.006.5.028 1.998.108c.669.054 1.322.033 2 .148l2.022.312c.67.113 1.35.192 2.01.334l1.949.507 1.94.51 1.876.69 1.868.69c.605.268 1.194.57 1.79.853 9.548 4.549 16.858 12.544 20.668 21.426 1.901 4.452 2.96 9.094 3.306 13.622.045 1.152.15 2.223.14 3.413l-.178 3.257c-.009.535-.092 1.079-.183 1.622l-.252 1.616-.251 1.6a20063 20063 0 0 0-.394 1.54c-1.96 8.245-6.388 14.92-11.145 19.787-4.892 4.807-10.202 7.786-14.77 9.531l-1.684.608-.808.286c-.27.08-.541.138-.806.206l-2.977.736c-.929.206-1.815.257-2.61.379-.8.09-1.521.222-2.176.25-2.622.05-4.008.044-4.008.044l-.001.034zm0-.644s1.37-.151 3.919-.372c1.265-.184 2.82-.474 4.63-.835l2.876-.778c.255-.072.518-.134.777-.217l.778-.296 1.626-.609c4.419-1.711 9.548-4.621 14.262-9.293 4.579-4.733 8.83-11.204 10.682-19.167l.375-1.486.23-1.518.234-1.531c.086-.51.166-1.026.173-1.572l.163-3.258c0-1.001-.106-2.14-.153-3.218-.36-4.362-1.384-8.827-3.215-13.113-3.676-8.548-10.726-16.243-19.917-20.61a40.641 40.641 0 0 0-14.852-3.877l-1.999-.107-.5-.026-.125-.007c.045.002-.06 0-.082 0l-.251.001h-1.004l-4.03-.001-8.12-.012-32.964-.036c-5.422.027-10.84 1.128-15.811 3.241a40.882 40.882 0 0 0-13.212 9.043 41.03 41.03 0 0 0-8.65 13.164c-.429 1.233-.945 2.435-1.301 3.682-.309 1.259-.684 2.506-.939 3.76l-.576 3.775-.206 3.894c.014 4.997.964 10.037 2.715 14.574a40.827 40.827 0 0 0 7.331 12.198c.805.838 1.526 1.748 2.382 2.51l2.543 2.276c.906.672 1.806 1.34 2.699 2 .905.642 1.883 1.16 2.808 1.74 3.805 2.14 7.787 3.649 11.746 4.495.983.21 1.965.311 2.93.473.485.069.959.157 1.446.21l1.493.075c.966.042 2.022.116 2.881.13l2.868-.01 10.721-.03 17.431.05c4.833.075 8.63.29 11.218.425l3.97.229v.034zm-50.716-177.09s-.77-.311-1.726-1.248l-3.983-3.852-5.557-5.521c-1.011-1.015-2.069-2.051-3.114-3.134l-3.19-3.26-6.37-6.329c-2.026-2.026-3.929-3.907-5.632-5.446-1.688-1.554-3.043-2.901-3.935-3.9-.894-.997-1.017-1.953-1.017-1.953a.428.428 0 0 1 .48-.478s.955.128 1.948 1.027c.994.897 2.335 2.258 3.881 3.954 1.531 1.71 3.402 3.622 5.419 5.658l6.298 6.4 3.245 3.206c1.077 1.05 2.108 2.113 3.118 3.13l5.495 5.582 3.833 4.002c.931.96 1.24 1.732 1.24 1.732a.332.332 0 0 1-.433.43z"/><path class="st3" d="M308.972 220.328s.88-.664 2.607-1.3l7.149-2.665c2.953-1.116 6.42-2.359 10.13-3.702l5.725-2.053 5.924-2.088 11.618-4.226c3.711-1.34 7.17-2.606 10.099-3.788 2.937-1.161 5.41-2.06 7.166-2.615 1.757-.557 2.945-.36 2.945-.36a.388.388 0 0 1 .23.638s-.792.908-2.502 1.596c-1.708.69-4.187 1.57-7.192 2.543-3.012.953-6.485 2.177-10.2 3.504l-11.653 4.133-5.897 2.158-5.724 2.06c-3.717 1.324-7.182 2.572-10.17 3.59l-7.21 2.493c-1.738.609-2.839.656-2.839.656a.32.32 0 0 1-.206-.574zm-32.55 47.244s.329.546.348 1.502c.027.956.094 2.322.122 3.962.038 1.639.047 3.552.065 5.601l.017 3.16c-.018 1.076-.044 2.169-.034 3.262l.074 6.421.039 2.955c.018.939.082 1.827.134 2.646.124 1.64.11 3.006.053 3.962-.066.957-.65 1.506-.65 1.506a.5.5 0 0 1-.679.002s-.589-.544-.662-1.5a29.817 29.817 0 0 1 .023-3.962c.045-.82.102-1.709.113-2.648l.016-2.955.026-6.421c.001-1.093-.033-2.186-.06-3.262-.001-1.076-.004-2.135-.006-3.16.002-2.05-.003-3.962.022-5.602.016-1.64.072-3.006.092-3.962.012-.957.336-1.504.336-1.504a.356.356 0 0 1 .611-.003zm-22.333-75.52s.322-.573 1.017-1.121c.344-.273.77-.55 1.256-.783.484-.238 1-.496 1.528-.723 1.053-.468 2.146-.837 2.967-1.104.82-.27 1.377-.413 1.377-.413l.007-.001a.962.962 0 0 1 .568 1.835l-1.294.473c-.776.283-1.79.71-2.808 1.126l-1.49.629c-.466.22-.927.372-1.334.486a6.702 6.702 0 0 1-1.037.183c-.269.021-.435.01-.435.01a.401.401 0 0 1-.322-.597zm15.132-5.607l1.415-.183c.853-.1 1.995-.2 3.14-.251 2.288-.117 4.576.017 4.576.017h.009a.776.776 0 0 1-.084 1.55s-2.213-.11-4.422.024a45.093 45.093 0 0 0-3.027.271l-1.374.191-.015.002a.818.818 0 1 1-.225-1.62l.007-.001zm16.192.477l1.394.296c.837.19 1.948.471 3.042.81a47.486 47.486 0 0 1 4.296 1.582l.008.004a.795.795 0 0 1-.627 1.46s-2.037-.868-4.155-1.506a49.066 49.066 0 0 0-2.926-.821l-1.352-.314-.015-.003a.772.772 0 0 1 .335-1.508zm15.041 5.985l1.193.78c.714.475 1.64 1.149 2.533 1.861.895.71 1.76 1.458 2.39 2.037.635.575.996 1.023.996 1.023a.565.565 0 0 1-.765.818s-.457-.326-1.09-.866a45.014 45.014 0 0 0-2.39-1.89 56.648 56.648 0 0 0-2.504-1.73l-1.175-.74-.013-.007a.764.764 0 0 1 .814-1.294l.011.008zm-69.068 32.488s.094.154.183.414c.097.26.184.615.223 1.038.042.422-.009.902-.035 1.42l-.088 1.617-.105 1.619-.037.746-.02.654-.03 1.407a.888.888 0 0 1-1.773.036l-.087-1.405-.042-.708-.014-.775c-.002-.537.002-1.11.02-1.684.034-.573.068-1.145.136-1.68.063-.533.109-1.033.245-1.45.133-.416.307-.757.467-.987.154-.227.285-.352.285-.352a.436.436 0 0 1 .672.09zm.818 15.718l.283 1.358a44.89 44.89 0 0 0 1.731 5.829c.285.78.516 1.283.516 1.283a.763.763 0 1 1-1.405.598l-.005-.013-.52-1.332a46.75 46.75 0 0 1-1.032-2.972 46.653 46.653 0 0 1-.827-3.037l-.308-1.393a.8.8 0 0 1 1.562-.345v.005l.005.02zm5.671 14.58l.736 1.176a44.89 44.89 0 0 0 1.736 2.496 48.797 48.797 0 0 0 2.795 3.43.735.735 0 0 1-1.076 1.002l-.006-.006s-1.583-1.656-2.965-3.484a46.738 46.738 0 0 1-1.814-2.572l-.765-1.204a.798.798 0 1 1 1.347-.856l.003.005.009.013zm56.537 18.047s.086-.152.263-.359a5.16 5.16 0 0 1 .768-.727c.333-.263.758-.488 1.212-.734l1.41-.79a77.139 77.139 0 0 0 2.621-1.513l1.173-.725a.915.915 0 0 1 1.05 1.495s-1.813 1.424-3.82 2.562c-.502.283-1.014.547-1.501.778-.487.234-.942.45-1.373.546-.857.225-1.527.087-1.527.087a.418.418 0 0 1-.276-.62zm12.805-9.128l.989-.972a44.927 44.927 0 0 0 2.06-2.236c1.453-1.67 2.715-3.492 2.715-3.492a.759.759 0 0 1 1.253.857l-.005.007s-1.285 1.898-2.77 3.643a46.434 46.434 0 0 1-2.109 2.337l-1.006 1.012a.807.807 0 0 1-1.144-1.139l.006-.006.011-.01zm9.189-12.654l.589-1.255a44.928 44.928 0 0 0 2.492-7.026.773.773 0 0 1 1.5.379l-.003.008s-.548 2.226-1.346 4.375a46.536 46.536 0 0 1-1.18 2.92l-.597 1.294a.806.806 0 1 1-1.464-.675l.002-.005.007-.015zm4.393-15.022s.042-.708.152-1.411a6.24 6.24 0 0 1 .23-.962c.086-.261.165-.433.165-.433a.326.326 0 0 1 .609.04s.055.182.105.452c.049.27.093.628.098.984.015.712-.039 1.42-.039 1.42a.662.662 0 0 1-1.32-.09z"/><path class="st5" d="M411.05 194.45a4.1 4.1 0 1 1-8.2 0 4.15 4.15 0 0 1 .3-1.6h7.5c.272.489.41 1.04.4 1.6z"/><path class="st3" d="M418.55 172.55v16.3a2.8 2.8 0 0 1-2.8 2.8h-17.8a2.8 2.8 0 0 1-2.8-2.8v-16.4a11.19 11.19 0 0 1 9-10.7h.1c.1 0 .3-.1.4-.1.56-.11 1.129-.177 1.7-.2h.4a11.83 11.83 0 0 1 8.2 3.2 10.6 10.6 0 0 1 3.3 5.9c.023.169.057.335.1.5a.75.75 0 0 0 .1.5c.083.326.116.663.1 1z"/><path class="st6" d="M411.05 194.45a4.1 4.1 0 1 1-8.2 0 4.15 4.15 0 0 1 .3-1.6h1.4v-6.5a2.43 2.43 0 0 1 2.4-2.4 2.61 2.61 0 0 1 1.7.7c.449.452.7 1.063.7 1.7v6.4h1.4c.188.548.29 1.121.3 1.7z"/><path class="st3" d="M411.15 194.448v.007c-.012 1.222-.427 2.49-1.335 3.498a4.436 4.436 0 0 1-1.71 1.161 3.9 3.9 0 0 1-1.05.243c-.268.023-.336.02-.513.028-.165-.003-.387-.032-.579-.053a4.247 4.247 0 0 1-1.055-.324 4.568 4.568 0 0 1-.941-.574 4.873 4.873 0 0 1-.76-.786 4.832 4.832 0 0 1-.53-.942 4.652 4.652 0 0 1-.323-2.059 5.14 5.14 0 0 1 .482-1.923l.104-.223.21.01c.467.024.933.033 1.4.037l-.302.302c.003-1.702-.197-3.404-.386-5.105a36.95 36.95 0 0 1-.123-1.277l-.007-.08c0-.035-.004.025-.002-.09v-.04l-.003-.16c.002-.113.026-.316.051-.454.053-.284.144-.562.268-.825a3.375 3.375 0 0 1 2.827-1.874 3.555 3.555 0 0 1 1.76.402c.268.134.511.314.732.515.247.24.442.496.59.755a3.25 3.25 0 0 1 .45 1.751l-.044 1.277a25.23 25.23 0 0 1-.23 2.552l-.417 2.553-.364-.364c.466.061.933.14 1.4.172l.153.01.029.12c.138.584.212 1.172.218 1.76zm-.2 0a4.164 4.164 0 0 0-.382-1.636l.182.13c-.467.032-.933.11-1.4.172l-.299.04-.066-.404-.416-2.553a25.23 25.23 0 0 1-.23-2.552l-.044-1.277a1.644 1.644 0 0 0-.192-.688 1.47 1.47 0 0 0-.184-.255 2.209 2.209 0 0 0-.3-.23 1.617 1.617 0 0 0-.684-.234c-.5-.025-1.02.239-1.311.698a1.651 1.651 0 0 0-.177.367c-.018.07-.032.077-.05.175l-.021.159-.006.04c.002-.089-.002-.002-.002-.011l-.007.08a37.2 37.2 0 0 1-.123 1.276c-.19 1.701-.39 3.403-.386 5.105l.001.3-.303.002c-.467.004-.933.013-1.4.037l.314-.212a3.2 3.2 0 0 0-.1 1.627 3.52 3.52 0 0 0 .61 1.416c.145.204.309.39.488.555.175.168.358.326.563.448.388.276.829.46 1.284.582.108.02.182.052.32.073l.392.056c.244.021.492.021.744.004.254-.013.507-.068.762-.138.257-.068.503-.178.748-.307a3.25 3.25 0 0 0 .673-.497c.2-.199.402-.414.536-.671.148-.248.273-.517.348-.801.08-.278.107-.57.118-.875z"/><path class="st5" d="M406.95 191.95a9.6 9.6 0 0 1-9.6-9.6v-13.8h19.2v13.8a9.73 9.73 0 0 1-9.6 9.6z"/><path class="st3" d="M419.75 175.45c-.4.2-.8.5-1.2.7a10.92 10.92 0 0 1-4.8 1.1c-5.907-.006-10.694-4.793-10.7-10.7a10.16 10.16 0 0 1 1.2-4.9c.1 0 .3-.1.4-.1a14.918 14.918 0 0 1 2.1-.2 11.83 11.83 0 0 1 8.2 3.2 10.6 10.6 0 0 1 3.3 5.9c.024.169.057.335.1.5-.016.205.019.411.1.6a13.749 13.749 0 0 0 1.3 3.9z"/><path class="st7" d="M414.05 165.55a10.6 10.6 0 0 1 3.3 5.9c.024.169.057.335.1.5-.016.205.019.411.1.6"/><path class="st3" d="M406.85 164.15c.008 6.51-5.098 11.88-11.6 12.2v-4a11.19 11.19 0 0 1 9-10.7h.1c.1 0 .3-.1.4-.1.56-.11 1.129-.177 1.7-.2.273.908.408 1.852.4 2.8z"/><path class="st8" d="M406.95 197.35v1"/><path class="st6" d="M417.65 197.65v8.3a4.8 4.8 0 0 1-4.8 4.8h-11.4a4.8 4.8 0 0 1-4.8-4.8v-8.3a4.8 4.8 0 0 1 4.8-4.8h1.7a4.53 4.53 0 0 0-.3 1.6 4.1 4.1 0 1 0 8.2 0 4.15 4.15 0 0 0-.3-1.6h2.2a4.78 4.78 0 0 1 4.7 4.8z"/><path class="st3" d="M417.99 197.65c.299 1.09.57 2.18.65 3.27.029 1.09.055 2.18.053 3.27l-.007 1.634c-.02.405-.009.511-.075.93-.05.37-.14.675-.238.992-.418 1.258-1.301 2.328-2.405 3.013a5.571 5.571 0 0 1-1.798.723c-.616.147-1.331.15-1.83.133l-3.27-.04-6.539-.023-.817-.003h-.205l-.244-.01c-.143-.01-.257-.007-.423-.029a5.413 5.413 0 0 1-1.853-.545 5.56 5.56 0 0 1-2.598-2.673 5.681 5.681 0 0 1-.489-1.827c-.045-.672-.012-1.136-.02-1.705l.012-3.27-.013-3.269-.003-.408.001-.244.01-.204a5.46 5.46 0 0 1 .835-2.694c.674-1.07 1.71-1.93 2.926-2.327a5.925 5.925 0 0 1 1.865-.297l1.635.003 1.164.003-.417 1.084a3.758 3.758 0 0 0-.248 1.216c-.002.015 0 .113-.003.06l.006.127.012.252c.033.245.075.493.172.758.08.26.218.497.358.728a3.44 3.44 0 0 0 1.191 1.091c.243.12.492.234.758.292.244.074.575.092.768.106.157-.011.362-.009.479-.031.119-.022.232-.03.37-.072.266-.057.516-.167.763-.283.48-.257.904-.63 1.216-1.083.62-.899.76-2.141.35-3.182l-.39-.988 1.051.01 1.206.013.603.006.302.003.196.007.15.012c.186.007.419.04.668.087.249.036.45.116.677.174.43.158.855.34 1.233.6a5.173 5.173 0 0 1 1.822 2c.402.815.53 1.757.348 2.612l.034-.002zm-.645-.001c-.068-.188-.09-.372-.157-.549-.066-.176-.111-.351-.19-.516a5.606 5.606 0 0 0-1.116-1.776 3.974 3.974 0 0 0-.808-.651c-.289-.193-.614-.318-.938-.434-.164-.035-.34-.101-.493-.115a3.114 3.114 0 0 0-.528-.058l-.15-.009s-.096-.005-.03-.002l-.075.001-.301.003-.603.006-1.206.013.66-.978c.61 1.459.46 3.2-.416 4.548a4.992 4.992 0 0 1-1.738 1.612c-.355.182-.724.349-1.116.436-.186.056-.408.086-.622.116-.215.03-.35.023-.528.037-.478-.009-.823-.044-1.229-.148-.393-.088-.764-.249-1.122-.428a5.016 5.016 0 0 1-1.764-1.602c-.214-.34-.411-.693-.536-1.076a4.883 4.883 0 0 1-.265-1.207l-.013-.252-.007-.126.002-.192a5.392 5.392 0 0 1 .347-1.738l.747 1.086-1.635.003a4.29 4.29 0 0 0-1.347.218 4.022 4.022 0 0 0-2.106 1.645 3.831 3.831 0 0 0-.53 1.25c-.043.229-.086.37-.095.677l-.012.204c-.003-.01-.002.115-.003.165l-.003.41-.013 3.269.011 3.27c.008.52-.011 1.147.025 1.563.048.455.17.9.362 1.313a3.99 3.99 0 0 0 1.882 1.91c.395.195.882.337 1.267.375.104.017.263.016.392.024l.103.005.061.001h.205l.817-.003 6.54-.023 3.269-.04c.59-.003.972-.025 1.417-.138.429-.11.836-.3 1.193-.555a3.973 3.973 0 0 0 1.504-2.07c.055-.205.11-.428.125-.6.036-.117.035-.56.035-.699l-.007-1.635c-.002-1.09.024-2.18.053-3.27.08-1.09.35-2.179.65-3.269l.035-.001z"/><path class="st5" d="M439.95 194.45a4.1 4.1 0 1 1-8.2 0 4.15 4.15 0 0 1 .3-1.6h7.5c.272.489.41 1.04.4 1.6z"/><path class="st3" d="M447.55 172.55v16.3a2.8 2.8 0 0 1-2.8 2.8h-17.8a2.8 2.8 0 0 1-2.8-2.8v-16.4a11.19 11.19 0 0 1 9-10.7h.1c.1 0 .3-.1.4-.1.56-.11 1.129-.177 1.7-.2h.4a11.83 11.83 0 0 1 8.2 3.2 10.6 10.6 0 0 1 3.3 5.9c.023.169.057.335.1.5a.75.75 0 0 0 .1.5c.083.326.116.663.1 1z"/><path class="st6" d="M439.95 194.45a4.1 4.1 0 1 1-8.2 0 4.15 4.15 0 0 1 .3-1.6h1.4v-6.5a2.43 2.43 0 0 1 2.4-2.4 2.61 2.61 0 0 1 1.7.7c.449.452.7 1.063.7 1.7v6.4h1.4c.188.548.29 1.121.3 1.7z"/><path class="st3" d="M440.05 194.448v.007c-.012 1.222-.428 2.49-1.335 3.498a4.436 4.436 0 0 1-1.71 1.161 3.9 3.9 0 0 1-1.05.243c-.268.023-.336.02-.513.028-.165-.003-.387-.032-.579-.053a4.247 4.247 0 0 1-1.055-.324 4.568 4.568 0 0 1-.941-.574 4.873 4.873 0 0 1-.76-.786 4.832 4.832 0 0 1-.53-.942 4.652 4.652 0 0 1-.323-2.059 5.14 5.14 0 0 1 .482-1.923l.104-.223.21.01c.466.024.933.033 1.4.037l-.302.302c.003-1.702-.197-3.404-.386-5.105a36.95 36.95 0 0 1-.123-1.277l-.007-.08c0-.035-.004.025-.002-.09v-.04l-.003-.16c.002-.113.026-.316.051-.454.053-.284.144-.562.268-.825a3.375 3.375 0 0 1 2.827-1.874 3.555 3.555 0 0 1 1.76.402c.268.134.511.314.732.515.247.24.442.496.59.755a3.25 3.25 0 0 1 .45 1.751l-.044 1.277a25.23 25.23 0 0 1-.23 2.552l-.417 2.553-.364-.364c.466.061.933.14 1.4.172l.153.01.029.12c.138.584.213 1.172.218 1.76zm-.2 0a4.164 4.164 0 0 0-.382-1.636l.182.13c-.467.032-.933.11-1.4.172l-.299.04-.066-.404-.416-2.553a25.23 25.23 0 0 1-.23-2.552l-.044-1.277a1.644 1.644 0 0 0-.192-.688 1.47 1.47 0 0 0-.184-.255 2.209 2.209 0 0 0-.3-.23 1.617 1.617 0 0 0-.684-.234c-.5-.025-1.02.239-1.311.698a1.651 1.651 0 0 0-.177.367c-.018.07-.032.077-.05.175l-.021.159-.006.04c.002-.089-.002-.002-.002-.011l-.007.08a37.2 37.2 0 0 1-.123 1.276c-.19 1.701-.39 3.403-.386 5.105l.001.3-.303.002c-.467.004-.933.013-1.4.037l.314-.212a3.2 3.2 0 0 0-.1 1.627 3.52 3.52 0 0 0 .61 1.416c.145.204.309.39.488.555.175.168.358.326.563.448.388.276.829.46 1.284.582.108.02.182.052.32.073l.392.056c.244.021.492.021.744.004.254-.013.507-.068.762-.138.257-.068.503-.178.748-.307a3.25 3.25 0 0 0 .673-.497c.2-.199.402-.414.536-.671.148-.248.273-.517.348-.801.08-.278.107-.57.118-.875z"/><path class="st5" d="M435.85 191.95a9.6 9.6 0 0 1-9.6-9.6v-13.8h19.2v13.8a9.6 9.6 0 0 1-9.6 9.6z"/><path class="st3" d="M448.75 175.45c-.4.2-.8.5-1.2.7a10.92 10.92 0 0 1-4.8 1.1c-5.907-.006-10.694-4.793-10.7-10.7a10.16 10.16 0 0 1 1.2-4.9c.1 0 .3-.1.4-.1a14.918 14.918 0 0 1 2.1-.2 11.83 11.83 0 0 1 8.2 3.2 10.6 10.6 0 0 1 3.3 5.9c.024.169.057.335.1.5-.016.205.019.411.1.6a9.47 9.47 0 0 0 1.3 3.9z"/><path class="st7" d="M443.05 165.55a10.6 10.6 0 0 1 3.3 5.9c.024.169.057.335.1.5-.016.205.019.411.1.6"/><path class="st3" d="M435.85 164.15c.008 6.51-5.098 11.88-11.6 12.2v-4a11.19 11.19 0 0 1 9-10.7h.1c.1 0 .3-.1.4-.1.56-.11 1.129-.177 1.7-.2.224.918.358 1.856.4 2.8z"/><path class="st8" d="M435.85 197.35v1"/><path class="st6" d="M446.55 197.65v8.3a4.8 4.8 0 0 1-4.8 4.8h-11.4a4.8 4.8 0 0 1-4.8-4.8v-8.3a4.8 4.8 0 0 1 4.8-4.8h1.7a4.53 4.53 0 0 0-.3 1.6 4.1 4.1 0 1 0 8.2 0 4.15 4.15 0 0 0-.3-1.6h2.2a4.72 4.72 0 0 1 4.7 4.8z"/><path class="st3" d="M446.867 197.568l.022.082c.3 1.09.571 2.18.651 3.27.029 1.09.055 2.18.053 3.27l-.007 1.634c-.02.404-.009.511-.075.93-.05.37-.139.675-.238.992-.418 1.258-1.301 2.328-2.405 3.013a5.567 5.567 0 0 1-1.798.723c-.616.147-1.331.15-1.83.133l-3.27-.04-6.539-.023-.817-.003h-.204l-.245-.01c-.143-.01-.257-.007-.423-.03a5.412 5.412 0 0 1-1.852-.544 5.559 5.559 0 0 1-2.599-2.673 5.681 5.681 0 0 1-.488-1.827c-.046-.672-.013-1.136-.02-1.705l.011-3.27-.013-3.269-.003-.409.002-.243.009-.204a5.45 5.45 0 0 1 .835-2.694c.674-1.07 1.71-1.93 2.926-2.327a5.925 5.925 0 0 1 1.865-.297l1.635.003 1.164.002-.417 1.084a3.758 3.758 0 0 0-.248 1.217c-.001.015 0 .112-.003.06l.006.127.013.252c.032.245.074.493.171.758.08.26.218.497.358.728a3.43 3.43 0 0 0 1.191 1.09c.244.12.492.235.758.292.245.075.575.093.768.107.157-.011.362-.01.48-.031.118-.023.231-.03.368-.072a3.58 3.58 0 0 0 .764-.284 3.48 3.48 0 0 0 1.216-1.082c.62-.9.76-2.141.35-3.182l-.39-.99 1.051.012 1.21.012.604.006.302.004.189.006.15.01c.186.004.425.036.674.08.248.036.453.112.68.17.214.086.437.15.64.26.209.097.41.208.602.336a5.152 5.152 0 0 1 1.828 2.008c.183.418.338.85.385 1.3.06.416.03.839-.047 1.238zm-.64.023c-.094-.36-.182-.698-.318-1.016-.12-.34-.297-.652-.471-.954-.375-.587-.843-1.127-1.445-1.48a3.17 3.17 0 0 0-.458-.242c-.153-.083-.323-.121-.483-.186-.165-.035-.341-.098-.494-.112a3.146 3.146 0 0 0-.527-.053l-.151-.006-.114-.002-.302.004-.605.006-1.209.012.66-.978c.61 1.459.46 3.2-.416 4.548a4.99 4.99 0 0 1-1.737 1.612c-.356.183-.725.349-1.117.437-.186.055-.408.085-.622.115-.215.03-.349.024-.527.037-.479-.009-.824-.044-1.23-.148-.392-.087-.764-.249-1.122-.428a5.016 5.016 0 0 1-1.764-1.602 4.914 4.914 0 0 1-.536-1.076 4.892 4.892 0 0 1-.265-1.207l-.013-.252-.006-.126v-.192a5.368 5.368 0 0 1 .348-1.738l.747 1.086-1.635.003a4.29 4.29 0 0 0-1.347.218 4.022 4.022 0 0 0-2.106 1.645 3.831 3.831 0 0 0-.53 1.25c-.043.229-.086.37-.095.677l-.012.204c-.003-.01-.002.115-.003.166l-.003.408-.013 3.27.012 3.27c.008.52-.012 1.148.025 1.563.047.455.169.9.361 1.313a3.99 3.99 0 0 0 1.883 1.91 3.95 3.95 0 0 0 1.267.375c.103.017.263.016.392.025l.102.004.062.001h.204l.817-.003 6.54-.023 3.269-.04c.59-.003.973-.025 1.417-.138.43-.11.836-.3 1.193-.555a3.973 3.973 0 0 0 1.504-2.07c.055-.205.11-.427.125-.6.036-.117.035-.56.035-.699l-.007-1.634c-.002-1.09.024-2.18.053-3.27.08-1.09.351-2.18.65-3.27l.017-.06z"/><path class="st5" d="M468.95 194.45a4.1 4.1 0 1 1-8.2 0 4.15 4.15 0 0 1 .3-1.6h7.5c.272.489.41 1.04.4 1.6z"/><path class="st3" d="M476.55 172.55v16.3a2.8 2.8 0 0 1-2.8 2.8h-17.8a2.8 2.8 0 0 1-2.8-2.8v-16.4a11.19 11.19 0 0 1 9-10.7h.1c.1 0 .3-.1.4-.1.56-.11 1.129-.177 1.7-.2h.4a11.83 11.83 0 0 1 8.2 3.2 10.6 10.6 0 0 1 3.3 5.9c.023.169.057.335.1.5a.75.75 0 0 0 .1.5c.083.326.116.663.1 1z"/><path class="st6" d="M468.95 194.45a4.1 4.1 0 1 1-8.2 0 4.15 4.15 0 0 1 .3-1.6h1.4v-6.5a2.43 2.43 0 0 1 2.4-2.4 2.61 2.61 0 0 1 1.7.7c.449.452.7 1.063.7 1.7v6.4h1.4c.188.548.29 1.121.3 1.7z"/><path class="st3" d="M469.05 194.448v.007c-.012 1.222-.428 2.49-1.335 3.498a4.436 4.436 0 0 1-1.71 1.161 3.9 3.9 0 0 1-1.05.243c-.268.023-.336.02-.513.028-.165-.003-.387-.032-.579-.053a4.247 4.247 0 0 1-1.055-.324 4.568 4.568 0 0 1-.941-.574 4.873 4.873 0 0 1-.76-.786 4.832 4.832 0 0 1-.53-.942 4.652 4.652 0 0 1-.323-2.059 5.14 5.14 0 0 1 .482-1.923l.104-.223.21.01c.466.024.933.033 1.4.037l-.302.302c.003-1.702-.197-3.404-.386-5.105a36.95 36.95 0 0 1-.123-1.277l-.007-.08c0-.035-.004.025-.002-.09v-.04l-.003-.16c.002-.113.026-.316.051-.454.053-.284.144-.562.268-.825a3.375 3.375 0 0 1 2.827-1.874 3.555 3.555 0 0 1 1.76.402c.268.134.511.314.732.515.247.24.442.496.59.755a3.25 3.25 0 0 1 .45 1.751l-.044 1.277a25.23 25.23 0 0 1-.23 2.552l-.417 2.553-.364-.364c.466.061.933.14 1.4.172l.153.01.029.12c.138.584.213 1.172.218 1.76zm-.2 0a4.164 4.164 0 0 0-.382-1.636l.182.13c-.467.032-.933.11-1.4.172l-.299.04-.066-.404-.416-2.553a25.23 25.23 0 0 1-.23-2.552l-.044-1.277a1.644 1.644 0 0 0-.192-.688 1.47 1.47 0 0 0-.184-.255 2.209 2.209 0 0 0-.3-.23 1.617 1.617 0 0 0-.684-.234c-.5-.025-1.02.239-1.311.698a1.651 1.651 0 0 0-.177.367c-.018.07-.032.077-.05.175l-.021.159-.006.04c.002-.089-.002-.002-.002-.011l-.007.08a37.2 37.2 0 0 1-.123 1.276c-.19 1.701-.39 3.403-.386 5.105l.001.3-.303.002c-.467.004-.933.013-1.4.037l.314-.212a3.2 3.2 0 0 0-.1 1.627 3.52 3.52 0 0 0 .61 1.416c.145.204.309.39.488.555.175.168.358.326.563.448.388.276.829.46 1.284.582.108.02.182.052.32.073l.392.056c.244.021.492.021.744.004.254-.013.507-.068.762-.138.257-.068.503-.178.748-.307a3.25 3.25 0 0 0 .673-.497c.2-.199.402-.414.536-.671.148-.248.273-.517.348-.801.08-.278.107-.57.118-.875z"/><path class="st5" d="M464.85 191.95a9.6 9.6 0 0 1-9.6-9.6v-13.8h19.2v13.8a9.6 9.6 0 0 1-9.6 9.6z"/><path class="st3" d="M477.65 175.45c-.4.2-.8.5-1.2.7a10.92 10.92 0 0 1-4.8 1.1c-5.907-.006-10.694-4.793-10.7-10.7a10.16 10.16 0 0 1 1.2-4.9c.1 0 .3-.1.4-.1a14.918 14.918 0 0 1 2.1-.2 11.83 11.83 0 0 1 8.2 3.2 10.6 10.6 0 0 1 3.3 5.9c.024.169.057.335.1.5-.016.205.019.411.1.6a13.743 13.743 0 0 0 1.3 3.9z"/><path class="st7" d="M472.05 165.55a10.6 10.6 0 0 1 3.3 5.9c.024.169.057.335.1.5-.016.205.019.411.1.6"/><path class="st3" d="M464.75 164.15c.008 6.51-5.098 11.88-11.6 12.2v-4a11.19 11.19 0 0 1 9-10.7h.1c.1 0 .3-.1.4-.1.56-.11 1.129-.177 1.7-.2.273.908.408 1.852.4 2.8z"/><path class="st8" d="M464.85 197.35v1"/><path class="st6" d="M475.55 197.65v8.3a4.8 4.8 0 0 1-4.8 4.8h-11.4a4.8 4.8 0 0 1-4.8-4.8v-8.3a4.8 4.8 0 0 1 4.8-4.8h1.7a4.53 4.53 0 0 0-.3 1.6 4.1 4.1 0 1 0 8.2 0 4.15 4.15 0 0 0-.3-1.6h2.2a4.72 4.72 0 0 1 4.7 4.8z"/><path class="st3" d="M475.867 197.568l.022.082c.3 1.09.571 2.18.651 3.27.029 1.09.055 2.18.053 3.27l-.007 1.634c-.02.404-.009.511-.075.93-.05.37-.139.675-.238.992-.418 1.258-1.301 2.328-2.405 3.013a5.567 5.567 0 0 1-1.798.723c-.616.147-1.331.15-1.83.133l-3.27-.04-6.539-.023-.817-.003h-.204l-.245-.01c-.143-.01-.257-.007-.423-.03a5.412 5.412 0 0 1-1.852-.544 5.559 5.559 0 0 1-2.599-2.673 5.681 5.681 0 0 1-.488-1.827c-.046-.672-.013-1.136-.02-1.705l.011-3.27-.013-3.269-.003-.409.002-.243.009-.204a5.45 5.45 0 0 1 .835-2.694c.674-1.07 1.71-1.93 2.926-2.327a5.925 5.925 0 0 1 1.865-.297l1.635.003 1.164.002-.417 1.084a3.758 3.758 0 0 0-.248 1.217c-.001.015 0 .112-.003.06l.006.127.013.252c.032.245.074.493.171.758.08.26.218.497.358.728a3.43 3.43 0 0 0 1.191 1.09c.244.12.492.235.758.292.245.075.575.093.768.107.157-.011.362-.01.48-.031.118-.023.231-.03.368-.072a3.58 3.58 0 0 0 .764-.284 3.48 3.48 0 0 0 1.216-1.082c.62-.9.76-2.141.35-3.182l-.39-.99 1.051.012 1.21.012.604.006.302.004.189.006.15.01c.186.004.425.036.674.08.248.036.453.112.68.17.214.086.437.15.64.26.209.097.41.208.602.336a5.152 5.152 0 0 1 1.828 2.008c.183.418.338.85.385 1.3.06.416.03.839-.047 1.238zm-.64.023c-.094-.36-.182-.698-.318-1.016-.12-.34-.297-.652-.471-.954-.375-.587-.843-1.127-1.445-1.48a3.17 3.17 0 0 0-.458-.242c-.153-.083-.323-.121-.483-.186-.165-.035-.341-.098-.494-.112a3.146 3.146 0 0 0-.527-.053l-.151-.006-.114-.002-.302.004-.605.006-1.209.012.66-.978c.61 1.459.46 3.2-.416 4.548a4.99 4.99 0 0 1-1.737 1.612c-.356.183-.725.349-1.117.437-.186.055-.408.085-.622.115-.215.03-.349.024-.527.037-.479-.009-.824-.044-1.23-.148-.392-.087-.764-.249-1.122-.428a5.016 5.016 0 0 1-1.764-1.602 4.914 4.914 0 0 1-.536-1.076 4.892 4.892 0 0 1-.265-1.207l-.013-.252-.006-.126v-.192a5.368 5.368 0 0 1 .348-1.738l.747 1.086-1.635.003a4.29 4.29 0 0 0-1.347.218 4.022 4.022 0 0 0-2.106 1.645 3.831 3.831 0 0 0-.53 1.25c-.043.229-.086.37-.095.677l-.012.204c-.003-.01-.002.115-.003.166l-.003.408-.013 3.27.012 3.27c.008.52-.012 1.148.025 1.563.047.455.169.9.361 1.313a3.99 3.99 0 0 0 1.883 1.91 3.95 3.95 0 0 0 1.267.375c.103.017.263.016.392.025l.102.004.062.001h.204l.817-.003 6.54-.023 3.269-.04c.59-.003.973-.025 1.417-.138.43-.11.836-.3 1.193-.555a3.973 3.973 0 0 0 1.504-2.07c.055-.205.11-.427.125-.6.036-.117.035-.56.035-.699l-.007-1.634c-.002-1.09.024-2.18.053-3.27.08-1.09.351-2.18.65-3.27l.017-.06z"/><path class="st6" d="M208.05 149.05v8.3a4.8 4.8 0 0 1-4.8 4.8h-11.3a4.8 4.8 0 0 1-4.8-4.8v-8.3a4.8 4.8 0 0 1 4.8-4.8h3.3v1a2.4 2.4 0 1 0 4.8.01v-1.01h3.3a4.85 4.85 0 0 1 4.7 4.8z"/><path class="st3" d="M208.364 148.964l.025.086c.326 1.121.62 2.242.662 3.363.025 1.121.047 2.243.044 3.364.004.583-.008 1.07-.028 1.733l-.032.43-.088.548c-.08.336-.172.659-.304.973a5.772 5.772 0 0 1-2.673 2.904c-.595.3-1.237.507-1.894.59-.317.056-.684.048-.964.052l-.841-.015c-1.121-.026-2.242-.014-3.363-.023l-6.727-.025h-.21l-.25-.012c-.149-.012-.259-.005-.448-.037a6.068 6.068 0 0 1-.987-.21 5.629 5.629 0 0 1-1.723-.905 5.575 5.575 0 0 1-2.05-3.231c-.143-.64-.13-1.315-.126-1.838l.006-1.682-.013-3.363-.013-1.682c.005-.552-.038-1.109.06-1.782a5.475 5.475 0 0 1 1.854-3.385 5.611 5.611 0 0 1 3.595-1.362l3.374.004h.793l-.002.791-.001.597v.409l.007.15c.005.101.02.111.024.175.02.063.027.13.054.192a1.607 1.607 0 0 0 .754.904c.12.057.242.116.373.144.112.038.3.045.36.054.087-.005.228-.003.27-.015.049-.01.097-.01.168-.031.132-.026.256-.082.378-.139.236-.13.45-.312.6-.54a1.62 1.62 0 0 0 .273-.764c.013-.11.01-.35.013-.539l.007-.597.008-.737.721.008 2.68.03.725.013c.225.022.428.03.714.09.275.041.511.12.757.192.236.093.48.173.702.298a5.39 5.39 0 0 1 2.208 2.03c.505.842.704 1.858.528 2.79zm-.637.03c-.064-.186-.096-.371-.175-.546-.061-.196-.145-.382-.219-.567-.171-.361-.34-.713-.57-1.029-.433-.642-1.027-1.18-1.726-1.504a3.891 3.891 0 0 0-1.077-.34c-.152-.038-.396-.048-.616-.064l-.614.006-2.68.029.73-.729.006.597c-.001.208.012.367-.006.654a3.14 3.14 0 0 1-.485 1.472 3.21 3.21 0 0 1-1.133 1.066 3.217 3.217 0 0 1-1.149.37c-.154.022-.214.017-.325.026a3.234 3.234 0 0 1-1.558-.382 3.183 3.183 0 0 1-1.497-1.774c-.048-.124-.072-.255-.106-.382a4.132 4.132 0 0 1-.055-.416l-.011-.336v-.298l-.002-.597.79.791-3.352.01c-.939.01-1.855.37-2.56.983a4.032 4.032 0 0 0-1.337 2.375c-.082.436-.06 1.008-.067 1.575l-.013 1.681-.013 3.364.006 1.681c0 .597-.001 1.05.103 1.509.2.92.75 1.752 1.497 2.32.373.284.795.502 1.242.642.23.061.455.115.657.138.086.024.258.02.39.03l.169.008.21-.001 6.727-.025c1.121-.009 2.242.003 3.363-.023l.841-.015c.279-.015.477-.011.712-.062.45-.076.89-.225 1.283-.455a3.95 3.95 0 0 0 1.683-2.041c.08-.206.13-.426.175-.637l.04-.284c.01-.115.01-.273.017-.408l-.017-1.63c-.003-1.12.02-2.242.044-3.363.042-1.12.336-2.242.662-3.363l.016-.055z"/><path class="st5" d="M199.95 144.35v1a2.4 2.4 0 0 1-4.8 0v-1h4.8z"/><path class="st5" d="M199.95 137.85v7.4a2.4 2.4 0 0 1-4.8 0v-7.4a2.43 2.43 0 0 1 2.4-2.4 2.84 2.84 0 0 1 1.7.7 2.34 2.34 0 0 1 .7 1.7z"/><path class="st3" d="M187.85 132.95a1.32 1.32 0 0 1-1.3-1.3v-8.3a1.32 1.32 0 0 1 1.3-1.3 1.32 1.32 0 0 1 1.3 1.3v8.3a1.32 1.32 0 0 1-1.3 1.3zm19.5 0a1.32 1.32 0 0 1-1.3-1.3v-8.3a1.32 1.32 0 0 1 1.3-1.3 1.32 1.32 0 0 1 1.3 1.3v8.3a1.32 1.32 0 0 1-1.3 1.3z"/><path class="st6" d="M197.65 143.35a9.6 9.6 0 0 1-9.6-9.6v-9.5a9.6 9.6 0 0 1 19.2 0v9.5a9.73 9.73 0 0 1-9.6 9.6z"/><path class="st3" d="M197.645 143.45l-.89-.034a11.326 11.326 0 0 1-2.498-.508 11.09 11.09 0 0 1-3.525-1.909 9.518 9.518 0 0 1-1.736-1.843 9.042 9.042 0 0 1-1.328-2.53c-.354-.94-.473-2.027-.506-3.08-.021-1.001-.003-2.037.011-3.1.027-1.065.068-2.158.142-3.275.075-1.13.102-2.233.222-3.447a10.93 10.93 0 0 1 3.2-6.561c1.792-1.75 4.255-2.938 6.885-3.06 2.605-.156 5.36.775 7.302 2.605 1.97 1.8 3.154 4.368 3.332 6.93.055.67.056 1.206.058 1.785l.004 1.694c.01 1.117-.002 2.21-.025 3.274s-.024 2.1-.064 3.1c-.033.637-.065.992-.16 1.564-.049.272-.112.539-.17.801l-.237.731a10.057 10.057 0 0 1-3.097 4.37 11.262 11.262 0 0 1-3.522 1.927c-1.05.352-1.91.46-2.493.525l-.9.041h-.005zm.006-.2l.875-.07c.285-.035.632-.108 1.04-.182.398-.116.86-.242 1.343-.467.976-.41 2.079-1.136 3.036-2.22.966-1.073 1.737-2.54 2.1-4.196l.124-.63c.019-.205.033-.41.062-.615a10.67 10.67 0 0 0 .04-1.378c-.04-1.002-.04-2.037-.063-3.1a105.72 105.72 0 0 1-.026-3.276l.005-1.693c-.008-.56.032-1.177.001-1.667-.055-2.07-.93-4.196-2.492-5.775-1.552-1.578-3.713-2.655-6.071-2.782a9.07 9.07 0 0 0-3.477.516 8.62 8.62 0 0 0-2.985 1.884c-1.715 1.64-2.616 3.986-2.55 6.18.072 2.266.285 4.55.314 6.666.014 1.064.033 2.1.011 3.1.003.945.052 1.805.256 2.643.382 1.657 1.15 3.127 2.13 4.191.963 1.082 2.073 1.802 3.055 2.2.486.222.95.34 1.35.452.408.065.751.134 1.038.163l.884.056z"/><path class="st3" d="M209.65 112.85v9.1a9 9 0 0 1-2.4 5.2 7.52 7.52 0 0 1-3.4 2.1l-1.3.3c-.4 0-.7.1-1.1.1h-7.5a8.4 8.4 0 1 1 0-16.8h15.7z"/><path class="st7" d="M208.15 114.85v5.4"/><path class="st9" d="M197.65 147.65v5.3"/><path class="st6" d="M179.05 149.05v8.3a4.8 4.8 0 0 1-4.8 4.8h-11.3a4.8 4.8 0 0 1-4.8-4.8v-8.3a4.8 4.8 0 0 1 4.8-4.8h3.3v1a2.4 2.4 0 1 0 4.8.01v-1.01h3.3a4.85 4.85 0 0 1 4.7 4.8z"/><path class="st3" d="M179.364 148.964l.025.086c.326 1.121.62 2.242.662 3.363.025 1.121.047 2.243.044 3.364.004.583-.008 1.07-.028 1.733l-.032.43-.088.548c-.08.336-.172.659-.304.973a5.772 5.772 0 0 1-2.673 2.904c-.595.3-1.237.507-1.894.59-.317.056-.684.048-.964.052l-.841-.015c-1.121-.026-2.242-.014-3.363-.023l-6.727-.025h-.21l-.25-.012c-.149-.012-.259-.005-.448-.037a6.068 6.068 0 0 1-.987-.21 5.629 5.629 0 0 1-1.723-.905 5.575 5.575 0 0 1-2.05-3.231c-.143-.64-.13-1.315-.126-1.838l.006-1.682-.013-3.363-.013-1.682c.005-.552-.038-1.109.06-1.782a5.475 5.475 0 0 1 1.854-3.385 5.611 5.611 0 0 1 3.595-1.362l3.374.004h.793l-.002.791-.001.597v.409l.007.15c.005.101.02.111.024.175.02.063.027.13.054.192a1.607 1.607 0 0 0 .754.904c.12.057.242.116.373.144.112.038.3.045.36.054.087-.005.228-.003.27-.015.049-.01.097-.01.168-.031.132-.026.256-.082.378-.139.236-.13.45-.312.6-.54a1.62 1.62 0 0 0 .273-.764c.013-.11.01-.35.013-.539l.007-.597.008-.737.721.008 2.68.03.725.013c.225.022.428.03.714.09.275.041.511.12.757.192.236.093.48.173.702.298a5.39 5.39 0 0 1 2.208 2.03c.505.842.704 1.858.528 2.79zm-.637.03c-.064-.186-.096-.371-.175-.546-.061-.196-.145-.382-.219-.567-.171-.361-.34-.713-.57-1.029-.433-.642-1.027-1.18-1.726-1.504a3.891 3.891 0 0 0-1.077-.34c-.152-.038-.396-.048-.616-.064l-.614.006-2.68.029.73-.729.006.597c-.001.208.012.367-.006.654a3.14 3.14 0 0 1-.485 1.472 3.21 3.21 0 0 1-1.133 1.066 3.217 3.217 0 0 1-1.149.37c-.154.022-.214.017-.325.026a3.234 3.234 0 0 1-1.558-.382 3.183 3.183 0 0 1-1.497-1.774c-.048-.124-.072-.255-.106-.382a4.132 4.132 0 0 1-.055-.416l-.011-.336v-.298l-.002-.597.79.791-3.352.01c-.939.01-1.855.37-2.56.983a4.032 4.032 0 0 0-1.337 2.375c-.082.436-.06 1.008-.067 1.575l-.013 1.681-.013 3.364.006 1.681c0 .597-.001 1.05.103 1.509.2.92.75 1.752 1.497 2.32.373.284.795.502 1.242.642.23.061.455.115.657.138.086.024.258.02.39.03l.169.008.21-.001 6.727-.025c1.121-.009 2.242.003 3.363-.023l.841-.015c.279-.015.477-.011.712-.062.45-.076.89-.225 1.283-.455a3.95 3.95 0 0 0 1.683-2.041c.08-.206.13-.426.175-.637l.04-.284c.01-.115.01-.273.017-.408l-.017-1.63c-.003-1.12.02-2.242.044-3.363.042-1.12.336-2.242.662-3.363l.016-.055z"/><path class="st5" d="M171.05 144.35v1a2.4 2.4 0 0 1-4.8 0v-1h4.8z"/><path class="st5" d="M171.05 137.85v7.4a2.4 2.4 0 1 1-4.8.01v-7.41a2.43 2.43 0 0 1 2.4-2.4 2.39 2.39 0 0 1 2.4 2.38v.02z"/><path class="st3" d="M158.85 132.95a1.32 1.32 0 0 1-1.3-1.3v-8.3a1.32 1.32 0 0 1 1.3-1.3 1.32 1.32 0 0 1 1.3 1.3v8.3a1.21 1.21 0 0 1-1.3 1.3zm19.5 0a1.32 1.32 0 0 1-1.3-1.3v-8.3a1.32 1.32 0 0 1 1.3-1.3 1.32 1.32 0 0 1 1.3 1.3v8.3a1.21 1.21 0 0 1-1.3 1.3z"/><path class="st6" d="M168.65 143.35a9.6 9.6 0 0 1-9.6-9.6v-9.5a9.6 9.6 0 0 1 19.2 0v9.5a9.6 9.6 0 0 1-9.6 9.6z"/><path class="st3" d="M168.645 143.45l-.89-.034a11.09 11.09 0 0 1-6.027-2.42 9.534 9.534 0 0 1-1.736-1.846 9.027 9.027 0 0 1-1.326-2.532c-.355-.942-.471-2.03-.504-3.083-.021-1.001-.003-2.037.011-3.102.027-1.065.068-2.159.142-3.277.075-1.13.1-2.234.223-3.449a10.93 10.93 0 0 1 3.217-6.56c1.796-1.747 4.264-2.926 6.895-3.044 2.61-.15 5.362.79 7.3 2.629 1.965 1.807 3.141 4.382 3.309 6.947.087 1.27.044 2.335.059 3.477.01 1.118-.002 2.212-.025 3.277s-.024 2.1-.064 3.102c-.039.616-.051.98-.151 1.56-.047.272-.104.543-.165.803l-.232.733a9.934 9.934 0 0 1-3.096 4.378 11.075 11.075 0 0 1-3.535 1.911 11.166 11.166 0 0 1-2.5.5l-.9.03h-.005zm.005-.2l.879-.06c.285-.03.633-.1 1.042-.169.4-.114.863-.232 1.347-.455.98-.402 2.089-1.121 3.048-2.204.973-1.067 1.736-2.54 2.095-4.195l.12-.63.058-.616c.051-.376.039-1.002.032-1.386-.04-1.002-.04-2.038-.064-3.102-.057-2.105-.009-4.432-.017-6.644-.047-2.072-.914-4.203-2.473-5.788-1.546-1.585-3.709-2.67-6.067-2.804a9.153 9.153 0 0 0-3.48.51 8.618 8.618 0 0 0-2.991 1.878c-1.72 1.636-2.627 3.983-2.565 6.177.07 2.267.284 4.553.313 6.67.014 1.066.032 2.101.011 3.103.003.947.049 1.807.254 2.645.38 1.66 1.149 3.13 2.128 4.196.964 1.083 2.074 1.803 3.057 2.202.486.222.95.341 1.35.453.408.065.752.134 1.039.163l.889.056h-.005z"/><path class="st3" d="M180.75 112.85v9.1a9 9 0 0 1-2.4 5.2 7.52 7.52 0 0 1-3.4 2.1l-1.3.3c-.4 0-.7.1-1.1.1h-7.5a8.4 8.4 0 1 1 0-16.8h15.7z"/><path class="st7" d="M179.25 114.85v5.4"/><path class="st9" d="M168.65 147.65v5.3"/><path class="st6" d="M150.15 149.05v8.3a4.8 4.8 0 0 1-4.8 4.8h-11.4a4.8 4.8 0 0 1-4.8-4.8v-8.3a4.8 4.8 0 0 1 4.8-4.8h3.3v1a2.4 2.4 0 1 0 4.8 0v-1h3.3a4.94 4.94 0 0 1 4.8 4.8z"/><path class="st3" d="M150.463 148.959l.026.091c.326 1.123.62 2.246.663 3.37.024 1.123.046 2.246.043 3.37a42 42 0 0 1-.028 1.736c-.013.147-.013.263-.035.436l-.089.549a6.4 6.4 0 0 1-.307.971 5.75 5.75 0 0 1-4.593 3.478c-.315.05-.69.047-.96.047l-.843-.015c-1.123-.026-2.247-.014-3.37-.023l-6.739-.025h-.21l-.251-.01c-.148-.011-.264-.007-.437-.03a5.762 5.762 0 0 1-.994-.204 5.628 5.628 0 0 1-1.736-.89c-1.038-.785-1.805-1.94-2.079-3.219-.149-.634-.143-1.324-.137-1.846l.006-1.685-.012-3.37-.014-1.684-.005-.843c.012-.377 0-.54.062-.938a5.469 5.469 0 0 1 1.847-3.398 5.604 5.604 0 0 1 3.598-1.372l3.381.004h.793l-.002.79-.001.597v.408l.008.148c.005.103.02.113.024.176.02.063.027.13.053.192a1.624 1.624 0 0 0 1.525 1.099c.009-.004.203-.004.232-.015.05-.01.097-.01.168-.031.132-.026.255-.082.378-.138.235-.13.449-.312.6-.54.148-.227.252-.487.272-.762.013-.11.012-.347.014-.537l.007-.596.008-.737.721.007 2.696.03c.248.005.396-.003.726.014.223.02.436.031.722.09a5.256 5.256 0 0 1 1.464.489 5.473 5.473 0 0 1 2.233 2.02c.516.84.732 1.856.572 2.796zm-.637.04c-.068-.186-.102-.372-.185-.546-.065-.197-.152-.383-.229-.568-.178-.362-.353-.715-.587-1.031-.444-.643-1.046-1.18-1.753-1.504a3.94 3.94 0 0 0-1.09-.341c-.155-.037-.39-.049-.616-.063l-.62.004-2.696.03.73-.73.006.596c0 .207.011.368-.006.655-.03.52-.21 1.03-.487 1.47-.28.441-.676.805-1.132 1.064a3.233 3.233 0 0 1-1.15.37c-.166.02-.172.015-.361.026a3.196 3.196 0 0 1-3.016-2.153c-.047-.123-.072-.254-.106-.382a4.157 4.157 0 0 1-.056-.414l-.012-.338v-.298l-.001-.596.79.791-3.357.01a4.004 4.004 0 0 0-2.563.99 4.026 4.026 0 0 0-1.332 2.382c-.08.447-.056 1.013-.065 1.583l-.013 1.685-.012 3.37.006 1.684c-.001.599.002 1.041.11 1.504.202.922.766 1.75 1.519 2.312.377.28.802.495 1.25.63.233.066.453.11.655.135.104.018.27.016.403.026l.17.005h.21l6.74-.026c1.123-.009 2.246.003 3.37-.023.567-.014 1.146-.001 1.56-.073a3.7 3.7 0 0 0 1.288-.45 3.95 3.95 0 0 0 1.697-2.036c.08-.207.13-.424.179-.639l.038-.285c.014-.105.012-.27.019-.403l-.016-1.633c-.003-1.123.02-2.246.043-3.37.043-1.123.337-2.246.663-3.369l.015-.05z"/><path class="st5" d="M142.05 144.35v1a2.4 2.4 0 1 1-4.8 0v-1h4.8z"/><path class="st5" d="M142.05 137.85v7.4a2.4 2.4 0 1 1-4.8 0v-7.4a2.43 2.43 0 0 1 2.4-2.4 2.39 2.39 0 0 1 2.4 2.38v.02z"/><path class="st3" d="M129.95 132.95a1.32 1.32 0 0 1-1.3-1.3v-8.3a1.32 1.32 0 0 1 1.3-1.3 1.32 1.32 0 0 1 1.3 1.3v8.3a1.32 1.32 0 0 1-1.3 1.3zm19.5 0a1.32 1.32 0 0 1-1.3-1.3v-8.3a1.32 1.32 0 0 1 1.3-1.3 1.32 1.32 0 0 1 1.3 1.3v8.3a1.32 1.32 0 0 1-1.3 1.3z"/><path class="st6" d="M139.65 143.35a9.6 9.6 0 0 1-9.6-9.6v-9.5a9.6 9.6 0 0 1 19.2 0v9.5a9.6 9.6 0 0 1-9.6 9.6z"/><path class="st3" d="M139.645 143.45l-.89-.034a11.09 11.09 0 0 1-6.027-2.42 9.534 9.534 0 0 1-1.736-1.846 9.027 9.027 0 0 1-1.326-2.532c-.355-.942-.471-2.03-.504-3.083-.021-1.001-.003-2.037.012-3.102a80.23 80.23 0 0 1 .14-3.277c.076-1.13.102-2.234.225-3.449a10.93 10.93 0 0 1 3.216-6.56c1.796-1.747 4.264-2.926 6.895-3.044 2.61-.15 5.362.79 7.3 2.629 1.965 1.807 3.141 4.382 3.309 6.947.087 1.27.044 2.335.059 3.477.01 1.118-.002 2.212-.025 3.277s-.024 2.1-.064 3.102c-.039.616-.05.98-.151 1.56-.047.272-.104.543-.165.803l-.232.733a9.934 9.934 0 0 1-3.095 4.378 11.075 11.075 0 0 1-3.536 1.911 11.166 11.166 0 0 1-2.5.5l-.9.03h-.005zm.005-.2l.879-.06c.285-.03.633-.1 1.042-.169.4-.114.863-.232 1.347-.455.98-.402 2.089-1.121 3.049-2.204.973-1.067 1.736-2.54 2.095-4.195l.118-.63.059-.616c.051-.376.039-1.002.032-1.386-.04-1.002-.04-2.038-.063-3.102-.058-2.105-.01-4.432-.018-6.644-.047-2.072-.914-4.203-2.473-5.788-1.546-1.585-3.709-2.67-6.067-2.804a9.153 9.153 0 0 0-3.48.51 8.618 8.618 0 0 0-2.99 1.878c-1.72 1.636-2.628 3.983-2.566 6.177.07 2.267.285 4.553.313 6.67.014 1.066.033 2.101.011 3.103.003.947.049 1.807.254 2.645.38 1.66 1.149 3.13 2.128 4.196.964 1.083 2.074 1.803 3.057 2.202.486.222.95.341 1.35.453.408.065.752.134 1.04.163l.888.056h-.005z"/><path class="st3" d="M151.75 112.85v9.1a9 9 0 0 1-2.4 5.2 7.52 7.52 0 0 1-3.4 2.1l-1.3.3c-.4 0-.7.1-1.1.1h-7.6a8.4 8.4 0 1 1 0-16.8h15.8z"/><path class="st7" d="M150.25 114.85v5.4"/><path class="st9" d="M139.65 147.65v5.3"/><path class="st6" d="M251.95 352.55h-3.3v1a2.33 2.33 0 0 1-1.3 2.1c-.679.4-1.521.4-2.2 0a2.44 2.44 0 0 1-1.2-2.1v-1h-3.3a4.8 4.8 0 0 0-4.8 4.8v8.3a4.8 4.8 0 0 0 4.8 4.8h11.3a4.8 4.8 0 0 0 4.8-4.8v-8.3a4.94 4.94 0 0 0-4.8-4.8zm0 0h-3.3v1a2.33 2.33 0 0 1-1.3 2.1c-.679.4-1.521.4-2.2 0a2.44 2.44 0 0 1-1.2-2.1v-1h-3.3a4.8 4.8 0 0 0-4.8 4.8v8.3a4.8 4.8 0 0 0 4.8 4.8h11.3a4.8 4.8 0 0 0 4.8-4.8v-8.3a4.94 4.94 0 0 0-4.8-4.8zm-5.8 16.8l-1.8-1.4.4-9.7 1.4-1.4 1.4 1.4.4 9.7-1.8 1.4z"/><path class="st3" d="M252.007 352.878l-.057.011-3.3.66 1-.999-.015.9-.008.256a4.34 4.34 0 0 1-.035.336 3.304 3.304 0 0 1-1.826 2.45l.06-.032a3.102 3.102 0 0 1-2.994.06l-.113-.062-.114-.07a3.254 3.254 0 0 1-.579-.467 3.352 3.352 0 0 1-.962-2.242v-.4l.007-.729.879.879-1.915-.02-.958-.01-.436-.003c-.155.008-.33.01-.468.022-.975.086-2.026.654-2.661 1.488a3.97 3.97 0 0 0-.71 1.409c-.147.52-.151 1.007-.148 1.69l-.014 3.831-.014 3.792a4.002 4.002 0 0 0 1.218 2.922 3.993 3.993 0 0 0 2.947 1.136l3.831-.027 3.83-.014c1.26-.004 2.596.021 3.791-.008a4.013 4.013 0 0 0 3.54-2.786c.075-.256.129-.516.162-.782l.022-.401.004-.476.083-7.662a4.28 4.28 0 0 0-1.159-3.014c-.763-.791-1.738-1.294-2.888-1.638zm.05-.646c1.354-.24 2.817.354 3.78 1.375a5.625 5.625 0 0 1 1.609 3.923l.083 7.662.002.482-.028.556a6.37 6.37 0 0 1-.223 1.09 5.59 5.59 0 0 1-4.956 3.909c-1.357.038-2.576.015-3.871.026l-3.831-.014-3.83-.028c-1.433.02-2.954-.534-4.007-1.569-1.072-1.001-1.712-2.526-1.709-3.938l-.016-3.87-.014-3.83c-.009-.59-.014-1.397.19-2.111a5.645 5.645 0 0 1 4.831-4.151l.488-.034.522-.009.957-.01 1.916-.02.87-.009.009.888.008.73c.002.108 0 .274.006.33a1.548 1.548 0 0 0 .743 1.234l.039.023c-.006-.004.04.026-.009-.005l.012.006.047.024a1.242 1.242 0 0 0 1.199-.052l.006-.004.054-.03a1.39 1.39 0 0 0 .723-1.049l.008-.112v-.194l-.015-.9-.019-1.204 1.02.204 3.299.66.107.021z"/><path class="st3" d="M252.007 352.878l-.057.011-3.3.66 1-.999-.015.9-.008.256a4.34 4.34 0 0 1-.035.336 3.304 3.304 0 0 1-1.826 2.45l.06-.032a3.102 3.102 0 0 1-2.994.06l-.113-.062-.114-.07a3.254 3.254 0 0 1-.579-.467 3.352 3.352 0 0 1-.962-2.242v-.4l.007-.729.879.879-1.915-.02-.958-.01-.436-.003c-.155.008-.33.01-.468.022-.975.086-2.026.654-2.661 1.488a3.97 3.97 0 0 0-.71 1.409c-.147.52-.151 1.007-.148 1.69l-.014 3.831-.014 3.792a4.002 4.002 0 0 0 1.218 2.922 3.993 3.993 0 0 0 2.947 1.136l3.831-.027 3.83-.014c1.26-.004 2.596.021 3.791-.008a4.013 4.013 0 0 0 3.54-2.786c.075-.256.129-.516.162-.782l.022-.401.004-.476.083-7.662a4.28 4.28 0 0 0-1.159-3.014c-.763-.791-1.738-1.294-2.888-1.638zm.05-.646c1.354-.24 2.817.354 3.78 1.375a5.625 5.625 0 0 1 1.609 3.923l.083 7.662.002.482-.028.556a6.37 6.37 0 0 1-.223 1.09 5.59 5.59 0 0 1-4.956 3.909c-1.357.038-2.576.015-3.871.026l-3.831-.014-3.83-.028c-1.433.02-2.954-.534-4.007-1.569-1.072-1.001-1.712-2.526-1.709-3.938l-.016-3.87-.014-3.83c-.009-.59-.014-1.397.19-2.111a5.645 5.645 0 0 1 4.831-4.151l.488-.034.522-.009.957-.01 1.916-.02.87-.009.009.888.008.73c.002.108 0 .274.006.33a1.548 1.548 0 0 0 .743 1.234l.039.023c-.006-.004.04.026-.009-.005l.012.006.047.024a1.242 1.242 0 0 0 1.199-.052l.006-.004.054-.03a1.39 1.39 0 0 0 .723-1.049l.008-.112v-.194l-.015-.9-.019-1.204 1.02.204 3.299.66.107.021z"/><path class="st3" d="M245.942 369.618c-.48-.004-.943-.027-1.297-.19-.168-.094-.315-.214-.474-.32a8.06 8.06 0 0 1-.46-.335l-.415-.326.013-.54c.018-.809.114-1.615.21-2.42.1-.806.173-1.613.208-2.42l.248-4.849.015-.31.211-.207 1.414-1.386.55-.54.52.54c.458.475.947.92 1.42 1.38l.207.201.023.322c.113 1.615.134 3.233.203 4.85.06 1.617.104 3.234.1 4.854v.382l-.265.19-.927.666c-.314.215-.656.394-1.109.431l-.326.027h-.07zm.274-.997a2.73 2.73 0 0 1 .438-.48l.873-.735-.265.572a122.62 122.62 0 0 1-.3-4.845c-.065-1.617-.176-3.232-.197-4.85l.23.522c-.46-.473-.905-.962-1.38-1.42h1.07L245.3 358.8l.226-.517-.152 4.852a30.3 30.3 0 0 0 .008 2.43c.03.81.059 1.621.01 2.429l-.4-.866c.15.116.296.238.438.365.141.127.294.241.426.38.162.2.267.462.361.749z"/><path class="st6" d="M247.55 358.35l.5 9.6-1.9 1.4-1.8-1.4.4-9.6 1.4-1.4z"/><path class="st5" d="M248.55 352.55v1a2.33 2.33 0 0 1-1.3 2.1c-.679.4-1.521.4-2.2 0a2.44 2.44 0 0 1-1.2-2.1v-1h4.7z"/><path class="st5" d="M248.55 346.15v7.4a2.33 2.33 0 0 1-1.3 2.1c-.679.4-1.521.4-2.2 0a2.44 2.44 0 0 1-1.2-2.1v-7.4a2.43 2.43 0 0 1 2.4-2.4 2.61 2.61 0 0 1 1.7.7 2.35 2.35 0 0 1 .6 1.7z"/><path class="st3" d="M237.65 342.15a1.32 1.32 0 0 1-1.3-1.3v-8.3a1.32 1.32 0 0 1 1.3-1.3 1.32 1.32 0 0 1 1.3 1.3v8.3a1.32 1.32 0 0 1-1.3 1.3zm17.1 0a1.32 1.32 0 0 1-1.3-1.3v-8.3a1.32 1.32 0 0 1 1.3-1.3 1.32 1.32 0 0 1 1.3 1.3v8.3a1.21 1.21 0 0 1-1.3 1.3z"/><circle class="st3" cx="248.95" cy="329.25" r="7.8"/><path class="st3" d="M248.55 331.15a6.69 6.69 0 0 1-13.1 1.9 5.542 5.542 0 0 1-.2-1.8c0-3.7 3-6.7 6.7-6.7a5.38 5.38 0 0 1 2.2.4 6.53 6.53 0 0 1 4.4 6.2z"/><path class="st6" d="M254.95 329.35v13.5a8.81 8.81 0 0 1-8.8 8.8 9.16 9.16 0 0 1-4.3-1.1 8.75 8.75 0 0 1-4.5-7.6v-13.6a3.8 3.8 0 0 1 3.8-3.8h9.9a3.82 3.82 0 0 1 3.9 3.8z"/><path class="st3" d="M255.05 329.35l.01.86c.007.561.01 1.384.065 2.43.036 1.048.133 2.32.254 3.777.11 1.459.266 3.104.365 4.899l.063 1.374c-.017.577.016.916-.076 1.521a8.575 8.575 0 0 1-1.024 3.145c-1.091 1.989-3.074 3.562-5.353 4.254a10.163 10.163 0 0 1-7.047-.495c-2.213-1.006-4.111-2.89-5.025-5.277-.24-.59-.4-1.214-.513-1.846-.118-.64-.132-1.286-.168-1.863-.057-1.192-.105-2.38-.135-3.557l-.152-6.918c-.008-.561-.031-1.117-.027-1.668.001-.521-.034-1.174.167-1.902a4.71 4.71 0 0 1 2.484-3.04 4.822 4.822 0 0 1 1.857-.493c.343-.018.572-.008.817-.004l.732.024c.968.034 1.903.072 2.8.137 1.795.117 3.44.279 4.898.394.726.078 1.421.065 2.104.289.65.208 1.172.558 1.577.926a4.239 4.239 0 0 1 1.238 2.155c.054.284.079.503.08.652.01.15.009.225.009.225zm-.2 0s-.001-.073-.016-.213a3.706 3.706 0 0 0-.097-.613 3.457 3.457 0 0 0-1.259-1.92 3.205 3.205 0 0 0-1.475-.653c-.544-.114-1.233-.008-1.96.047-1.459.115-3.104.277-4.899.394-.897.065-1.832.103-2.8.137l-.732.024c-.246.004-.513.007-.668.025a2.758 2.758 0 0 0-1.052.32 2.868 2.868 0 0 0-1.376 1.74c-.1.316-.107.77-.102 1.348.003.55-.02 1.107-.028 1.668l-.152 6.918c-.03 1.178-.078 2.365-.135 3.557-.03.614-.082 1.166-.041 1.713.034.552.11 1.11.263 1.65a8.345 8.345 0 0 0 1.544 3.004 7.803 7.803 0 0 0 2.693 2.064c1.034.467 2.168.728 3.27.724a7.916 7.916 0 0 0 3.156-.685c1.952-.844 3.35-2.419 4.172-4.062.43-.811.672-1.725.81-2.528.094-.346.098-.967.127-1.32l.063-1.373c.1-1.795.256-3.44.366-4.898.12-1.459.217-2.73.253-3.777.056-1.047.058-1.87.065-2.43l.01-.86z"/><path class="st3" d="M256.75 329.25a4.62 4.62 0 0 1-6.4 4.7 7.81 7.81 0 0 1-7.8-7.8 4.62 4.62 0 0 1 6.4-4.7 7.81 7.81 0 0 1 7.8 7.8z"/><path class="st3" d="M244.35 326.65c0 3.7-3 6.7-6.7 6.7a5.38 5.38 0 0 1-2.2-.4 5.542 5.542 0 0 1-.2-1.8c0-3.7 3-6.7 6.7-6.7a5.38 5.38 0 0 1 2.2.4c.116.593.183 1.195.2 1.8z"/><path class="st3" d="M256.75 329.25a4.62 4.62 0 0 1-6.4 4.7 7.81 7.81 0 0 1-7.8-7.8 4.62 4.62 0 0 1 6.4-4.7 7.81 7.81 0 0 1 7.8 7.8z"/><path class="st7" d="M248.95 322.75a6.59 6.59 0 0 1 6.6 6.58v.02"/><g class="st10"><path class="st11" d="M250.25 337.55c1.05 0 1.9.85 1.9 1.9"/></g><path class="st12" d="M242.15 352.65v3.5a1 1 0 0 0 1.7.7l1.2-1.2m5.2-3v3.5a1 1 0 0 1-1.7.7l-1.2-1.2m.7 12.3l-1.9 1.4-1.8-1.4.4-9.6 1.4-1.4 1.4 1.4zm-1.9-11v-1"/><path class="st6" d="M282.35 352.55h-3.3v1a2.33 2.33 0 0 1-1.3 2.1c-.679.4-1.521.4-2.2 0a2.44 2.44 0 0 1-1.2-2.1v-1h-3.4a4.8 4.8 0 0 0-4.8 4.8v8.3a4.8 4.8 0 0 0 4.8 4.8h11.4a4.8 4.8 0 0 0 4.8-4.8v-8.3a4.87 4.87 0 0 0-4.8-4.8zm0 0h-3.3v1a2.33 2.33 0 0 1-1.3 2.1c-.679.4-1.521.4-2.2 0a2.44 2.44 0 0 1-1.2-2.1v-1h-3.4a4.8 4.8 0 0 0-4.8 4.8v8.3a4.8 4.8 0 0 0 4.8 4.8h11.4a4.8 4.8 0 0 0 4.8-4.8v-8.3a4.87 4.87 0 0 0-4.8-4.8zm-5.7 16.8l-1.8-1.4.4-9.7 1.4-1.4 1.4 1.4.4 9.7-1.8 1.4z"/><path class="st3" d="M282.411 352.877l-.061.012-3.3.66 1-.999-.015.9-.008.256a4.34 4.34 0 0 1-.035.336 3.304 3.304 0 0 1-1.826 2.451l.06-.033a3.103 3.103 0 0 1-2.994.06l-.113-.062-.114-.07a3.263 3.263 0 0 1-.58-.467 3.353 3.353 0 0 1-.962-2.242v-.4l.008-.729.879.88c-1.263-.005-2.606-.049-3.802-.02-.989.07-2.05.617-2.701 1.448a3.98 3.98 0 0 0-.732 1.405c-.154.529-.167.996-.161 1.685l-.014 3.845-.014 3.845a4.014 4.014 0 0 0 1.209 2.904 3.996 3.996 0 0 0 2.955 1.145l3.846-.028 7.65-.019a4.003 4.003 0 0 0 2.798-1.372c.352-.404.622-.879.787-1.388a4.53 4.53 0 0 0 .17-.784c.022-.258.03-.535.03-.874l.083-7.69c.004-.608-.073-1.111-.27-1.635a4.214 4.214 0 0 0-.87-1.4c-.764-.793-1.745-1.291-2.903-1.62zm.04-.646c1.358-.26 2.838.33 3.805 1.358a5.541 5.541 0 0 1 1.187 1.817c.276.67.402 1.452.403 2.125l.083 7.69c.008.302 0 .666-.032 1.047-.044.37-.12.736-.231 1.093a5.59 5.59 0 0 1-5 3.871c-1.362.033-2.586.014-3.885.023l-3.845-.014-3.846-.028c-1.438.02-2.964-.539-4.018-1.58a5.56 5.56 0 0 1-1.698-3.995l-.014-3.845-.014-3.845c-.013-.59-.006-1.421.209-2.126a5.639 5.639 0 0 1 4.908-4.088c1.365-.06 2.586-.04 3.887-.063l.87-.016.01.895.007.73c.002.108 0 .274.006.33a1.547 1.547 0 0 0 .743 1.233l.04.024-.01-.006.012.006.047.025a1.241 1.241 0 0 0 1.199-.052l.006-.005.054-.028a1.39 1.39 0 0 0 .723-1.05l.008-.112v-.194l-.014-.9-.02-1.204 1.02.204 3.3.66.1.02z"/><path class="st3" d="M282.411 352.877l-.061.012-3.3.66 1-.999-.015.9-.008.256a4.34 4.34 0 0 1-.035.336 3.304 3.304 0 0 1-1.826 2.451l.06-.033a3.103 3.103 0 0 1-2.994.06l-.113-.062-.114-.07a3.263 3.263 0 0 1-.58-.467 3.353 3.353 0 0 1-.962-2.242v-.4l.008-.729.879.88c-1.263-.005-2.606-.049-3.802-.02-.989.07-2.05.617-2.701 1.448a3.98 3.98 0 0 0-.732 1.405c-.154.529-.167.996-.161 1.685l-.014 3.845-.014 3.845a4.014 4.014 0 0 0 1.209 2.904 3.996 3.996 0 0 0 2.955 1.145l3.846-.028 7.65-.019a4.003 4.003 0 0 0 2.798-1.372c.352-.404.622-.879.787-1.388a4.53 4.53 0 0 0 .17-.784c.022-.258.03-.535.03-.874l.083-7.69c.004-.608-.073-1.111-.27-1.635a4.214 4.214 0 0 0-.87-1.4c-.764-.793-1.745-1.291-2.903-1.62zm.04-.646c1.358-.26 2.838.33 3.805 1.358a5.541 5.541 0 0 1 1.187 1.817c.276.67.402 1.452.403 2.125l.083 7.69c.008.302 0 .666-.032 1.047-.044.37-.12.736-.231 1.093a5.59 5.59 0 0 1-5 3.871c-1.362.033-2.586.014-3.885.023l-3.845-.014-3.846-.028c-1.438.02-2.964-.539-4.018-1.58a5.56 5.56 0 0 1-1.698-3.995l-.014-3.845-.014-3.845c-.013-.59-.006-1.421.209-2.126a5.639 5.639 0 0 1 4.908-4.088c1.365-.06 2.586-.04 3.887-.063l.87-.016.01.895.007.73c.002.108 0 .274.006.33a1.547 1.547 0 0 0 .743 1.233l.04.024-.01-.006.012.006.047.025a1.241 1.241 0 0 0 1.199-.052l.006-.005.054-.028a1.39 1.39 0 0 0 .723-1.05l.008-.112v-.194l-.014-.9-.02-1.204 1.02.204 3.3.66.1.02z"/><path class="st3" d="M276.442 369.618c-.48-.004-.943-.027-1.297-.19-.168-.094-.315-.214-.474-.32a8.06 8.06 0 0 1-.46-.335l-.415-.326.013-.54c.018-.809.114-1.615.21-2.42.1-.806.173-1.613.208-2.42l.248-4.849.015-.31.211-.207 1.414-1.386.55-.54.52.54c.458.475.947.92 1.42 1.38l.207.201.023.322c.113 1.615.135 3.233.203 4.85.06 1.617.104 3.234.1 4.854v.382l-.265.19-.927.666c-.314.215-.656.394-1.109.431l-.326.027h-.07zm.274-.997a2.73 2.73 0 0 1 .438-.48l.873-.735-.265.572a122.62 122.62 0 0 1-.3-4.845c-.065-1.617-.176-3.232-.197-4.85l.23.522c-.46-.473-.905-.962-1.38-1.42h1.07l-1.386 1.414.226-.517-.152 4.852a30.3 30.3 0 0 0 .008 2.43c.03.81.059 1.621.01 2.429l-.4-.866c.15.116.296.238.438.365.141.127.294.241.426.38.161.2.267.462.361.749z"/><path class="st6" d="M278.05 358.35l.4 9.6-1.8 1.4-1.8-1.4.4-9.6 1.4-1.4z"/><path class="st5" d="M279.05 352.55v1a2.33 2.33 0 0 1-1.3 2.1c-.679.4-1.521.4-2.2 0a2.44 2.44 0 0 1-1.2-2.1v-1h4.7z"/><path class="st5" d="M279.05 346.15v7.4a2.33 2.33 0 0 1-1.3 2.1c-.679.4-1.521.4-2.2 0a2.44 2.44 0 0 1-1.2-2.1v-7.4a2.43 2.43 0 0 1 2.4-2.4 2.61 2.61 0 0 1 1.7.7 2.89 2.89 0 0 1 .6 1.7z"/><path class="st3" d="M268.05 342.15a1.32 1.32 0 0 1-1.3-1.3v-8.3a1.32 1.32 0 0 1 1.3-1.3 1.32 1.32 0 0 1 1.3 1.3v8.3a1.21 1.21 0 0 1-1.3 1.3zm17.2 0a1.32 1.32 0 0 1-1.3-1.3v-8.3a1.32 1.32 0 0 1 1.3-1.3 1.32 1.32 0 0 1 1.3 1.3v8.3a1.32 1.32 0 0 1-1.3 1.3z"/><circle class="st3" cx="279.35" cy="329.25" r="7.8"/><path class="st3" d="M278.95 331.15a6.69 6.69 0 0 1-13.1 1.9 5.542 5.542 0 0 1-.2-1.8c0-3.7 3-6.7 6.7-6.7a5.38 5.38 0 0 1 2.2.4 6.4 6.4 0 0 1 4.4 6.2z"/><path class="st6" d="M285.45 329.35v13.5a8.81 8.81 0 0 1-8.8 8.8 9.16 9.16 0 0 1-4.3-1.1 8.75 8.75 0 0 1-4.5-7.6v-13.6a3.8 3.8 0 0 1 3.8-3.8h9.9a3.82 3.82 0 0 1 3.9 3.8z"/><path class="st3" d="M285.55 329.35l.01.86c.007.561.01 1.384.065 2.43.036 1.048.133 2.32.254 3.777.11 1.459.266 3.104.365 4.899l.063 1.374c-.017.577.016.916-.076 1.521a8.577 8.577 0 0 1-1.024 3.145c-1.091 1.989-3.074 3.562-5.353 4.254a10.164 10.164 0 0 1-7.047-.495c-2.213-1.006-4.111-2.89-5.025-5.277-.24-.59-.4-1.214-.513-1.846-.118-.64-.132-1.286-.168-1.863-.057-1.192-.105-2.38-.135-3.557l-.152-6.918c-.008-.561-.031-1.117-.027-1.668.002-.521-.034-1.174.167-1.902a4.71 4.71 0 0 1 2.484-3.04 4.822 4.822 0 0 1 1.857-.493c.343-.018.572-.008.817-.004l.732.024c.968.034 1.902.072 2.8.137 1.795.117 3.44.279 4.898.394.726.078 1.421.065 2.104.289.65.208 1.172.558 1.577.926a4.239 4.239 0 0 1 1.238 2.155c.054.284.079.503.08.652.01.15.009.225.009.225zm-.2 0s-.001-.073-.016-.213a3.698 3.698 0 0 0-.097-.613 3.457 3.457 0 0 0-1.26-1.92 3.206 3.206 0 0 0-1.474-.653c-.544-.114-1.233-.008-1.96.047-1.459.115-3.104.277-4.9.394-.897.065-1.831.103-2.799.137l-.732.024c-.246.004-.513.007-.668.025a2.758 2.758 0 0 0-1.052.32 2.868 2.868 0 0 0-1.376 1.74c-.1.316-.107.77-.102 1.348.003.55-.02 1.107-.028 1.668l-.152 6.918c-.03 1.178-.078 2.365-.135 3.557-.03.614-.082 1.166-.041 1.713.035.552.11 1.11.263 1.65a8.346 8.346 0 0 0 1.544 3.004 7.803 7.803 0 0 0 2.693 2.064c1.034.467 2.168.728 3.27.724a7.916 7.916 0 0 0 3.156-.685c1.952-.844 3.35-2.419 4.172-4.062.43-.811.672-1.725.81-2.528.094-.346.098-.967.127-1.32l.063-1.373c.1-1.795.256-3.44.366-4.898.12-1.459.217-2.73.253-3.777.056-1.047.058-1.87.064-2.43l.011-.86z"/><path class="st3" d="M287.15 329.25a4.62 4.62 0 0 1-6.4 4.7 7.81 7.81 0 0 1-7.8-7.8 4.62 4.62 0 0 1 6.4-4.7 7.81 7.81 0 0 1 7.8 7.8z"/><path class="st3" d="M274.75 326.65c0 3.7-3 6.7-6.7 6.7a5.38 5.38 0 0 1-2.2-.4 5.54 5.54 0 0 1-.2-1.8c0-3.7 3-6.7 6.7-6.7a5.38 5.38 0 0 1 2.2.4c.116.593.183 1.195.2 1.8z"/><path class="st3" d="M287.15 329.25a4.62 4.62 0 0 1-6.4 4.7 7.81 7.81 0 0 1-7.8-7.8 4.62 4.62 0 0 1 6.4-4.7 7.81 7.81 0 0 1 7.8 7.8z"/><path class="st7" d="M279.45 322.75a6.59 6.59 0 0 1 6.6 6.58v.02"/><g class="st10"><path class="st11" d="M280.75 337.55c1.05 0 1.9.85 1.9 1.9"/></g><path class="st12" d="M272.65 352.65v3.5a1 1 0 0 0 1.7.7l1.2-1.2m5.1-3v3.5a1 1 0 0 1-1.7.7l-1.2-1.2m.7 12.3l-1.8 1.4-1.8-1.4.4-9.6 1.4-1.4 1.4 1.4zm-1.8-11v-1"/><path class="st6" d="M311.35 352.55h-3.4v1a2.33 2.33 0 0 1-1.3 2.1c-.679.4-1.521.4-2.2 0a2.44 2.44 0 0 1-1.2-2.1v-1h-3.3a4.8 4.8 0 0 0-4.8 4.8v8.3a4.8 4.8 0 0 0 4.8 4.8h11.4a4.8 4.8 0 0 0 4.8-4.8v-8.3a4.94 4.94 0 0 0-4.8-4.8zm0 0h-3.4v1a2.33 2.33 0 0 1-1.3 2.1c-.679.4-1.521.4-2.2 0a2.44 2.44 0 0 1-1.2-2.1v-1h-3.3a4.8 4.8 0 0 0-4.8 4.8v8.3a4.8 4.8 0 0 0 4.8 4.8h11.4a4.8 4.8 0 0 0 4.8-4.8v-8.3a4.94 4.94 0 0 0-4.8-4.8zm-5.8 16.8l-1.8-1.4.4-9.7 1.4-1.4 1.4 1.4.4 9.7-1.8 1.4z"/><path class="st3" d="M311.399 352.875l-.049.014c-1.133.328-2.267.626-3.4.663l1.002-1.002.018.9v.258a3.494 3.494 0 0 1-.175.974 3.375 3.375 0 0 1-1.683 1.906l.068-.037a3.184 3.184 0 0 1-3.091.054l-.117-.066-.117-.073a3.315 3.315 0 0 1-.592-.483 3.368 3.368 0 0 1-.962-2.301c-.005-.192.004-.266.006-.402l.02-.73.923.922-1.919-.044-.96-.016-.436-.007c-.154.007-.332.007-.466.02-.979.074-2.03.655-2.664 1.49a3.97 3.97 0 0 0-.707 1.412c-.145.52-.147 1.013-.145 1.697l-.014 3.837-.012 3.798c0 1.14.458 2.154 1.24 2.912a4.003 4.003 0 0 0 2.968 1.115l3.837-.027 3.837-.014c1.26-.003 2.599.02 3.796-.006a4.006 4.006 0 0 0 3.736-3.548c.022-.257.03-.535.03-.874l.083-7.674a4.374 4.374 0 0 0-.281-1.625 4.282 4.282 0 0 0-.875-1.398c-.763-.794-1.746-1.301-2.899-1.645zm.035-.64c1.362-.25 2.839.349 3.807 1.378a5.611 5.611 0 0 1 1.187 1.807c.277.672.413 1.432.418 2.123l.083 7.674c.008.3 0 .663-.03 1.043-.044.37-.12.735-.23 1.091a5.589 5.589 0 0 1-4.983 3.88c-1.359.034-2.58.014-3.877.024l-3.837-.014-3.837-.027c-1.42.03-2.959-.512-4.018-1.54-1.081-.998-1.733-2.513-1.739-3.937l-.018-3.876-.014-3.837c-.008-.592-.016-1.393.185-2.112a5.6 5.6 0 0 1 .982-2c.924-1.196 2.275-1.978 3.846-2.174 1.386-.093 2.588-.052 3.89-.11l.896-.04.027.962.02.73c.005.107.006.276.014.327a1.48 1.48 0 0 0 .73 1.158l.039.023c-.007-.004.044.027-.012-.007l.011.005.044.022c.117.058.244.09.37.106.258.03.515-.037.732-.165l.034-.02.034-.017a1.32 1.32 0 0 0 .65-.722c.03-.077.053-.158.069-.24.005-.046.01-.026.015-.106l.008-.193.018-.9.02-1.035.982.032c1.133.037 2.267.335 3.4.663l.084.024z"/><path class="st3" d="M311.399 352.875l-.049.014c-1.133.328-2.267.626-3.4.663l1.002-1.002.018.9v.258a3.494 3.494 0 0 1-.175.974 3.375 3.375 0 0 1-1.683 1.906l.068-.037a3.184 3.184 0 0 1-3.091.054l-.117-.066-.117-.073a3.315 3.315 0 0 1-.592-.483 3.368 3.368 0 0 1-.962-2.301c-.005-.192.004-.266.006-.402l.02-.73.923.922-1.919-.044-.96-.016-.436-.007c-.154.007-.332.007-.466.02-.979.074-2.03.655-2.664 1.49a3.97 3.97 0 0 0-.707 1.412c-.145.52-.147 1.013-.145 1.697l-.014 3.837-.012 3.798c0 1.14.458 2.154 1.24 2.912a4.003 4.003 0 0 0 2.968 1.115l3.837-.027 3.837-.014c1.26-.003 2.599.02 3.796-.006a4.006 4.006 0 0 0 3.736-3.548c.022-.257.03-.535.03-.874l.083-7.674a4.374 4.374 0 0 0-.281-1.625 4.282 4.282 0 0 0-.875-1.398c-.763-.794-1.746-1.301-2.899-1.645zm.035-.64c1.362-.25 2.839.349 3.807 1.378a5.611 5.611 0 0 1 1.187 1.807c.277.672.413 1.432.418 2.123l.083 7.674c.008.3 0 .663-.03 1.043-.044.37-.12.735-.23 1.091a5.589 5.589 0 0 1-4.983 3.88c-1.359.034-2.58.014-3.877.024l-3.837-.014-3.837-.027c-1.42.03-2.959-.512-4.018-1.54-1.081-.998-1.733-2.513-1.739-3.937l-.018-3.876-.014-3.837c-.008-.592-.016-1.393.185-2.112a5.6 5.6 0 0 1 .982-2c.924-1.196 2.275-1.978 3.846-2.174 1.386-.093 2.588-.052 3.89-.11l.896-.04.027.962.02.73c.005.107.006.276.014.327a1.48 1.48 0 0 0 .73 1.158l.039.023c-.007-.004.044.027-.012-.007l.011.005.044.022c.117.058.244.09.37.106.258.03.515-.037.732-.165l.034-.02.034-.017a1.32 1.32 0 0 0 .65-.722c.03-.077.053-.158.069-.24.005-.046.01-.026.015-.106l.008-.193.018-.9.02-1.035.982.032c1.133.037 2.267.335 3.4.663l.084.024z"/><path class="st3" d="M305.342 369.618c-.48-.004-.943-.027-1.297-.19-.168-.094-.315-.214-.474-.32a8.06 8.06 0 0 1-.46-.335l-.415-.326.013-.54c.018-.809.114-1.615.21-2.42.1-.806.174-1.613.209-2.42l.247-4.849.015-.31.211-.207 1.414-1.386.55-.54.52.54c.458.475.947.92 1.42 1.38l.207.201.022.322c.114 1.615.135 3.233.204 4.85.06 1.617.104 3.234.1 4.854v.382l-.265.19-.927.666c-.314.215-.656.394-1.109.431l-.326.027h-.07zm.274-.997c.128-.183.277-.34.438-.48l.873-.735-.265.572a122.62 122.62 0 0 1-.3-4.845c-.065-1.617-.176-3.232-.197-4.85l.23.522c-.46-.473-.905-.962-1.38-1.42h1.07l-1.386 1.414.226-.517-.153 4.852c-.031.808-.024 1.618.009 2.43.03.81.059 1.621.01 2.429l-.401-.866c.15.116.296.238.439.365.141.127.293.241.426.38.161.2.267.462.361.749z"/><path class="st6" d="M306.95 358.35l.5 9.6-1.9 1.4-1.8-1.4.5-9.6 1.3-1.4z"/><path class="st5" d="M307.95 352.55v1a2.33 2.33 0 0 1-1.3 2.1c-.679.4-1.521.4-2.2 0a2.44 2.44 0 0 1-1.2-2.1v-1h4.7z"/><path class="st5" d="M307.95 346.15v7.4a2.33 2.33 0 0 1-1.3 2.1c-.679.4-1.521.4-2.2 0a2.44 2.44 0 0 1-1.2-2.1v-7.4a2.43 2.43 0 0 1 2.4-2.4 2.61 2.61 0 0 1 1.7.7 2.35 2.35 0 0 1 .6 1.7z"/><path class="st3" d="M297.05 342.15a1.32 1.32 0 0 1-1.3-1.3v-8.3a1.32 1.32 0 0 1 1.3-1.3 1.32 1.32 0 0 1 1.3 1.3v8.3a1.21 1.21 0 0 1-1.3 1.3zm17.1 0a1.32 1.32 0 0 1-1.3-1.3v-8.3a1.32 1.32 0 0 1 1.3-1.3 1.32 1.32 0 0 1 1.3 1.3v8.3a1.21 1.21 0 0 1-1.3 1.3z"/><circle class="st3" cx="308.35" cy="329.25" r="7.8"/><path class="st3" d="M307.95 331.15a6.69 6.69 0 0 1-13.1 1.9 5.542 5.542 0 0 1-.2-1.8c0-3.7 3-6.7 6.7-6.7a5.38 5.38 0 0 1 2.2.4 6.53 6.53 0 0 1 4.4 6.2z"/><path class="st6" d="M314.35 329.35v13.5a8.81 8.81 0 0 1-8.8 8.8 9.16 9.16 0 0 1-4.3-1.1 8.75 8.75 0 0 1-4.5-7.6v-13.6a3.8 3.8 0 0 1 3.8-3.8h9.9a3.82 3.82 0 0 1 3.9 3.8z"/><path class="st3" d="M314.45 329.35l.01.86c.007.561.01 1.384.065 2.43.036 1.048.133 2.32.254 3.777.11 1.459.266 3.104.365 4.899l.063 1.374c-.017.577.016.916-.076 1.521a8.575 8.575 0 0 1-1.024 3.145c-1.091 1.989-3.074 3.562-5.353 4.254a10.163 10.163 0 0 1-7.047-.495c-2.213-1.006-4.111-2.89-5.025-5.277-.24-.59-.4-1.214-.513-1.846-.118-.64-.132-1.286-.168-1.863-.057-1.192-.105-2.38-.135-3.557l-.152-6.918c-.008-.561-.031-1.117-.027-1.668.001-.521-.034-1.174.167-1.902a4.71 4.71 0 0 1 2.484-3.04 4.823 4.823 0 0 1 1.857-.493c.343-.018.572-.008.817-.004l.732.024c.968.034 1.903.072 2.8.137 1.795.117 3.44.279 4.899.394.725.078 1.42.065 2.103.289.65.208 1.173.558 1.577.926a4.239 4.239 0 0 1 1.238 2.155c.055.284.079.503.08.652.01.15.009.225.009.225zm-.2 0s-.001-.073-.016-.213a3.706 3.706 0 0 0-.097-.613 3.457 3.457 0 0 0-1.26-1.92 3.205 3.205 0 0 0-1.474-.653c-.545-.114-1.233-.008-1.96.047-1.459.115-3.104.277-4.9.394-.897.065-1.831.103-2.799.137l-.732.024c-.246.004-.513.007-.669.025a2.758 2.758 0 0 0-1.05.32 2.868 2.868 0 0 0-1.377 1.74c-.1.316-.107.77-.102 1.348.003.55-.02 1.107-.028 1.668l-.152 6.918a158.52 158.52 0 0 1-.135 3.557c-.03.614-.082 1.166-.041 1.713.034.552.11 1.11.263 1.65a8.345 8.345 0 0 0 1.543 3.004c.735.868 1.665 1.597 2.694 2.064 1.034.467 2.168.728 3.27.724a7.915 7.915 0 0 0 3.155-.685c1.953-.844 3.35-2.419 4.173-4.062.429-.811.672-1.725.81-2.528.094-.346.097-.967.127-1.32l.063-1.373c.099-1.795.255-3.44.365-4.898.121-1.459.218-2.73.254-3.777.055-1.047.058-1.87.064-2.43l.011-.86z"/><path class="st3" d="M316.15 329.25a4.62 4.62 0 0 1-6.4 4.7 7.81 7.81 0 0 1-7.8-7.8 4.62 4.62 0 0 1 6.4-4.7 7.81 7.81 0 0 1 7.8 7.8z"/><path class="st3" d="M303.75 326.65c0 3.7-3 6.7-6.7 6.7a5.38 5.38 0 0 1-2.2-.4 5.54 5.54 0 0 1-.2-1.8c0-3.7 3-6.7 6.7-6.7a5.38 5.38 0 0 1 2.2.4c.116.593.183 1.195.2 1.8z"/><path class="st3" d="M316.15 329.25a4.62 4.62 0 0 1-6.4 4.7 7.81 7.81 0 0 1-7.8-7.8 4.62 4.62 0 0 1 6.4-4.7 7.81 7.81 0 0 1 7.8 7.8z"/><path class="st7" d="M308.35 322.75a6.59 6.59 0 0 1 6.6 6.58v.02"/><g class="st10"><path class="st11" d="M309.65 337.55c1.05 0 1.9.85 1.9 1.9"/></g><path class="st12" d="M301.55 352.65v3.5a1 1 0 0 0 1.7.7l1.2-1.2m5.2-3v3.5a1 1 0 0 1-1.7.7l-1.2-1.2m.7 12.3l-1.9 1.4-1.8-1.4.5-9.6 1.3-1.4 1.4 1.4zm-1.9-11v-1"/><circle class="st13" cx="276.15" cy="232.35" r="33.6"/><path class="st3" d="M276.167 198.411l2.38-.112c.389-.004.816-.063 1.3-.025l1.6.125c.575.055 1.212.072 1.865.188.648.126 1.333.28 2.057.45 2.851.785 6.295 2.044 9.754 4.346a34.675 34.675 0 0 1 9.763 9.765c2.78 4.256 4.823 9.522 5.467 15.303.107.719.084 1.454.138 2.187.014.748.123 1.444.057 2.247-.094 1.457-.08 2.904-.38 4.447-.376 3.077-1.344 6.037-2.577 8.954-1.262 2.91-3.049 5.618-5.09 8.15-2.106 2.49-4.604 4.674-7.34 6.554-2.779 1.83-5.847 3.228-9.047 4.25-3.228.96-6.594 1.393-9.964 1.466-1.73-.119-3.293-.08-5.012-.405-.834-.15-1.703-.195-2.507-.438l-2.445-.622c-3.202-1.017-6.272-2.413-9.053-4.241-2.74-1.878-5.243-4.06-7.342-6.557-2.037-2.537-3.818-5.248-5.074-8.16-1.225-2.91-2.191-5.903-2.555-8.932-.294-1.5-.284-3.012-.375-4.496-.006-.203-.024-.333-.02-.595l.027-.542.055-1.08c.054-.72.035-1.42.148-2.146a34.842 34.842 0 0 1 5.605-15.218c2.836-4.197 6.347-7.354 9.77-9.594 3.422-2.283 6.833-3.52 9.651-4.31l2.027-.49c.64-.13 1.255-.182 1.818-.267.564-.081 1.09-.124 1.57-.18.479-.05.92-.02 1.312-.034 1.572.009 2.4.045 2.4.045l.017-.033zm-.017.644s-.818.12-2.334.284c-.379.046-.805.054-1.266.142-.46.087-.96.201-1.503.288-.54.103-1.13.173-1.742.32l-1.938.529c-2.705.781-5.974 1.992-9.241 4.21-3.27 2.176-6.614 5.23-9.298 9.268-2.66 4.022-4.61 9.072-5.265 14.502-.109.674-.091 1.411-.143 2.12l-.054 1.08-.027.542.024.492c.091 1.417.078 2.862.365 4.29.348 2.89 1.278 5.741 2.447 8.514 1.2 2.775 2.906 5.355 4.849 7.772 2.01 2.373 4.385 4.463 6.989 6.269 2.645 1.754 5.569 3.098 8.62 4.089l2.33.606c.775.24 1.569.275 2.352.425 1.522.325 3.278.287 4.835.396 3.224-.082 6.438-.501 9.518-1.426 3.052-.986 5.978-2.327 8.626-4.08 2.606-1.803 4.986-3.892 6.99-6.272 1.938-2.423 3.638-5.006 4.832-7.783 1.162-2.764 2.09-5.648 2.426-8.49.281-1.386.271-2.896.36-4.34.06-.65-.048-1.396-.062-2.083-.052-.697-.039-1.398-.153-2.08-.702-5.49-2.717-10.44-5.403-14.418-2.713-3.979-6.058-6.963-9.305-9.095-3.23-2.2-6.467-3.389-9.138-4.176a49.28 49.28 0 0 1-1.908-.569c-.6-.16-1.166-.265-1.694-.397l-1.474-.344c-.455-.1-.897-.138-1.277-.2l-2.355-.352.017-.033zm-124.1 45.155s1.087-.586 2.99-.655c1.904-.073 4.623-.063 7.885.038 3.263.121 7.069.143 11.147.15l12.778.05 6.491-.038c2.141 0 4.248-.002 6.287-.003 4.078.01 7.885.007 11.147.06l7.884.09c1.904.015 2.991.343 2.991.343a.319.319 0 0 1 0 .61s-1.087.327-2.99.342l-7.885.091c-3.263.053-7.069.05-11.147.06l-6.287-.003-6.491-.038-12.778.05c-4.078.007-7.884.029-11.147.15-3.262.1-5.981.11-7.884.038-1.903-.07-2.991-.656-2.991-.656a.385.385 0 0 1 0-.678zm168.92-140.348s.123 1.435-.572 3.63c-.686 2.2-1.78 5.3-3.172 8.993-1.413 3.686-2.95 8.026-4.579 12.682l-5.132 14.577-2.548 7.426c-.851 2.446-1.688 4.852-2.5 7.181-1.632 4.655-3.144 9.003-4.492 12.712l-3.224 8.974c-.77 2.17-1.513 3.304-1.513 3.304a.315.315 0 0 1-.576-.201s.124-1.35.867-3.529l3.052-9.034c1.249-3.744 2.767-8.09 4.38-12.75l2.505-7.18 2.62-7.401 5.038-14.61c1.616-4.66 3.11-9.015 4.294-12.78 1.205-3.76 2.275-6.869 3.104-9.017.82-2.152 1.808-3.2 1.808-3.2a.371.371 0 0 1 .64.223zm103.48 232.662s-1.886-.65-4.619-2.566c-2.738-1.907-6.578-4.73-11.137-8.185-4.545-3.473-9.919-7.429-15.686-11.653l-18.054-13.26c-6.165-4.488-12.33-8.976-18.109-13.185-5.765-4.227-11.154-8.162-15.74-11.579l-11.104-8.23c-2.685-1.98-4.031-3.37-4.031-3.37a.31.31 0 0 1 .36-.492s1.732.86 4.434 2.817l11.212 8.083c4.648 3.333 10.033 7.273 15.81 11.483l18.06 13.252 18.114 13.178c5.776 4.214 11.175 8.133 15.864 11.41 4.676 3.295 8.531 6.097 11.18 8.127 2.654 2.022 3.846 3.622 3.846 3.622a.355.355 0 0 1-.4.548zm-284-152.114s.484-.586 1.332-.655c.848-.062 2.059-.08 3.512.038.726.048 1.513.108 2.346.123l2.619.027 5.691.05c.969.006 1.937-.024 2.891-.046l2.8.005c1.817.01 3.512.012 4.965.044 1.453.022 2.664.083 3.512.106.848.016 1.332.343 1.332.343a.368.368 0 0 1 0 .61s-.485.327-1.332.343c-.848.022-2.059.084-3.512.106-1.453.032-3.148.034-4.965.044l-2.8.005c-.954-.022-1.922-.052-2.891-.046l-5.691.05-2.62.027c-.832.014-1.619.075-2.345.123-1.453.118-2.664.1-3.512.038a2.06 2.06 0 0 1-1.332-.656.532.532 0 0 1 0-.678zm0 6.2c0-.007.088-.132.254-.304.165-.155.408-.315.717-.351.618-.062 1.5-.08 2.56.038 1.06.127 2.296.141 3.62.161 1.324.032 2.736.032 4.149.041.706.011 1.413-.023 2.108-.048l2.041.005c1.324.01 2.56.012 3.62.044 1.06.022 1.942.083 2.56.106.618.016.971.343.971.343a.416.416 0 0 1 0 .61s-.353.327-.971.343c-.618.023-1.5.084-2.56.106-1.06.032-2.296.034-3.62.044l-2.041.005c-.696-.025-1.402-.06-2.108-.049-1.413.01-2.825.01-4.15.041-1.323.02-2.56.035-3.619.162-1.06.118-1.942.1-2.56.038a1.28 1.28 0 0 1-.717-.352 1.895 1.895 0 0 1-.254-.304.614.614 0 0 1 0-.678zm105.4 202.501s.453-.587 1.246-.656c.793-.062 1.926-.08 3.285.038.68.048 1.416.108 2.195.123l2.45.027 5.324.05c.906.006 1.813-.024 2.705-.046l2.62.005c1.698.01 3.284.012 4.644.044 1.36.022 2.492.083 3.285.106.793.016 1.246.343 1.246.343a.376.376 0 0 1 0 .61s-.453.327-1.246.343c-.793.023-1.926.084-3.285.106-1.36.032-2.946.034-4.645.044l-2.62.005c-.891-.022-1.798-.052-2.704-.046l-5.324.05-2.45.027c-.779.014-1.515.075-2.195.123-1.36.118-2.492.1-3.285.038a1.898 1.898 0 0 1-1.246-.656.555.555 0 0 1 0-.678zm0 6.199c0-.007.08-.132.23-.304.15-.155.37-.315.65-.351a10.26 10.26 0 0 1 2.323.038c.961.127 2.082.141 3.283.161 1.201.032 2.483.032 3.764.041.64.011 1.281-.023 1.912-.048l1.852.005c1.2.01 2.322.012 3.283.044.96.022 1.762.083 2.322.106.56.016.881.343.881.343a.436.436 0 0 1 0 .61s-.32.327-.88.343c-.561.022-1.362.084-2.323.106-.961.032-2.082.034-3.283.044l-1.852.005c-.63-.025-1.271-.06-1.912-.049-1.281.01-2.563.01-3.764.041-1.2.02-2.322.035-3.283.162-.96.118-1.762.1-2.322.038-.28-.036-.5-.197-.65-.352a1.874 1.874 0 0 1-.231-.304.659.659 0 0 1 0-.678zm165-165.9s.438-.586 1.203-.655c.766-.062 1.86-.08 3.172.038.656.048 1.367.108 2.12.123l2.364.027 5.14.05c.876.006 1.75-.024 2.612-.046l2.53.005c1.64.01 3.171.012 4.484.044 1.312.022 2.406.083 3.172.106.765.016 1.203.343 1.203.343a.38.38 0 0 1 0 .61s-.438.327-1.203.343c-.766.023-1.86.084-3.172.106-1.313.032-2.844.034-4.484.044l-2.53.005c-.861-.022-1.736-.052-2.611-.046l-5.14.05-2.366.027c-.752.015-1.463.075-2.119.123-1.313.118-2.406.1-3.172.038-.765-.07-1.203-.656-1.203-.656a.568.568 0 0 1 0-.678zm0 6.2c0-.007.077-.132.22-.304.144-.155.354-.315.622-.351a9.382 9.382 0 0 1 2.22.038c.92.127 1.991.141 3.14.161 1.148.032 2.373.032 3.598.041.613.011 1.225-.023 1.828-.048l1.77.005c1.149.01 2.22.012 3.14.044.918.022 1.684.083 2.22.106.536.016.842.343.842.343.162.172.16.44 0 .61 0 0-.306.327-.842.343-.536.023-1.302.084-2.22.106-.92.032-1.991.034-3.14.044l-1.77.005c-.603-.024-1.215-.059-1.828-.048-1.225.01-2.45.009-3.598.04-1.149.02-2.22.035-3.14.162-.918.118-1.684.1-2.22.038-.268-.036-.478-.196-.622-.351a1.878 1.878 0 0 1-.22-.305.682.682 0 0 1 0-.678zm30 129.8c0-.007.084-.132.24-.304.157-.155.387-.315.68-.351.585-.062 1.42-.08 2.424.038 1.003.127 2.173.141 3.427.161 1.254.032 2.592.032 3.93.041.668.01 1.337-.024 1.995-.048l1.933.005c1.254.01 2.424.012 3.427.044 1.003.022 1.84.083 2.425.106.585.016.92.343.92.343a.427.427 0 0 1 .006.603l-.007.007s-.334.327-.92.343c-.585.022-1.42.084-2.424.106-1.003.032-2.173.034-3.427.044l-1.933.005c-.658-.025-1.327-.06-1.996-.049-1.337.01-2.675.01-3.929.041-1.254.02-2.424.035-3.427.162-1.003.118-1.84.1-2.424.038a1.189 1.189 0 0 1-.68-.352 1.886 1.886 0 0 1-.24-.304.639.639 0 0 1 0-.678zm0 3.701c0-.008.064-.133.184-.305.12-.155.297-.315.52-.351a6.58 6.58 0 0 1 1.859.038c.768.127 1.665.141 2.626.161.961.032 1.986.032 3.011.041.512.011 1.025-.023 1.53-.048l1.48.005c.962.01 1.859.012 2.628.044.768.022 1.409.083 1.857.106a1 1 0 0 1 .705.343.495.495 0 0 1 0 .61s-.256.327-.705.343c-.448.023-1.089.084-1.858.106-.768.032-1.665.034-2.626.044l-1.481.005c-.505-.025-1.017-.06-1.53-.049-1.025.01-2.05.01-3.01.041-.962.02-1.859.035-2.628.162a6.58 6.58 0 0 1-1.857.038c-.224-.036-.4-.197-.52-.352a1.916 1.916 0 0 1-.185-.304.788.788 0 0 1 0-.678zm-331-106.701c0-.007.08-.132.23-.304.148-.155.368-.315.647-.351a10.16 10.16 0 0 1 2.31.038c.957.127 2.072.141 3.268.161 1.195.032 2.47.032 3.745.041.637.011 1.275-.024 1.903-.048l1.842.005c1.196.01 2.311.012 3.267.044.957.022 1.754.083 2.311.106.558.016.877.343.877.343a.438.438 0 0 1 0 .61s-.319.327-.877.343c-.557.022-1.354.084-2.31.106-.957.032-2.072.034-3.268.044l-1.843.005c-.627-.025-1.264-.06-1.902-.049-1.275.01-2.55.01-3.745.041-1.196.02-2.311.035-3.268.162-.956.118-1.753.1-2.31.038-.28-.036-.498-.197-.648-.352a1.88 1.88 0 0 1-.229-.304.662.662 0 0 1 0-.678zm0 3.701c0-.008.06-.133.173-.305.113-.155.278-.315.489-.351a5.805 5.805 0 0 1 1.744.038c.722.127 1.564.141 2.467.161.902.032 1.865.032 2.827.041.481.011.963-.023 1.436-.048l1.391.005c.903.01 1.745.012 2.467.044.722.022 1.323.083 1.744.106a.925.925 0 0 1 .662.343.515.515 0 0 1 0 .61s-.24.327-.662.343c-.42.023-1.023.084-1.744.106-.722.032-1.564.034-2.467.044l-1.39.005c-.474-.025-.956-.06-1.437-.049-.963.01-1.925.01-2.827.041-.903.02-1.745.035-2.467.162-.722.118-1.323.1-1.744.038-.21-.036-.376-.197-.489-.352a1.953 1.953 0 0 1-.173-.304.829.829 0 0 1 0-.678zm188-162.501c0-.007.068-.132.195-.304.128-.155.315-.315.553-.351a7.402 7.402 0 0 1 1.97.038c.816.127 1.768.141 2.787.161 1.02.032 2.107.032 3.195.041.544.011 1.087-.024 1.623-.048l1.571.005c1.02.01 1.972.012 2.787.044.816.022 1.495.083 1.971.106.476.016.748.343.748.343.15.18.145.437 0 .61 0 0-.272.327-.748.343-.476.023-1.155.084-1.97.106-.816.032-1.768.034-2.788.044l-1.571.005c-.536-.024-1.08-.059-1.623-.048-1.088.01-2.175.009-3.195.04-1.02.02-1.97.035-2.786.162-.816.118-1.496.1-1.971.038-.238-.036-.425-.196-.553-.351a1.9 1.9 0 0 1-.195-.305.754.754 0 0 1 0-.678zm0 3.8l.138-.303c.09-.157.222-.313.39-.352.337-.067.817-.079 1.394.038.577.126 1.25.141 1.97.161.72.032 1.49.031 2.258.041.384.01.769-.024 1.147-.048.379-.01.75.002 1.111.005.72.01 1.394.012 1.97.044.577.022 1.057.083 1.393.106.337.016.529.343.529.343a.603.603 0 0 1 0 .61s-.192.327-.529.343c-.336.023-.816.084-1.393.106-.576.032-1.25.034-1.97.044-.36.003-.732.014-1.11.005-.38-.025-.764-.06-1.148-.048-.769.01-1.538.009-2.258.04-.72.02-1.394.035-1.97.162-.577.116-1.057.105-1.393.038-.169-.039-.3-.195-.39-.352l-.139-.304a.825.825 0 0 1 0-.678z"/><g class="st14"><path class="st15" d="M256.007 216.827c.215.215 4.398-4.847 4.622-4.623.472.472-9.414 12.653-8.912 13.155.87.87 16.616-18.267 17.442-17.441.84.84-19.18 21.72-18.329 22.57 1.17 1.17 22.367-24.55 23.459-23.458 1.09 1.09-24.505 26.578-23.42 27.663 1.185 1.185 26.338-28.91 27.624-27.624 1.318 1.318-28.34 29.95-27.023 31.266 1.489 1.489 29.356-31.974 30.665-30.665 1.34 1.34-30.94 32.625-29.661 33.903 1.411 1.411 31.538-34.26 32.899-32.9 1.497 1.498-33.057 34.342-31.578 35.821 1.5 1.5 32.86-36.137 34.499-34.498 1.418 1.418-34.46 35.53-32.874 37.116 1.744 1.744 33.824-37.16 35.492-35.492 1.52 1.52-35.216 36.164-33.569 37.811 1.663 1.663 34.312-37.464 35.889-35.888 1.533 1.534-35.302 36.414-33.737 37.98 1.78 1.78 34.229-37.426 35.828-35.828 1.5 1.5-35.062 36.072-33.446 37.688 1.595 1.595 33.618-36.994 35.306-35.306 1.684 1.684-34.327 35.279-32.681 36.924 1.482 1.482 32.722-35.876 34.3-34.3 1.349 1.35-32.897 33.981-31.318 35.56 1.433 1.434 31.046-34.11 32.578-32.577 1.462 1.462-30.696 32.068-29.26 33.503 1.268 1.269 28.841-31.53 30.185-30.186 1.242 1.242-27.753 29.382-26.446 30.69 1.143 1.143 25.746-28.154 26.95-26.95 1.213 1.213-23.825 25.652-22.618 26.86 1.028 1.027 21.563-23.493 22.528-22.528.783.784-18.01 20.65-17.208 21.45.66.66 15.364-16.898 16.131-16.131"/></g></svg>