<svg xmlns="http://www.w3.org/2000/svg" viewBox="-30 159.5 160 41"><path fill="#FFF" d="M76.9 181.1s-.7.5-2.3 1.6c-.5.7-.2 1.2.2 1.2 1.2 0 3.3-2.5 2.1-2.8zm52.5-3c.9.7.7 1.8-.2 2.3-2.5 1.6-5.8 3.2-8.3 4.2-2.1.7-7.6 2.3-9.5 1.8-.2 0-1.2-.2-1.2-1.2 0-1.6 1.4-1.4 2.8-2.8s1.4-1.6 1.6-2.1c-3.7 0-5.8 2.8-8.3 8.3-1.4 2.8-3.2 8.1-3.5 9.9-.2 1.4-1.8 1.8-3 1.4-1.4-.7 0-3.2.9-5.3 2.3-4.9 4.6-10.4 6-12.7-2.3 1.4-10.4 5.8-12.7 3.9-1.8-1.4-.7-3.2.2-4.9-2.3 0-4.4-1.4-4.6-1.6-3.2 4.6-8.3 3.7-9.5 3-.7 1.4-2.5 3.9-5.5 4.2-2.3 0-2.5-2.3-2.5-2.8-2.3 1.2-9.2 4.9-12.7 2.1-2.8-2.3-1.8-7.2 2.1-13.4 4.4-6.9 8.3-8.5 10.6-7.4 3.2 1.8 2.1 6.7 0 9.7-.5.5-.9 1.2-1.6 1.4-.2 0-.9.2-1.4-.2-.2-.5-.9-1.2-.5-2.5 0 0 .7 0 2.1-2.3l.2-.2c.7-1.4.5-2.3 0-2.8-.7-.7-2.5-.7-6.7 5.8-2.8 4.2-3.9 8.5-2.5 9.7 1.8 1.6 10.4-2.1 11.6-3.5.7-.7 1.8-2.8 5.3-2.3 1.2.2 1.6 1.4 1.8 2.1 1.4.9 5.3.9 6.7-2.1.2-.7.2-1.2 0-1.8.9-.5 2.3-.7 3 .2 1.2 1.8 2.8 2.8 4.9 2.3 1.4-.5 2.3-.5 2.8.5.2.7.2 1.4-.2 1.8-.7.7-2.1 2.3-1.6 2.8s6.9-1.8 12-6.2c.2-.2.5-.7.5-1.8 1.2-.5 3.2-.2 3.5.9.2.9-.5 1.8-.7 2.3 2.3-.9 4.6-1.4 6-.5 2.3 1.6-.9 4.6-2.3 5.5 4.4-.9 8.5-2.8 11.6-5.3.4-.5.9-.9.9-.9s.9-.2 1.8.2l.1.3zm-80.9-3.4c-.5 1.2-1.2 1.6-2.8 1.2-.7-.2-3-.5-3.5.5-.9 2.3 1.8 4.9 3.9 7.2.5.5.7 1.4.5 2.1-.2.7-1.2 1.6-2.3 1.4-1.6-.2-5.8-.9-7.4-.9-.9 0-1.6-.2-1.8-.7-.2-.5 0-1.4.5-1.8.5-.5.9-.9 1.6-.9H37h.2s.2.5 1.2.7c.5 0 .7.2 1.2.2 1.6.2 3.2.5 3.9.2-.2-.2-1.4-1.4-2.3-2.5-1.6-2.1-2.1-3.9-1.4-5.5.9-2.1 3.5-2.8 5.5-3 3.4-.5 3.9 1.1 3.2 1.8zm-50.1 3.9c1.2-.2 2.8-.9 4.2-1.8.7-.5 1.2-1.2.9-1.4-.5-.7-4 .6-5.1 3.2zm39.5 1.8c-.7.5-2.1.7-3.5.5-3 .7-4.2 0-4.6 0-.5 0-1.6 1.2-2.1 1.8-.5.7-3 3.9-5.1 3.9-2.3 0-3-3.7-3-3.7s-2.5 3.7-4.9 3.7c-1.8 0-2.5-3.5-2.8-4.4-.5.2-6 4.2-10.6 4.4-5.8.2-6.9-2.8-7.2-4.4-1.4 0-2.3-.2-2.8-.5-.7-.2-1.4-1.2-.9-2.1.2-.7.5-.9 1.2-1.2 0 0 0 .2.7.5s1.6.2 2.1 0c2.1-5.5 6.2-6.7 8.8-6.7 1.2 0 2.8.7 2.8 2.3 0 1.2-.9 2.3-2.3 3.5-1.2.9-3.2 2.3-6.5 3.5.2.9.7 2.8 4.4 2.5 3.2-.2 6.7-2.5 8.3-3.7 0 0 1.6-1.2 1.8-2.1v-.5s.9-.5 1.6-.2c1.8.2 1.6 2.3 1.6 2.3 0 1.4.5 3 1.2 3s1.8-1.6 3.5-3.5c.5-.5.7-1.8 1.6-1.8 1.2 0 1.6.9 1.6 1.8 0 2.1.2 3.9.9 3.9s2.3-1.8 3-2.8c1.4-1.8 1.8-2.5 3-2.5s1.6.7 3.2.7c1.8-.2 2.3-.7 2.8-.9.7-.2 1.8-.2 2.5.5s.6 1.8-.3 2.2zM-.5 163.1c-.5 1.2-2.1 2.8-2.3 3.2-4.2 5.3-9 15.2-10.6 19.4-.5 1.2-1.2 1.4-2.3 1.2-1.4-.2-1.4-.7-1.4-2.3-.2-2.5-.9-3.9-1.4-7.2-.2-1.6-.5-3.9-.5-5.8-1.6 3.2-3.5 6.7-4.9 9.5 0 .2-.2.2-.2.5 0 .2-.2.2-.2.5-.5.7-.7 1.4-.9 1.8-.9 2.1-.5 2.3-.5 2.3s-.2.2-.2.5c-.7.9-1.8 1.2-3.2.7-1.4-.5-.5-1.8 0-3 .2-.2 3-5.1 5.1-8.8.5-.7 2.8-5.3 3.2-6.5.5-1.2.5-1.6.5-2.5.7-.2 1.8-.2 2.5 0 .9.2 1.2 1.2 1.2 1.6.2 1.4.2 4.2.5 6.9.2 3.2 1.4 6.9 1.4 6.9s3.5-8.3 8.3-15.9c.7-.9 1.8-3.2 2.8-4.2.7-.9 1.8-1.4 3-.5.1.6.3 1.2.1 1.7"/></svg>