<svg xmlns="http://www.w3.org/2000/svg" viewBox="0 0 158.38 158.38"><defs><style>.cls-1{fill:#54c9f0}.cls-2{fill:#212120}</style></defs><title>Asset 11icon-hospital-</title><g id="Layer_2" data-name="Layer 2"><g id="Layer_1-2" data-name="Layer 1"><path class="cls-1" d="M96.42 47.43v22.41H74.2V47.43a3.31 3.31 0 0 0-3.31-3.31H58.81a3.31 3.31 0 0 0-3.31 3.31V111a3.31 3.31 0 0 0 3.31 3.31h12.08A3.31 3.31 0 0 0 74.2 111V88.55h22.22V111a3.31 3.31 0 0 0 3.31 3.31h12.08a3.31 3.31 0 0 0 3.31-3.31V47.43a3.31 3.31 0 0 0-3.31-3.31H99.73a3.31 3.31 0 0 0-3.31 3.31z"/><path class="cls-2" d="M146.51 158.38H11.88A11.89 11.89 0 0 1 0 146.51V11.88A11.89 11.89 0 0 1 11.88 0h134.63a11.89 11.89 0 0 1 11.88 11.88v134.63a11.89 11.89 0 0 1-11.88 11.87zM11.88 5.4a6.49 6.49 0 0 0-6.48 6.48v134.63a6.49 6.49 0 0 0 6.48 6.49h134.63a6.49 6.49 0 0 0 6.48-6.48V11.88a6.49 6.49 0 0 0-6.48-6.48z"/><path class="cls-2" d="M17.65 50.8a5.78 5.78 0 0 1-5.78-5.8V17.63a5.77 5.77 0 0 1 5.76-5.76H45a5.76 5.76 0 0 1 4.07 9.83L21.7 49.11a5.69 5.69 0 0 1-4.05 1.69zm0-33.53a.36.36 0 0 0-.36.36V45a.37.37 0 0 0 .38.37.31.31 0 0 0 .23-.11l27.39-27.37a.36.36 0 0 0-.26-.62zM140.73 50.8a5.7 5.7 0 0 1-4-1.69L109.27 21.7a5.76 5.76 0 0 1 4.07-9.83h27.41a5.77 5.77 0 0 1 5.76 5.76V45a5.68 5.68 0 0 1-1.81 4.2 5.8 5.8 0 0 1-3.97 1.6zm-27.38-33.53a.36.36 0 0 0-.26.62l27.41 27.4a.31.31 0 0 0 .23.11.44.44 0 0 0 .29-.11.31.31 0 0 0 .09-.25V17.63a.36.36 0 0 0-.36-.36zM45 146.51H17.63a5.77 5.77 0 0 1-5.76-5.76v-27.4a5.78 5.78 0 0 1 5.78-5.76 5.69 5.69 0 0 1 4 1.69l27.41 27.41a5.76 5.76 0 0 1-4.06 9.82zM17.65 113a.37.37 0 0 0-.38.37v27.41a.36.36 0 0 0 .36.36H45a.36.36 0 0 0 .26-.62l-27.37-27.43a.31.31 0 0 0-.24-.09zm123.1 33.51h-27.4a5.76 5.76 0 0 1-4.07-9.83l27.41-27.41a5.69 5.69 0 0 1 4-1.69 5.78 5.78 0 0 1 5.78 5.77v27.41a5.77 5.77 0 0 1-5.72 5.75zm0-33.53a.31.31 0 0 0-.23.11l-27.43 27.41a.36.36 0 0 0 .26.62h27.41a.36.36 0 0 0 .36-.36v-27.41a.37.37 0 0 0-.39-.35zM105.7 117H93.62a6 6 0 0 1-6-6V91.24H70.78V111a6 6 0 0 1-6 6H52.69a6 6 0 0 1-6-6V47.43a6 6 0 0 1 6-6h12.08a6 6 0 0 1 6 6v19.71H87.6V47.43a6 6 0 0 1 6-6h12.1a6 6 0 0 1 6 6V111a6 6 0 0 1-6 6zM65.38 85.85H93V111a.62.62 0 0 0 .62.62h12.08a.62.62 0 0 0 .62-.62V47.43a.62.62 0 0 0-.62-.62H93.62a.62.62 0 0 0-.62.62v25.11H65.38V47.43a.62.62 0 0 0-.62-.62H52.69a.62.62 0 0 0-.62.62V111a.62.62 0 0 0 .62.62h12.08a.62.62 0 0 0 .62-.62z"/></g></g></svg>