<svg xmlns="http://www.w3.org/2000/svg" viewBox="0 0 158.71 158.71"><defs><style>.cls-1{fill:#54c9f0}.cls-2{fill:#212120}</style></defs><title>Asset 12icon-hospital-</title><g id="Layer_2" data-name="Layer 2"><g id="Layer_1-2" data-name="Layer 1"><path class="cls-1" transform="rotate(45 74.904 94.626)" d="M44.32 42.34h61.18V146.9H44.32z"/><path class="cls-2" d="M31 146.11l-18.4-18.45L25.22 115l18.44 18.44zm-10.76-18.45L31 138.48l5-5-10.78-10.8z"/><path class="cls-2" transform="rotate(-45 12.823 145.898)" d="M-2.61 143.19h30.87v5.4H-2.61z"/><path class="cls-2" d="M113.78 63.37L95.34 44.93 122 18.3l18.44 18.44zM103 44.93l10.81 10.81 19-19L122 25.93z"/><path class="cls-2" d="M147.09 51l-39.42-39.38L119.29 0l39.42 39.42zM115.3 11.62l31.79 31.79 4-4-31.8-31.78zm-61.14 140L7.09 104.55 84.84 26.8l47.07 47.07zm-39.44-47.07L54.16 144l70.12-70.12-39.44-39.45z"/><path class="cls-2" transform="rotate(-45 82.789 47.558)" d="M80.09 37.03h5.4v21.08h-5.4z"/><path class="cls-2" transform="rotate(-45 65.242 57.656)" d="M62.55 52.38h5.4v10.54h-5.4z"/><path class="cls-2" transform="rotate(-45 37.623 85.276)" d="M34.93 80.01h5.4v10.54h-5.4z"/><path class="cls-2" transform="rotate(-45 27.857 102.501)" d="M25.16 91.96h5.4v21.08h-5.4z"/><path class="cls-2" transform="rotate(-45 55.165 75.19)" d="M52.47 64.65h5.4v21.08h-5.4z"/></g></g></svg>