<svg xmlns="http://www.w3.org/2000/svg" viewBox="0 0 158.37 158.38"><defs><style>.cls-1{fill:#54c9f0}.cls-2{fill:#212120}</style></defs><title>Asset 6icon-hospital-</title><g id="Layer_2" data-name="Layer 2"><g id="Layer_1-2" data-name="Layer 1"><rect class="cls-1" x="59.7" y="48.34" width="47.65" height="70.4" rx="6.14" ry="6.14" transform="rotate(45 83.53 83.53)"/><path class="cls-2" d="M51 158.38a11.83 11.83 0 0 1-8.42-3.49l-39.1-39.04a11.92 11.92 0 0 1 0-16.85L99 3.49a11.91 11.91 0 0 1 16.84 0l39.05 39.05a11.92 11.92 0 0 1 0 16.84L59.37 154.9a11.83 11.83 0 0 1-8.37 3.48zm56.47-153a6.47 6.47 0 0 0-4.6 1.91L7.3 102.82a6.51 6.51 0 0 0 0 9.21l39.05 39.05a6.51 6.51 0 0 0 9.21 0l95.52-95.52a6.51 6.51 0 0 0 0-9.21L112 7.3a6.47 6.47 0 0 0-4.58-1.9z"/><path class="cls-2" d="M71.15 121.08a8.78 8.78 0 0 1-6.25-2.59l-25-25a8.84 8.84 0 0 1 0-12.5L81 39.89a8.84 8.84 0 0 1 12.5 0l25 25a8.84 8.84 0 0 1 0 12.5L77.4 118.5a8.78 8.78 0 0 1-6.25 2.58zM87.23 42.7a3.42 3.42 0 0 0-2.43 1L43.7 84.8a3.44 3.44 0 0 0 0 4.87l25 25a3.52 3.52 0 0 0 4.87 0l41.09-41.1a3.44 3.44 0 0 0 0-4.87l-25-25a3.42 3.42 0 0 0-2.43-1z"/><path d="M82.51 59.71c4.18 0 4.18-6.48 0-6.48s-4.18 6.48 0 6.48zM69.49 72.73c4.18 0 4.18-6.48 0-6.48s-4.18 6.48 0 6.48zM56.46 85.75c4.18 0 4.18-6.48 0-6.48s-4.18 6.48 0 6.48zm35.75-16.34c4.18 0 4.18-6.48 0-6.48s-4.18 6.48 0 6.48zM79.19 82.43c4.18 0 4.18-6.48 0-6.48s-4.18 6.48 0 6.48zM66.16 95.46c4.18 0 4.18-6.48 0-6.48s-4.18 6.48 0 6.48zm35.75-16.35c4.18 0 4.18-6.48 0-6.48s-4.18 6.48 0 6.48zM88.89 92.13c4.18 0 4.18-6.48 0-6.48s-4.18 6.48 0 6.48zm-13.03 13.03c4.18 0 4.18-6.48 0-6.48s-4.18 6.48 0 6.48z"/></g></g></svg>