<svg xmlns="http://www.w3.org/2000/svg" viewBox="0 0 158.38 140.16"><defs><style>.cls-1{fill:#54c9f0}.cls-2{fill:#212120}</style></defs><title>Asset 8icon-hospital-</title><g id="Layer_2" data-name="Layer 2"><g id="Layer_1-2" data-name="Layer 1"><rect class="cls-1" x="22.32" y="17.81" width="125.98" height="82.81" rx="2.87" ry="2.87"/><path class="cls-2" d="M146.51 129.75H11.88A11.89 11.89 0 0 1 0 117.87v-106A11.89 11.89 0 0 1 11.88 0h134.63a11.89 11.89 0 0 1 11.88 11.88v106a11.89 11.89 0 0 1-11.88 11.87zM11.88 5.4a6.49 6.49 0 0 0-6.48 6.48v106a6.49 6.49 0 0 0 6.48 6.48h134.63a6.49 6.49 0 0 0 6.48-6.48v-106a6.49 6.49 0 0 0-6.48-6.48z"/><path class="cls-2" d="M139.31 103.32H19.07a5.57 5.57 0 0 1-5.57-5.57V20.68a5.57 5.57 0 0 1 5.57-5.57h120.24a5.57 5.57 0 0 1 5.57 5.57v77.07a5.57 5.57 0 0 1-5.57 5.57zM19.07 20.51a.17.17 0 0 0-.17.17v77.07a.17.17 0 0 0 .17.17h120.24a.17.17 0 0 0 .17-.17V20.68a.17.17 0 0 0-.17-.17z"/><path class="cls-2" d="M95.21 85.72h-.33A4.17 4.17 0 0 1 91 82.23l-7-39.41-6.17 27a4.23 4.23 0 0 1-8.14.37l-6.88-21L56 59.75a4.21 4.21 0 0 1-3.55 1.94H16.2v-5.4h35.62l7.82-12.14a4.23 4.23 0 0 1 7.57 1l6.34 19.36L80.06 36a4.14 4.14 0 0 1 4.23-3.29 4.19 4.19 0 0 1 4.06 3.49l7.19 40.55 6.65-20a4.22 4.22 0 0 1 4-2.89h36v5.4H107l-7.8 23.57a4.17 4.17 0 0 1-3.99 2.89zm-56.14 54.44H19.26a5.76 5.76 0 0 1-5.76-5.76v-10.05h31.33v10.05a5.76 5.76 0 0 1-5.76 5.76zM18.9 129.75v4.66a.36.36 0 0 0 .36.36h19.81a.36.36 0 0 0 .36-.36v-4.66zm120.22 10.41h-19.81a5.76 5.76 0 0 1-5.76-5.76v-10.05h31.33v10.05a5.76 5.76 0 0 1-5.76 5.76zm-20.17-10.42v4.66a.36.36 0 0 0 .36.36h19.81a.36.36 0 0 0 .36-.36v-4.66z"/></g></g></svg>