<svg xmlns="http://www.w3.org/2000/svg" viewBox="0 0 144.28 158.38"><defs><style>.cls-1{fill:#54c9f0}.cls-2{fill:#212120}</style></defs><title>Asset 7icon-hospital-</title><g id="Layer_2" data-name="Layer 2"><g id="Layer_1-2" data-name="Layer 1"><rect class="cls-1" x="30.51" y="13.65" width="105.52" height="131.07" rx="3.06" ry="3.06"/><path class="cls-2" d="M27.95 39.42H8.39a8.39 8.39 0 0 1 0-16.78h19.56a8.39 8.39 0 0 1 0 16.78zM8.39 28a3 3 0 1 0 0 6h19.56a3 3 0 0 0 0-6zm19.56 53.89H8.39a8.39 8.39 0 1 1 0-16.78h19.56a8.39 8.39 0 1 1 0 16.78zM8.39 70.5a3 3 0 1 0 0 6h19.56a3 3 0 1 0 0-6zm19.56 53.86H8.39a8.39 8.39 0 0 1 0-16.78h19.56a8.39 8.39 0 0 1 0 16.78zM8.39 113a3 3 0 1 0 0 6h19.56a3 3 0 0 0 0-6z"/><path class="cls-2" d="M126.85 147.43h-99.4a5.76 5.76 0 0 1-5.76-5.76V119h6.26a3 3 0 0 0 0-6h-6.26V76.49h6.26a3 3 0 1 0 0-6h-6.26V34h6.26a3 3 0 0 0 0-6h-6.26V16.71A5.76 5.76 0 0 1 27.45 11h99.41a5.76 5.76 0 0 1 5.76 5.76v125a5.76 5.76 0 0 1-5.77 5.67zm-99.76-23.07v17.3a.36.36 0 0 0 .36.36h99.41a.36.36 0 0 0 .36-.36v-125a.36.36 0 0 0-.36-.36H27.45a.36.36 0 0 0-.36.36v5.92h.86a8.39 8.39 0 0 1 0 16.78h-.86v25.75h.86a8.39 8.39 0 1 1 0 16.78h-.86v25.69h.86a8.39 8.39 0 0 1 0 16.78z"/><path class="cls-2" d="M132.4 158.38H21.9A11.89 11.89 0 0 1 10 146.51V119h17.95a3 3 0 0 0 0-6H10V76.49h17.95a3 3 0 1 0 0-6H10V34h17.95a3 3 0 0 0 0-6H10V11.88A11.89 11.89 0 0 1 21.9 0h110.5a11.89 11.89 0 0 1 11.88 11.88v134.63a11.89 11.89 0 0 1-11.88 11.87zm-117-34v22.14a6.49 6.49 0 0 0 6.5 6.48h110.5a6.49 6.49 0 0 0 6.48-6.48V11.88a6.49 6.49 0 0 0-6.48-6.48H21.9a6.49 6.49 0 0 0-6.48 6.48v10.75h12.53a8.39 8.39 0 0 1 0 16.78H15.42v25.7h12.53a8.39 8.39 0 1 1 0 16.78H15.42v25.69h12.53a8.39 8.39 0 0 1 0 16.78z"/><path class="cls-2" d="M49.83 34.4h65.84v5.4H49.83zm0 21.04h65.84v5.4H49.83zm0 21.05h65.84v5.4H49.83zm0 21.05h65.84v5.4H49.83zm0 21.05h65.84v5.4H49.83z"/></g></g></svg>