<svg xmlns="http://www.w3.org/2000/svg" viewBox="0 0 116.94 158.38"><defs><style>.cls-1{fill:#54c9f0}.cls-2{fill:#212120}</style></defs><title>Asset 10icon-hospital-</title><g id="Layer_2" data-name="Layer 2"><g id="Layer_1-2" data-name="Layer 1"><rect class="cls-1" x="21.41" y="73.42" width="86.35" height="65.48" rx="3.06" ry="3.06"/><path class="cls-2" d="M99.3 30.78H17.63A5.76 5.76 0 0 1 11.87 25V5.76A5.77 5.77 0 0 1 17.63 0H99.3a5.77 5.77 0 0 1 5.76 5.76V25a5.76 5.76 0 0 1-5.76 5.78zM17.63 5.4a.36.36 0 0 0-.36.36V25a.36.36 0 0 0 .36.36H99.3a.36.36 0 0 0 .36-.36V5.76a.36.36 0 0 0-.36-.36z"/><path class="cls-2" d="M98.94 158.38H18a18 18 0 0 1-18-18V68.8a18 18 0 0 1 6.08-13.49l14.07-12.42V25.38h76.64v17.51l14.06 12.42a18 18 0 0 1 6.08 13.49v71.58a18 18 0 0 1-17.99 18zM25.55 30.78v14.55l-15.89 14A12.61 12.61 0 0 0 5.4 68.8v71.58A12.62 12.62 0 0 0 18 153h80.94a12.62 12.62 0 0 0 12.6-12.6V68.8a12.61 12.61 0 0 0-4.26-9.44l-15.89-14V30.78z"/><path class="cls-2" d="M98.58 141.6H18.35a5.76 5.76 0 0 1-5.76-5.76V76.48a5.77 5.77 0 0 1 5.76-5.76h80.23a5.77 5.77 0 0 1 5.76 5.76v59.36a5.77 5.77 0 0 1-5.76 5.76zM18.35 76.12a.36.36 0 0 0-.36.36v59.36a.36.36 0 0 0 .36.36h80.23a.36.36 0 0 0 .36-.36V76.48a.36.36 0 0 0-.36-.36z"/><path class="cls-2" d="M58.47 125a18.89 18.89 0 1 1 13.36-5.53A18.76 18.76 0 0 1 58.47 125zm0-32.38a13.49 13.49 0 1 0 9.54 4 13.4 13.4 0 0 0-9.54-3.95z"/><path class="cls-2" transform="rotate(-45 58.473 106.16)" d="M42.28 103.46h32.38v5.4H42.28z"/></g></g></svg>